<svg width="245" height="254" viewBox="0 0 245 254" fill="none" xmlns="http://www.w3.org/2000/svg">
<path d="M90 240.956C87.2386 240.956 85 243.195 85 245.956C85 248.717 87.2386 250.956 90 250.956V245.956V240.956ZM85 163.456C85 166.217 87.2386 168.456 90 168.456C92.7614 168.456 95 166.217 95 163.456H90H85ZM155.385 82.3791L157.308 86.9945L166.538 83.1484L164.615 78.533L160 80.4561L155.385 82.3791ZM192.477 5.93462L192.956 0.957572L183.002 0.000447273L182.523 4.97749L187.5 5.45605L192.477 5.93462ZM113.885 84.3791L115.808 88.9945L125.038 85.1484L123.115 80.533L118.5 82.4561L113.885 84.3791ZM150.977 7.93462L151.456 2.95757L141.502 2.00045L141.023 6.97749L146 7.45605L150.977 7.93462ZM158 248.956V253.956H163V248.956H158ZM5 248.956H0L-9.53674e-07 253.956H5L5 248.956ZM81.5 248.956V253.956V253.956V248.956ZM120.83 187.25C121.544 184.583 119.961 181.841 117.294 181.126C114.627 180.412 111.885 181.995 111.17 184.662L116 185.956L120.83 187.25ZM95.4953 243.162C94.7806 245.829 96.3635 248.571 99.0309 249.286C101.698 250 104.44 248.417 105.155 245.75L100.325 244.456L95.4953 243.162ZM53.3296 184.662C52.6149 181.995 49.8732 180.412 47.2059 181.126C44.5386 181.841 42.9557 184.583 43.6704 187.25L48.5 185.956L53.3296 184.662ZM59.3454 245.75C60.0601 248.417 62.8018 250 65.4691 249.286C68.1365 248.571 69.7194 245.829 69.0047 243.162L64.175 244.456L59.3454 245.75ZM90 245.956V250.956H180.5V245.956V240.956H90V245.956ZM180.5 100.956V95.9561H103V100.956V105.956H180.5V100.956ZM90 113.956H85V163.456H90H95V113.956H90ZM193.5 125.956H198.5V113.956H193.5H188.5V125.956H193.5ZM193.5 125.956V130.956H230V125.956V120.956H193.5V125.956ZM240 135.956H235V186.456H240H245V135.956H240ZM193.5 232.956H198.5V196.456H193.5H188.5V232.956H193.5ZM193.5 196.456H198.5V125.956H193.5H188.5V196.456H193.5ZM230 196.456V191.456H193.5V196.456V201.456H230V196.456ZM160 80.4561L164.615 78.533C162.688 73.9083 162.828 69.1067 164.499 63.7599C166.207 58.2934 169.419 52.5702 173.302 46.356C177.063 40.3394 181.562 33.7081 185.132 27.1624C188.737 20.5522 191.757 13.4181 192.477 5.93462L187.5 5.45605L182.523 4.97749C181.993 10.494 179.701 16.2349 176.353 22.3747C172.969 28.579 168.875 34.5727 164.823 41.0561C160.894 47.3419 157.074 53.9937 154.954 60.7772C152.797 67.6804 152.312 75.0038 155.385 82.3791L160 80.4561ZM118.5 82.4561L123.115 80.533C121.188 75.9083 121.328 71.1067 122.999 65.7599C124.707 60.2934 127.919 54.5702 131.802 48.356C135.563 42.3394 140.062 35.7081 143.632 29.1624C147.237 22.5522 150.257 15.4181 150.977 7.93462L146 7.45605L141.023 6.97749C140.493 12.494 138.201 18.2349 134.853 24.3747C131.469 30.579 127.375 36.5727 123.323 43.0561C119.394 49.3419 115.574 55.9937 113.454 62.7772C111.297 69.6805 110.812 77.0038 113.885 84.3791L118.5 82.4561ZM158 248.956H163C163 227.341 154.413 206.611 139.129 191.327L135.594 194.862L132.058 198.398C145.467 211.807 153 229.993 153 248.956H158ZM135.594 194.862L139.129 191.327C123.845 176.043 103.115 167.456 81.5 167.456V172.456V177.456C100.463 177.456 118.649 184.989 132.058 198.398L135.594 194.862ZM81.5 172.456V167.456C59.8849 167.456 39.155 176.043 23.8708 191.327L27.4063 194.862L30.9419 198.398C44.3507 184.989 62.537 177.456 81.5 177.456V172.456ZM27.4063 194.862L23.8708 191.327C8.58659 206.611 3.33786e-06 227.341 0 248.956H5H10C10 229.993 17.533 211.807 30.9419 198.398L27.4063 194.862ZM5 248.956L5 253.956L81.5 253.956V248.956V243.956L5 243.956L5 248.956ZM81.5 248.956V253.956H158V248.956V243.956H81.5V248.956ZM116 185.956L111.17 184.662L95.4953 243.162L100.325 244.456L105.155 245.75L120.83 187.25L116 185.956ZM48.5 185.956L43.6704 187.25L59.3454 245.75L64.175 244.456L69.0047 243.162L53.3296 184.662L48.5 185.956ZM103 100.956V95.9561C93.0589 95.9561 85 104.015 85 113.956H90H95C95 109.538 98.5817 105.956 103 105.956V100.956ZM240 186.456H235C235 189.217 232.761 191.456 230 191.456V196.456V201.456C238.284 201.456 245 194.74 245 186.456H240ZM180.5 100.956V105.956C184.918 105.956 188.5 109.538 188.5 113.956H193.5H198.5C198.5 104.015 190.441 95.9561 180.5 95.9561V100.956ZM230 125.956V130.956C232.761 130.956 235 133.195 235 135.956H240H245C245 127.672 238.284 120.956 230 120.956V125.956ZM180.5 245.956V250.956C190.441 250.956 198.5 242.897 198.5 232.956H193.5H188.5C188.5 237.374 184.918 240.956 180.5 240.956V245.956Z" fill="white"/>
</svg>
