<svg width="210" height="223" viewBox="0 0 210 223" fill="none" xmlns="http://www.w3.org/2000/svg">
<path d="M185.874 92.7631C184.085 92.8346 182.772 92.9724 181.462 92.9233C175.175 92.6599 168.878 92.4316 162.604 91.9826C160.842 91.8529 159.132 91.3304 157.598 90.4535C151.406 86.8258 145.302 83.0378 139.224 79.2115C138.205 78.5115 137.337 77.6142 136.671 76.5727C132.755 70.8658 128.919 65.1066 125.043 59.3684C124.738 58.9712 124.314 58.6816 123.833 58.5415C124.745 77.6381 125.093 96.6257 119.93 115.184L124.125 117.311C121.897 125.484 123.927 130.969 130.615 134.426C133.586 135.959 137.008 136.738 139.976 135.101C142.563 133.676 144.597 131.175 147.199 128.862C151.977 133.213 157.147 137.906 162.292 142.637C162.746 143.068 163.067 143.62 163.216 144.228C165.197 152.599 167.139 160.992 169.239 170.054C165.241 168.098 161.841 166.214 158.276 164.735C148.199 160.529 140.279 153.266 132.069 146.522C129.233 144.185 127.929 139.892 126.171 136.372C124.092 132.197 122.279 127.89 120.335 123.639C120.076 123.173 119.79 122.723 119.478 122.29C119.246 122.858 119.048 123.438 118.885 124.03C116.399 137.108 113.943 150.185 111.517 163.26C111.428 164.412 111.61 165.569 112.05 166.638C113.603 171.421 115.357 176.142 116.803 180.954C117.308 182.929 117.562 184.959 117.559 186.998C117.611 188.331 117.017 189.675 117.075 191.004C117.594 203.37 109.832 211.776 102.663 221.144C101.22 217.243 100.121 213.574 98.5362 210.124C94.5803 201.535 95.6922 192.537 96.0751 183.586C96.1911 182.789 96.4811 182.027 96.9244 181.354C98.9913 177.666 100.933 173.9 103.245 170.374C105.376 167.285 106.742 163.734 107.232 160.014C107.759 155.644 108.649 151.315 109.345 146.962C109.527 146.048 109.418 145.101 109.033 144.253C107.388 146.444 105.525 148.509 104.159 150.872C101.129 156.096 96.8059 159.571 91.5155 162.474C81.7064 167.823 72.7613 170.423 61.0788 170.12C61.2301 169.535 61.4307 168.964 61.6785 168.412C64.1814 163.844 66.8459 159.354 69.2018 154.715C71.5578 150.076 75.6349 147.787 79.8576 145.256C88.6129 140.01 98.2928 139.784 107.968 139.23L110.535 139.093C113.864 112.353 119.674 85.9491 115.263 58.3066C114.502 59.8162 113.9 60.9353 113.351 62.0872C112.802 63.2391 112.349 64.3722 112.117 64.8833C108.362 64.7951 104.66 63.8814 101.65 64.9141C98.5348 66.0909 95.9154 68.298 94.2271 71.1689C90.9528 77.162 92.5471 81.6283 98.5007 86.2606C95.8193 88.9016 92.9794 91.3608 90.5573 94.1705C86.9171 98.3996 82.2301 99.9707 76.9427 100.871C70.9374 101.893 65.0228 103.462 58.2143 104.983C58.237 103.353 57.8966 101.956 58.3282 100.867C61.1168 93.9462 64.0185 87.0761 67.0332 80.257C67.7251 78.725 68.759 77.372 70.0555 76.302C75.444 71.9494 80.862 67.6111 86.4798 63.5794C89.5409 61.3827 92.6782 59.5236 97.1033 61.0768C102.53 62.9723 108.513 59.461 110.779 54.0613C111.138 53.2127 111.746 52.0059 112.436 51.8607C115.162 51.2596 115.058 49.4774 114.867 47.3665C113.629 34.0341 112.428 20.6977 111.264 7.35736C111.197 6.66204 111.199 5.95995 111.175 5.17647L121.939 5.25693C122.129 11.3423 122.314 17.3388 122.509 23.3365C122.806 32.5002 123.072 41.6702 123.457 50.8399C123.491 51.6247 124.346 52.5412 125.057 53.0802C126.766 54.5162 128.641 55.7428 130.642 56.7338C132.158 57.4077 134.243 57.8167 135.671 57.2774C143.583 54.2956 150.803 55.8393 157.766 59.9877C158.141 60.2324 158.537 60.4452 158.948 60.6238C166.724 63.6283 171.124 69.9387 175.183 76.7617C178.409 82.052 182.098 87.0586 185.874 92.7631Z" fill="white" fill-opacity="0.66"/>
<path d="M129.115 91.8445C132.421 89.2008 136.148 87.8911 140.01 88.3209C147.285 89.1589 151.647 97.9044 146.811 103.988C143.775 107.806 140.304 111.084 134.743 110.877C130.141 110.743 126.889 108.643 124.578 103.44C123.2 100.328 124.22 96.4428 127.231 93.4645C127.863 92.8383 128.588 92.297 129.115 91.8445ZM142.299 98.381C144.117 98.6098 145.71 99.2884 146.252 98.7964C147.931 97.2698 146.927 95.3351 145.825 93.9914C145.254 93.252 143.715 93.2878 142.616 92.9746C142.52 94.6063 142.43 96.2336 142.299 98.381Z" fill="white" fill-opacity="0.56"/>
<path d="M111.861 68.6578C115.045 71.4466 116.991 74.8849 117.248 78.7625C117.704 86.071 109.863 91.9053 103.023 88.2158C98.7306 85.8998 94.8926 83.0604 94.1164 77.5499C93.4387 72.9955 94.9326 69.4249 99.648 66.2337C102.468 64.3287 106.472 64.6493 109.934 67.0886C110.662 67.6006 111.323 68.2192 111.861 68.6578ZM107.748 82.7872C107.843 84.6166 107.455 86.3043 108.035 86.7511C109.834 88.1354 111.561 86.8058 112.69 85.4848C113.317 84.7928 113.011 83.2838 113.126 82.1467C111.503 82.3399 109.885 82.5379 107.748 82.7872Z" fill="white" fill-opacity="0.56"/>
<path d="M135.415 112.838C139.439 113.278 142.834 115.003 145.131 118.107C149.439 123.973 146.389 133.559 138.987 134.547C134.342 135.167 129.773 135.076 126.184 130.911C123.189 127.49 122.442 123.598 124.448 118.1C125.65 114.814 128.989 112.691 133.044 112.671C133.896 112.666 134.752 112.791 135.415 112.838ZM139.792 127.164C140.855 128.644 141.46 130.293 142.16 130.322C144.329 130.41 144.978 128.261 145.157 126.477C145.279 125.521 144.222 124.437 143.699 123.413C142.52 124.545 141.347 125.678 139.792 127.164Z" fill="#FFF2F2" fill-opacity="0.72"/>
</svg>
