<svg width="104" height="69" viewBox="0 0 104 69" fill="none" xmlns="http://www.w3.org/2000/svg">
<g clip-path="url(#clip0_1043_2635)">
<path d="M53.8084 24.696C52.8838 20.7 51.8693 16.6853 51.0658 12.6304C50.8083 11.3335 50.7586 9.77293 51.2488 8.59398C52.1982 6.29811 52.3688 4.01776 52.2106 1.61951C52.1765 1.09209 52.5426 0.539838 52.7225 0C53.2189 0.254406 53.8642 0.387815 54.19 0.781835C57.0226 4.22253 58.819 7.97347 57.7114 12.6304C57.5066 13.4866 57.8324 14.4701 57.913 15.3947C58.1922 18.5841 58.4746 21.7704 58.76 25.0218H61.1582C61.636 21.1157 62.0735 17.1817 62.6288 13.2633C62.7685 12.2705 63.209 11.2932 63.6434 10.3717C64.8223 7.85558 66.0447 5.35495 67.3198 2.88534C67.5308 2.47581 68.0955 2.24622 68.4988 1.93597C68.6912 2.42307 69.1503 2.99083 69.0355 3.38485C68.3251 5.7862 68.7191 8.10378 69.3644 10.4121C70.1835 13.3501 68.8277 16.009 68.3064 18.7609C67.8473 21.1871 67.0406 23.545 66.3612 26.0363C66.7304 26.1666 67.1523 26.3 67.5618 26.4583C69.5692 27.2277 70.1276 28.72 69.2341 30.6622C68.837 31.5278 68.6043 32.4678 68.263 33.4731C71.0305 34.3294 71.6758 36.2126 71.6851 38.6946C71.6913 40.9005 72.1815 43.1033 72.3056 45.3154C72.3428 45.9576 71.8526 46.6308 71.6013 47.2886C71.1577 46.7705 70.4038 46.2989 70.32 45.7311C69.9508 43.1777 69.7491 40.6027 69.5319 38.0307C69.3086 35.4339 68.4988 34.9499 66.0075 35.7379C59.7466 37.7204 53.4826 37.4877 47.259 35.5393C45.2951 34.925 44.5722 35.1577 44.2433 37.2457C43.7128 40.6089 43.4491 44.0123 43.0551 47.3972C42.9465 48.3403 42.7727 49.2742 42.63 50.2143C42.4656 50.2267 42.3011 50.2391 42.1367 50.2546C41.935 49.6558 41.7303 49.0601 41.479 48.3186C41.3176 48.5389 41.1998 48.6289 41.178 48.7375C40.3093 52.9165 37.7373 55.321 33.5551 56.0222C32.4507 56.2083 31.917 56.621 31.8984 57.9147C31.8674 60.3719 30.4992 62.2241 28.2467 63.009C25.8299 63.8498 23.292 64.5324 20.7542 64.7806C16.1686 65.2335 11.5552 65.125 7.04413 63.9708C5.85277 63.6668 4.67691 63.2169 3.57552 62.6678C1.36653 61.5695 0.0324427 59.7421 0.0107251 57.2539C-0.0327102 52.1409 0.0665704 47.028 0.116211 41.9119C0.131723 40.5158 0.243414 39.1228 0.218594 37.7266C0.184466 35.7969 0.972506 34.2859 2.77197 33.7151C5.50528 32.8464 8.29445 31.9621 11.127 31.6271C16.755 30.96 22.3799 31.2672 27.8465 32.986C28.6252 33.2311 29.3978 33.5817 30.0896 34.016C31.7681 35.0678 32.0628 36.557 31.0669 38.2696C30.8963 38.5612 30.9087 38.9614 30.8373 39.312C31.1073 39.3616 31.4175 39.5261 31.644 39.4454C35.4322 38.0927 40.148 40.6275 41.0384 45.7497C41.1067 46.1438 41.1718 46.5409 41.5503 46.9318C41.631 44.5987 41.6651 42.2625 41.8141 39.9356C41.8978 38.6077 42.0343 37.2519 42.4035 35.983C42.6145 35.2508 43.1978 34.4069 43.8493 34.0656C45.3478 33.2807 45.3106 32.1545 44.7149 31.0004C43.7066 29.0458 43.7841 27.4387 45.8349 26.238C44.476 23.5326 43.1792 20.9544 41.8823 18.3824C41.7892 18.1994 41.7055 17.976 41.5503 17.8643C38.8946 15.978 38.8232 13.3501 39.3538 10.4989C39.5213 9.59609 39.4468 8.64672 39.5058 7.72217C39.5709 6.67662 40.148 6.21124 41.0322 6.83174C42.841 8.10378 44.6342 9.42235 46.2817 10.8929C47.4327 11.9199 47.9912 13.3222 47.6437 14.9696C47.5692 15.3264 47.7243 15.767 47.8702 16.13C48.8195 18.5282 49.9116 20.8737 50.7152 23.3185C51.2085 24.8139 51.9376 25.3103 53.8115 24.7022L53.8084 24.696ZM1.63334 38.6729C1.85672 44.5801 2.09251 50.5524 2.30038 56.5279C2.38415 58.9013 3.61895 60.465 5.79072 61.1196C7.95317 61.7711 10.1839 62.3575 12.4239 62.5654C17.0684 62.9966 21.7283 63.0121 26.2239 61.4361C28.768 60.5456 29.7297 59.224 29.7391 56.5992C29.7639 50.7231 29.7453 44.8469 29.7453 39.1196C20.6549 41.6327 11.2574 41.9864 1.63334 38.6729ZM45.8659 28.7324C49.7255 31.4254 64.4624 31.5402 67.5494 28.3539C67.0189 27.9506 66.5008 27.5566 66.0261 27.1967C65.4863 27.8172 65.0023 28.3725 64.5183 28.9248C64.3694 28.8379 64.2204 28.751 64.0715 28.6673C64.1739 27.9723 64.2111 27.2587 64.388 26.5824C65.1481 23.635 65.9144 20.6876 66.749 17.7619C67.0654 16.6481 66.9289 16.0772 65.6507 15.8042C64.2328 15.5033 64.2484 16.4154 64.0901 17.2748C63.693 19.4062 63.3114 21.5408 62.9019 23.6691C62.6195 25.1366 62.3651 26.6134 61.9711 28.053C61.8718 28.4191 61.2917 28.6549 60.9318 28.9496C60.7735 28.5556 60.5191 28.1709 60.4788 27.7644C60.4292 27.2773 60.5626 26.7716 60.6246 26.1977C60.0258 26.1573 59.5356 26.1263 58.9369 26.086C58.9865 26.7096 59.1509 27.2432 59.0299 27.7055C58.9058 28.1833 58.5056 28.5897 58.2233 29.0303C57.9223 28.6269 57.4197 28.2484 57.3608 27.811C57.1498 26.2256 57.0815 24.6216 56.9698 23.0238C56.7496 19.8933 56.5324 16.7629 56.3028 13.4432C55.3286 13.5208 54.4971 13.5859 53.5509 13.6604C53.6409 14.3709 53.6998 14.8735 53.7712 15.3761C54.3079 19.0557 54.8756 22.729 55.3596 26.4148C55.4682 27.2401 55.2945 28.1026 55.2542 28.9496C55.0122 28.9775 54.7702 29.0054 54.5251 29.0334C54.1621 28.0375 53.8022 27.0415 53.4299 26.0146C52.8869 26.0705 52.344 26.1232 51.9034 26.1666C52.0555 27.026 52.192 27.7893 52.3285 28.5525C52.0989 28.6176 51.8693 28.6828 51.6428 28.751C49.1143 25.0156 48.348 20.4425 46.1545 16.3317C45.233 16.7071 44.355 17.0607 43.4181 17.4424C43.6228 17.9543 43.7252 18.2955 43.8896 18.6027C45.444 21.516 47.0263 24.4168 48.5434 27.3487C48.7296 27.7055 48.5744 28.2391 48.5775 28.689C48.1742 28.5804 47.7492 28.5277 47.38 28.3508C47.0852 28.2112 46.8618 27.9227 46.5206 27.6279C46.26 28.0716 46.0645 28.4036 45.8752 28.7324H45.8659ZM29.1589 36.7121C29.1527 36.4577 29.1434 36.2064 29.1372 35.952C28.2157 35.5642 27.3253 35.0647 26.3697 34.804C21.0241 33.349 15.5699 33.2187 10.1063 33.805C8.2293 34.0067 6.37089 34.5372 4.55281 35.0771C3.96023 35.2539 3.51657 35.9334 3.00466 36.3832C3.50726 36.7803 3.96023 37.4102 4.52179 37.5343C6.67804 38.0058 8.85911 38.4991 11.0526 38.645C16.1004 38.9831 21.1637 39.1072 26.137 37.9128C27.1795 37.6615 28.1537 37.1185 29.1589 36.709V36.7121ZM31.8395 53.6363C35.0847 53.8659 37.5264 52.1316 38.3703 49.3176C39.2483 46.3857 38.1562 43.2801 35.6028 42.005C34.7527 41.5799 33.6544 41.5862 32.6647 41.5582C32.3979 41.5489 31.8798 42.1291 31.8736 42.4424C31.8177 46.1841 31.8364 49.9288 31.8364 53.6394L31.8395 53.6363ZM46.5051 31.019C46.6043 31.4968 46.7471 31.8039 46.7098 32.0831C46.4771 33.7492 47.3893 34.2394 48.8506 34.5465C54.8757 35.8124 60.8232 35.8806 66.7614 33.7151C66.8576 32.8526 66.96 31.959 67.0748 30.9321C60.1779 33.2683 53.4299 33.1504 46.5082 31.019H46.5051ZM41.3114 9.46268C41.8885 11.7151 40.0487 14.3616 42.4346 16.2479C43.6445 15.7143 44.749 15.2241 45.8411 14.7432C45.99 11.5972 43.2691 10.8991 41.3114 9.46268ZM56.0391 11.5786C56.2501 8.84528 55.7288 6.34465 53.9883 4.12635C54.705 6.92792 51.7204 9.3634 53.0917 12.2456C54.1807 11.9974 55.0742 11.7958 56.0391 11.5786ZM67.2113 8.14411C67.0654 8.12239 66.9196 8.10378 66.7738 8.08206C66.0416 10.0708 64.3538 11.681 64.5462 14.0296C65.5297 14.225 66.417 14.4019 67.6766 14.6532C67.5153 12.407 67.3633 10.2755 67.2082 8.14411H67.2113Z" fill="white"/>
<path d="M78.897 45.1758C85.8063 46.1159 92.7187 47.0373 99.6187 48.027C100.444 48.1449 101.217 48.6382 102.014 48.9578C101.511 49.6931 101.127 50.5556 100.487 51.1419C95.8833 55.3707 91.2171 59.5312 86.6006 63.7444C85.1331 65.0816 83.4298 65.3763 81.559 65.1405C73.8213 64.1694 66.0805 63.1983 58.3459 62.1869C57.8495 62.1218 57.3966 61.7401 56.9219 61.5044C57.1856 60.9924 57.3221 60.3161 57.7347 59.9965C62.3203 56.4659 66.9523 53.0003 71.5565 49.4945C72.7075 48.6196 73.8244 47.695 74.9103 46.7426C76.0551 45.7405 77.293 45.1013 78.8939 45.1758H78.897ZM99.4729 49.9102C98.9362 49.7334 98.7593 49.6403 98.5732 49.6186C91.8097 48.7995 85.0462 47.9619 78.2734 47.208C77.7118 47.1459 77.0045 47.5306 76.5112 47.9029C73.8337 49.9227 71.2121 52.0231 68.547 54.0614C65.8168 56.1494 63.0587 58.2002 60.0027 60.5022C63.2665 60.9273 66.1084 61.2934 68.9472 61.6688C73.1946 62.2303 77.4388 62.8446 81.6955 63.3255C82.6604 63.4341 83.9727 63.4186 84.6243 62.8695C89.5821 58.6873 94.4158 54.3562 99.4729 49.9071V49.9102Z" fill="white"/>
<path d="M84.2729 68.9935C80.646 68.4691 77.0223 67.9014 73.3861 67.4267C68.6237 66.8062 63.8552 66.2601 59.0866 65.6831C58.8291 65.652 58.522 65.7017 58.3265 65.5776C57.8642 65.2735 57.4547 64.8888 57.0234 64.5382C57.5354 64.2745 58.0597 63.7657 58.553 63.7936C60.7185 63.9177 62.881 64.1411 65.031 64.4296C70.6094 65.1774 76.1877 65.9375 81.7505 66.7752C84.4063 67.1754 86.5594 66.4866 88.514 64.6158C92.6217 60.688 96.8412 56.8781 101.017 53.0217C101.206 52.8448 101.371 52.5997 101.597 52.516C102.078 52.336 102.593 52.2368 103.096 52.1064C103.006 52.6525 103.105 53.3599 102.795 53.7104C101.675 54.9918 100.452 56.1894 99.2115 57.3528C95.8577 60.4957 92.5007 63.6416 89.0818 66.7162C87.7415 67.92 86.2988 69.0865 84.2729 68.9935Z" fill="white"/>
<path d="M17.4526 25.4593C17.648 24.724 17.769 24.1562 17.9521 23.6071C18.979 20.489 18.3337 18.7671 15.5042 17.1414C12.7926 15.5808 11.8029 13.285 13.0253 11.017C13.3076 10.4927 14.2756 9.86601 14.7224 9.99321C15.7214 10.2817 15.8237 11.1691 15.3149 12.1308C14.5269 13.6108 14.8092 14.2033 16.2891 15.2954C17.5581 16.2324 18.9604 17.1476 19.8508 18.3979C21.5603 20.7962 20.4248 24.0942 17.4526 25.4593Z" fill="white"/>
<path d="M9.26539 15.0596C9.32433 15.649 9.42672 16.1051 9.4019 16.5519C9.35846 17.2686 9.20644 17.9759 9.14439 18.6926C9.01098 20.1663 9.63148 21.1002 11.0555 21.6462C11.9398 21.9844 12.8302 22.5087 13.5034 23.1696C14.6545 24.3051 14.6824 26.1883 13.7051 27.2587C13.4941 27.4883 13.0598 27.7272 12.8147 27.6558C12.5789 27.5875 12.2717 27.0911 12.3183 26.8398C12.6813 24.7922 11.5644 23.9979 9.81453 23.4612C8.30671 22.9989 7.26116 21.9347 7.07191 20.2501C6.85783 18.342 7.70172 16.2075 9.26849 15.0596H9.26539Z" fill="white"/>
<path d="M56.4264 42.7801C56.0603 43.9311 55.5081 45.3707 55.1575 46.8599C54.8969 47.9644 54.8845 49.1278 54.7821 50.2665C54.7418 50.7194 54.8814 51.2376 54.7045 51.6192C54.537 51.9853 54.0964 52.3638 53.7179 52.4413C53.4915 52.4879 52.9206 51.9915 52.8927 51.6998C52.7624 50.3006 52.5731 48.861 52.7779 47.4897C52.9485 46.3542 53.7459 45.3273 54.0685 44.1948C54.2795 43.4626 54.3198 42.5722 54.1027 41.8555C53.8358 40.9806 53.5504 40.0964 54.5587 39.811C54.9341 39.7055 55.6818 40.6363 56.1317 41.1947C56.3551 41.4739 56.2961 41.9827 56.4295 42.7739L56.4264 42.7801Z" fill="white"/>
<path d="M60.7085 47.1708C60.7085 48.508 60.7643 49.8514 60.6775 51.1824C60.6495 51.6105 60.2431 52.0169 60.0104 52.4327C59.6164 52.1596 58.9773 51.9518 58.8811 51.5981C58.6422 50.7325 58.394 49.7242 58.6205 48.902C59.241 46.6434 59.1572 44.4654 58.667 42.2037C58.4871 41.3784 58.9152 40.4259 59.0672 39.5293C60.4106 39.8085 60.3858 40.9813 60.4913 41.9337C60.6868 43.6681 60.7116 45.421 60.8078 47.1646C60.7767 47.1646 60.7426 47.1677 60.7116 47.1708H60.7085Z" fill="white"/>
<path d="M44.4375 54.1885C49.3426 54.8959 54.0243 55.5722 59.1465 56.3106C58.4485 56.7574 57.9335 57.3561 57.3657 57.4089C53.2766 57.7936 49.3426 57.1452 45.6537 55.2837C45.2131 55.0603 44.8874 54.6042 44.4375 54.1885Z" fill="white"/>
</g>
<defs>
<clipPath id="clip0_1043_2635">
<rect width="103.1" height="69" fill="white"/>
</clipPath>
</defs>
</svg>
