<svg width="247" height="266" viewBox="0 0 247 266" fill="none" xmlns="http://www.w3.org/2000/svg">
<path d="M144.648 19.9739H106.648C-28.8828 32.4739 -28.8828 241.165 106.648 257.974H144.648M195.709 82.7975V244.625C195.709 253.292 200.706 260.318 206.871 260.318H210.359C216.524 260.318 221.521 253.292 221.521 244.625C221.521 244.625 221.521 90.4097 221.521 87.7014V82.7975H195.709ZM156.059 66.1169C156.059 82.212 143.011 95.2597 126.916 95.2597C110.821 95.2597 97.7734 82.212 97.7734 66.1169C97.7734 50.0217 110.821 36.9739 126.916 36.9739C143.011 36.9739 156.059 50.0217 156.059 66.1169ZM97.769 211.831C97.769 195.736 110.817 182.688 126.912 182.688C143.007 182.688 156.055 195.736 156.055 211.831C156.055 227.926 143.007 240.974 126.912 240.974C110.817 240.974 97.769 227.926 97.769 211.831ZM49.2447 150.164C63.1836 142.116 81.0063 146.892 89.0539 160.831C97.1015 174.77 92.3257 192.593 78.3869 200.641C64.4481 208.688 46.6253 203.913 38.5777 189.974C30.5301 176.035 35.3059 158.211 49.2447 150.164ZM78.3813 77.3068C92.3201 85.3543 97.0959 103.178 89.0483 117.117C81.0008 131.055 63.178 135.831 49.2392 127.784C35.3003 119.736 30.5246 101.913 38.5721 87.9738C46.6197 74.035 64.4425 69.2592 78.3813 77.3068ZM205.001 7.76261C192.895 22.7831 167.233 58.6832 185.178 73.4835C200.526 86.1425 220.446 86.1425 235.794 73.4835C253.69 58.724 228.386 22.8423 216.411 7.79564C213.454 4.08106 207.98 4.06627 205.001 7.76261Z" stroke="white" stroke-width="10" stroke-linecap="square"/>
</svg>
