<svg width="106" height="58" viewBox="0 0 106 58" fill="none" xmlns="http://www.w3.org/2000/svg">
<g clip-path="url(#clip0_1041_2576)">
<path d="M83.5134 33.0124C82.5837 33.6428 81.6541 34.2705 80.3827 35.1313C83.9663 35.3723 86.321 37.0834 88.3074 39.4433C88.5935 39.7823 89.3192 39.8644 89.4411 40.2088C89.8198 41.2815 89.0385 41.8589 88.1883 42.1979C86.7421 42.7726 85.3198 42.4707 83.961 41.835C82.8036 41.2947 81.7044 40.5955 80.4992 40.2141C79.8927 40.0207 78.9233 40.1584 78.4677 40.5531C78.0678 40.9001 77.9989 41.8324 78.0863 42.4628C78.1446 42.8786 78.669 43.3395 79.1008 43.5752C80.4913 44.3327 81.9772 44.9233 83.3492 45.71C85.243 46.7986 87.044 48.054 88.9325 49.1532C90.3628 49.9849 91.8063 51.1053 93.3558 51.3331C95.4032 51.635 97.2069 52.2627 98.9656 53.248C99.535 53.5659 100.24 53.6533 100.793 53.9923C101.209 54.2466 101.482 54.7366 101.818 55.1206C101.288 55.2848 100.658 55.7166 100.25 55.5603C98.9444 55.0597 97.7313 54.3234 96.4653 53.7115C96.0123 53.4917 95.5065 53.1977 95.0376 53.2162C92.4314 53.3142 90.188 52.472 88.1459 50.6921C87.2083 53.4811 84.9172 53.3301 82.7877 53.0467C77.8056 52.3819 73.189 48.4911 72.3255 43.3792C72.0183 41.5543 70.7946 40.1558 69.1551 39.3585C65.5529 37.6025 61.8369 36.0769 58.2506 34.2837C55.2126 32.7661 52.2197 31.0921 50.1749 28.2342C49.5392 27.3469 49.0572 26.3405 48.6043 25.3446C48.456 25.0161 48.4745 24.3884 48.689 24.1765C48.9089 23.962 49.5207 23.954 49.865 24.0918C53.6738 25.6015 57.464 27.1562 61.2621 28.6951C62.1494 29.0553 63.0394 29.4049 64.1227 29.5506C63.2513 28.2687 62.3401 27.0132 61.5191 25.6995C60.2557 23.6865 59.0373 21.6444 57.8454 19.5864C57.6918 19.3189 57.6653 18.7574 57.8374 18.5826C58.0255 18.3892 58.5526 18.3654 58.8572 18.4766C62.5732 19.8301 65.5265 22.198 67.8705 25.3578C69.4729 27.5191 71.229 29.585 72.6301 31.8682C73.9147 33.9659 76.0416 34.3473 78.0016 35.1234C78.3326 35.2558 78.9445 34.9856 79.2888 34.7208C80.4065 33.8626 81.4898 32.9541 82.5281 31.998C83.6458 30.9703 84.9754 30.6101 86.419 30.7054C88.3101 30.8299 90.1986 31.018 92.0791 31.259C94.1186 31.5212 95.676 32.6018 96.8493 34.2811C98.1895 36.1961 99.4423 38.1905 100.955 39.9624C102.282 41.5172 103.942 42.7832 105.394 44.24C105.717 44.5658 105.773 45.1564 105.953 45.6226C105.444 45.6756 104.713 45.9749 104.467 45.7471C102.607 44.0175 100.732 42.2826 99.0848 40.3597C97.5989 38.6249 96.3964 36.649 95.0721 34.779C94.2536 33.6242 93.0962 33.0309 91.7321 32.8561C89.7695 32.6045 87.8042 32.3079 85.8336 32.2416C85.0549 32.2151 84.2577 32.7608 83.471 33.0468L83.516 33.0044L83.5134 33.0124ZM73.3426 36.0795C74.1981 37.4912 72.8923 38.0475 72.1587 38.8315C73.6604 39.3638 74.3623 39.2526 74.606 38.4898C74.9 37.5654 74.2537 36.3497 73.3347 36.1007C72.94 35.6081 72.6301 34.9909 72.1295 34.6545C71.6475 34.3314 70.9429 34.3579 70.3814 34.1248C66.4005 32.4694 62.4302 30.7955 58.4625 29.1109C55.8907 28.0197 53.3321 26.8993 50.7656 25.7948C50.702 25.914 50.6384 26.0306 50.5749 26.1498C55.3 32.729 63.193 34.1884 69.3908 37.6793C69.8755 36.8211 70.1166 35.7643 70.7257 35.473C71.5097 35.0969 72.7175 34.8453 73.3426 36.0795ZM72.7175 40.2458C73.1413 41.2152 73.7902 42.1582 73.9571 43.1805C74.651 47.4263 78.9524 51.3145 83.5876 51.4946C82.4274 50.308 81.4051 49.2592 80.5178 48.3533C81.0025 48.0514 81.6223 47.662 82.4195 47.1641C81.2382 46.5576 80.3562 46.1046 79.5908 45.71C79.4318 46.2238 79.3524 46.7006 79.1272 47.0926C79.0584 47.2118 78.375 47.18 78.3406 47.0873C78.0757 46.3483 77.9009 45.5749 77.6864 44.7803C77.2732 43.9513 76.5316 43.0772 76.4283 42.1317C76.1581 39.6817 78.6611 37.976 81.2647 38.7785C82.2579 39.0831 83.1585 39.687 84.0988 40.1637C85.1635 40.7041 86.2309 41.202 87.5552 40.6802C85.823 38.5745 83.7438 37.1814 81.1243 36.7655C79.1378 36.4503 77.1222 36.3073 75.247 36.1007C75.7131 36.9536 76.7567 38.066 75.6787 39.4777C74.8603 40.5531 73.777 40.6166 72.7175 40.2511V40.2458ZM70.9986 32.5012C67.6268 27.8475 64.859 22.6588 59.1247 20.0897C59.22 20.3863 59.2359 20.5585 59.3207 20.6777C61.3363 23.5117 63.5108 26.2478 65.3305 29.201C66.6972 31.4179 68.8479 31.8523 70.9986 32.4986V32.5012ZM83.4101 47.3416C83.3095 48.0885 83.0446 48.6632 83.23 48.9307C83.7942 49.7518 84.4828 50.5093 85.2297 51.1715C85.4125 51.3357 86.1938 51.1821 86.3633 50.9411C86.8798 50.1941 86.705 49.3969 85.9713 48.8645C85.2721 48.3586 84.4881 47.9746 83.4128 47.3442L83.4101 47.3416ZM72.9162 36.9801C72.3547 36.6569 72.005 36.31 71.6501 36.3047C71.4144 36.302 71.1707 36.7841 70.9323 37.0489C71.2422 37.2979 71.5309 37.7005 71.8673 37.7455C72.1189 37.7799 72.4341 37.3509 72.9162 36.9774V36.9801Z" fill="white"/>
<path d="M21.6155 39.9969C30.9891 43.3819 40.2964 46.743 49.7653 50.1624C50.9042 47.7945 52.0193 45.4558 53.1556 43.1276C54.366 40.6405 55.5844 38.1561 56.8372 35.6876C56.9617 35.4412 57.3537 35.33 57.6212 35.1552C57.7774 35.5737 58.1536 36.061 58.0476 36.3948C57.6583 37.6078 57.163 38.7944 56.6094 39.9413C54.8507 43.5911 53.0602 47.2251 51.2512 50.8511C50.6182 52.1198 50.0249 52.2893 48.6688 51.7913C40.405 48.7427 32.1333 45.7047 23.8748 42.6429C22.7677 42.2324 21.7056 41.7 20.5057 41.1703C19.0198 42.672 17.1314 43.6547 14.9383 44.0281C14.6787 44.0732 14.3953 44.1818 14.1569 44.1235C13.5689 43.9831 12.5598 43.8507 12.5015 43.5567C12.3082 42.5926 13.2829 42.6959 13.8682 42.6138C17.6373 42.0893 20.0872 39.74 21.7691 36.604C23.451 33.468 25.9222 31.1796 28.6662 29.0607C29.6727 28.2846 30.4938 27.2649 31.4314 26.3246C30.1759 26.4782 29.1986 26.7087 28.2371 26.6424C27.9617 26.6239 27.7471 25.7419 27.3843 25.0188C27.9113 25.1142 28.0862 25.093 28.1444 25.1645C29.2224 26.5259 29.4926 26.5736 30.5865 25.3128C30.8593 25.0003 31.0526 24.1527 30.8964 24.0282C30.5282 23.7289 29.7707 23.4455 29.4502 23.6336C27.9431 24.5235 26.3857 25.4188 25.1117 26.5974C22.8021 28.7349 20.2859 30.4221 17.2426 31.2749C16.946 31.357 16.6361 31.4842 16.3447 31.455C16.0799 31.4285 15.8362 31.2167 15.5819 31.0869C15.7355 30.8511 15.8812 30.6075 16.0481 30.3797C16.0931 30.3161 16.199 30.2896 16.2811 30.2631C19.9204 29.0289 22.7068 26.5047 25.6335 24.1686C26.7089 23.3104 27.9749 22.5212 29.2807 22.1636C31.7704 21.4802 33.688 23.4826 33.0391 25.9962C32.7954 26.9338 32.2074 27.837 31.5956 28.6104C30.9732 29.3944 30.1998 30.1095 29.3654 30.6657C26.4149 32.631 24.3754 35.3485 22.6935 38.3945C22.3783 38.9639 21.9651 39.4804 21.6182 39.9916L21.6155 39.9969Z" fill="white"/>
<path d="M28.6008 11.8104C28.4551 11.9905 28.2141 12.213 28.0631 12.4858C26.4978 15.3463 24.8186 18.1512 23.4307 21.0965C22.1726 23.7637 20.149 25.3555 17.5083 26.3991C15.7469 27.0957 14.028 27.8956 12.2984 28.6637C10.5715 29.4292 9.4008 30.7349 8.5135 32.3877C6.34956 36.4189 4.12735 40.4184 1.92633 44.4284C1.82038 44.6218 1.72503 44.9025 1.56081 44.9635C1.11849 45.1224 0.639084 45.1806 0.175571 45.2786C0.133193 44.8098 -0.131671 44.1636 0.0828689 43.8961C2.94605 40.2992 4.72594 36.1117 6.68859 32.0222C7.84604 29.6146 9.61799 27.9168 12.113 26.8838C14.5524 25.8747 16.9653 24.7808 19.2935 23.5412C20.1622 23.0777 20.9462 22.1984 21.4389 21.3243C23.4466 17.7592 25.3086 14.1094 27.2844 10.5258C27.446 10.2291 28.0976 9.95104 28.426 10.0331C37.9346 12.4567 46.9321 16.3157 56.009 19.9523C56.2129 20.0344 56.4963 20.0874 56.589 20.2437C56.7877 20.58 56.8883 20.9773 57.0287 21.3481C56.65 21.4356 56.205 21.6978 55.903 21.5839C51.448 19.9179 47.0301 18.1459 42.5618 16.5144C38.3823 14.9888 34.155 13.5982 29.9463 12.1547C29.5729 12.0276 29.1782 11.9561 28.6088 11.8104H28.6008Z" fill="white"/>
<path d="M83.4293 17.3065C83.8954 16.9437 84.1709 16.7265 84.4463 16.5093C85.9878 15.2883 87.577 14.9307 89.4602 15.8604C91.105 16.6735 92.7975 17.4204 94.7734 17.137C95.5812 17.0205 95.658 17.77 95.3243 18.3475C94.5006 19.7618 89.3808 21.5205 87.5797 20.8716C89.349 20.1009 90.9461 19.4069 92.6201 18.6785C90.8402 17.9819 89.2563 17.0788 87.5717 16.8086C86.5229 16.6417 85.3204 17.431 84.0014 17.8522C85.5508 19.5367 86.9069 20.967 88.1995 22.4528C88.5067 22.8051 88.8722 23.5203 88.7212 23.7613C88.4776 24.148 87.834 24.4711 87.3493 24.4897C83.0743 24.6433 78.7968 24.7413 74.5219 24.7943C73.9815 24.8022 73.179 24.5956 72.9618 24.2195C72.7499 23.8513 73.0015 23.0647 73.277 22.5932C74.8291 19.9287 76.4554 17.3065 78.0472 14.6658C79.0934 12.9336 79.6126 12.8992 80.966 14.4725C81.7659 15.4022 82.5737 16.3186 83.4319 17.3039L83.4293 17.3065ZM74.8529 22.9905H86.2183C83.7868 20.2995 81.6255 17.9051 79.4192 15.4631C79.1967 15.7491 78.9848 15.9716 78.8312 16.2312C77.5122 18.4587 76.2011 20.6942 74.8503 22.9932L74.8529 22.9905Z" fill="white"/>
<path d="M53.1611 41.0779C50.7137 39.5894 48.6849 37.6003 46.7911 35.2986C44.0285 37.595 41.3004 39.8622 38.5723 42.1294C38.5803 42.2407 38.5856 42.3546 38.5935 42.4658C43.0962 42.3175 47.5963 42.1692 52.099 42.0235C52.1334 42.14 52.1678 42.2566 52.1996 42.3731C51.8447 42.5347 51.4977 42.8181 51.1349 42.8419C46.4362 43.1518 41.7375 43.4405 37.0361 43.6762C36.7262 43.6921 36.1965 43.2922 36.125 42.9982C36.0455 42.683 36.2813 42.14 36.5594 41.907C39.4861 39.4384 42.4553 37.0149 45.4005 34.5702C45.9435 34.1173 46.4865 33.7173 47.1354 34.3239C49.1616 36.2177 51.1719 38.1273 53.1743 40.0476C53.3438 40.2092 53.4021 40.4873 53.5133 40.7124C53.3968 40.8343 53.2803 40.9587 53.1664 41.0806L53.1611 41.0779Z" fill="white"/>
<path d="M45.0623 1.9678C45.3087 3.43779 45.351 4.98725 45.8967 6.33806C46.1165 6.88633 47.4037 7.10881 48.246 7.27038C49.0035 7.41341 49.4644 7.54319 49.422 8.46227C49.3425 10.2024 49.3558 10.1865 47.6103 10.025C45.9443 9.87135 44.2704 9.79719 42.5991 9.73892C41.8125 9.71243 41.2615 9.55616 41.4893 8.6053C42.0455 6.29568 42.5912 3.98341 43.1871 1.68439C43.3699 0.977203 43.2798 -0.190849 44.3949 0.0316375C44.8399 0.121691 45.0915 1.1838 45.4331 1.80093C45.3113 1.85655 45.1895 1.91217 45.0676 1.97044L45.0623 1.9678Z" fill="white"/>
<path d="M16.5391 45.9641C16.6212 46.1336 16.7828 46.47 16.9549 46.8302C19.4791 46.9759 21.7516 46.5044 23.5765 44.5497C23.9023 44.2001 24.5989 44.1922 25.2054 44.2107C24.8982 45.7787 23.8997 46.6315 22.7899 47.3255C21.1769 48.3373 19.3625 48.6233 17.4688 48.5968C16.8092 48.5889 16.0994 48.7266 15.4955 48.9915C13.1965 50.0006 11.5994 51.8229 10.1691 53.8094C10.0393 53.9868 9.93866 54.1855 9.80093 54.3576C9.39568 54.8635 8.97455 55.6369 8.26206 55.0119C7.9972 54.7788 8.05017 53.8491 8.29385 53.4333C9.58109 51.2322 11.353 49.4735 13.5064 48.0883C14.4943 47.4526 15.4346 46.7375 16.5364 45.9614L16.5391 45.9641Z" fill="white"/>
<path d="M60.2858 10.6876C58.8953 10.8783 57.5074 11.122 56.1116 11.2305C55.6163 11.2703 55.0971 10.9869 54.5859 10.8518C54.7766 10.4068 54.8614 9.8612 55.1739 9.53277C56.4824 8.16342 57.0704 6.51861 57.3511 4.6884C57.4173 4.25932 57.8623 3.88851 58.1325 3.49121C58.5165 3.79316 58.9986 4.02889 59.2687 4.41294C60.2249 5.77964 61.136 7.18077 61.9995 8.60839C62.2908 9.09044 62.3941 9.68639 62.5848 10.232C61.9968 10.4174 61.4141 10.6134 60.8235 10.7829C60.6593 10.828 60.4739 10.7909 60.2964 10.7909C60.2911 10.7564 60.2885 10.722 60.2832 10.6902L60.2858 10.6876Z" fill="white"/>
<path d="M55.4071 58.0003C55.219 57.5579 54.9012 57.1739 54.9409 56.8349C55.0866 55.5767 55.3117 54.3239 55.6004 53.0897C55.6852 52.7242 56.0163 52.3163 56.3473 52.1256C57.2929 51.5852 58.2914 51.1297 59.2873 50.6821C59.5363 50.5708 59.9733 50.4914 60.1164 50.6238C60.3229 50.8171 60.466 51.2303 60.4209 51.519C60.2753 52.4672 60.0554 53.4049 59.8118 54.3345C59.7402 54.6047 59.5337 54.8802 59.3138 55.0629C58.3338 55.8707 57.3326 56.6521 56.3288 57.4308C56.1275 57.5897 55.8918 57.7063 55.4097 58.0029L55.4071 58.0003Z" fill="white"/>
<path d="M41.8961 57.4037C39.8487 57.168 37.796 56.9614 35.7539 56.6727C35.391 56.6224 34.811 56.2489 34.7977 55.9999C34.7792 55.6212 35.0652 55.0385 35.3963 54.8584C36.9696 53.9923 38.58 53.1871 40.2301 52.4799C40.5267 52.3528 41.2869 52.6706 41.4564 52.9858C42.0153 54.0214 42.4126 55.1444 42.847 56.2436C43.1833 57.0991 42.7648 57.65 41.8987 57.4064L41.8961 57.4037ZM37.8569 55.1444C37.8543 55.2371 37.8516 55.3298 37.849 55.4225C38.874 55.6 39.899 55.7774 41.0988 55.9867C40.7731 55.1868 40.5347 54.6014 40.291 54.0055C39.4249 54.4107 38.6409 54.7763 37.8569 55.1444Z" fill="white"/>
<path d="M79.5656 53.4286C77.6851 54.3821 74.8616 53.4047 74.1624 51.6593C73.6247 50.3191 72.989 49.4212 71.3998 49.2649C70.3086 49.1563 69.665 47.8082 70.1126 46.9474C70.2503 46.6825 70.6211 46.5395 70.8833 46.3408C71.0476 46.5686 71.368 46.8096 71.3495 47.0215C71.2753 47.8638 71.6965 48.0783 72.4275 48.1472C73.728 48.269 74.6285 48.9418 75.047 50.2211C75.4787 51.5481 76.2919 52.3691 77.791 52.5069C78.3472 52.5572 78.8611 53.0498 79.563 53.4312L79.5656 53.4286Z" fill="white"/>
<path d="M83.4688 33.0574C85.4393 33.0362 87.4099 32.9647 89.3779 33.0097C92.3629 33.0733 93.7799 35.1286 95.0672 37.5548C94.2911 36.8794 93.5627 36.355 92.9668 35.7034C91.9841 34.6307 90.8346 34.101 89.3673 34.0745C87.741 34.0453 86.1121 33.9076 84.4964 33.7249C84.1468 33.6851 83.8422 33.2613 83.5164 33.015L83.4714 33.0574H83.4688Z" fill="white"/>
<path d="M80.6114 41.6262L79.6473 42.9478C79.205 42.6247 78.7626 42.3016 78.3203 41.9784C78.3574 41.8328 78.3918 41.6844 78.4289 41.5388C79.0434 41.4037 79.6579 41.2659 80.275 41.1309C80.3862 41.2951 80.5001 41.4593 80.6114 41.6235V41.6262Z" fill="white"/>
<path d="M20.2136 27.3203C20.6215 26.3032 21.0267 25.2861 22.0306 24.7246L22.5285 25.0875C21.9167 25.9509 21.3048 26.817 20.693 27.6805C20.5314 27.5613 20.3725 27.4395 20.2109 27.3203H20.2136Z" fill="white"/>
</g>
<defs>
<clipPath id="clip0_1041_2576">
<rect width="105.948" height="58" fill="white"/>
</clipPath>
</defs>
</svg>
