<svg width="98" height="59" viewBox="0 0 98 59" fill="none" xmlns="http://www.w3.org/2000/svg">
<g clip-path="url(#clip0_1043_2645)">
<path d="M16.5186 5.45151C15.6534 12.8631 14.8317 19.9237 13.991 26.9843C13.9093 27.6591 14.0889 28.0373 14.5651 28.5869C15.2997 29.4331 15.9527 30.5595 16.1296 31.6505C16.973 36.8528 17.3812 42.1068 16.7662 47.3607C16.203 52.163 13.5175 54.3098 8.69348 53.9452C5.84204 53.7302 3.18105 52.8568 1.00709 50.8842C-0.633583 49.3959 -1.37093 47.5076 -0.818601 45.3582C0.082 41.8537 0.737724 38.3221 1.20843 34.7305C1.55126 32.1104 2.63416 29.6834 4.82988 27.9257C5.11285 27.6972 5.20264 27.1421 5.25433 26.7231C5.6543 23.4418 6.05698 20.1577 6.38076 16.8682C6.46511 15.9921 6.35356 15.0779 6.19575 14.2045C5.54546 10.5504 4.81356 6.90716 4.17416 3.25034C3.90207 1.68857 4.37006 0.96755 5.90461 0.521331C9.09073 -0.403757 12.1898 -0.0772551 15.1365 1.43009C16.5595 2.15928 17.6233 3.29388 18.0831 4.84204C19.7374 10.3926 21.3645 15.9513 22.9317 21.529C23.046 21.9398 22.6079 22.5058 22.4283 22.9983C22.0991 22.6228 21.5957 22.3017 21.4651 21.8664C19.9578 16.8845 18.5049 11.8836 17.0329 6.88811C16.9132 6.47999 16.7472 6.08819 16.5186 5.45151ZM11.9503 28.0182C13.1176 20.2747 14.1896 12.7543 15.4439 5.26649C15.6561 3.99857 15.1827 3.47617 14.3474 3.02995C11.9721 1.75388 9.43355 1.60151 6.82698 2.10759C5.87469 2.2926 5.64341 2.76059 5.86108 3.74826C7.45278 10.9476 8.99006 18.1579 10.4974 25.3736C10.5954 25.8497 10.2906 26.4075 10.1736 26.9299C9.73013 26.5843 9.24037 26.2796 8.85673 25.8769C8.66355 25.6728 8.64451 25.2919 8.57105 24.9845C8.16564 23.2975 7.7684 21.6079 7.31401 19.6815C6.9603 22.3235 6.63924 24.726 6.33451 27.0088C6.79705 27.2537 7.23239 27.4877 7.67045 27.7189C7.28681 28.0073 6.87868 28.2658 6.52769 28.5869C5.89917 29.1583 5.16999 29.6779 4.72377 30.3718C3.36878 32.4859 2.84638 34.8693 2.92257 37.3616C2.94705 38.1588 3.10214 38.9914 3.39599 39.7287C3.91295 41.0184 5.00673 41.217 5.95087 40.1886C6.41886 39.677 6.78073 38.986 6.97119 38.3139C7.57522 36.1835 8.01599 34.0068 8.6309 31.8791C9.16963 30.0208 10.2036 28.5216 11.9531 28.0182H11.9503ZM1.98387 41.2796C1.68186 42.3843 1.3744 43.3774 1.13769 44.3896C0.457477 47.2981 1.54037 49.5837 4.2449 50.857C5.14006 51.2787 6.08691 51.7032 7.05009 51.8501C12.1544 52.6337 14.6385 51.6569 14.8834 46.3105C15.063 42.3843 14.848 38.4363 14.7202 34.502C14.6793 33.2939 14.4535 32.0641 14.1107 30.9023C13.6808 29.4467 12.5516 29.1827 11.5966 30.3527C10.9654 31.1281 10.5437 32.1403 10.2525 33.1144C9.64578 35.1468 9.27574 37.2528 8.64179 39.2771C8.05136 41.1654 6.90317 42.5666 4.56052 42.5095C4.56052 42.972 4.64486 43.3937 4.53875 43.7638C4.41903 44.1882 4.13062 44.5637 3.91568 44.9582C3.72794 44.561 3.31437 44.112 3.39599 43.7801C3.70345 42.5122 2.99059 41.9 1.98115 41.2769L1.98387 41.2796Z" fill="white"/>
<path d="M95.7653 21.2254C94.8239 19.2419 94.1627 17.6719 93.3465 16.1836C92.4785 14.6001 91.4718 13.09 90.5059 11.5609C89.8121 10.4562 88.77 10.0454 87.4939 10.0862C86.4518 10.1189 85.4043 10.1597 84.3704 10.0808C84.0031 10.0536 83.663 9.68353 83.3093 9.4713C83.6031 9.23459 83.8806 8.81558 84.1908 8.79109C85.7689 8.67409 87.3552 8.5843 88.936 8.63056C90.2338 8.66865 91.2705 9.35158 91.9343 10.4807C93.5152 13.1689 95.0116 15.9088 96.6441 18.5644C97.9801 20.7356 97.2971 23.1055 97.4604 25.3801C97.5366 26.4276 96.47 26.6915 95.5694 26.7133C93.6213 26.7596 91.6731 26.7922 89.7277 26.7487C77.0894 26.4684 64.4538 26.1256 51.8154 25.8889C45.835 25.7773 39.8519 25.8753 33.8715 25.8399C31.9016 25.829 31.7846 25.3066 31.5206 23.383C30.9656 19.3262 33.5912 16.8366 35.6754 14.0586C36.6794 12.7227 37.8031 11.4711 38.9268 10.2304C39.1635 9.96921 39.6478 9.93384 40.0179 9.79236C39.9526 10.1896 40.0179 10.6794 39.8056 10.9732C38.2221 13.1798 36.5678 15.3374 34.9734 17.5359C34.4483 18.2624 34.032 19.0677 33.4225 20.0744C54.2098 20.4554 74.7658 20.8336 95.7653 21.2199V21.2254ZM33.4416 24.0061C54.188 24.3353 74.8882 24.6672 95.6184 24.9965C95.719 24.0469 95.7898 23.3939 95.8361 22.9504C74.9808 22.5368 54.2207 22.126 33.3599 21.7097C33.3599 22.1749 33.3518 22.5749 33.3627 22.9721C33.3708 23.2823 33.4089 23.5925 33.4388 24.0061H33.4416Z" fill="white"/>
<path d="M26.0086 40.1356C23.3368 39.9315 20.8227 40.1519 18.4447 39.4309C18.4338 39.2187 18.4229 39.0064 18.4093 38.7942C18.9943 38.6527 19.5765 38.397 20.1615 38.3915C25.8726 38.3453 31.5864 38.3507 37.2974 38.3235C38.3395 38.3181 39.3843 38.2664 40.4182 38.1494C40.7529 38.1113 41.2236 37.8691 41.3515 37.5916C42.5786 34.9252 40.8481 32.003 37.9368 31.8969C32.4598 31.6928 26.98 31.5649 21.5002 31.4017C21.024 31.3881 20.5452 31.3527 20.069 31.3255C20.0282 31.1894 19.9847 31.0561 19.9439 30.9201C20.3057 30.7323 20.6676 30.3868 21.0295 30.3841C27.0017 30.3242 32.9767 30.1664 38.9435 30.346C41.8848 30.433 43.3894 32.4628 43.4574 35.4693C43.5472 39.3819 43.1146 39.9043 39.2265 39.9887C35.518 40.0676 31.8095 40.005 28.003 40.005C28.003 42.8292 27.9731 45.4412 28.0438 48.0478C28.052 48.3362 28.588 48.7253 28.958 48.8722C30.7647 49.596 32.6393 50.1592 34.4079 50.9673C35.6214 51.5223 36.7641 52.2951 37.7981 53.1412C38.2633 53.5222 38.5599 54.3085 38.6089 54.937C38.6442 55.3778 38.1273 55.8594 37.8579 56.3219C37.4552 56.0063 37.0036 55.7369 36.6607 55.3642C36.0105 54.6595 35.5697 53.5875 34.7834 53.2201C32.6665 52.2352 30.4137 51.5387 27.9758 50.6408C27.9758 52.2624 28.0547 53.6528 27.935 55.0268C27.8915 55.522 27.4262 56.3246 27.0643 56.3763C26.1828 56.5069 26.0358 55.7315 26.0413 54.9887C26.0494 53.6772 26.0413 52.3658 26.0413 50.6245C23.3504 51.8189 20.8472 52.88 18.4066 54.0636C17.9685 54.2758 17.827 55.0377 17.457 55.4676C17.1659 55.8049 16.736 56.0226 16.3659 56.2947C16.1347 55.8594 15.6585 55.3887 15.7157 54.9969C15.9442 53.4351 17.0217 52.4148 18.3766 51.7835C20.3438 50.8693 22.3518 50.0286 24.3843 49.2695C25.6195 48.8069 26.1202 48.1267 26.0386 46.7554C25.908 44.5951 26.0032 42.4238 26.0032 40.1356H26.0086Z" fill="white"/>
<path d="M68.5063 7.29438C70.9714 5.41972 73.9643 5.59113 76.9491 5.87954C78.1571 5.99654 79.3407 6.35024 80.5324 6.61417C81.4222 6.81007 81.8983 7.27805 81.5909 8.263C80.9324 10.3744 80.3365 12.5102 79.5965 14.5917C79.4305 15.057 78.8292 15.5494 78.334 15.68C77.2103 15.9793 76.0294 16.1943 74.8676 16.2024C72.6066 16.2215 70.3429 16.0827 68.0791 15.9875C67.6928 15.9712 67.3091 15.8569 66.9228 15.7861C66.8983 15.6555 66.8738 15.5222 66.8466 15.3916C67.2874 15.2556 67.7309 14.9998 68.1716 15.0025C69.981 15.0134 71.7904 15.1522 73.5997 15.1467C74.9057 15.1413 76.2117 14.9835 77.5205 14.8937C77.5096 14.7685 77.4987 14.6461 77.4905 14.521C75.2458 14.355 73.0039 14.1509 70.7592 14.0339C69.0886 13.9441 67.535 14.3278 66.248 15.495C65.4834 16.1861 64.6889 16.3031 63.6333 15.9875C62.4034 15.6202 61.0648 15.5005 59.7697 15.4787C56.6107 15.427 53.5607 14.8747 50.5895 13.8353C49.3651 13.4081 49.2672 12.9755 50.1705 12.1892C52.4887 10.1676 54.8313 8.17049 57.1059 6.09993C58.2133 5.09321 59.4159 4.74222 60.8471 5.06601C62.5667 5.45509 64.2999 5.80335 66.0004 6.26046C66.8439 6.48901 67.6329 6.92434 68.5063 7.29166V7.29438ZM68.0764 8.14873C66.1038 7.67802 64.2509 7.4141 62.5286 6.78286C60.205 5.93123 58.4772 6.51622 56.8583 8.26028C55.751 9.45201 54.4341 10.4478 53.2124 11.5335L53.3376 11.9253C55.4 12.1293 57.4597 12.4368 59.5275 12.5102C61.443 12.5783 63.3476 12.4667 64.8903 14.1373C65.9705 12.1103 66.9636 10.2438 68.0791 8.14873H68.0764ZM80.0808 8.12424C77.9259 7.10936 73.3331 6.76926 70.8027 7.43858C70.2449 7.58551 69.4831 7.7406 69.2355 8.14873C68.1335 9.95265 67.1867 11.8464 66.2942 13.5034C68.1771 13.2721 69.9756 12.9265 71.7876 12.8585C73.7222 12.7878 75.6648 13.0163 77.6048 13.019C77.9776 13.019 78.5544 12.6517 78.6877 12.3171C79.2292 10.943 79.6346 9.51459 80.0835 8.12152L80.0808 8.12424ZM63.1435 14.4829C63.1625 14.3414 63.1816 14.1999 63.2006 14.0557C59.5547 13.702 55.9088 13.3455 52.1077 12.9755C55.7455 14.4992 59.4921 14.1428 63.1435 14.4829Z" fill="white"/>
<path d="M89.8513 43.4792C89.8513 38.8592 89.8268 34.2392 89.8867 29.622C89.8921 29.1268 90.3873 28.637 90.6567 28.1445C90.9451 28.6669 91.4784 29.1893 91.4838 29.7172C91.5247 33.5209 91.4893 37.3274 91.4213 41.1311C91.3233 46.4749 91.1954 51.8159 91.0159 57.1569C90.9995 57.614 90.5179 58.0575 90.254 58.5065C89.9629 58.0249 89.4269 57.5487 89.4187 57.0644C89.3534 52.5369 89.3806 48.0067 89.3806 43.4792C89.5384 43.4792 89.6935 43.4792 89.8513 43.4792Z" fill="white"/>
<path d="M83.7481 52.4389C83.6365 52.0417 83.4243 51.6417 83.4243 51.2445C83.4161 44.0859 83.4297 36.9301 83.4515 29.7715C83.4515 29.3253 83.4896 28.8464 83.6501 28.441C83.7644 28.1553 84.1181 27.9676 84.363 27.7363C84.5888 27.9839 84.8718 28.2016 85.0187 28.49C85.1302 28.7131 85.0894 29.0233 85.084 29.2927C84.9697 36.4947 84.8582 43.6968 84.7139 50.8962C84.7031 51.424 84.45 51.9492 84.3085 52.477C84.1208 52.4634 83.9331 52.4525 83.7481 52.4389Z" fill="white"/>
<path d="M40.1512 9.48372C40.8667 9.11097 41.2368 8.75454 41.6177 8.74365C44.8147 8.64298 48.0144 8.60217 51.2141 8.55864C51.4182 8.55592 51.6277 8.6838 51.976 9.10553C51.4508 9.36945 50.9393 9.83744 50.4006 9.86736C47.5192 10.0197 44.6351 10.085 41.751 10.1204C41.332 10.1258 40.9076 9.79662 40.1484 9.48372H40.1512Z" fill="white"/>
</g>
<defs>
<clipPath id="clip0_1043_2645">
<rect width="98.4893" height="58.5064" fill="white" transform="translate(-1)"/>
</clipPath>
</defs>
</svg>
