<svg width="203" height="210" viewBox="0 0 203 210" fill="none" xmlns="http://www.w3.org/2000/svg">
<g clip-path="url(#clip0_1398_4131)">
<path d="M191 113C191 108.582 191 31 191 31C191 26.5817 187.418 23 183 23H23C18.5817 23 15 26.5817 15 31L15 170C15 186.016 27.9828 199 43.999 199C71.0766 199 107.737 199 110.5 199M191 113L110.5 199M191 113H144.5C125.722 113 110.5 128.222 110.5 147V199" stroke="white" stroke-width="10" stroke-linecap="round" stroke-linejoin="round"/>
<path d="M151 7V39" stroke="white" stroke-width="10" stroke-linejoin="round"/>
<path d="M55 7V39" stroke="white" stroke-width="10" stroke-linejoin="round"/>
<path d="M15 71H191" stroke="white" stroke-width="10" stroke-linecap="round" stroke-linejoin="round"/>
</g>
<defs>
<clipPath id="clip0_1398_4131">
<rect width="203" height="210" fill="white"/>
</clipPath>
</defs>
</svg>
