<svg width="223" height="210" viewBox="0 0 223 210" fill="none" xmlns="http://www.w3.org/2000/svg">
<g clip-path="url(#clip0_1394_4061)">
<path d="M218.629 129.764C216.032 127.197 213.251 124.823 210.307 122.661C209.272 121.867 208.223 121.073 207.203 120.249C214.912 98.3596 217.167 74.9227 213.771 51.9669C212.061 39.74 208.853 24.0218 199.091 10.791C192.164 1.42604 184.096 -2.28997 174.545 -0.581799L129.036 7.65937C96.5879 13.5181 63.0599 19.5566 30.0717 25.3404C22.1996 26.7339 16.5766 30.8096 13.2627 37.4924C-1.83684 68.2545 -1.97178 99.2263 12.8579 129.569C17.1614 138.394 25.0035 142.964 36.1446 143.129C74.3958 143.699 119.8 144.523 166.508 146.291C179.433 146.77 193.843 145.946 202.12 130.258C202.54 130.483 202.945 130.678 203.32 130.857C204.244 131.188 205.095 131.697 205.824 132.356C206.633 133.39 207.578 134.469 208.493 135.502C210.922 138.244 213.666 141.361 213.426 143.534C213.141 146.276 208.193 150.127 203.769 152.12C199.996 153.625 196.054 154.667 192.029 155.221C190.019 155.581 187.95 155.955 185.941 156.435C183.932 156.914 181.742 157.424 179.643 157.933C173.315 159.432 166.778 160.93 160.48 162.878C158.788 163.309 157.199 164.075 155.809 165.13C154.418 166.185 153.253 167.509 152.383 169.022C151.818 170.231 151.513 171.545 151.487 172.879C151.461 174.213 151.715 175.538 152.233 176.768C154.377 182.582 152.638 186.013 146.04 189.025C141.405 191.213 136.542 192.881 131.54 194C105.42 199.469 78.0395 200.083 47.8254 195.858C40.5915 194.788 33.5539 192.662 26.9378 189.55C24.5837 188.456 23.2342 186.912 23.2342 185.339C23.2342 183.766 24.7336 181.893 27.3877 180.694C29.8117 179.673 32.3204 178.866 34.885 178.282C36.3845 177.892 37.8839 177.502 39.3834 177.023L44.7665 175.345C49.9391 173.872 55.0252 172.111 60.001 170.07C66.2238 167.373 68.9977 161.784 67.4233 155.491C66.828 153.91 65.7991 152.529 64.4544 151.505C64.0046 151.071 63.5397 150.636 63.1499 150.187L61.9203 148.688L59.7161 151.685C58.8914 152.794 58.0517 153.918 57.242 155.056C56.6272 155.941 56.0874 156.899 55.5626 157.828C54.8238 159.518 53.693 161.008 52.2638 162.174C49.8534 163.5 47.2543 164.45 44.5565 164.991C43.4769 165.261 42.3973 165.53 41.3477 165.845C39.5183 166.384 37.584 166.834 35.7097 167.343C31.3751 168.133 27.1779 169.546 23.2492 171.539C18.6539 174.373 15.1671 178.693 13.3677 183.781C11.5384 189.475 14.6123 195.094 21.5997 198.84C25.8593 201.185 30.4346 202.906 35.1849 203.949C51.3684 207.269 67.8463 208.946 84.3673 208.954C100.789 208.946 117.17 207.3 133.265 204.039C141.317 202.421 149.114 198.555 155.667 195.049C162.624 191.273 165.308 184.635 162.864 177.308C162.596 176.73 162.45 176.103 162.434 175.466C162.419 174.83 162.534 174.197 162.774 173.607C163.186 173.06 163.703 172.602 164.296 172.26C164.888 171.917 165.544 171.698 166.223 171.614C169.387 170.85 172.626 170.115 175.774 169.471C180.078 168.542 184.516 167.583 188.85 166.474C190.829 165.95 192.838 165.455 194.848 164.976C201.58 163.328 208.523 161.634 214.7 158.458C220.219 155.626 223.697 151.236 224.597 146.081C225.452 140.522 223.397 134.753 218.629 129.764ZM152.458 135.113C146.46 135.113 140.357 135.203 134.299 135.113C122.534 134.843 110.763 134.543 98.987 134.214C78.3844 133.659 57.0021 133.09 36.1295 132.715C29.0371 132.611 24.4788 129.913 21.7797 124.249C8.95932 97.4132 9.06424 70.2024 22.0646 43.3361C23.0897 41.5525 24.4594 39.9902 26.094 38.7401C27.7285 37.4899 29.5954 36.5769 31.5862 36.0539C64.5743 29.7607 98.1023 23.7521 130.551 17.9533L153.882 13.7728C154.587 13.653 155.382 13.578 156.102 13.5181C137.313 55.6679 138.003 95.4803 158.201 135.068L152.458 135.113ZM192.748 125.403C188.385 131.831 184.666 136.701 177.754 135.607C169.927 134.364 166.538 128.295 162.339 119.784L192.748 125.403ZM197.996 115.169L189.21 113.955C179.418 112.607 170.151 111.333 160.99 109.79C160.217 109.487 159.515 109.027 158.929 108.439C158.343 107.851 157.886 107.148 157.586 106.374C150.404 76.4956 151.933 50.1988 162.249 25.9847C165.713 17.8634 169.747 9.93692 178.743 9.71217H179.133C188.325 9.71217 192.418 17.7586 195.837 26.0147C207.323 53.78 208.043 83.7778 197.996 115.169Z" fill="white"/>
<path d="M141.347 114.855L139.157 116.203C138.525 116.598 137.919 117.034 137.343 117.507C135.941 118.867 134.148 119.752 132.215 120.039C123.668 120.309 114.986 120.279 106.574 120.234H99.1818L99.0918 121.627L84.0972 120.474C70.722 119.455 56.8819 118.406 43.2818 117.267C40.1297 117.017 37.0399 116.253 34.1351 115.004C32.828 114.21 31.7847 113.048 31.1362 111.663C30.8692 111.191 30.5738 110.736 30.2515 110.299L29.1719 108.801L30.7913 108.007C31.3323 107.715 31.8578 107.394 32.3657 107.048C33.8652 106.044 35.4546 105.025 37.074 105.4C59.341 110.629 82.3278 110.284 104.55 109.895C112.857 109.775 121.449 109.64 129.891 109.805C130.09 109.827 130.291 109.827 130.491 109.805C131.248 109.675 132.027 109.758 132.74 110.045C134.359 110.839 135.934 111.738 137.463 112.592L139.202 113.581L141.347 114.855Z" fill="white"/>
</g>
<defs>
<clipPath id="clip0_1394_4061">
<rect width="223" height="210" fill="white"/>
</clipPath>
</defs>
</svg>
