<svg width="82" height="55" viewBox="0 0 82 55" fill="none" xmlns="http://www.w3.org/2000/svg">
<g clip-path="url(#clip0_1041_2592)">
<path d="M74.7654 43.916C59.675 44.1529 44.7462 43.1301 29.8022 42.5444C29.7979 42.4044 29.7936 42.2644 29.7915 42.1245C30.5494 42.0577 31.3096 41.9134 32.0632 41.9328C41.064 42.1805 50.0648 42.5099 59.0656 42.6972C63.9063 42.7984 68.7512 42.6499 73.5961 42.6499C74.6426 42.6499 75.1616 42.146 75.435 41.2093C76.3093 38.2162 77.162 35.2167 78.1008 32.243C78.7274 30.2619 79.4811 28.3218 80.196 26.3709C80.3187 26.035 80.5384 25.7335 80.7128 25.417C80.8204 25.4428 80.9281 25.4687 81.0379 25.4967C81.0379 25.7787 81.1004 26.0781 81.0293 26.3429C79.6943 31.3257 78.3635 36.3106 76.9725 41.2804C76.7486 42.0814 76.2318 42.7985 75.8765 43.5672C75.7817 43.7717 75.743 44.0237 75.7494 44.2519C75.7602 44.6804 75.8463 45.1068 75.8614 45.5353C75.9131 46.9371 75.519 47.3721 74.0828 47.484C73.6543 47.5185 73.2214 47.5013 72.7908 47.5034C72.3709 47.5056 71.951 47.5034 71.4213 47.5034C71.5203 49.3402 71.6108 51.0478 71.7077 52.7575C71.7184 52.9362 71.8261 53.1322 71.7787 53.285C71.6538 53.6812 71.4665 54.0581 71.3028 54.4435C71.0358 54.1334 70.5772 53.847 70.5341 53.509C70.336 51.9112 70.2456 50.3006 70.1293 48.6942C70.1035 48.3432 70.125 47.9879 70.125 47.5357C69.2787 47.484 68.4669 47.4345 67.6767 47.385C67.6767 48.9461 67.6853 50.4728 67.6724 51.9995C67.6681 52.5637 68.0406 53.2893 67.1879 53.5111C67.1125 53.5305 66.6797 52.6412 66.613 52.1459C66.4062 50.5912 66.2964 49.0258 66.1392 47.3527C47.6316 46.8337 29.1046 46.3148 10.345 45.7894C10.5173 47.5013 10.6702 49.0882 10.8403 50.6709C10.8747 50.9896 11.0621 51.3212 11.0082 51.6141C10.9393 51.9823 10.6938 52.3182 10.5237 52.667C10.2373 52.4129 9.74854 52.1955 9.69902 51.9026C9.44062 50.3522 9.28343 48.7825 9.11332 47.217C9.0681 46.7971 9.10686 46.3686 9.10686 45.8648H6.50136C6.68009 47.4367 6.85666 49.0172 7.04615 50.5977C7.07629 50.8453 7.23779 51.0994 7.20118 51.3255C7.14951 51.6356 6.96648 51.922 6.83943 52.2191C6.56596 52.0404 6.10085 51.9048 6.04917 51.6787C5.73909 50.2855 5.50008 48.8729 5.28905 47.4604C5.21153 46.9393 5.27613 46.3945 5.27613 45.5977C3.95185 45.5977 2.71155 45.6042 1.46909 45.5977C0.383829 45.5891 -0.0382181 45.1585 0.00269463 44.0904C0.0328409 43.2657 0.0759069 42.441 0.140506 41.6184C0.192185 40.9574 0.495801 40.6451 1.21716 40.8583C1.61767 40.9768 2.05264 41.0198 2.47469 41.0241C6.49275 41.0564 10.513 41.0586 14.531 41.1124C15.1878 41.121 15.8424 41.3364 16.4991 41.4569C16.4948 41.6249 16.4884 41.7929 16.4841 41.9608C16.034 42.0319 15.584 42.1654 15.134 42.1675C10.6529 42.1826 6.16975 42.1761 1.60045 42.1761V44.4586C4.02937 44.4586 6.38939 44.4091 8.74941 44.4673C26.5421 44.8979 44.3327 45.3523 62.1255 45.7937C65.7839 45.8841 69.4424 45.966 73.1009 46.0284C74.7158 46.0564 74.6232 46.2179 74.7008 44.5642C74.7094 44.3553 74.7417 44.1464 74.7654 43.9246V43.916Z" fill="white"/>
<path d="M73.5232 15.2214C73.6717 15.2515 73.7428 15.286 73.8031 15.2752C76.5098 14.8079 78.0903 15.6735 78.8138 18.0206C79.4447 20.0749 78.4391 22.2627 76.1976 23.1369C74.925 23.6343 73.9301 23.9487 73.8677 25.6476C73.844 26.2678 72.8018 27.0925 72.0503 27.3983C68.9431 28.6623 65.7497 28.6084 62.5865 27.5447C60.6378 26.8879 59.9164 25.8974 59.938 23.8798C59.9724 20.7252 60.0779 17.5728 60.1339 14.4182C60.1555 13.2554 60.9177 12.6805 61.8329 12.2929C64.1886 11.2937 66.667 11.3433 69.1347 11.6619C70.2243 11.8041 71.3203 12.0861 72.3431 12.4845C73.8461 13.0702 74.027 13.6042 73.5275 15.2192L73.5232 15.2214ZM72.9633 15.385C68.9668 16.8471 65.0456 17.1636 61.1438 15.3893C61.2386 18.3889 61.2622 21.3561 61.4819 24.3083C61.5249 24.9004 62.1946 25.7101 62.7717 25.9534C65.5172 27.114 68.3617 27.0839 71.1825 26.1644C72.1989 25.8328 72.7135 25.1265 72.7092 23.9724C72.7027 21.9655 72.7932 19.9543 72.9116 17.9517C72.931 17.6352 73.3078 17.338 73.5188 17.0323C73.6847 17.3316 73.9732 17.6223 73.9969 17.9324C74.1067 19.3126 74.139 20.6994 74.2014 22.0882C75.5171 21.9397 76.2815 21.5348 76.8435 20.7273C77.4809 19.81 77.4594 18.4728 76.7725 17.4888C76.1739 16.6318 75.3319 16.3303 74.3263 16.5284C72.9461 16.7997 72.8599 16.7394 72.9676 15.385H72.9633ZM61.7123 14.1533C63.3876 15.6606 70.3879 15.5573 72.0654 14.0521C70.2071 12.4501 63.7321 12.4802 61.7123 14.1533Z" fill="white"/>
<path d="M64.4879 35.9059C64.8561 36.5518 65.1748 37.1095 65.4935 37.6673C64.9143 37.9752 64.3673 38.4188 63.7493 38.5673C60.5818 39.3361 57.3906 39.9993 54.221 40.7572C52.1818 41.246 50.6594 40.6151 49.2512 39.0777C46.5638 36.1449 43.7301 33.3456 40.976 30.4709C40.7305 30.2147 40.4334 29.7776 40.5023 29.5105C40.5669 29.2521 41.0492 28.9916 41.3851 28.9248C45.1082 28.1906 48.8485 27.5446 52.5629 26.7694C54.3997 26.3861 55.8037 26.8512 56.8954 28.3521C57.1064 28.6428 57.3734 28.8947 57.5629 29.194C57.9828 29.8572 58.407 30.1307 59.292 29.84C60.7347 29.3641 62.1344 29.6204 63.2519 30.7853C63.4264 30.9662 63.646 31.1083 63.7967 31.3064C65.2459 33.2121 67.2506 33.8602 69.546 33.955C70.1339 33.9786 70.7519 34.166 71.2794 34.4308C71.5594 34.5708 71.8501 35.0639 71.807 35.3503C71.7726 35.5786 71.2493 35.8908 70.9371 35.8994C68.9668 35.9425 66.9944 35.9123 65.0219 35.9059C64.8217 35.9059 64.6193 35.9059 64.4879 35.9059ZM63.2993 35.8176C61.6714 36.0738 60.7003 34.8206 59.7011 33.7073C58.4802 32.3464 57.2765 30.9597 56.2042 29.4804C55.1254 27.9925 53.8398 27.5661 52.0957 28.0441C50.0242 28.6126 47.929 29.0993 45.8296 29.5558C44.768 29.7862 43.6763 29.8766 43.1056 29.9584C44.0273 31.0588 45.0479 32.3572 46.1547 33.5781C47.647 35.2254 49.2361 36.7866 50.724 38.4381C51.6478 39.461 52.7158 39.7409 54.0143 39.4566C56.7425 38.858 59.4772 38.2831 62.2054 37.6866C62.8127 37.5531 63.4091 37.3744 64.0056 37.2172C63.7472 36.7026 63.5534 36.3193 63.2993 35.8154V35.8176ZM69.1197 35.1457C69.1283 35.051 69.1391 34.9584 69.1477 34.8637C68.8031 34.8098 68.4586 34.7108 68.1162 34.7129C65.9716 34.7237 64.391 33.6061 62.9634 32.172C62.6856 31.8921 62.4165 31.6036 62.1236 31.3387C61.1675 30.4731 60.4182 30.3869 59.1111 31.0437C59.9035 31.9524 60.6486 32.8675 61.4625 33.7181C61.82 34.0906 62.2894 34.5428 62.7524 34.5966C64.8669 34.8507 66.9965 34.9756 69.1218 35.1479L69.1197 35.1457Z" fill="white"/>
<path d="M24.9942 6.08398C30.5023 6.26486 34.6345 6.85271 38.4351 8.84882C39.4385 9.37638 40.3989 10.0525 41.2344 10.8148C43.2154 12.6214 43.5277 15.1645 42.1323 17.4534C41.2559 18.8918 40.0522 19.9943 38.5471 20.7652C33.7301 23.2307 28.728 23.7669 23.5665 22.0701C22.6105 21.7557 21.7212 21.1291 20.9115 20.5025C20.0179 19.8134 19.5743 18.8165 19.7423 17.6515C19.893 16.6136 19.4021 16.0409 18.4955 15.6791C17.5007 15.2829 16.4736 14.9276 15.5433 14.4087C13.4331 13.2351 13.0735 11.2045 14.8414 9.55295C15.8814 8.58181 17.2078 7.70542 18.558 7.32644C21.0536 6.62877 23.6591 6.32731 24.9963 6.08398H24.9942ZM25.1514 7.3329C24.0317 7.50086 21.9731 7.63221 20.0222 8.16192C18.5795 8.55382 17.1605 9.30317 15.9417 10.1839C14.5334 11.1981 14.7358 12.4771 16.2324 13.3535C16.6609 13.6033 17.1497 13.7497 17.6062 13.9543C18.3233 14.2751 19.0704 14.5486 19.7444 14.947C20.6682 15.4939 21.2194 16.2842 21.0213 17.447C20.862 18.3858 21.1936 19.2557 21.9796 19.6885C23.1833 20.3496 24.4537 21.0365 25.7801 21.2992C30.4959 22.2402 35.0803 21.6373 39.038 18.838C42.6233 16.3014 42.5199 13.1597 39.1844 10.8019C38.1164 10.0461 36.8998 9.45821 35.6789 8.96941C32.6061 7.73557 29.3482 7.50301 25.1557 7.33505L25.1514 7.3329Z" fill="white"/>
<path d="M30.2561 25.4738C31.0722 25.4652 31.505 25.87 31.8517 26.5633C33.5873 30.0151 35.3616 33.4496 37.123 36.8884C37.2543 37.1447 37.4029 37.3901 37.5192 37.6528C37.9757 38.6714 37.7496 39.2248 36.645 39.4724C34.3022 39.9935 31.9464 40.4564 29.5929 40.9302C26.6429 41.5223 23.6864 42.0822 20.7407 42.6937C19.5865 42.9327 18.7359 42.5904 18.2708 41.5245C16.6106 37.7153 14.9547 33.9039 13.3634 30.0646C12.9651 29.1042 13.68 28.5638 14.5112 28.357C16.2489 27.9242 17.9952 27.5108 19.7566 27.2007C23.2493 26.5849 26.7548 26.0465 30.2561 25.4759V25.4738ZM35.8224 38.2299C34.0718 34.5392 32.3814 31.0314 30.7535 27.4979C30.465 26.8734 30.1032 26.8648 29.567 26.9509C26.1045 27.5151 22.6356 28.0384 19.1795 28.637C17.6873 28.8954 16.2187 29.3023 14.5478 29.6878C16.1649 33.3613 17.7131 36.8131 19.1989 40.2949C19.6102 41.2596 20.2023 41.4082 21.1433 41.2166C24.0869 40.6136 27.0498 40.099 29.9956 39.509C31.9831 39.1106 33.9576 38.6434 35.8224 38.2321V38.2299Z" fill="white"/>
<path d="M50.9877 14.6362C55.8391 14.2099 58.0226 14.3649 58.9227 15.3705C58.393 15.4975 57.9924 15.672 57.5898 15.6763C55.3353 15.7043 53.0808 15.6892 50.6561 15.6892C50.6561 16.1198 50.626 16.7831 50.6626 17.442C50.7746 19.479 49.8573 21.0466 48.3822 22.3149C48.0722 22.5819 47.5166 22.5647 47.0752 22.6831C46.8577 22.7412 46.6445 22.8166 46.4292 22.8812C45.4408 23.1719 44.4589 23.4906 43.4576 23.7296C43.2509 23.7791 42.8547 23.5918 42.7664 23.4066C42.6846 23.2365 42.8224 22.8338 42.9925 22.6874C44.4331 21.4514 44.7367 19.7159 45.1631 18.0126C45.3073 17.442 45.5356 16.7766 45.9512 16.4105C46.8706 15.6031 47.5295 14.703 47.9279 13.538C49.2673 9.6061 50.6647 5.69355 52.0321 1.77024C52.5295 0.344749 53.2207 -0.159124 54.4567 0.0411332C56.0846 0.305989 56.7284 1.27282 56.0868 2.80813C54.5407 6.50965 52.8999 10.1703 51.2978 13.8503C51.2009 14.0721 51.1191 14.2981 50.9856 14.6362H50.9877ZM50.3676 12.849C51.8792 9.40584 53.3908 6.01439 54.8335 2.5928C54.9778 2.25257 54.84 1.53983 54.5773 1.33957C54.1036 0.982126 53.5846 1.14362 53.1109 1.68626C52.5769 2.29779 52.8805 2.99762 52.6479 3.63069C51.5627 6.57856 50.5399 9.55012 49.4761 12.5712C49.7625 12.6595 50.0554 12.7499 50.3676 12.8468V12.849ZM45.6928 18.0664C46.9417 18.4906 48.1088 18.8868 49.4912 19.3563C49.4912 18.075 49.5536 17.0436 49.4697 16.0251C49.4158 15.3748 48.9507 15.1767 48.4167 15.6332C47.5554 16.3675 46.7264 17.1405 45.6949 18.0686L45.6928 18.0664ZM48.9184 14.0613C49.7259 14.7073 50.0101 14.268 50.1673 13.5057C49.4201 12.9976 49.0433 13.2366 48.9184 14.0613Z" fill="white"/>
<path d="M10.4383 18.5651C10.3242 18.8342 10.2316 19.0668 10.1304 19.295C7.65409 24.8979 5.1821 30.503 2.67781 36.0929C2.55292 36.3707 2.12656 36.515 1.84017 36.7196C1.73035 36.3578 1.42674 35.9142 1.54086 35.6451C2.30744 33.8298 3.15369 32.049 3.98917 30.2661C5.69458 26.6335 7.40861 23.0052 9.12479 19.3769C9.29275 19.0237 9.49516 18.6792 9.72772 18.367C9.80309 18.2679 10.0399 18.2356 10.1885 18.2615C10.2854 18.2787 10.3543 18.4552 10.4383 18.5629V18.5651Z" fill="white"/>
<path d="M78.9531 20.1123H81.9355C81.2485 21.0296 80.314 21.0361 78.9531 20.1123Z" fill="white"/>
<path d="M46.2947 14.5166C45.5174 15.4081 44.669 15.4231 43.7969 14.5166H46.2947Z" fill="white"/>
<path d="M36.5243 14.4819C35.9213 14.3053 35.1612 14.1977 34.5152 13.8682C33.4795 13.3385 33.501 12.3006 34.4808 11.6847C35.4153 11.099 37.6074 11.2498 38.4558 11.9582C39.3322 12.6903 39.1944 13.7218 38.1285 14.1352C37.6741 14.3118 37.1659 14.3484 36.5243 14.4819ZM37.8313 13.0112C36.8688 12.2231 35.9493 12.1735 35.0363 12.8066C35.7448 13.5258 36.6621 13.6098 37.8313 13.0112Z" fill="white"/>
<path d="M34.3671 15.7832C34.772 15.8672 35.4352 15.8607 35.9304 16.1471C36.3589 16.3926 36.8241 16.9524 36.8564 17.4025C36.8822 17.7879 36.3589 18.5179 36.0058 18.5674C34.9507 18.7117 33.831 18.7332 32.7995 18.5136C32.3689 18.421 31.7875 17.5597 31.8392 17.1118C31.8908 16.6682 32.6143 16.2462 33.1161 15.9318C33.3874 15.7617 33.8116 15.8392 34.3671 15.7854V15.7832ZM32.9244 17.3056C33.6953 18.0183 34.8129 18.0635 35.5881 17.4154C34.6901 16.5778 33.8202 16.5412 32.9244 17.3056Z" fill="white"/>
<path d="M29.834 11.4365C29.3323 11.29 28.7358 11.2233 28.2664 10.9434C27.9219 10.7366 27.4977 10.2112 27.5515 9.90115C27.6183 9.50279 28.0812 8.94078 28.4516 8.86972C29.3366 8.69961 30.297 8.64147 31.1734 8.80943C31.6256 8.89556 32.2134 9.52648 32.278 9.97867C32.3254 10.3124 31.6859 10.8443 31.2466 11.1199C30.8805 11.3482 30.3616 11.3288 29.834 11.4365ZM31.5244 10.1832C30.4348 9.3456 29.5261 9.33699 28.57 10.1832H31.5244Z" fill="white"/>
<path d="M22.5424 9.2063C22.7555 9.2063 22.973 9.18261 23.1819 9.2106C23.9356 9.31396 24.7732 9.42163 24.8679 10.3648C24.9648 11.3445 24.1875 11.7816 23.3951 11.885C22.6113 11.9862 21.7564 11.9345 21.0028 11.7127C20.5936 11.5922 20.0768 10.9849 20.0704 10.5909C20.0639 10.2097 20.585 9.70371 20.9963 9.46254C21.4291 9.21061 22.0083 9.2106 22.523 9.09863L22.5424 9.2063ZM21.2805 10.3002C21.2805 10.4121 21.2805 10.5263 21.2827 10.6382C22.3529 11.1464 23.1884 11.1034 24.0691 10.3002H21.2784H21.2805Z" fill="white"/>
<path d="M27.4929 20.0426C27.1462 20.0103 26.89 20.0189 26.6488 19.9608C25.865 19.7735 25.0274 19.5388 25.0554 18.5418C25.0812 17.6223 25.8865 17.2993 26.6294 17.2218C27.3142 17.1507 28.0937 17.1981 28.7009 17.478C29.1596 17.6891 29.713 18.3803 29.6699 18.8023C29.6268 19.2201 28.927 19.6249 28.4425 19.9177C28.1669 20.0835 27.7492 20.0146 27.4908 20.0426H27.4929ZM28.4468 19.0995C28.4533 18.9767 28.4597 18.8519 28.4684 18.7291C27.5984 17.9582 26.8986 17.9216 26.0954 18.9078C26.8792 18.9724 27.663 19.0349 28.4468 19.0995Z" fill="white"/>
<path d="M27.3 15.6018C26.7531 15.4101 26.1179 15.2766 25.5774 14.973C24.7117 14.4842 24.729 13.4506 25.6678 13.2138C26.6863 12.9575 27.8125 13.0092 28.8741 13.1169C29.21 13.1513 29.6859 13.7672 29.7246 14.1548C29.7548 14.4713 29.294 14.9579 28.9344 15.1604C28.4908 15.4101 27.9245 15.4467 27.3022 15.6039L27.3 15.6018ZM26.1997 13.9201C26.1997 14.0557 26.1997 14.1935 26.1997 14.3292C26.9964 14.635 27.7845 14.7555 28.5446 14.3292C28.5403 14.1935 28.5382 14.0579 28.5339 13.9222H26.2018L26.1997 13.9201Z" fill="white"/>
<path d="M29.3927 28.6125C28.1373 29.6741 17.9134 31.358 16.8906 30.6754C17.2675 30.4536 17.556 30.1694 17.8855 30.1112C21.3393 29.5062 24.7997 28.9269 28.2622 28.3757C28.5701 28.3262 28.9168 28.5049 29.3949 28.6125H29.3927Z" fill="white"/>
<path d="M20.0312 39.6391C24.551 38.7111 28.7909 37.8411 33.2525 36.9238C32.4623 38.3149 21.5063 40.5844 20.0312 39.6391Z" fill="white"/>
<path d="M47.3516 33.1992H49.1976C48.817 33.9872 48.4675 34.7383 48.1154 35.479L47.8228 35.5L47.3516 33.1992Z" fill="white"/>
</g>
<defs>
<clipPath id="clip0_1041_2592">
<rect width="81.9418" height="54.4441" fill="white"/>
</clipPath>
</defs>
</svg>
