<svg width="202" height="211" viewBox="0 0 202 211" fill="none" xmlns="http://www.w3.org/2000/svg">
<path d="M94.9209 78.6084C92.2195 77.9253 92.2025 76.0416 93.4736 73.5151C94.5071 71.4756 96.2305 69.0405 95.8294 67.1431C95.4284 65.2457 92.8563 63.7591 91.1978 62.1218C87.8047 58.7824 84.4275 55.4171 80.9527 52.1523C80.4048 51.7307 80.017 51.1349 79.8535 50.4632C79.6899 49.7915 79.7603 49.0841 80.0531 48.4579C81.55 44.2329 82.9379 39.9675 84.2492 35.6817C84.7098 34.1813 85.4406 33.2846 86.9829 33.6192C93.5076 35.0611 96.6152 31.7838 99.4213 26.2156C103.087 18.9198 102.077 20.4567 109.013 21.536C111.97 21.9929 114.915 22.4964 117.89 22.8662C118.722 22.9195 119.52 23.2126 120.189 23.7101C120.858 24.2076 121.368 24.8881 121.658 25.6694C122.618 27.8756 123.441 30.8982 125.209 31.7644C126.7 32.4866 129.433 30.5844 131.639 29.9278C133.861 29.1953 136.126 28.6037 138.422 28.1565C139.506 28.072 140.585 28.3705 141.471 29C145.479 31.7461 149.438 34.5868 153.314 37.519C154.065 38.1694 154.559 39.0653 154.71 40.0468C155.339 44.2082 155.818 48.3835 156.275 52.6081C156.856 57.8905 153.781 62.2584 152.536 67.0752C152.395 67.4297 152.123 67.7159 151.776 67.8739C147.421 70.0345 143.07 72.216 138.649 74.2378C138.077 74.5007 137.04 74.0404 136.311 73.6892C127.623 69.1126 118.972 64.4609 110.27 59.9206C109.349 59.433 107.548 59.0106 107.147 59.4592C106.008 60.7288 103.891 62.1811 105.267 64.2333C108.661 69.2948 105.937 72.8619 102.692 76.4202C102.382 76.7644 102.109 77.1493 101.834 77.5238C99.1862 81.1114 99.1926 81.1153 94.9209 78.6084Z" fill="white" fill-opacity="0.75"/>
<path d="M98.2613 168.913C100.353 165.937 102.166 163.227 104.143 160.654C104.502 160.188 105.612 160.007 106.257 160.119C108.472 160.469 110.654 161.007 112.777 161.728C119.225 164.121 124.243 159.755 129.859 158.255C130.487 158.089 130.94 157.021 131.362 156.308C133.713 152.405 136.174 148.497 138.32 144.449C138.888 143.142 139.059 141.696 138.812 140.292C138.005 134.13 134.825 129.619 129.077 127.033C128.581 126.748 128.112 126.42 127.674 126.052L134.128 115.577C139.596 120.775 144.749 125.617 149.791 130.58C150.272 131.045 150.39 132.099 150.352 132.87C150.041 138.557 150.022 144.264 149.139 149.911C148.752 152.348 146.757 154.589 145.275 156.762C143.699 159.074 141.53 161.03 140.207 163.453C137.745 167.984 133.829 169.925 129.085 171.008C125.985 171.715 122.942 172.656 119.983 173.821C118.653 174.357 117.228 174.62 115.794 174.594C114.36 174.569 112.946 174.256 111.635 173.673C107.44 171.998 103.073 170.601 98.2613 168.913Z" fill="white" fill-opacity="0.75"/>
<path d="M136.206 113.166L54.3473 66.5977L53.6525 66.1696L34.5227 97.2192L12.5309 138.1L16.3828 161.408L65.7766 193.772L86.5935 186.951L136.206 113.166Z" fill="white" fill-opacity="0.75"/>
</svg>
