<svg width="384" height="293" viewBox="0 0 384 293" fill="none" xmlns="http://www.w3.org/2000/svg">
<path d="M134.501 30.6246C168.957 30.5892 202.031 44.1742 226.515 68.4186C231.719 73.486 240.751 84.7997 240.751 84.7997L247.726 95.3555C247.726 95.3555 243.164 98.7958 239.862 109.502C238.308 114.54 238.737 123.568 238.737 123.568L228.937 103.603C228.937 103.603 218.944 89.4198 212.709 83.2376C191.894 62.5997 163.801 50.9695 134.489 50.8555H133.351C104.04 51.1586 76.0328 63.0157 55.4138 83.8501C34.7948 104.685 23.2294 132.813 23.231 162.126C23.231 207.645 51.6679 245.958 97.4402 262.105C100.489 263.177 103.75 263.504 106.951 263.058C110.151 262.611 113.198 261.405 115.836 259.539C118.474 257.673 120.628 255.202 122.115 252.334C123.603 249.465 124.381 246.281 124.386 243.05C124.386 232.319 128.649 222.027 136.237 214.439C143.825 206.851 154.117 202.588 164.848 202.588H223.277C227.852 202.604 232.295 201.06 235.872 198.209C239.45 195.358 241.948 191.372 242.952 186.909H243.003C244.666 179.543 245.339 164.487 245.339 164.487L251.98 171.218L265.984 164.487C265.984 164.487 264.731 182.534 262.727 191.359C260.728 200.317 255.725 208.323 248.549 214.045C241.373 219.767 232.455 222.863 223.277 222.819H164.848C159.482 222.819 154.337 224.951 150.543 228.745C146.749 232.539 144.617 237.684 144.617 243.05C144.615 249.519 143.062 255.893 140.088 261.639C137.114 267.383 132.805 272.331 127.525 276.068C122.244 279.804 116.145 282.22 109.738 283.113C103.33 284.006 96.8021 283.349 90.7011 281.198C36.6086 262.092 3 216.496 3 162.126C2.99821 127.483 16.667 94.2381 41.0364 69.6154C65.4057 44.9928 98.507 30.981 133.148 30.6246H134.501ZM78.8661 182.357C82.8902 182.357 86.7498 183.955 89.5953 186.801C92.4408 189.646 94.0393 193.506 94.0393 197.53C94.0393 200.531 93.1494 203.465 91.4821 205.96C89.815 208.455 87.4452 210.4 84.6729 211.548C81.9004 212.697 78.8488 212.997 75.9055 212.412C72.9623 211.826 70.2587 210.381 68.1368 208.259C66.0149 206.137 64.5699 203.434 63.9844 200.491C63.3989 197.547 63.6994 194.496 64.8478 191.723C65.9962 188.951 67.9408 186.581 70.4357 184.914C72.9309 183.247 75.8651 182.357 78.8661 182.357ZM374.906 10C376.545 10.0001 378.116 10.6518 379.275 11.8106C380.434 12.9694 381.086 14.5407 381.086 16.1795C381.086 50.2285 342.695 85.1658 317.259 104.569C319.381 111.499 319.849 118.831 318.624 125.974C317.399 133.117 314.516 139.874 310.206 145.7C305.896 151.527 300.28 156.262 293.809 159.524C287.338 162.787 280.192 164.487 272.945 164.487H265.984C265.984 164.487 265.769 156.955 265.631 152.128C268.487 152.128 272.945 152.128 272.945 152.128C279.666 152.128 286.237 150.135 291.826 146.4C297.415 142.666 301.771 137.357 304.344 131.147C306.916 124.937 307.59 118.103 306.279 111.51C304.967 104.918 301.729 98.8614 296.976 94.1083C292.223 89.3553 286.167 86.1184 279.574 84.8071C272.981 83.4958 266.148 84.1683 259.937 86.7406C255.259 88.6784 251.093 91.6288 247.726 95.3555C245.572 91.7255 240.751 84.7997 240.751 84.7997C240.751 84.7997 243.752 82.0864 245.385 80.8785C251.212 76.569 257.969 73.6864 265.112 72.4616C272.255 71.2368 279.587 71.7046 286.516 73.8269C305.92 48.3983 340.857 10 374.906 10ZM228.937 103.603C228.937 103.603 236.146 116.613 238.737 123.568C237.71 136.194 233.209 145.621 228.629 152.128C228.629 152.128 251.181 152.128 265.631 152.128C265.769 156.955 265.984 164.487 265.984 164.487L251.98 171.218L245.339 164.487H214.239C212.917 164.486 211.628 164.061 210.565 163.273C209.503 162.486 208.721 161.378 208.334 160.114C207.948 158.849 207.978 157.493 208.419 156.246C208.86 155 209.689 153.926 210.786 153.186C211.504 152.692 226.598 141.994 226.598 118.141C226.598 113.187 228.937 103.603 228.937 103.603ZM78.8661 111.548C82.8902 111.548 86.7498 113.147 89.5953 115.992C92.4408 118.838 94.0393 122.697 94.0393 126.722C94.0393 129.723 93.1494 132.657 91.4821 135.152C89.815 137.647 87.4452 139.591 84.6729 140.74C81.9004 141.888 78.8488 142.189 75.9055 141.603C72.9623 141.018 70.2587 139.573 68.1368 137.451C66.0149 135.329 64.5699 132.625 63.9844 129.682C63.3989 126.739 63.6994 123.687 64.8478 120.915C65.9962 118.143 67.9408 115.773 70.4357 114.106C72.9309 112.438 75.8651 111.548 78.8661 111.548ZM190.136 111.548C194.161 111.548 198.02 113.147 200.866 115.992C203.711 118.838 205.31 122.697 205.31 126.722C205.31 129.723 204.42 132.657 202.752 135.152C201.085 137.647 198.715 139.591 195.943 140.74C193.171 141.888 190.119 142.189 187.176 141.603C184.233 141.018 181.529 139.573 179.407 137.451C177.285 135.329 175.84 132.625 175.255 129.682C174.669 126.739 174.97 123.687 176.118 120.915C177.266 118.143 179.211 115.773 181.706 114.106C184.201 112.438 187.135 111.548 190.136 111.548ZM134.501 81.202C138.525 81.202 142.385 82.8004 145.23 85.6459C148.076 88.4914 149.674 92.351 149.674 96.3752C149.674 99.3762 148.785 102.31 147.117 104.806C145.45 107.301 143.08 109.245 140.308 110.393C137.535 111.542 134.484 111.842 131.541 111.257C128.597 110.671 125.894 109.226 123.772 107.104C121.65 104.982 120.205 102.279 119.62 99.3358C119.034 96.3925 119.335 93.3409 120.483 90.5684C121.631 87.7961 123.576 85.4263 126.071 83.7591C128.566 82.0919 131.5 81.202 134.501 81.202ZM305.78 69.4776C303.231 72.5107 300.633 75.7417 297.986 79.1712C303.564 82.7721 308.312 87.5202 311.913 93.0985C315.338 90.4464 318.57 87.8491 321.608 85.3052C317.393 79.0661 312.02 73.6929 305.78 69.4776ZM367.969 23.1007C357.039 25.3485 338.524 33.4357 313.976 60.1075C320.559 64.7727 326.304 70.5186 330.97 77.1012C357.641 52.5533 365.768 34.0384 367.969 23.1007Z" fill="black"/>
</svg>
