<svg width="70" height="43" viewBox="0 0 70 43" fill="none" xmlns="http://www.w3.org/2000/svg">
<g clip-path="url(#clip0_736_12497)">
<g clip-path="url(#clip1_736_12497)">
<path d="M28.6625 17.1915C29.2021 17.0944 29.7418 16.9973 30.4701 16.8685C29.3777 16.4931 28.4739 16.1813 27.5364 15.8582C27.5364 15.9852 27.514 16.0674 27.5402 16.0879C29.3571 17.5183 28.1863 19.9963 26.0967 20.3623C23.3778 20.8385 20.7056 21.5873 17.9923 22.1083C17.0549 22.2876 16.054 22.1363 14.9765 22.1363C14.8364 22.8104 14.6553 23.6825 14.448 24.6815C27.1611 26.5807 39.792 26.8328 52.5163 24.4463C52.2791 23.3632 52.0756 22.4407 51.8777 21.5388C48.24 22.5042 44.5986 22.0971 40.9815 21.9795C39.5007 21.9309 38.9853 21.2288 38.8228 19.7031C37.7566 19.1354 37.5717 18.4016 38.2346 17.367C39.2019 15.8563 40.0703 15.5725 41.7677 16.1103C42.1206 16.2223 42.5725 16.1794 42.9385 16.0692C43.8648 15.7891 44.7256 16.002 45.1215 16.805C44.7013 16.7807 44.3503 16.7564 43.9992 16.7433C43.6911 16.7321 43.2523 16.6033 43.0973 16.7564C42.3802 17.4604 41.6799 17.0701 40.9479 16.8629C39.9993 16.594 39.0656 17.4025 38.9256 18.7172C40.1748 17.3334 41.805 17.5967 43.3139 17.4324C44.4268 17.3129 45.5473 17.2531 46.6658 17.2065C48.0047 17.1504 49.0075 16.6257 49.7414 15.4493C50.5126 14.2131 51.3716 13.0198 52.3015 11.8975C53.6573 10.2636 55.4275 9.6772 57.4891 10.2953C59.2202 10.8163 60.4769 12.0096 60.884 13.7275C61.4797 16.2298 61.8102 18.7956 62.2098 21.3427C62.2434 21.5518 61.9503 21.8114 61.8102 22.0467C61.616 21.8431 61.2967 21.6657 61.2481 21.4304C60.9251 19.8488 60.6935 18.2466 60.3593 16.6668C60.1426 15.6379 59.9223 14.5809 59.4947 13.6323C58.2099 10.7846 55.0746 10.3924 53.0914 12.8088C52.126 13.9852 51.1998 15.2028 50.3595 16.4707C49.6443 17.5519 48.7535 18.1103 47.4445 18.1495C45.4875 18.2092 43.5324 18.3642 41.5772 18.4968C41.2747 18.5173 40.8751 18.5286 40.6996 18.7134C40.3933 19.0365 40.0404 19.5015 40.059 19.8899C40.074 20.2167 40.5427 20.5957 40.8975 20.8105C41.1608 20.9711 41.5623 20.9337 41.9021 20.9337C44.3297 20.9393 46.7554 20.9281 49.183 20.93C50.6601 20.93 51.8123 20.3642 52.6619 19.1205C53.4145 18.0169 54.2343 16.9562 55.0653 15.9105C55.2576 15.6696 55.6236 15.5669 55.9112 15.4026C55.9056 15.763 56.0382 16.213 55.872 16.4707C55.0298 17.7723 54.1465 19.0495 53.1998 20.2764C52.8412 20.7395 52.6414 21.0812 52.8767 21.6788C53.1717 22.4258 53.2744 23.2493 53.5602 24C53.8981 24.887 53.4929 25.3351 52.7348 25.5256C51.5004 25.8337 50.2493 26.0821 48.9963 26.3006C47.9562 26.4817 46.903 26.6722 45.8535 26.6964C44.6453 26.7263 43.945 27.3687 43.7154 28.4032C42.9553 31.828 42.2551 35.2696 41.622 38.7205C41.4895 39.445 41.4166 40.3787 42.3951 40.7858C43.8666 41.3964 44.6827 41.092 45.0767 39.5496C45.706 37.0828 46.1822 34.5768 46.7274 32.0875C46.8264 31.6319 46.888 31.152 47.086 30.7412C47.2073 30.4891 47.5547 30.3472 47.7993 30.1567C47.9412 30.4331 48.2456 30.7393 48.1989 30.9783C47.6163 33.968 47.0598 36.9651 46.3334 39.9212C45.8554 41.8707 44.453 42.782 42.8209 42.2012C41.284 41.656 40.1916 40.9949 40.341 39.2004C40.4512 37.8708 40.5838 36.5356 40.8303 35.2285C41.1757 33.3966 41.6239 31.5852 42.0515 29.7701C42.3018 28.7039 42.5725 27.632 43.678 26.9336C40.3933 27.0774 37.1105 27.2212 33.6129 27.3743C33.6129 29.6095 33.6091 31.8691 33.6129 34.1305C33.6166 36.3396 33.6316 38.5487 33.639 40.7578C33.639 41.0061 33.7062 41.2862 33.6147 41.4972C33.4822 41.8016 33.2338 42.0556 33.0359 42.3301C32.8603 42.0649 32.569 41.8147 32.5298 41.5308C32.4308 40.7932 32.4159 40.0426 32.414 39.2956C32.4047 35.3461 32.4103 31.3966 32.4103 27.3836C29.5028 27.2249 26.4739 27.0606 23.389 26.8925C25.9212 29.561 25.8577 33.0959 26.7465 36.2854C27.0285 37.2956 27.1088 38.3657 27.247 39.4132C27.4711 41.1014 26.7335 42.2554 25.1873 42.6905C23.6262 43.1293 22.0968 42.5504 21.5889 41.0267C20.8849 38.9109 20.4199 36.7149 19.8746 34.5487C19.6543 33.6748 19.447 32.7934 19.3163 31.9045C19.2715 31.5946 19.4731 31.2472 19.5609 30.9167C19.8223 31.1651 20.2388 31.3686 20.3228 31.6655C21.122 34.5077 21.8652 37.3647 22.6215 40.2181C22.8027 40.9015 23.1369 41.3983 23.9137 41.4935C25.3367 41.669 26.1695 40.9314 25.8894 39.4674C25.3012 36.39 24.5916 33.335 23.8988 30.2781C23.7625 29.6786 23.5328 29.0867 23.2546 28.5377C22.7709 27.5853 21.9287 27.068 20.8942 26.8944C18.9951 26.5732 17.0885 26.2968 15.1894 25.9756C14.7655 25.9047 14.2874 25.8188 13.9681 25.5685C13.6805 25.3445 13.3743 24.8533 13.4247 24.5359C13.5834 23.5312 13.9046 22.5546 14.1679 21.55C13.083 20.1961 11.9588 18.7937 10.8365 17.3895C10.7208 17.2438 10.5695 17.1019 10.5191 16.9338C10.4164 16.5921 10.3734 16.2335 10.3043 15.8825C10.6311 16.0468 11.0457 16.1346 11.2716 16.3904C12.2259 17.4567 13.1147 18.579 14.0447 19.6676C15.0941 20.8964 16.3173 21.4491 18.0035 20.9991C20.5823 20.3119 23.206 19.789 25.8091 19.1859C26.909 18.9319 27.4001 18.2522 27.1835 17.3334C26.9818 16.4856 26.1359 16.0244 25.1126 16.2709C22.9987 16.7788 20.8867 17.298 18.7859 17.8526C17.5852 18.17 16.6385 17.8488 15.9214 16.8666C15.0419 15.6621 14.1679 14.4521 13.3351 13.2159C12.2632 11.6249 10.4201 10.9339 8.8123 11.6025C7.65079 12.0842 6.98414 13.0347 6.78433 14.2168C6.41272 16.4203 6.15316 18.6443 5.84878 20.859C5.82823 21.0122 5.85998 21.1933 5.79089 21.3184C5.63963 21.5892 5.43795 21.8301 5.25682 22.084C5.13731 21.8002 4.89641 21.5089 4.91509 21.2362C5.07568 18.9431 5.16905 16.635 5.50518 14.3662C5.87118 11.8919 7.26611 10.482 9.42106 10.2411C11.2978 10.032 12.9261 10.6538 14.0858 12.2094C15.0325 13.4792 15.927 14.7882 16.8401 16.0842C17.3032 16.7415 17.8821 16.9824 18.6888 16.7564C20.7224 16.1887 22.7821 15.7032 24.8026 15.0963C25.8259 14.7882 26.7839 14.6836 27.8035 15.059C28.7334 15.4007 29.6802 15.7256 30.6494 15.9124C31.1629 16.0113 31.7324 15.7667 32.2814 15.7424C32.5167 15.7312 32.8024 15.8358 32.9798 15.9871C33.0695 16.0636 33.0377 16.4147 32.9388 16.5566C32.4925 17.1896 29.6839 17.9814 28.9519 17.7032C28.8455 17.6621 28.7614 17.5594 28.6681 17.4847C28.6643 17.3913 28.6606 17.2961 28.6569 17.2027L28.6625 17.1915Z" fill="white"/>
<path d="M58.1491 40.2754C56.9745 40.6265 55.9194 40.8823 54.9148 41.2744C54.5395 41.4201 54.3023 41.9 53.9718 42.1932C53.7402 42.3986 53.4583 42.5442 53.1987 42.7179C53.0661 42.378 52.7692 42.0046 52.8289 41.7039C53.0325 40.7068 53.8467 40.281 54.7337 39.9822C55.6748 39.6648 56.6328 39.3847 57.5459 39.0018C57.8036 38.8954 58.0837 38.4958 58.0987 38.2175C58.1622 37.1046 58.1248 35.9842 58.1248 34.7946C56.9073 34.7256 55.7084 34.6527 54.5096 34.5911C53.9811 34.5631 53.4508 34.5743 52.9242 34.5407C52.1343 34.4921 51.2267 34.6509 50.8589 33.6649C50.547 32.8283 50.9802 31.4408 51.8374 30.9292C52.6198 30.4623 53.5087 30.0198 54.3919 29.9115C56.052 29.7098 57.7439 29.7378 59.4226 29.7247C59.6841 29.7229 59.9455 30.0123 60.2088 30.1654C59.953 30.3335 59.7102 30.6211 59.4413 30.6472C58.3284 30.7518 57.2023 30.735 56.0894 30.8451C55.2304 30.931 54.3546 31.0524 53.5367 31.3139C52.7057 31.579 52.0801 32.1336 52.1922 33.2055C52.42 33.2559 52.6273 33.3418 52.8327 33.3437C56.0969 33.3773 59.3629 33.4595 62.6271 33.4035C64.3805 33.3736 65.0957 32.6808 65.4487 30.9927C66.3637 26.6118 67.2693 22.2272 68.1227 17.8333C68.231 17.2731 68.7539 16.4346 67.7044 16.1153C66.782 15.8333 65.8744 16.3151 65.6205 17.3384C65.1798 19.1162 64.8492 20.9219 64.472 22.7165C64.1471 24.2664 63.852 25.8238 63.473 27.3625C63.3964 27.6762 63.008 27.9152 62.7634 28.1879C62.5916 27.8331 62.2181 27.4409 62.2797 27.1328C62.9408 23.7491 63.6186 20.3655 64.4011 17.0061C64.8231 15.191 67.0471 14.2928 68.7707 15.0901C69.471 15.415 69.5886 16.0145 69.4915 16.6531C69.1461 18.9257 68.7913 21.2002 68.3748 23.4616C67.9136 25.9676 67.3758 28.4605 66.8828 30.9591C66.4085 33.3624 65.4953 34.2849 63.0715 34.6023C61.9118 34.7554 60.7298 34.748 59.5235 34.8152C59.5235 36.0439 59.4843 37.2502 59.5534 38.451C59.5683 38.7199 59.9119 39.0821 60.1901 39.2054C61.1836 39.6423 62.2648 39.9038 63.2153 40.4098C63.8614 40.7534 64.4067 41.351 64.866 41.9373C64.9967 42.1035 64.6588 42.6357 64.5374 42.9999C64.2293 42.8206 63.8857 42.6824 63.6205 42.4527C63.3329 42.2044 63.1742 41.7431 62.8586 41.6031C61.7886 41.1269 60.6738 40.7534 59.4637 40.2978C59.4637 40.9794 59.5384 41.5433 59.4357 42.0737C59.3741 42.3837 59.0268 42.6357 58.8083 42.914C58.5879 42.6264 58.2425 42.365 58.179 42.0457C58.0744 41.5172 58.151 40.9514 58.151 40.2773L58.1491 40.2754Z" fill="white"/>
<path d="M9.22243 34.8841C9.22243 36.111 9.17201 37.2333 9.25231 38.3444C9.27658 38.6824 9.59777 39.153 9.90402 39.2893C10.7499 39.6665 11.6687 39.8794 12.5445 40.195C13.4483 40.5217 14.255 41.0147 14.5071 42.0175C14.5706 42.2696 14.4025 42.7495 14.2008 42.8504C14.0029 42.9493 13.4053 42.7533 13.3699 42.5983C13.1234 41.5189 12.2046 41.3994 11.4054 41.1156C10.7667 40.8877 10.1076 40.7122 9.26911 40.4564C9.26911 41.0558 9.33634 41.5731 9.24484 42.0605C9.18882 42.3611 8.88817 42.6151 8.6977 42.8896C8.44747 42.6244 8.06279 42.3947 7.98062 42.0847C7.85738 41.6235 7.94888 41.1062 7.94888 40.4265C6.80791 40.785 5.76965 41.0558 4.78181 41.4517C4.46996 41.5749 4.32057 42.0605 4.04233 42.32C3.80331 42.5422 3.48399 42.6786 3.20202 42.8541C3.0769 42.5422 2.75758 42.1015 2.86402 41.9447C3.2599 41.3546 3.70621 40.7029 4.30003 40.3611C5.12168 39.8887 6.08524 39.6553 7.00025 39.3584C7.6389 39.1511 7.96755 38.8392 7.90966 38.0848C7.82937 37.0391 7.88912 35.9822 7.88912 34.8841C6.58196 34.7926 5.34576 34.746 4.1189 34.6115C1.57927 34.3314 0.492458 33.2577 0.109646 30.7311C-0.577547 26.2102 -1.26101 21.693 -1.94633 17.1758C-2.17789 15.6502 -1.67556 15.034 -0.138714 14.9593C1.37759 14.8846 2.54097 15.6203 2.99474 17.0825C3.27858 17.9975 3.4317 18.9573 3.58856 19.9059C3.97698 22.2346 4.35419 24.5669 4.68098 26.9049C4.72953 27.2485 4.4737 27.6331 4.35979 27.9991C4.06101 27.7041 3.55682 27.4445 3.49519 27.1065C2.9854 24.2924 2.60819 21.4559 2.07599 18.6473C1.93034 17.8761 1.51018 17.0806 0.996649 16.4887C0.737084 16.1899 -0.0285392 16.2422 -0.538332 16.315C-0.652242 16.3318 -0.766152 17.1161 -0.700794 17.5176C0.0237472 21.932 0.776299 26.3428 1.53632 30.7535C1.81456 32.3651 2.74078 33.3398 4.40647 33.4108C7.76027 33.5527 11.1215 33.549 14.4791 33.5938C15.2074 33.6031 15.325 33.1848 15.0729 32.6041C14.7237 31.803 14.0104 31.4538 13.2167 31.3772C11.6089 31.2241 9.99179 31.1681 8.38211 31.0467C8.0161 31.0187 7.64263 30.9272 7.30277 30.7909C7.14404 30.7255 6.92369 30.4155 6.96477 30.3315C7.05441 30.1466 7.30464 29.902 7.4727 29.9132C9.73035 30.0775 11.9936 30.2138 14.2363 30.5033C15.4109 30.6545 16.1224 31.5322 16.4398 32.6694C16.7872 33.9094 16.2325 34.6955 14.9441 34.746C13.3269 34.8095 11.7098 34.8132 10.0926 34.8468C9.81812 34.8524 9.54175 34.8711 9.22429 34.8841H9.22243Z" fill="white"/>
<path d="M51.3204 10.5503C48.101 10.5167 45.7761 8.22352 45.8209 5.12181C45.862 2.27594 48.3811 -0.0433391 51.382 -0.0003895C54.4576 0.0444275 56.887 2.46081 56.859 5.443C56.831 8.31689 54.3754 10.5801 51.3204 10.5484V10.5503ZM51.3166 9.36075C53.6714 9.36635 55.5481 7.61662 55.535 5.42806C55.522 3.16854 53.5369 1.19846 51.2942 1.21714C48.9637 1.23581 47.1038 3.02662 47.1244 5.23012C47.1468 7.4747 49.0552 9.35702 51.3166 9.36262V9.36075Z" fill="white"/>
<path d="M9.19531 5.52721C9.20091 2.50206 11.6827 0.0800781 14.7806 0.0800781C17.6657 0.0800781 20.0485 2.48152 20.0597 5.40209C20.0709 8.44964 17.8599 10.7241 14.8889 10.7241C11.7088 10.7241 9.19345 8.42537 9.19718 5.52721H9.19531ZM14.5902 9.51031C17.0047 9.49164 18.7787 7.70643 18.7581 5.31806C18.7376 3.18739 16.7731 1.28453 14.6368 1.32375C12.3437 1.3667 10.4409 3.24528 10.4409 5.46372C10.4409 7.64481 12.3717 9.52712 14.592 9.51031H14.5902Z" fill="white"/>
<path d="M16.0139 22.6383C17.5246 22.8175 19.0315 23.0285 20.5441 23.1686C27.3096 23.7942 34.0919 23.8595 40.8705 23.5309C43.3111 23.4132 45.735 22.9538 48.1682 22.6551C48.5155 22.6121 48.8666 22.599 49.311 22.5654C49.0963 23.486 48.4053 23.5925 47.8507 23.684C45.7667 24.0313 43.6771 24.4851 41.5763 24.5523C34.3309 24.7857 27.0799 24.8922 19.8513 24.1079C18.927 24.007 18.0026 23.8539 17.0932 23.6541C16.6731 23.5607 16.2902 23.2974 15.8906 23.1107C15.9317 22.9538 15.9709 22.797 16.012 22.6401L16.0139 22.6383Z" fill="white"/>
<path d="M28.3509 20.8226C28.8737 20.55 29.3873 20.0663 29.9213 20.0421C32.1192 19.9431 34.3227 19.9767 36.5244 19.9842C36.7877 19.9842 37.079 20.0813 37.3087 20.2157C38.2274 20.7535 38.2367 21.3903 37.3591 21.9711C36.6644 22.4323 35.7102 22.5033 34.9632 22.0178C35.6616 21.6835 36.2629 21.3978 36.8642 21.1102C36.8642 21.043 36.8642 20.9776 36.8642 20.9104C36.558 20.8731 36.2499 20.8021 35.9436 20.8058C33.7457 20.8264 31.546 20.8637 29.3481 20.8861C29.0101 20.8899 28.6721 20.8357 28.3359 20.8096L28.3527 20.8245L28.3509 20.8226Z" fill="white"/>
<path d="M28.3373 20.8076C28.778 21.028 29.2094 21.2726 29.6632 21.4575C29.9825 21.5882 30.3354 21.6349 30.8882 21.7749C29.5773 22.5592 25.6371 22.2791 24.625 21.3902C24.9574 21.2408 25.3365 20.9477 25.4597 21.0317C26.4998 21.7357 27.4186 21.2408 28.3541 20.8282C28.3504 20.8226 28.3336 20.8076 28.3336 20.8076H28.3373Z" fill="white"/>
</g>
</g>
<defs>
<clipPath id="clip0_736_12497">
<rect width="70" height="43" fill="white"/>
</clipPath>
<clipPath id="clip1_736_12497">
<rect width="71.5241" height="43" fill="white" transform="translate(-2)"/>
</clipPath>
</defs>
</svg>
