<svg width="81" height="58" viewBox="0 0 81 58" fill="none" xmlns="http://www.w3.org/2000/svg">
<g clip-path="url(#clip0_1041_2621)">
<path d="M7.22274 23.0828C9.14748 23.5912 10.8424 23.9627 12.4862 24.4921C14.1393 25.0261 15.2096 26.2241 15.6786 27.9051C16.5284 30.9559 17.3897 34.002 18.1768 37.0691C18.8083 39.5255 19.6186 40.2662 22.1912 40.4031C23.9673 40.4983 25.7458 40.5471 27.5219 40.6214C27.9863 40.64 28.4529 40.6446 28.9127 40.705C31.6825 41.0765 34.0623 41.9703 34.6544 45.1233C36.9645 45.2255 39.2004 45.3253 41.4363 45.4228C42.5228 45.4692 42.6366 45.7246 42.4578 46.788C41.9308 49.9108 41.485 53.0475 40.9835 56.1749C40.9185 56.5812 40.7072 56.9643 40.2986 57.3126C39.9062 53.7672 40.4193 50.3032 40.8883 46.8484C38.8545 46.5674 36.8159 46.2865 35.056 46.045C34.0345 46.2795 33.1986 46.6371 32.3651 46.6371C28.6132 46.6394 24.8612 46.5396 21.1115 46.4815C20.1968 46.4676 19.2797 46.4815 18.3579 46.4815C18.3579 47.9466 18.2952 49.523 18.402 51.0879C18.4299 51.4896 18.9151 52.0236 19.3215 52.2093C20.9397 52.9407 22.6439 53.4816 24.2436 54.2502C25.0841 54.6541 25.8595 55.3019 26.4771 56.0031C26.7 56.2585 26.563 57.2034 26.2659 57.4612C25.7249 57.9348 25.3882 57.3938 25.0632 56.883C24.7915 56.4581 24.3318 56.0658 23.8675 55.8615C22.0727 55.0721 20.2409 54.3639 18.2093 53.5374C18.2093 54.6518 18.2093 55.5945 18.2093 56.5371C18.2093 57.2104 18.2302 58.0021 17.3247 58.0044C16.41 58.0044 16.5887 57.1918 16.5818 56.5951C16.5725 55.7175 16.5794 54.8399 16.5794 53.8578C14.6965 54.6541 12.9134 55.3646 11.1744 56.1749C10.7286 56.3815 10.4616 56.9457 10.0506 57.2661C9.78132 57.4751 9.34019 57.7142 9.09176 57.6237C8.85494 57.5354 8.55311 56.897 8.65294 56.746C9.0964 56.0727 9.55843 55.2787 10.2225 54.9095C11.7362 54.0691 13.3568 53.4074 14.9681 52.7596C16.2149 52.2604 16.7489 51.4826 16.6236 50.1058C16.5051 48.8103 16.598 47.4938 16.598 46.0381C14.1904 45.778 11.8639 45.4042 9.5236 45.3044C6.20116 45.1628 5.04724 44.5057 4.17194 41.2947C2.93211 36.751 1.86178 32.1609 0.726439 27.587C0.49194 26.6397 0.289947 25.6855 0.0647357 24.7382C-0.151188 23.8281 0.243512 23.301 1.31152 23.2639C2.8137 23.2128 4.31821 23.2523 5.61143 23.2523C5.61143 21.901 5.54642 20.6426 5.63001 19.3935C5.71127 18.2024 6.35672 17.2041 7.3899 16.6701C10.8029 14.9055 14.4086 13.6262 18.2859 14.4621C19.9646 14.8243 21.4877 15.9341 23.0688 16.7258C23.4751 16.9301 23.8396 17.218 24.3063 17.4154C22.4698 15.5347 22.0124 13.0969 21.3994 10.5778C20.0783 12.3191 18.3138 13.2664 16.2103 13.4242C14.1161 13.5821 12.2377 12.9135 10.6938 11.4484C8.38594 9.259 8.06089 5.92494 9.86723 3.18526C11.7734 0.290018 15.6531 -0.817464 18.7805 0.640604C22.1354 2.20547 23.1825 5.18198 21.9497 9.75121C23.4844 9.53296 24.7335 9.95552 25.3743 11.4415C25.4973 11.727 25.2675 12.1658 25.2025 12.535C24.8705 12.326 24.362 12.1867 24.2436 11.8919C23.9766 11.2325 23.6515 10.8378 22.7275 10.94C23.5865 12.737 23.8025 14.7453 25.2861 16.1802C25.4509 16.3404 25.6297 16.5308 25.6924 16.7397C26.4493 19.2588 28.6991 20.3245 30.5495 21.7849C31.0951 22.2144 32.0633 22.6416 31.462 23.4543C30.8188 24.3249 30.2825 23.3033 29.7624 22.976C26.1637 20.7215 22.5951 18.4137 18.9639 16.2127C18.2767 15.7971 17.348 15.6137 16.5284 15.6113C13.6563 15.5997 10.9143 16.3195 8.45559 17.7775C7.78228 18.1769 7.25524 19.1938 7.102 20.0088C6.9093 21.035 7.17166 22.1448 7.2297 23.0851L7.22274 23.0828ZM32.7296 45.0211C32.6832 43.7627 32.0494 43.0267 31.0626 42.7528C29.8089 42.4022 28.5064 42.1607 27.2108 42.04C24.9401 41.831 22.6532 41.7962 20.3825 41.5989C18.4856 41.434 17.2667 40.3637 16.7605 38.5132C16.6073 37.9537 16.4773 37.3895 16.338 36.8253C15.7343 34.3875 15.1051 31.9566 14.5317 29.5117C13.9605 27.0809 12.4351 25.7203 10.0158 25.2885C9.29375 25.1608 8.57168 24.9379 7.84729 24.9216C5.7043 24.8729 3.56131 24.903 1.33474 24.903C1.38814 25.2327 1.40672 25.5346 1.48566 25.8225C2.28666 28.6875 3.08767 31.5503 3.90958 34.4083C4.56199 36.6744 5.21209 38.9404 5.92255 41.1856C6.30564 42.3999 6.90233 43.4911 8.37665 43.6583C11.258 43.981 14.13 44.4337 17.0206 44.587C22.0008 44.854 26.9902 44.9352 31.9751 45.0885C32.2003 45.0954 32.4255 45.0467 32.7296 45.0165V45.0211ZM20.8538 6.69112C20.8677 3.82839 18.6481 1.45787 15.934 1.43929C13.0411 1.4184 10.4639 3.90501 10.4291 6.75149C10.3919 9.57011 12.7184 11.871 15.602 11.8663C18.5344 11.8617 20.8422 9.58636 20.8561 6.69112H20.8538Z" fill="white"/>
<path d="M52.0628 53.2915C51.3546 52.7273 50.7649 52.4441 50.4538 51.9751C47.5028 47.5405 44.596 43.0781 41.6915 38.611C41.3269 38.0491 40.9648 37.6846 40.238 37.4826C38.0115 36.8627 35.836 36.064 33.6419 35.3257C33.4724 35.2676 33.3215 35.1539 33.1172 34.7638C33.498 34.6617 33.9252 34.397 34.2549 34.4852C36.4048 35.0726 38.5083 35.8388 40.6745 36.3403C42.3183 36.7188 42.9127 38.0143 43.7021 39.1798C46.2793 42.9898 48.8518 46.8022 51.3848 50.6424C51.7633 51.2158 52.0999 51.3784 52.692 51.058C52.894 50.9488 53.1215 50.8328 53.3398 50.8235C53.6021 50.8142 53.8691 50.9187 54.1338 50.9744C54.0247 51.195 53.9457 51.4364 53.7995 51.6268C53.6625 51.8056 53.4582 51.9333 53.1935 52.1585C53.4698 53.0036 53.695 53.8975 54.0688 54.724C54.1872 54.9864 54.7769 55.2859 55.0277 55.2C58.1644 54.1297 61.2802 52.9943 64.396 51.8636C64.6282 51.78 64.8255 51.5989 65.327 51.2832C64.064 50.9512 63.0749 50.6795 62.0789 50.4381C61.4775 50.2918 60.8437 50.2616 60.2633 50.0689C59.0141 49.651 57.8045 49.1843 56.5577 50.1177C56.3488 50.2732 55.9262 50.1385 55.6012 50.1385C55.5594 50.0062 55.5176 49.8739 55.4758 49.7415C56.1932 49.2818 56.9083 48.8198 57.7163 48.302C54.6446 42.7414 51.5799 37.2086 48.5337 31.6643C47.396 29.5933 45.7963 28.4695 43.3167 28.516C41.4732 28.5508 39.6228 28.2373 37.7746 28.0632C37.4426 28.0307 37.1176 27.9123 36.7879 27.8334L36.6741 27.4851C37.1013 27.2877 37.5332 26.9093 37.9534 26.9232C40.6142 27.0115 43.3028 26.9906 45.9124 27.4247C47.0129 27.6081 48.1785 28.6367 48.9029 29.5956C50.3656 31.5296 51.5636 33.6633 52.8266 35.7436C53.1633 36.2985 53.5046 36.5214 54.1895 36.5168C61.4218 36.4703 68.6564 36.461 75.8887 36.4889C76.3113 36.4889 76.7339 36.8859 77.1564 37.0972C76.7339 37.3154 76.3136 37.7218 75.8911 37.7241C68.6216 37.7635 61.3498 37.7519 53.8111 37.7519C55.4967 40.9374 57.101 43.8721 58.5986 46.8579C59.1906 48.0397 59.9893 48.6758 61.3011 48.8593C62.6361 49.045 63.9479 49.3933 65.262 49.7067C66.1187 49.911 66.7479 50.4241 66.8246 51.3528C66.9058 52.3001 66.2047 52.7227 65.4663 53.0106C64.2103 53.5028 62.9286 53.93 61.661 54.392C59.706 55.1048 57.7349 55.7781 55.8055 56.5536C54.1547 57.2153 53.2538 56.9088 52.6247 55.2395C52.3414 54.4872 52.1696 53.6932 52.0558 53.2962L52.0628 53.2915Z" fill="white"/>
<path d="M60.3828 14.9731C63.0041 14.871 64.2903 15.8415 64.4296 17.8289C64.6223 20.5918 63.3965 22.087 60.6289 22.3889C60.3665 23.8167 59.3171 24.4692 58.0007 24.7501C55.7439 25.2307 53.4802 25.2841 51.2397 24.6247C49.5564 24.1302 49.0456 23.4499 49.041 21.7063C49.0363 19.5052 49.1037 17.2996 49.0038 15.1032C48.9504 13.9237 49.4566 13.2249 50.4503 12.8882C53.4732 11.862 56.5287 11.9409 59.5609 12.8603C60.5569 13.1622 60.8123 13.9307 60.3851 14.9731H60.3828ZM50.3388 15.7231C50.4503 17.9775 50.5037 20.0183 50.6894 22.0476C50.7219 22.4121 51.242 22.8927 51.639 23.039C53.8958 23.8609 56.1804 23.8028 58.4256 22.9693C58.7668 22.8416 59.2382 22.433 59.2475 22.1404C59.3194 20.0694 59.2846 17.9938 59.2846 15.9158C56.4892 16.8306 53.5127 17.0651 50.3365 15.7254L50.3388 15.7231ZM50.4944 14.4043C52.8858 15.6256 57.8567 15.4584 59.013 14.1977C56.2013 13.2899 53.4895 13.2992 50.4944 14.4043ZM60.5685 20.8681C61.6946 20.7706 62.477 20.3689 62.7069 19.3915C62.9298 18.4488 63.0621 17.3599 62.1659 16.7214C61.6783 16.3755 60.8843 16.4614 60.3108 16.3685C60.406 18.0356 60.485 19.4008 60.5685 20.8681Z" fill="white"/>
<path d="M26.2138 28.1098C27.0891 30.0067 27.8901 31.6667 28.6098 33.3616C28.7863 33.7772 28.9001 34.5922 28.705 34.7222C27.9899 35.2005 27.6718 34.4761 27.4722 33.9792C26.7106 32.0893 26.035 30.1646 25.2781 28.2723C25.0993 27.8242 24.7998 27.3459 24.4214 27.0673C23.3975 26.3104 22.2784 25.6812 21.2452 24.9359C21.0061 24.7641 20.9573 24.33 20.8203 24.0165C21.1384 24.0351 21.5029 23.9585 21.7653 24.0885C24.1869 25.2912 26.5736 26.5612 29.0069 27.736C29.722 28.0819 30.5415 28.2862 31.3356 28.3745C33.8802 28.6601 35.4846 26.8723 34.723 24.3996C34.2656 22.916 33.3811 21.5531 32.6009 20.1879C32.183 19.4566 31.6281 18.7856 31.0454 18.1703C29.4248 16.4615 28.4589 14.5043 28.1455 12.1314C27.8854 10.1672 26.0304 8.64644 24.0685 8.3864C23.6482 8.33068 23.2396 8.19602 22.824 8.09851C22.824 7.99171 22.8194 7.88258 22.817 7.77578C23.1839 7.64576 23.5507 7.51574 23.9454 7.37644C23.6947 7.02121 23.4462 6.67294 23.1978 6.32468C23.2442 6.21788 23.2883 6.10875 23.3348 6.00195C23.7295 6.08089 24.1613 6.07857 24.5096 6.24806C27.3329 7.62022 29.3203 9.60998 29.8589 12.9046C30.047 14.0585 30.7551 15.1776 31.4145 16.1899C32.5104 17.8708 33.8338 19.4055 34.9157 21.0957C35.5287 22.0523 36.0604 23.1551 36.267 24.2603C36.9728 28.0494 33.8779 30.7543 30.1468 29.6607C28.9001 29.2962 27.7183 28.7135 26.2114 28.1121L26.2138 28.1098Z" fill="white"/>
<path d="M61.0328 26.493C63.8422 26.493 66.3497 26.5325 68.8548 26.4698C69.6884 26.4489 70.5358 26.2307 71.3368 25.9753C72.2075 25.6967 72.8738 25.7942 73.5425 26.4605C74.9379 27.8536 76.4029 29.177 77.8169 30.5491C78.0142 30.7419 78.2766 31.1528 78.1999 31.2851C78.0258 31.587 77.6729 31.9585 77.3688 31.9817C75.3047 32.1372 73.2314 32.1976 71.165 32.3114C69.5166 32.4042 67.8681 32.5226 66.2196 32.6457C64.6571 32.7618 63.0969 32.9522 61.532 33.0125C60.1181 33.0659 59.4146 32.1094 58.9084 30.9322C58.4719 29.9153 58.0099 28.9077 57.5177 27.9163C57.2182 27.3126 57.3598 26.8993 57.996 26.8065C59.1011 26.6439 60.2202 26.5766 61.0351 26.4977L61.0328 26.493ZM58.8829 27.6121C59.3542 28.7985 59.7094 29.7249 60.0925 30.6397C60.1761 30.8417 60.3177 31.0924 60.4965 31.1691C61.5831 31.6334 62.6023 32.0792 63.9234 31.8099C66.6654 31.2503 69.4515 30.9485 72.2864 31.176C73.4868 31.2712 74.7219 30.9369 76.1707 30.7697C74.9588 29.4951 73.9511 28.4828 73.0038 27.4171C72.5093 26.8622 72.0542 26.825 71.374 27.0758C70.5892 27.3683 69.7348 27.6005 68.9059 27.6237C66.5586 27.6864 64.209 27.6237 61.8594 27.6144C60.9005 27.6098 59.9439 27.6144 58.8829 27.6144V27.6121Z" fill="white"/>
<path d="M54.3005 33.6606C54.6116 33.6025 54.9204 33.498 55.2315 33.4934C62.3779 33.3773 69.5266 33.2705 76.673 33.1707C76.9377 33.166 77.2418 33.18 77.4601 33.303C77.6621 33.4168 77.9035 33.6977 77.8896 33.8904C77.878 34.0669 77.5599 34.2387 77.3556 34.3757C77.2743 34.4291 77.1304 34.3873 77.0143 34.3873C70.987 34.443 64.9597 34.508 58.9324 34.5428C57.7367 34.5498 56.5386 34.4685 55.3452 34.371C54.9784 34.3408 54.6255 34.1203 54.2656 33.9879C54.2772 33.8788 54.2888 33.7674 54.3028 33.6582L54.3005 33.6606Z" fill="white"/>
<path d="M65.1273 17.2087C65.6219 17.0717 66.1164 16.8233 66.6109 16.821C68.5055 16.8117 70.407 16.8001 72.2876 16.9673C73.0329 17.0346 73.9477 17.3829 74.4237 17.9215C76.367 20.1202 78.1826 22.4327 80.0052 24.7336C80.1445 24.9077 79.975 25.3256 79.9495 25.6298C79.5664 25.5021 79.0463 25.4881 78.8257 25.2258C77.5859 23.7468 76.4181 22.2075 75.2247 20.6891C75.1295 20.5683 75.0111 20.4615 74.9228 20.3385C73.827 18.8131 72.3805 18.0817 70.4651 18.1398C69.1161 18.1815 67.7602 18.0353 66.4113 17.9331C65.9817 17.9006 65.5638 17.7381 65.1412 17.6359C65.1366 17.492 65.132 17.3504 65.125 17.2064L65.1273 17.2087Z" fill="white"/>
<path d="M41.4855 17.0494C39.7907 17.0494 38.0958 17.068 36.4009 17.0308C36.1269 17.0239 35.8576 16.7685 35.5859 16.6292C35.839 16.4481 36.0874 16.123 36.3475 16.1114C39.7721 15.9651 43.199 15.8467 46.6259 15.7794C46.9347 15.7724 47.2528 16.1787 47.5662 16.3923C47.2342 16.5711 46.9069 16.8962 46.5679 16.9078C44.8753 16.9612 43.1781 16.9333 41.4832 16.9333C41.4832 16.9728 41.4832 17.0122 41.4832 17.0517L41.4855 17.0494Z" fill="white"/>
<path d="M55.934 6.08496C56.6444 6.96491 57.9423 7.46641 57.8285 8.87804C57.7566 9.76496 57.2017 10.4034 56.0013 10.8399C56.1429 10.2665 56.1662 9.89033 56.3264 9.5885C56.7164 8.85947 56.728 8.25349 56.129 7.59179C55.8202 7.25049 55.7436 6.69791 55.5625 6.24052C55.6856 6.18944 55.8109 6.13604 55.934 6.08496Z" fill="white"/>
<path d="M53.1378 6.10388C52.7315 7.58749 53.2028 8.39779 54.2012 9.09664C54.8791 9.57028 54.7003 10.1832 53.9876 10.7846C53.435 10.0904 52.8638 9.41704 52.3414 8.70426C51.768 7.9195 51.9653 7.03491 53.1378 6.10156V6.10388Z" fill="white"/>
<path d="M53.6028 6.59192C52.962 5.75376 52.7926 4.82506 53.2871 3.84527C53.3985 3.62471 53.7607 3.42736 54.0161 3.41807C54.1903 3.4111 54.5478 3.77098 54.5292 3.9335C54.4224 4.84363 54.2274 5.74448 54.0626 6.64764C53.9093 6.62907 53.7561 6.61049 53.6052 6.59192H53.6028Z" fill="white"/>
<path d="M48.9292 50.9785C48.7017 53.2655 48.4765 55.5524 48.249 57.837C48.0748 57.8184 47.9007 57.8022 47.7266 57.7836C48.0284 55.5199 48.3302 53.2562 48.6321 50.9924C48.7296 50.9878 48.8294 50.9832 48.9269 50.9785H48.9292Z" fill="white"/>
</g>
<defs>
<clipPath id="clip0_1041_2621">
<rect width="80.0568" height="58" fill="white"/>
</clipPath>
</defs>
</svg>
