<svg width="385" height="290" viewBox="0 0 385 290" fill="none" xmlns="http://www.w3.org/2000/svg">
<path d="M114.888 225.182V168.182M64.3876 102.182C109.754 106.795 115.389 134.682 114.888 152.182V168.182M64.3876 102.182C11.3841 93.6826 -28.6162 189.182 60.8878 210.683V281.682H320.389C320.389 262.182 319.889 210.182 320.389 210.182C381.389 210.182 406.389 111.182 324.389 101.182M64.3876 102.182C64.3876 102.182 41.8913 3.18258 122.389 8.18221H274.391C334.391 15.1826 326.891 80.6826 324.389 101.182M324.389 101.182C304.555 99.015 270.389 108.182 270.389 168.182M270.389 168.182V224.182M270.389 168.182H114.888" stroke="white" stroke-width="16" stroke-linecap="round"/>
</svg>
