<?xml version="1.0" encoding="UTF-8"?>
<svg id="Layer_1" data-name="Layer 1" xmlns="http://www.w3.org/2000/svg" viewBox="0 0 493.62 427">
  <defs>
    <style>
      .cls-1 {
        fill: #e9afac;
      }
    </style>
  </defs>
  <path class="cls-1" d="m291.59,427c-2.29-11.43-.64-22.52,1.84-33.81,2.29-10.41,3.08-21.18,4.07-31.84.54-5.82.47-11.75.03-17.59-.75-9.92-2.67-19.79-2.9-29.71-.3-12.76.55-25.55,1-38.33.04-1.05.86-2.04,1.17-3.11,1-3.48,2.04-6.87-2.42-9.09-3.85-1.91-2.79-5.92-3.07-9.16-.35-3.99.02-8.04-.31-12.03-.4-4.77-2.95-7.54-7.85-8.96-2.58-.74-4.58-3.61-6.73-5.63-3.74-3.52-7.05-7.54-12.85-7.91-4.56-.3-7.64-2.28-5.47-8.08-3.32.52-5.98.62-8.45,1.38-6.17,1.89-12.1-.45-18.15-.59-8.57-.21-17.21.47-25.71-.35-5.63-.54-11.23-2.67-16.52-4.84-2.38-.97-3.64-4.72-6.01-5.6-4.5-1.68-9.45-3.11-14.18-3.01-7.76.17-14-2.22-20.13-6.79-2.85-2.13-7.3-3.2-10.92-3-5.01.29-8.49-3.47-9.99-5.71-3.34-4.97-8.01-9.29-9.59-15.62-1.1-4.38-3.41-8.66-6.02-12.4-1.89-2.72-5.15-4.48-7.78-6.69-.25-.21-.47-.58-.52-.91-1.08-6.85-7.77-8.65-11.62-13-1.4-1.58-2.13-3.74-3.17-5.63.44-.58.88-1.15,1.32-1.73-5.92-2.18-12.21-3.72-17.66-6.76-4.24-2.36-10.49-2.22-12.28-8.26-.47-1.57-.66-3.23-1.16-4.79-1.75-5.34-4.23-10.54-5.21-16.01-1.16-6.52-5.62-5.38-9.88-5.7-2.76-.21-4.74-1.3-3.57-4.78.36-1.08-.1-2.42-.11-3.64-.02-4.62,0-9.24,0-14.61-.5-.21-1.78-.85-3.12-1.29-5.25-1.74-6.8-6.47-4.05-11.62.53-.99.13-2.72-.32-3.94-.72-1.98-1.73-3.87-2.81-5.69-.52-.88-1.4-2.03-2.25-2.16-5.97-.94-5.75-4.89-4.99-9.36.86-5.05-3.43-10.16-8.79-11.98-2.76-.94-5.21-3.16-7.42-5.21C4.56,9.16,2.39,6.48.34,3.76-.23,3,.11,1.56,0,0h493.61v5.99h-6.66c1.63,3.12,3.55,5.09,3.21,6.51-.62,2.59-2.09,6.31-4.09,7-5.69,1.96-6.81,3.64-4.32,9.25.57,1.29.16,4.43-.42,4.6-3.67,1.06-6.34,4.5-10.91,3.73-3.95-.66-7.42.88-8.96,5.45-.54,1.61-2.53,2.95-4.15,3.94-1.78,1.08-3.92,1.55-5.86,2.39-4.2,1.83-7.33,7.32-6.42,11.19.68,2.88,1.69,5.71,2.03,8.62.37,3.25,2.46,8.24-4.65,6.35-.67-.18-1.62.86-2.5,1.2-2.55,1-5.1,2-7.69,2.87-4.23,1.43-8.5,2.75-13.38,4.32,3.16,2.19,5.42,3.76,6.76,4.69,0,3.17.56,5.76-.11,7.97-1.48,4.87-2.54,10.45-5.68,14.09-4.83,5.6-8.8,10.12-10.29,16.22-.29,1.17-1.11,2.28-1.89,3.26-1.92,2.44-3.95,4.79-5.93,7.18-2.66,1.53-5.95,3.24-6.77,5.74-1.13,3.47-4.63,4.83-5.61,8.92-.78,3.28-7.27,5.39-11.45,7.62-2.01,1.07-4.92.63-6.72,1.88-4.8,3.31-9.51,6.46-15.69,6.05-2.27-.15-4.56-.56-6.8-.35-1.38.13-2.66,1.21-5.01,2.36-1.25-.06-3.89-.2-5.35-.27-1.32,1.75-1.96,2.95-2.9,3.81-3.72,3.39-7.62,6.6-11.3,10.03-2.37,2.21-4.6,4.23-5.86,7.76-1.14,3.18-5.46,5.1-7.89,7.99-1.01,1.21-1.65,4.15-.9,5.15,3.01,4.04,8.08,6.38,9.66,11.72.58,1.95,2.12,3.74,2.24,5.67.17,2.66-.6,5.37-1.07,8.82,7.59.39,14.4.75,20.86,1.08.49,8.52.62,16.62,1.51,24.63.97,8.81,2.84,17.53,3.93,26.33.72,5.78.53,11.67,1.17,17.46.72,6.61,2.36,13.14,2.78,19.76.67,10.69,2.52,21.1,4.73,31.58,3.24,15.31,8.41,30.31,8.41,46.22,0,1.24.48,2.48.74,3.71-.4-.22-.79-.44-1.19-.66-.68,1.1-1.83,2.15-1.93,3.3-.2,2.26.1,4.58.35,6.87.62,5.67,1.32,11.32,2,16.98h-72.01Zm7.1-300.48c-1.01,5.62-1.89,11.08-3,16.5-.96,4.68-2.12,9.33-3.28,13.97-1.67,6.69-4.7,12.61-9.22,17.94-1.55,1.82-2.89,6.16-1.91,7.33,2.95,3.52,7.1,6.05,11.29,9.38,3-4.8,5.46-8.73,7.93-12.66.43-.68.85-1.92,1.31-1.93,4.99-.18,6.63-5.1,10.24-7.27,1.36-.82,2.28-5.55,1.43-6.32-3.82-3.42-3.96-8.25-5.91-12.33-1.89-3.96-4.11-7.81-5.59-11.92-1.49-4.14-2.25-8.55-3.29-12.69Zm32.61-6.05c-3.28,2.33-5.97,4.27-8.7,6.18-1.41.99-2.88,1.9-4.32,2.84-3.2,2.08-6.77,3.3-3.42,8.74,3.34,5.42,5.02,11.85,7.55,18.15,7.51-5.89,14.04-12.41,17.93-21.28-7.62-1.74-5.56-9.01-9.04-14.62Zm-102.83,33c7.15,7.55,15.09,15.92,23.29,24.57.51-.31,2.52-.91,2.61-1.73.33-2.76.06-5.62-.16-8.42-.13-1.6-.15-4.19-1.03-4.59-6.68-3.06-3.78-10.09-6.42-14.82-1.89-3.38-2.07-7.7-3.13-11.57-.47-1.71-1.21-3.34-1.83-5-.97,1.11-.58,2.33-.85,2.5-3.82,2.42-4.22,6.2-5.32,10.18-.91,3.31-4.6,5.86-7.17,8.88Zm-.69,24.64c.32-.62.64-1.24.96-1.87-6.6-11.13-15.17-20.63-24.87-29.92.77,7.94-2.85,16.5,5.67,21.67,5.94,3.6,12.15,6.76,18.23,10.12Zm46.74-21.21c-.34-5.67.61-10.41,6.9-11.66.53-.11,1.08-.82,1.37-1.38,2.79-5.33,5.53-10.69,8.29-16.03-.48-.51-.97-1.01-1.45-1.52-3.04,2.15-6.43,3.95-9.05,6.52-3.28,3.22-6.23,6.88-8.75,10.73-1.78,2.72.07,11.36,2.69,13.34Zm-61.75-13.7c1.71-3.45,2.61-5.25,3.51-7.05-4.19-1.58-2.63-5.21-2.62-8.05,0-3.69-2.94-3.98-4.34-2.83-1.82,1.49-3.82,4.88-3.27,6.71,1.09,3.61,3.88,6.71,6.73,11.23Zm43.48-10.33c-4.29,5.98-1.4,11.28,1.71,16.47.34.57,1.56.81,2.38.83.35,0,.73-.95,1.09-1.46-3.6-2.26-.02-3.77.56-5.63,1.77-5.7.19-8.45-5.74-10.21Zm98.23,2.06c6.77-8.6,7.19-10.6,4.09-18.12-6.6,2.66-7.98,8.38-4.09,18.12Zm-9.73-19.68c-2.4-1.37-4.31-2.39-6.13-3.52-1.56-.97-2.95-2.24-4.59-3.01-.45-.21-2.26,1.31-2.21,1.41,2.44,4.76,5.02,9.45,7.59,14.15.54-.19,1.07-.37,1.61-.56,1.41-3.19,2.81-6.37,3.74-8.47Zm5.29,36.61c8.67,1.64,10.92-7.55,17.72-9.55-1.68-3.56-4.35-2.4-6.94-1.66-2.32.66-10.63,9.57-10.78,11.2Zm-138.68,27.67c.7,7.36,5.31,13.49,11.08,14.26,1.6.21,3.42-1.15,4.68-1.62-5.63-4.52-10.62-8.52-15.76-12.64Zm-13.47-52.74c1.45-3.33,5.17-6.36.96-9.83-1.18-.97-5.1-.9-5.52-.13-2.47,4.66,1.16,7.17,4.56,9.96Zm22.06-7.32c-.37,2.29-.97,3.8-.74,5.15.24,1.39,1.09,2.87,2.11,3.85.47.45,2.56.16,2.94-.43,1.32-2.02,2.22-4.31,3.31-6.57-2.55-.67-4.96-1.3-7.63-2.01Z"/>
</svg>