<svg width="66" height="83" viewBox="0 0 66 83" fill="none" xmlns="http://www.w3.org/2000/svg">
<path d="M65.9489 31.9608C65.968 30.151 65.8154 28.3434 65.4932 26.5616C64.413 20.8162 61.7628 15.4704 57.8282 11.1006C52.0624 4.69373 44.7743 0.988558 36.1405 0.165654C31.7137 -0.283809 27.2405 0.183818 23.0078 1.53856C15.0255 4.12903 8.84884 8.9468 4.54366 16.0234C1.56282 20.9167 -0.00424968 26.2509 8.65552e-06 32.0028C0.0127837 47.561 0.0127837 63.1193 8.65552e-06 78.6775C8.65552e-06 81.2281 1.77361 82.962 4.37971 82.9641H33.0043C42.5451 82.9641 52.0858 82.9096 61.6266 82.9998C64.0752 83.0229 66.0085 80.7389 66 78.6355C65.9404 63.0759 65.9829 47.5184 65.9489 31.9608ZM8.08021 81.713C7.70547 81.6395 7.30731 81.7004 6.83677 81.7004C9.13414 74.353 11.4102 67.0581 13.7012 59.7255H16.1923C15.4663 62.1018 14.7594 64.432 14.0397 66.7579C12.6153 71.3532 11.1696 75.94 9.7665 80.5416C9.4961 81.4317 9.08304 81.9124 8.08021 81.7193V81.713ZM8.34422 58.4114C6.98368 58.4114 6.21506 57.4394 6.81761 56.4213C6.94242 56.231 7.1061 56.0685 7.29821 55.9442C7.49031 55.8198 7.70662 55.7364 7.93329 55.6991C9.79632 55.5648 11.6679 55.506 13.5373 55.4892C16.6544 55.4598 19.7736 55.4724 22.8928 55.4892C23.3992 55.5207 23.9033 55.5817 24.4024 55.6718C24.6473 58.4155 24.6473 58.4155 22.0603 58.4155C17.4869 58.4218 12.9155 58.4302 8.34422 58.4176V58.4114ZM24.0192 81.6248H10.8055C12.2363 77.0673 13.6544 72.5729 15.0639 68.0763C15.8006 65.7104 16.5543 63.3509 17.2165 60.964C17.4762 60.0194 17.819 59.5701 18.9198 59.6394C20.6466 59.7507 22.3861 59.6688 24.2725 59.6688C24.2725 60.794 24.1831 61.7974 24.2938 62.7799C24.3822 63.4936 24.7359 64.1497 25.2865 64.6212C25.8371 65.0927 26.5455 65.3462 27.2747 65.3326C28.1263 65.3326 28.978 65.3536 29.8297 65.3326C30.3896 65.3158 30.6685 65.4669 30.6813 66.0904C30.6941 66.7139 30.4407 67.0057 29.8297 67.0099C28.4116 67.0225 26.9915 67.0434 25.5713 67.0099C24.5983 66.9847 23.8297 67.14 23.5422 68.2337C23.4869 68.4436 22.9035 68.7375 22.7778 68.6536C22.3052 68.3702 21.792 68.0112 21.5451 67.5494C21.3449 67.1736 21.5046 66.6089 21.5046 66.0484L23.3996 65.9287C23.3123 64.4929 23.8829 62.9436 22.4138 61.8205C22.0169 61.4982 21.5285 61.3049 21.0157 61.2673C20.5029 61.2297 19.9909 61.3497 19.55 61.6106C17.8467 62.5784 18.0213 64.2493 18.1512 65.8658C18.8027 65.9581 19.6416 65.8406 19.9588 66.1891C20.2761 66.5375 20.1313 67.3751 20.242 67.986C20.4315 69.0356 21.4407 69.9404 22.5287 69.932C23.2079 69.932 23.6167 70.0811 23.9148 70.7297C24.4237 71.8297 25.4457 72.216 26.5955 72.2496C27.8985 72.2895 29.2058 72.2496 30.5813 72.2496V74.6553C30.434 74.7152 30.2781 74.752 30.1192 74.7645C28.203 74.6259 26.9744 75.5202 26.1909 77.166C26.088 77.373 25.92 77.5416 25.7118 77.6467C23.6359 78.5935 23.2612 79.4185 24.0192 81.6311V81.6248ZM35.3038 50.8625C35.3035 50.4232 35.1938 49.9906 34.9844 49.6029C34.4202 48.6142 33.3343 48.1334 32.4507 48.4147C31.2349 48.7842 30.6409 49.5441 30.6388 50.7785C30.6388 54.7964 30.6388 58.8137 30.6388 62.8303V64.0709C29.4634 64.0709 28.3733 64.1297 27.2917 64.0541C27.0435 64.0438 26.8 63.9838 26.576 63.8779C26.3519 63.772 26.1521 63.6224 25.9884 63.4381C25.8248 63.2538 25.7008 63.0387 25.624 62.8057C25.5472 62.5728 25.5191 62.3269 25.5415 62.0829C25.714 58.9655 25.9546 55.8524 26.1526 52.7371C26.2484 51.2424 26.3655 49.7457 26.3655 48.251C26.3655 45.5849 28.0688 43.8006 30.7175 43.9181C32.3442 43.9916 33.9773 43.9286 35.6146 43.9328C37.846 43.9328 39.4684 45.5598 39.5961 47.7619C39.8389 51.9604 40.1774 56.1379 40.4159 60.328C40.5628 62.9289 40.6948 64.2766 36.9496 64.0793C36.4578 64.0541 35.9659 64.0793 35.3272 64.0793C35.3272 59.589 35.3357 55.2289 35.3123 50.8687L35.3038 50.8625ZM31.9546 50.6399C32.2463 50.3146 32.6465 49.8632 32.9936 49.8695C33.3407 49.8758 33.7069 50.3565 34.0156 50.6735C34.1072 50.7659 34.0433 51.0094 34.0433 51.1836C34.0433 58.8683 34.0433 66.5529 34.0433 74.2376C34.0433 74.3719 34.0199 74.5063 33.9965 74.733H31.9631C31.9461 74.4223 31.9163 74.1536 31.9163 73.8933C31.9163 66.385 31.9163 58.8753 31.9163 51.3642C31.9205 51.1165 31.8375 50.7869 31.9631 50.6462L31.9546 50.6399ZM37.2243 42.8328C36.4748 42.5872 35.6338 42.5599 34.8311 42.5326C33.5195 42.4865 32.2079 42.5326 30.8964 42.5201C27.66 42.476 25.1199 44.4618 25.0518 48.0012C24.4684 48.0012 23.8616 48.0831 23.2995 47.9655C23.0142 47.9067 22.599 47.489 22.5947 47.2287C22.5479 43.8699 22.5777 40.5216 22.5543 37.1691C22.5543 36.4595 22.8587 36.2853 23.5145 36.2853C28.4776 36.2853 33.4386 36.2706 38.3996 36.258C39.7473 36.258 41.0972 36.3063 42.445 36.2307C43.2498 36.1845 43.3754 36.4826 43.369 37.1901C43.3392 40.2298 43.369 43.2779 43.3861 46.3092C43.3861 48.0306 43.4116 48.0306 41.6253 47.9613C41.4123 47.9613 41.1994 47.9319 40.9163 47.913C40.8055 45.3603 39.6302 43.6242 37.2328 42.8391L37.2243 42.8328ZM41.1206 49.3888C41.6806 49.3888 42.2363 49.4035 42.7899 49.3888C44.0674 49.3531 44.6742 48.759 44.6763 47.5289C44.6763 43.9307 44.6763 40.3312 44.6763 36.7303C44.6763 35.5526 44.0546 34.9292 42.8687 34.9271C36.2754 34.9187 29.6813 34.9187 23.0866 34.9271C21.9006 34.9271 21.281 35.5568 21.2789 36.7282C21.2676 40.2927 21.2676 43.8566 21.2789 47.4197C21.2789 48.8052 21.8474 49.3678 23.2548 49.3909C23.7487 49.3909 24.2427 49.3909 24.8155 49.3909V50.9275C23.6891 50.8415 22.5607 50.873 21.4918 50.6399C20.3378 50.3901 19.7736 49.5063 19.7715 48.3308C19.7715 44.2428 19.7715 40.1542 19.7715 36.0649C19.7715 34.3855 20.7339 33.4471 22.4776 33.445C29.4954 33.4352 36.5145 33.4352 43.5351 33.445C45.149 33.445 46.1689 34.4589 46.1753 36.0313C46.1909 40.1206 46.1909 44.2092 46.1753 48.2972C46.1896 48.944 45.9488 49.5711 45.5037 50.0464C45.0585 50.5218 44.4436 50.8083 43.7885 50.8457C42.9368 50.8981 42.0851 50.8457 41.11 50.8457L41.1206 49.3888ZM30.5664 68.3135V70.7885C29.0461 70.7885 27.5344 70.8599 26.0312 70.7633C25.1285 70.7045 24.8368 69.9509 24.9326 68.3135H30.5664ZM19.2818 64.6587C19.6309 63.9198 19.8077 63.2732 20.2101 62.824C20.3911 62.614 21.2044 62.6392 21.4131 62.8555C21.8155 63.2753 21.9943 63.9051 22.3754 64.6587H19.2818ZM26.2888 81.4821C25.6501 81.4821 25.088 80.8817 25.0923 79.8971C25.1135 79.4416 25.3627 78.963 26.2569 78.942C27.1086 78.9189 27.4855 79.3996 27.6047 80.084C27.7324 80.6739 26.8914 81.4842 26.3059 81.4883L26.2888 81.4821ZM37.6203 81.6248H28.7204C28.7693 80.9258 29.0057 80.1365 28.8162 79.4668C28.6267 78.7971 28.0071 78.224 27.5195 77.5292C27.9666 76.5719 28.797 76.0219 30.017 76.0282C32.0695 76.0282 34.1242 76.0282 36.1767 76.0282C37.4713 76.0282 38.176 76.5593 38.6572 77.8273C37.352 78.9 37.1178 79.7229 37.6373 81.6311L37.6203 81.6248ZM39.8985 81.4653C39.1895 81.3456 38.6785 80.9572 38.7232 79.8803C38.7977 79.3954 39.1639 78.9378 39.9837 78.9525C40.8034 78.9672 41.2016 79.4164 41.2612 80.1637C41.3229 80.7704 40.5074 81.5765 39.9155 81.4716L39.8985 81.4653ZM42.2406 81.6752C42.6877 80.3967 42.8793 79.1561 41.6359 78.2009C41.3444 78.0228 41.043 77.8609 40.7331 77.716C40.4478 77.546 40.0433 77.4074 39.9304 77.1534C39.132 75.3418 37.714 74.6469 35.7871 74.7771C35.6274 74.7598 35.4702 74.7246 35.3187 74.6721C35.2844 74.0353 35.2958 73.397 35.3527 72.7618C35.3825 72.5666 35.8148 72.3021 36.0745 72.2874C37.1008 72.2328 38.1292 72.2706 39.1576 72.2643C40.4798 72.2643 41.538 71.8171 42.1938 70.5849C42.2943 70.4245 42.4301 70.2884 42.5912 70.1867C42.7522 70.0849 42.9344 70.0201 43.1242 69.9971C44.6295 69.9971 45.8921 68.8992 45.7771 67.373C45.6877 66.1345 46.1625 65.8175 47.2676 65.9728C47.4921 65.9764 47.7166 65.9603 47.9382 65.9246C47.8467 64.9799 47.8488 64.0772 47.6529 63.2186C47.3357 61.8226 46.2519 61.1908 44.7125 61.3608C43.4563 61.5014 42.5663 62.5301 42.5514 63.8799C42.5514 64.539 42.5514 65.1961 42.5514 65.9224C42.7732 65.9346 42.9942 65.9577 43.2136 65.9917C43.6905 66.0904 44.4145 65.6537 44.4762 66.632C44.5486 67.7488 44.1675 68.5759 43.3201 68.6683C43.0199 68.7019 42.4684 68.41 42.3918 68.1623C42.1192 67.2303 41.5103 67.0099 40.6331 67.0288C39.181 67.0602 37.7267 67.0183 36.2747 67.0456C35.6359 67.0582 35.3016 66.8986 35.2931 66.1744C35.2931 65.3976 35.704 65.3347 36.3066 65.3535C37.0497 65.3787 37.797 65.3535 38.5401 65.3535C40.5692 65.3535 41.8957 63.8652 41.7338 61.8331C41.6806 61.1761 41.7338 60.5106 41.7338 59.6982C43.8332 59.6982 45.9091 59.6814 47.9851 59.7255C48.1703 59.7255 48.4386 60.0949 48.5152 60.3406C50.6231 67.0414 52.7175 73.7463 54.7984 80.4555C54.9113 80.8145 54.99 81.184 55.1199 81.6857L42.2406 81.6752ZM35.3953 70.7591V68.3156H40.9056C41.3612 70.1881 40.8417 70.862 38.9574 70.8578C37.9354 70.8578 36.9134 70.8473 35.8914 70.8347C35.7288 70.8195 35.5674 70.7943 35.4081 70.7591H35.3953ZM43.8737 64.1087C43.6224 63.3761 44.3783 62.6392 45.0979 62.614C46.0028 62.593 46.4201 63.2438 46.3371 64.8015C45.4876 64.3921 44.3272 65.3955 43.8864 64.1087H43.8737ZM41.4826 55.6697C47.0695 55.6697 52.5159 55.6697 57.9602 55.6697C58.8502 55.6697 59.2931 56.1715 59.3336 56.9293C59.3783 57.769 58.814 58.2644 57.9986 58.3988C57.574 58.4404 57.1466 58.446 56.7211 58.4155C52.0859 58.4155 47.4507 58.382 42.8176 58.4407C41.753 58.4533 41.3037 58.1888 41.4656 57.1098C41.5088 56.631 41.5187 56.1499 41.4954 55.6697H41.4826ZM58.4137 81.7004C56.6508 81.734 56.6125 81.7445 56.0717 80.0462C53.968 73.3286 51.89 66.5921 49.7438 59.6835C50.4294 59.6835 50.9744 59.5974 51.4727 59.7129C51.8261 59.7947 52.303 60.0907 52.4031 60.393C53.3676 63.3005 54.2619 66.2289 55.171 69.149C56.4116 73.0886 57.6551 77.0275 58.9013 80.9656C58.9525 81.1851 58.9909 81.4073 59.0163 81.6311C58.8212 81.6654 58.6243 81.6893 58.4265 81.7025L58.4137 81.7004ZM64.6842 78.3647C64.6842 80.4639 63.3321 81.7508 61.2647 81.7235C60.7132 81.7235 60.5025 81.5597 60.3343 81.0097C59.1249 77.0212 57.8538 73.0494 56.6125 69.0713C55.7097 66.1786 54.8162 63.2837 53.9319 60.3867C53.8788 60.1536 53.8411 59.9173 53.819 59.6793H57.8985C59.6018 59.6793 60.6302 58.6968 60.6366 57.0867C60.6366 55.4073 59.5252 54.238 57.8687 54.2338C52.6536 54.2254 47.44 54.2254 42.2278 54.2338H41.3357V52.1346C42.0639 52.1346 42.8261 52.1178 43.5862 52.1346C45.8836 52.1955 47.572 50.6441 47.6316 48.2657C47.7317 44.1785 47.6955 40.0786 47.6444 35.9956C47.6167 33.741 45.9241 32.2169 43.6288 32.2169H22.3371C19.9737 32.2169 18.3215 33.7536 18.2917 36.0963C18.2512 40.15 18.2023 44.2078 18.3109 48.272C18.3705 50.5119 19.8609 52.1892 22.3414 52.1514C23.0781 52.1388 23.8147 52.1514 24.6068 52.1514V54.2506H23.5082C18.3669 54.2506 13.2243 54.2506 8.08021 54.2506C6.84316 54.2506 5.64656 55.0903 5.3357 56.1652C5.1471 56.7522 5.16543 57.3849 5.3877 57.9604C5.60997 58.5359 6.0231 59.0203 6.55998 59.335C6.98765 59.5574 7.46262 59.6768 7.94607 59.6835C9.28957 59.7276 10.6352 59.6982 12.1789 59.6982C11.9191 60.6701 11.7168 61.5518 11.4486 62.4146C9.60327 68.3597 7.73954 74.3005 5.85735 80.2372C5.69341 80.762 5.32506 81.6479 5.06956 81.6416C4.16892 81.6164 3.09795 81.5051 2.43578 80.9929C1.76086 80.4023 1.35119 79.5719 1.29668 78.6838C1.2328 62.8114 1.10931 46.939 1.31796 31.0687C1.401 24.7583 3.72605 18.9812 7.60752 13.8968C10.7981 9.67055 15.0325 6.31953 19.9077 4.16261C23.039 2.77686 26.3777 1.9013 29.7935 1.57005C37.4585 0.793329 44.4464 2.59029 50.7658 6.83286C57.6217 11.4386 61.9844 17.7741 63.8325 25.7765C64.4284 28.4495 64.7141 31.1807 64.6842 33.9173C64.6756 48.7282 64.6799 63.5447 64.6969 78.3668L64.6842 78.3647Z" fill="white"/>
<path d="M49.268 22.3439C47.9692 22.3439 46.6704 22.3439 45.329 22.3439C45.3397 22.0942 45.3653 21.8454 45.4057 21.5987C45.7314 20.1922 46.1147 18.7962 46.3851 17.3792C46.6449 16.0126 46.1062 15.4332 44.7137 15.4227C44.0132 15.4227 43.3127 15.4227 42.2779 15.4227C42.6378 14.7782 42.7953 14.2933 43.1147 13.9532C44.1559 12.8595 45.2609 11.8204 46.334 10.7561C46.6896 10.4055 47.1005 10.0738 46.5214 9.5532C45.9806 9.06827 45.6995 9.49863 45.3887 9.81351C44.5178 10.6973 43.6598 11.5916 42.7953 12.4816C42.616 11.9626 42.5373 11.415 42.5632 10.8673C42.5632 9.74843 42.6186 8.62533 42.5228 7.50853C42.4951 7.18945 42.031 6.90605 41.7669 6.60586C41.5391 6.87876 41.2346 7.12227 41.1069 7.44556C40.9962 7.71636 41.0835 8.06484 41.0835 8.37972V12.3683C39.9635 11.5559 39.1395 10.6343 38.2176 9.82191C37.9429 9.57839 37.3936 9.63717 36.972 9.5574C37.0742 9.94366 37.0551 10.4412 37.2978 10.7015C38.3518 11.8309 39.5079 12.87 40.5703 13.9931C40.8812 14.3185 40.9962 14.8118 41.3134 15.4185C40.2488 15.4185 39.5121 15.4185 38.7733 15.4185C37.5299 15.4185 36.8954 16.2708 37.185 17.4485C37.5746 19.046 37.9217 20.6519 38.2985 22.3019H34.0551V21.076C34.0551 16.4576 34.0551 11.8456 34.0551 7.23984C34.0551 5.88372 33.1204 4.95795 31.7577 4.93066C31.3681 4.93066 30.9784 4.93066 30.5888 4.93066C28.6576 4.93066 27.6953 5.87952 27.6867 7.80453C27.6867 9.47134 27.6867 11.1381 27.6867 12.8427H24.2417C24.2417 12.171 24.2588 11.5517 24.2417 10.9303C24.2077 9.84079 23.7861 8.84785 22.7109 8.54556C21.7276 8.29309 20.7025 8.24095 19.6981 8.39232C18.4717 8.56236 17.8926 9.44194 17.8904 10.7015C17.8904 14.1967 17.8585 17.692 17.9096 21.1851C17.9245 22.0962 17.6967 22.4069 16.73 22.3712C15.2183 22.3166 14.4114 23.129 14.2879 24.6153C14.1154 26.6495 14.9479 27.7642 16.6768 27.7642C27.5583 27.7726 38.4412 27.7726 49.3255 27.7642C50.9564 27.7642 51.7314 26.8489 51.7187 25.0246C51.7059 23.2004 50.9011 22.3523 49.268 22.3439ZM38.6222 16.7158H45.1672C44.7201 18.6052 44.2857 20.4315 43.8322 22.3397C42.642 22.3397 41.4901 22.3607 40.3191 22.3229C40.0849 22.3229 39.6803 22.1361 39.6527 21.9702C39.246 20.3013 38.8989 18.6115 38.5412 16.9321C38.5242 16.8859 38.5774 16.8187 38.6158 16.7095L38.6222 16.7158ZM29.5711 6.54918C30.464 6.33192 31.3971 6.33192 32.29 6.54918C32.6264 6.63524 32.7456 7.54842 33.0288 8.24957H29.009C29.2048 7.58411 29.2708 6.63315 29.5647 6.54918H29.5711ZM29.2197 10.9261C29.2027 10.5755 29.1857 10.2208 29.1644 9.78622H32.7371C32.7563 10.1221 32.7733 10.4538 32.7989 10.9261H29.2197ZM32.7329 12.3137V22.2557H29.2304V12.3137H32.7329ZM24.6868 14.3773C25.5084 14.1366 26.3807 14.1184 27.2119 14.3248C27.5377 14.4109 27.6378 15.3177 27.8997 15.9916H24.1076C24.3056 15.3723 24.3674 14.4696 24.6804 14.3773H24.6868ZM27.6037 17.3519V22.2746H24.312V17.3519H27.6037ZM19.6662 9.89748C20.5367 9.65163 21.4612 9.66258 22.3255 9.92897C22.6896 10.0507 22.7513 11.0668 22.9643 11.7742H18.9018C19.2041 10.9639 19.3042 9.99194 19.6598 9.89748H19.6662ZM19.2148 14.0792V13.1555H22.7386V14.0792H19.2148ZM22.7109 15.4983V22.2935H19.2233V15.4983H22.7109ZM50.092 26.0785C50.0622 26.2254 49.4149 26.3157 49.0508 26.3178C43.6981 26.3332 38.3461 26.3367 32.9948 26.3283C27.642 26.3283 22.2914 26.3157 16.9387 26.3409C16.1254 26.3409 15.6761 26.2149 15.7357 25.2577C15.7868 24.418 15.6718 23.7084 16.9451 23.7126C27.6144 23.7462 38.2836 23.7273 48.9508 23.7462C49.3638 23.7462 50.0792 23.9225 50.1303 24.1367C50.2594 24.7789 50.2478 25.441 50.0962 26.0785H50.092Z" fill="white"/>
</svg>
