<?xml version="1.0" encoding="UTF-8"?>
<svg id="Layer_1" data-name="Layer 1" fill="#fff" xmlns="http://www.w3.org/2000/svg" viewBox="0 0 210.86 216.92">
  <path d="m178.94,114.3h-42.83c-.05,12.64,4.96,24.98,1.92,38.21,1.34,1.57,3.16,3.69,5.44,6.36.32-1.73.81-3.22.83-4.72.09-6.91.12-13.81,0-20.72-.05-2.81,1.03-3.96,3.82-3.75,1.72.13,3.51-.25,5.16.11,1.31.29,2.44,1.36,3.65,2.09-1.29.77-2.51,1.71-3.88,2.25-.87.34-1.97.06-3.59.06,0,5.77.04,11.48-.01,17.18-.05,5.49-1.7,9.52-5.72,14.2-4.98,5.79-9.98,5.54-15.85,5.58-7.3.05-14.6.01-22.38.01,0,7.04-.11,13.48.13,19.9.03.89,1.69,2.08,2.83,2.49,7.37,2.69,14.81,5.17,22.2,7.79,5.58,1.97,9.02,7.23,8.2,12.81-.14.98-1.37,2.13-2.37,2.53-.46.18-2.3-1.28-2.28-1.95.23-7.65-5.46-9.03-10.97-10.74-5.69-1.77-11.34-3.63-17.77-5.69,0,5.06.2,9.47-.1,13.84-.11,1.62-1.4,3.15-2.15,4.73-.91-1.69-2.45-3.32-2.61-5.08-.39-4.24-.12-8.54-.12-13.51-8.94,2.93-17.41,5.39-25.56,8.65-1.65.66-1.94,4.43-3.15,6.6-.69,1.25-1.97,2.17-2.98,3.24-.58-1.42-1.76-2.89-1.65-4.25.51-6.51,3.78-10.56,10.48-12.23,6.75-1.69,13.22-4.45,19.9-6.42,2.27-.67,2.98-1.64,2.95-3.86-.1-6.04-.03-12.07-.03-18.83-3.03,0-5.84,0-8.65,0-6.77,0-13.53-.02-20.3-.03-.86,0-1.74.08-2.59-.04-4.23-.59-12.62-10.19-12.66-14.55-.05-7.31-.01-14.61-.01-22.39-1.91,0-3.5.23-4.97-.08-.92-.19-1.67-1.2-2.49-1.84.8-.84,1.52-2.3,2.42-2.42,2.55-.33,5.24-.47,7.72.06,1.03.22,2.34,2.29,2.38,3.56.23,7.04.09,14.1.12,21.15,0,1.36.17,2.71.28,4.47,2.3-2.56,4.21-4.68,6.3-7.01-3.72-12.38,2.03-24.82,1.75-37.71H31.08c0,1.75,0,3.29,0,4.83,0,30.07-.01,60.15-.03,90.22,0,6.25-1.29,7.51-7.52,7.52-10.05.01-9.98.01-9.96-9.98.05-28.63.03-57.27.04-85.9,0-2.14,0-4.29,0-6.9-2.83,0-5.23.13-7.62-.03-3.77-.25-6.23-1.89-5.99-6.18.13-2.29-.04-4.6,0-6.9.08-7.07,1.45-8.39,8.75-8.39,13.1-.01,26.2,0,39.3,0,7.34,0,14.68,0,22.02-.05,1.32,0,2.64-.23,3.96-.35,0-.52,0-1.05.01-1.57-2.69,0-5.39.13-8.07-.06-1.17-.09-2.99-.58-3.27-1.35-.4-1.11.3-2.64.58-3.98.05-.25.3-.51.54-.65,6.77-4.11,6.56-10.63,6.3-17.37-.27-7.18.1-14.39-.13-21.58-.12-3.69.93-5.03,4.84-4.99,18.42.19,36.85.08,55.28.09,5.26,0,5.49.25,5.5,5.75.01,9.35-.18,18.71.13,28.06.07,2.27,1.67,4.53,2.76,6.7.43.85,1.64,1.33,2.03,2.19.84,1.85,1.38,3.84,2.04,5.77-1.68.5-3.33,1.22-5.04,1.44-1.91.25-3.88.06-5.84.82,8.36,1.52,16.8.87,25.22,1.13,2.28-6.97,6.79-10.47,14.03-9.55,3.77.48,5.15-1.24,6.31-4.57,3.15-9.01,6.82-17.84,10.07-26.82.45-1.24-.26-2.94-.56-4.39-.51-2.41-1.15-4.79-1.7-7.19-.29-1.25-.04-2.96-.79-3.72-6.03-6.14-12.24-12.11-18.81-18.54-.44,3.87-.43,7.53-1.36,10.94-.92,3.39-2.59,6.62-4.26,9.74-1.61,2.99-4.01,3.08-6.24.6-1.86-2.07-3.48-2.81-6.59-2.02-7.14,1.8-13.19-3.64-11.97-10.86.63-3.73.18-6.21-2.66-8.52-.83-.67-1.24-1.85-1.96-2.99,5.41-4.49,11.39-6.65,18.14-7.25,2.04-.18,4.43-1.07,5.88-2.45,5.07-4.87,8.31-6.19,11.84-4.05,3.98,2.41,4.87,7,2.26,14.36,6.41,6.17,13.1,12.68,19.91,19.06.81.75,2.29,1.08,3.47,1.09,3.55.02,5.87,1.84,6.69,5,.92,3.5-.4,6.38-3.59,8.47-1.39.91-2.83,2.29-3.42,3.79-3.58,9.01-6.93,18.11-10.34,27.19-.29.76-.43,1.57-.73,2.66,1.52.18,2.76.38,4,.45,4.03.24,7.54,1.92,8.92,5.64,1.45,3.92,4,4.14,7.33,3.99,1.96-.09,4.01.13,5.91.62,2.8.72,4.3,2.62,4.21,5.67-.09,2.88.03,5.76-.04,8.63-.1,4.56-1.93,6.37-6.63,6.53-2.29.08-4.59.01-7.2.01-.09,1.24-.22,2.32-.23,3.4-.07,30.79-.11,61.58-.19,92.37-.02,6.2-.93,7.01-7.33,7.01q-10.33,0-10.3-10.25c0-29.07,0-58.13,0-87.2,0-1.57,0-3.14,0-5.17Zm-75.94,37.86c7.48,0,14.96.01,22.44,0,6.52-.01,8.89-2.06,8.46-8.37-.57-8.41-1.67-16.78-2.62-25.16-.78-6.97-1.64-13.92-2.52-20.88-.46-3.64-3.86-6.85-7.56-6.87-11.94-.08-23.88-.08-35.82,0-4.58.03-7.83,2.93-8.44,7.51-.9,6.8-1.59,13.63-2.4,20.44-.94,7.94-2.14,15.86-2.82,23.83-.61,7.08,1.97,9.5,9.26,9.51,7.34,0,14.67,0,22.01,0Zm27.92-106.88h-56.33v31.61h56.33v-31.61Zm4.08,63.43h70.71c0-2.17-.21-4.05.04-5.86.6-4.27-1.22-5.22-5.27-5.18-20.57.2-41.14.09-61.7.09-1.54,0-3.07,0-5.01,0,.44,3.95.82,7.33,1.23,10.96Zm-116.53,5.51v97.21h7.18v-97.21h-7.18Zm165.89.11v97.22h7.26v-97.22h-7.26ZM4.8,109.01c7.22,0,14.23,0,21.23,0,13.65,0,27.3.05,40.95-.06,1.28-.01,3.46-.82,3.66-1.64.73-2.96.8-6.09,1.15-9.56h-5.06c-17.67,0-35.34,0-53.02,0q-10.09,0-8.92,11.25Zm98.38,48.13v-.02c-9.91,0-19.81.06-29.72-.03-3.48-.03-5.94.78-6.02,4.82-.08,4.08,2.37,4.96,5.85,4.95,19.67-.05,39.34-.08,59.01,0,3.7.01,5.86-1.48,5.91-5.16.06-3.73-2.43-4.63-5.74-4.6-9.76.09-19.53.03-29.29.03Zm54.09-121.66c1.1-3.74,3.36-7.8,3.15-11.72-.23-4.25.16-7.19,3.44-10.11,2.36-2.11,3.85-5.78.98-8.3-3.09-2.71-5.52.3-7.37,2.66-2.2,2.79-4.7,3.97-8.4,4.12-4.23.17-8.41,1.59-12.84,2.51,7.3,7.23,13.87,13.74,21.04,20.85Zm-87.48,48.72l.56,1.2h65.04c.17-.4.35-.79.52-1.19-1.82-.95-3.63-2.72-5.45-2.74-18.25-.21-36.51-.21-54.76,0-1.98.02-3.93,1.78-5.9,2.73Zm120.92,8.18c-1.08-3.69-3.61-5.15-7.02-5.2-5.15-.09-10.31,0-15.47,0-3.42,0-5.42,1.78-6.68,5.2h29.17Zm-52.49-67.44c.98,3.02,1.11,5.52,2.43,6.83,1.29,1.29,3.8,1.36,5.77,1.96l.18-.92c-2.44-2.3-4.88-4.59-8.38-7.87Zm53.87,12.96c-1.33,1.88-2.74,3-2.76,4.14-.02,1.09,1.41,2.2,2.2,3.31,1.24-.92,3.29-1.71,3.48-2.81.19-1.1-1.5-2.52-2.93-4.64Z"/>
</svg>