<svg width="55" height="49" viewBox="0 0 55 49" fill="none" xmlns="http://www.w3.org/2000/svg">
<g clip-path="url(#clip0_736_11195)">
<path d="M28.0168 41.5511C27.219 40.9049 27.2681 40.0676 27.5098 39.1955C27.8478 37.9795 28.2585 36.7722 28.5239 35.5371C30.1398 28.0499 25.7621 20.7938 18.5719 18.9837C9.1607 16.6211 0.540557 25.1645 2.45389 34.9517C3.71987 41.4156 9.28239 45.934 15.8523 45.8385C18.3989 45.8287 20.8867 45.0507 23.007 43.601C23.2386 43.4429 23.4769 43.2952 23.7541 43.1163L25.0251 44.8535C20.3043 49.0644 11.358 50.0129 4.75597 43.8112C-1.54011 37.9048 -1.56546 27.5166 3.97678 21.4678C10.5129 14.3333 20.5765 14.7467 26.6258 21.0578C32.5382 27.2508 32.1579 36.8591 28.0168 41.5511Z" fill="white"/>
<path d="M28.0117 32.5842C27.6736 34.1477 27.3356 35.7024 26.9789 37.2572C26.8437 37.8478 26.6595 38.4263 26.5023 39.0117C25.8955 41.2544 27.3085 43.1896 29.5751 43.2C36.3901 43.207 43.2073 43.207 50.0268 43.2C52.2968 43.2 53.6473 41.1658 52.7684 39.0152C52.4117 38.1466 51.903 37.3319 51.4483 36.5015C48.4938 31.1163 45.4683 25.7693 42.6101 20.332C41.5115 18.2474 38.3525 17.8479 37.1608 20.2729C36.7315 21.1415 36.1687 21.9545 35.7411 22.83C35.4774 23.3686 35.1613 23.6048 34.568 23.5405C34.0441 23.485 33.51 23.5284 32.8778 23.5284C32.9354 23.3147 33.0083 23.1056 33.0959 22.903C33.8396 21.5428 34.5748 20.1774 35.3489 18.8363C36.3901 17.0349 38.0077 16.1646 39.9903 16.1941C42.0186 16.2254 43.5144 17.2173 44.5268 19.1143C46.9067 23.5701 49.3846 27.9738 51.8185 32.3949C52.787 34.1563 53.7724 35.9074 54.702 37.6897C55.1382 38.4975 55.3599 39.4091 55.3447 40.3329C55.3296 41.2566 55.0781 42.16 54.6156 42.9522C54.1532 43.7444 53.4959 44.3976 52.71 44.846C51.9241 45.2945 51.0372 45.5224 50.1384 45.507C43.2648 45.5151 36.3912 45.5226 29.5177 45.5295C25.3411 45.5295 22.8075 41.244 24.7952 37.4708C25.6893 35.7754 26.7254 34.1598 27.6973 32.5095L28.0117 32.5842Z" fill="white"/>
<path d="M40.5279 -0.0404729V15.1024L38.2883 15.2309V2.28906H14.3547V15.1667L12.0898 15.4168V-0.0439453L40.5279 -0.0404729Z" fill="white"/>
<path d="M26.6645 26.8435H12.0525V25.0595C12.0525 23.6697 12.0897 22.28 12.0373 20.8903C12.0103 20.2232 12.2351 19.9383 12.8588 19.8897C13.3253 19.8532 13.7867 19.7663 14.3225 19.6934V24.4376C14.5659 24.4619 14.7518 24.4984 14.9394 24.4984C18.1745 24.5105 21.4113 24.4984 24.6464 24.5522C24.9844 24.5522 25.4002 24.8388 25.6267 25.1203C26.0104 25.591 26.2724 26.1747 26.6645 26.8435Z" fill="white"/>
<path d="M40.5796 26.8549C37.5152 26.8549 34.6164 26.8549 31.7177 26.8393C31.6038 26.8285 31.4938 26.7917 31.3955 26.7316C31.2972 26.6715 31.2133 26.5896 31.1498 26.4918C30.8489 25.9133 30.6191 25.2967 30.3047 24.5705H38.2724C38.2724 23.3893 38.2724 22.3122 38.2724 21.2195C38.2724 20.0886 38.9772 19.4372 40.0809 19.5866C40.2601 19.6109 40.5508 19.8541 40.5525 20C40.588 22.2549 40.5796 24.508 40.5796 26.8549Z" fill="white"/>
<path d="M31.5664 27.9121H32.7715C32.5231 28.4333 32.2949 28.9301 32.065 29.42L31.874 29.4339L31.5664 27.9121Z" fill="white"/>
</g>
<defs>
<clipPath id="clip0_736_11195">
<rect width="54.999" height="48.1241" fill="white"/>
</clipPath>
</defs>
</svg>
