<?xml version="1.0" encoding="UTF-8"?>
<svg id="Layer_1" data-name="Layer 1" fill="#fff" xmlns="http://www.w3.org/2000/svg" viewBox="0 0 208.82 228.23">
  <path d="m145.05,175.34c0,16.03.05,31.52-.07,47-.02,1.89-.67,5.2-1.58,5.4-2.89.65-6.08.38-9.06-.09-.75-.12-1.53-2.26-1.69-3.54-1.8-15.18-3.43-30.38-5.3-45.56-.14-1.17-1.72-3.07-2.66-3.09-14.37-.2-28.75-.14-43.34-.14-1.16,9.42-2.29,18.5-3.38,27.6-.88,7.31-1.56,14.65-2.7,21.92-.2,1.25-2.21,2.25-3.45,3.28-.25.21-.81.03-1.23.04q-7.55.13-7.54-7.53c0-14.93,0-29.86,0-45.3-6.77,0-13.15,0-19.53,0-5.36-.01-5.56-.48-5.95-5.62-.42-5.5,1.35-9.76,4.86-14.03,6.09-7.4,11.65-15.26,17.17-23.12,2.43-3.45,5.37-4.9,9.5-4.89,23.35.07,46.69.1,70.04-.03,4.4-.02,7.4,1.88,9.82,5.23,6.54,9.01,13.47,17.77,19.41,27.16,2.1,3.31,2.07,8.15,2.31,12.32.05.9-2.9,2.76-4.53,2.84-6.82.32-13.66.14-21.09.14Zm17.4-15.17c-6.26-8.79-12.05-17.23-18.24-25.36-1.08-1.41-3.87-2.13-5.87-2.14-20.11-.15-40.25.37-60.34-.31-8.98-.3-15.25,1.5-19.69,9.94-3.29,6.27-8.28,11.65-12.83,17.86h116.98Zm-120.08,9.94h123.7c-.09-1.74-.16-3.18-.23-4.5H42.37v4.5Zm25.73,5.38v47.5c.39.22.77.43,1.16.65.67-.98,1.81-1.9,1.94-2.95,1.22-9.64,2.34-19.3,3.32-28.97.54-5.33.78-10.69,1.16-16.23h-7.58Zm64.32.02c.61,7.4,1.1,14.45,1.78,21.47.77,8.01,1.64,16.02,2.64,24,.13,1.08,1.25,2.04,1.91,3.05.37-.18.74-.37,1.11-.55v-47.97h-7.44Z"/>
  <path d="m101.22,8.47c1.15-2.4,1.92-3.98,2.69-5.57,1.11,1.54,2.21,3.08,3.32,4.61-.2.32-.4.64-.61.96,1.48,0,2.95,0,4.43,0,19.43,0,38.85,0,58.28,0,5.58,0,6.71,1.17,6.75,6.91.05,7.69-.65,8.81-6.71,10.21,0,3.26,0,6.6,0,9.93,0,19.98,0,39.96,0,59.94,0,5.89-1.85,7.74-7.66,7.77-16.91.09-33.82.16-50.73.26-1.5,0-3,.14-5.74.27,1.2,2.69,1.77,4.87,3.01,6.56,2.08,2.82,2.29,7.01,0,9.09-2.28,2.07-6.62,1.91-8.75-.33-2.28-2.4-1.88-6.24.47-9,1.25-1.47,1.86-3.5,2.77-5.27-.29-.45-.57-.89-.86-1.34-5.26,0-10.52.02-15.79,0-13.14-.07-26.27-.16-39.41-.23-6.73-.03-8.52-1.65-8.55-8.75-.08-16.48.02-32.97.05-49.45,0-6.42,0-12.84,0-19.18-5.96-2.15-8.92-10.32-5.42-15.38.85-1.23,3.26-1.91,4.96-1.92,19.85-.13,39.69-.08,59.54-.08,1.52,0,3.04,0,3.96,0Zm-58.18,16.95c-.13.7-.28,1.1-.28,1.49-.02,22.78.02,45.56-.07,68.34-.01,3.16,1.54,3.67,4.17,3.67,37.89-.02,75.77-.04,113.66.08,3.63.01,4.8-1,4.77-4.74-.17-21.66-.08-43.32-.08-64.99v-3.86H43.04Zm127.98-12.01H36.8v6.56h134.22v-6.56Zm-68.16,104.17c.84-.05,1.68-.11,2.52-.16v-4.2c-1.06.04-2.12.08-3.17.13l.66,4.24Z"/>
  <path d="m170.9,197.98c-5.97,0-11.41-.13-16.84.05-3.19.11-4.24-1.45-4.29-4.25-.11-7.43,3.72-13.09,11.89-12.65,6.96.38,13.97-.09,20.95.1,1.61.04,4.54,1.25,4.55,1.95.05,3.05-2.78,2.47-4.7,2.53-6.98.21-13.97.34-20.95.29-4.5-.03-6.53,2.27-7.13,7.05,7.78,0,15.39,0,23,0,1.12,0,2.24-.06,3.35,0,12.71.59,11.84-3,13.72-11.69,2.99-13.79,5.52-27.69,8.23-41.54.28-1.46.44-2.94.69-4.63-4.45-.64-6.67,1.81-7.56,5.47-1.97,8.06-3.66,16.18-5.43,24.29-.62,2.84-1.01,5.73-1.77,8.53-.27.99-1.31,1.78-1.99,2.66-.73-1-2.17-2.08-2.07-2.98.63-5.22,1.49-10.42,2.54-15.58,1.24-6.1,2.63-12.17,4.18-18.2,1.59-6.18,5.96-9.65,12.21-10.07,3.96-.27,5.92,1.75,5.16,5.54-2.83,14.12-5.74,28.22-8.59,42.33-.74,3.66-1.15,7.41-2.16,10.98-1.92,6.78-6.18,9.82-13.13,9.83-2.79,0-5.57,0-8.86,0,0,4.84-.1,9.5.11,14.15.03.67,1.48,1.46,2.41,1.88,2.91,1.29,5.96,2.29,8.83,3.67,3.1,1.48,5.15,3.9,4.8,7.58-.09.92-.97,1.76-1.49,2.64-.86-.57-2.28-.98-2.5-1.73-1.78-6.19-7.6-5.3-12.19-7.82-.13,2.82-.04,4.9-.39,6.91-.15.82-1.23,1.48-1.89,2.22-.83-.75-2.22-1.41-2.37-2.28-.36-2.02-.11-4.14-.11-6.98-4.84,2.61-11.09,1.59-12.77,8.29-.15.61-1.76,1.49-2.1,1.28-.82-.5-1.99-1.89-1.78-2.37,1.2-2.67,2.7-5.22,4.28-7.69.38-.59,1.44-.78,2.21-1.09,3.31-1.33,8.66-1.87,9.5-4.12,1.55-4.13.44-9.25.44-14.53Z"/>
  <path d="m36.99,197.98c0,4.72-.15,8.88.11,13.02.06,1.02,1.23,2.39,2.23,2.87,2.87,1.35,5.98,2.2,8.89,3.47,3.8,1.66,6.08,5.32,5.36,8.53-.18.79-.92,1.72-1.63,2.02-.48.2-1.91-.49-2.01-.96-1.4-6.95-7.95-5.7-12.97-8.87,0,2.83.25,4.74-.1,6.55-.2,1.04-1.36,1.9-2.09,2.84-.7-.99-1.79-1.9-2.01-2.99-.34-1.72-.09-3.56-.09-6.25-4.8,2.89-10.85,2.04-12.69,8.32-.19.64-1.74,1.53-2.13,1.32-.83-.45-1.81-1.51-1.86-2.37-.19-3.54,1.48-6.19,4.72-7.63,3.16-1.41,6.45-2.52,9.59-3.97.94-.43,2.18-1.54,2.22-2.39.23-4.29.1-8.59.1-13.51-3.31,0-6.19,0-9.07,0-6.96-.03-10.86-2.44-12.65-9.17-2.09-7.88-3.45-15.95-5.04-23.96-1.92-9.64-3.72-19.3-5.62-28.94-1.04-5.26,1.13-7.32,6.41-6.33,6.04,1.14,9.63,4.62,10.86,10.54,2.2,10.58,4.43,21.15,6.37,31.78.25,1.38-1.12,3.06-1.74,4.6-.59-.07-1.17-.14-1.76-.21-.93-4.21-1.87-8.43-2.79-12.64-1.68-7.71-3.27-15.43-5.07-23.11-.83-3.55-2.84-5.99-7.58-5.42,1.42,7.26,2.8,14.39,4.22,21.52,1.94,9.77,3.83,19.56,5.9,29.31,1.12,5.26,3.44,7.02,8.72,7.04,9.77.04,19.55.01,29.29.01.62-4.28-.83-6.57-4.97-6.81-6.41-.37-12.85-.24-19.27-.37-1.95-.04-3.94-.03-5.81-.46-.81-.18-1.38-1.41-2.06-2.17.74-.66,1.48-1.88,2.22-1.89,9.08-.1,18.19-.43,27.24.14,5.74.36,10.44,9.31,7.91,14.3-.6,1.19-2.88,2.06-4.44,2.14-5.29.26-10.6.1-16.92.1Z"/>
  <path d="m27.98,122.67c1.71,9.69,3.36,19.08,5.02,28.47.31,1.77.87,3.53.91,5.31.02,1.17-.69,2.36-1.07,3.54-.95-.83-2.49-1.5-2.75-2.5-1.18-4.55-2.06-9.18-2.92-13.81-1.32-7.09-2.6-14.18-3.77-21.29-.65-3.95.45-5.05,4.42-4.9,4.78.18,8.76,3.01,9.84,7.57,1.65,7,3.06,14.07,4.32,21.15.21,1.16-.86,2.55-1.33,3.84-.94-1.01-2.45-1.89-2.74-3.06-1.62-6.58-2.88-13.25-4.43-19.85-.57-2.41-1.34-5.01-5.49-4.46Z"/>
  <path d="m166.68,150.15c-.16-1.61-.71-3.28-.42-4.8,1.22-6.52,2.62-13,4.07-19.47,1.06-4.76,4.74-7.83,9.72-8.35,4.43-.46,6.01,1.11,5.18,5.49-1.44,7.6-3.03,15.16-4.55,22.75-.73,3.65-1.25,7.37-2.25,10.95-.37,1.33-1.86,2.34-2.84,3.49-.42-1.34-1.37-2.76-1.16-3.99,1.72-9.94,3.67-19.84,5.53-29.76.23-1.21.33-2.43.5-3.73-3.96-.98-5.1,1.58-5.78,4.31-1.59,6.43-2.93,12.92-4.48,19.37-.33,1.36-1.11,2.62-1.68,3.92-.61-.06-1.23-.11-1.84-.17Z"/>
  <path d="m74.04,60.62c5.07,0,9.65.12,14.22-.04,3.02-.1,4.24.86,4.13,4.09-.34,9.81-8.96,18.85-19.17,18.97-10.45.13-18.52-7.06-20.38-16.31-2.69-13.41,5.9-22.75,15.71-25.02,4.18-.97,5.42-.08,5.48,4.13.06,4.58.01,9.15.01,14.19Zm-3.55-14.38c-9.11.83-14.73,8.1-14.33,17.8.35,8.58,7.47,15.65,15.83,15.74,9.15.1,15.95-6.07,16.55-15.35-4.32,0-8.63-.14-12.93.04-3.69.16-5.45-1.03-5.18-5.04.28-4.3.06-8.63.06-13.19Z"/>
  <path d="m129.8,50.05c3.72-4.01,7.68-8.27,11.4-12.28-1.27-.97-2.43-1.85-3.58-2.74,1.45-.73,2.88-1.98,4.37-2.05,2.05-.1,5.69.29,5.93,1.19.79,2.99.42,6.31.34,9.5,0,.36-.99.97-1.53.98-.53,0-1.36-.49-1.55-.96-.38-.96-.41-2.05-.51-2.63-5.22,4.55-10.43,9.1-16,13.95-2.31-2.43-5.13-5.39-8.52-8.96-3.79,4.28-7.34,8.29-10.9,12.31-.56-.23-1.11-.46-1.67-.69.13-1.13-.17-2.63.45-3.34,3.38-3.88,6.89-7.67,10.61-11.23.63-.6,2.85-.41,3.7.24,2.63,2,4.95,4.41,7.46,6.71Z"/>
  <path d="m87.75,57.16q-10.56.14-10.57-10.51c0-2.37-.45-4.88.18-7.06.38-1.31,2.56-3.13,3.76-3.02,8.4.8,15.27,7.64,16.79,16.08.58,3.19-.42,4.8-3.89,4.54-2.08-.15-4.18-.03-6.28-.03Zm-6.86-3.38c2.51,0,4.6,0,6.69,0s4.11,0,6.18,0c-.17-6.97-5.96-12.7-12.87-12.99v12.99Z"/>
  <path d="m126.08,68.86c-5.44,0-10.87.08-16.31-.07-1.04-.03-2.06-.9-3.09-1.39,1.03-.63,2.06-1.81,3.1-1.82,11.01-.13,22.02-.13,33.03,0,1.01.01,2.01,1.2,3.02,1.85-1.01.47-2.01,1.33-3.03,1.35-5.57.13-11.15.06-16.73.07Z"/>
  <path d="m119.55,78.07c-3.35,0-6.71.13-10.05-.08-.97-.06-1.89-1.07-2.83-1.64.98-.54,1.95-1.53,2.94-1.55,6.98-.14,13.96-.12,20.94,0,.88.02,1.74.93,2.61,1.43-.91.61-1.79,1.71-2.73,1.76-3.62.21-7.26.08-10.89.09Z"/>
  <rect x="101.01" width="6.29" height="11.57"/>
</svg>