<svg width="73" height="63" viewBox="0 0 73 63" fill="none" xmlns="http://www.w3.org/2000/svg">
<g clip-path="url(#clip0_736_12481)">
<path d="M37.1888 54.4334C36.1299 53.5868 36.1949 52.4899 36.5157 51.3474C36.9644 49.7544 37.5096 48.1727 37.8618 46.5546C40.0065 36.746 34.196 27.24 24.6525 24.8687C12.1611 21.7736 0.719611 32.9659 3.25917 45.7877C4.9395 54.2559 12.3226 60.1752 21.0428 60.05C24.4229 60.0373 27.725 59.018 30.5393 57.1188C30.8466 56.9117 31.1629 56.7183 31.5308 56.4839L33.2179 58.7596C26.952 64.2761 15.0775 65.5187 6.31472 57.3942C-2.04205 49.6565 -2.0757 36.0473 5.2805 28.123C13.9558 18.7764 27.3132 19.318 35.3424 27.5859C43.1899 35.6991 42.6852 48.2865 37.1888 54.4334Z" fill="white"/>
<path d="M37.1769 42.6859C36.7282 44.7341 36.2795 46.7709 35.8061 48.8077C35.6267 49.5815 35.3821 50.3393 35.1735 51.1063C34.3681 54.0443 36.2436 56.5795 39.252 56.5932C48.2975 56.6023 57.346 56.6023 66.3975 56.5932C69.4104 56.5932 71.2029 53.9282 70.0364 51.1108C69.563 49.9729 68.8877 48.9056 68.2842 47.8178C64.3627 40.7628 60.347 33.758 56.5534 26.6348C55.0951 23.9038 50.9022 23.3804 49.3205 26.5574C48.7507 27.6953 48.0037 28.7603 47.4361 29.9073C47.0861 30.6128 46.6666 30.9223 45.8791 30.8381C45.1837 30.7653 44.4747 30.8222 43.6357 30.8222C43.7121 30.5422 43.8088 30.2684 43.9251 30.0029C44.9122 28.221 45.8881 26.4322 46.9156 24.6753C48.2975 22.3153 50.4445 21.1752 53.076 21.2138C55.7682 21.2548 57.7536 22.5543 59.0974 25.0394C62.2562 30.8768 65.545 36.6459 68.7756 42.4378C70.061 44.7455 71.369 47.0394 72.6028 49.3744C73.1819 50.4327 73.4761 51.6269 73.456 52.837C73.4358 54.0472 73.1021 55.2307 72.4882 56.2685C71.8744 57.3064 71.002 58.1621 69.9589 58.7496C68.9157 59.3371 67.7385 59.6357 66.5456 59.6154C57.4223 59.6261 48.299 59.6359 39.1758 59.645C33.6323 59.645 30.2694 54.0307 32.9076 49.0877C34.0944 46.8665 35.4696 44.75 36.7596 42.588L37.1769 42.6859Z" fill="white"/>
<path d="M53.7926 -0.0540447V19.784L50.82 19.9524V2.99778H19.0531V19.8682L16.0469 20.1959V-0.0585938L53.7926 -0.0540447Z" fill="white"/>
<path d="M35.3862 35.1679H15.9918V32.8307C15.9918 31.0101 16.0412 29.1894 15.9716 27.3688C15.9357 26.4949 16.2341 26.1217 17.0619 26.0579C17.6811 26.0102 18.2936 25.8964 19.0047 25.8008V32.016C19.3278 32.0478 19.5746 32.0956 19.8236 32.0956C24.1175 32.1115 28.4137 32.0956 32.7076 32.1662C33.1563 32.1662 33.7081 32.5417 34.0088 32.9103C34.518 33.5271 34.8658 34.2917 35.3862 35.1679Z" fill="white"/>
<path d="M53.8644 35.1795C49.797 35.1795 45.9495 35.1795 42.1021 35.159C41.9509 35.1449 41.8048 35.0967 41.6744 35.018C41.544 34.9392 41.4326 34.8319 41.3483 34.7039C40.9489 33.946 40.6438 33.1381 40.2266 32.1868H50.8021C50.8021 30.6393 50.8021 29.2283 50.8021 27.7969C50.8021 26.3153 51.7376 25.4619 53.2025 25.6576C53.4404 25.6895 53.8262 26.0081 53.8285 26.1993C53.8756 29.1532 53.8644 32.1049 53.8644 35.1795Z" fill="white"/>
<path d="M41.8984 36.5645H43.498C43.1682 37.2472 42.8654 37.8981 42.5603 38.5398L42.3067 38.558L41.8984 36.5645Z" fill="white"/>
</g>
<defs>
<clipPath id="clip0_736_12481">
<rect width="73" height="62.5714" fill="white"/>
</clipPath>
</defs>
</svg>
