<svg width="66" height="55" viewBox="0 0 66 55" fill="none" xmlns="http://www.w3.org/2000/svg">
<g clip-path="url(#clip0_736_12543)">
<path d="M59.4673 11.6851H53.7663V0.736971C53.7663 0.414345 53.6376 0.104933 53.4085 -0.123198C53.1795 -0.351329 52.8688 -0.479492 52.5449 -0.479492H13.4592C13.1352 -0.479492 12.8245 -0.351329 12.5955 -0.123198C12.3664 0.104933 12.2377 0.414345 12.2377 0.736971V11.6851H6.53671C2.94571 11.6851 0.0234375 14.4222 0.0234375 17.7675V42.0967C0.0234375 42.4193 0.152124 42.7288 0.381186 42.9569C0.610248 43.185 0.920923 43.3132 1.24487 43.3132H12.2377V54.2614C12.2377 54.584 12.3664 54.8934 12.5955 55.1215C12.8245 55.3497 13.1352 55.4778 13.4592 55.4778H52.5449C52.8688 55.4778 53.1795 55.3497 53.4085 55.1215C53.6376 54.8934 53.7663 54.584 53.7663 54.2614V43.3132H64.7591C65.0831 43.3132 65.3938 43.185 65.6228 42.9569C65.8519 42.7288 65.9806 42.4193 65.9806 42.0967V17.7675C65.9806 14.4222 63.0583 11.6851 59.4673 11.6851ZM14.6806 1.95343H51.3234V11.6851H14.6806V1.95343ZM51.3234 53.0449H14.6806V36.0144H51.3234V53.0449ZM63.5377 40.8803H53.7663V34.7979C53.7663 34.4753 53.6376 34.1659 53.4085 33.9378C53.1795 33.7096 52.8688 33.5815 52.5449 33.5815H13.4592C13.1352 33.5815 12.8245 33.7096 12.5955 33.9378C12.3664 34.1659 12.2377 34.4753 12.2377 34.7979V40.8803H2.46629V17.7675C2.46629 15.7542 4.29844 14.1181 6.53671 14.1181H59.4673C61.7056 14.1181 63.5377 15.7542 63.5377 17.7675V40.8803ZM53.7663 23.8498C53.7663 24.331 53.623 24.8013 53.3546 25.2014C53.0862 25.6015 52.7046 25.9134 52.2583 26.0975C51.8119 26.2816 51.3207 26.3298 50.8469 26.236C50.373 26.1421 49.9377 25.9104 49.5961 25.5701C49.2544 25.2299 49.0218 24.7964 48.9275 24.3244C48.8333 23.8525 48.8816 23.3633 49.0665 22.9187C49.2514 22.4742 49.5645 22.0942 49.9663 21.8269C50.368 21.5595 50.8403 21.4168 51.3234 21.4168C51.9713 21.4168 52.5927 21.6732 53.0508 22.1294C53.5089 22.5857 53.7663 23.2045 53.7663 23.8498Z" fill="white"/>
</g>
<defs>
<clipPath id="clip0_736_12543">
<rect width="66" height="55" fill="white"/>
</clipPath>
</defs>
</svg>
