<svg width="420" height="399" viewBox="0 0 420 399" fill="none" xmlns="http://www.w3.org/2000/svg">
<g clip-path="url(#clip0_1039_10608)">
<path d="M269.393 155.451C267.843 152.056 265.468 149.23 263.093 146.405C261.101 144.128 259.974 141.049 258.34 138.118C257.619 136.79 257.363 135.546 256.367 134.407C253.419 130.759 251.255 126.774 249.915 122.219C249.51 120.469 248.598 118.867 248.151 117.348C246.578 112.751 244.264 108.26 244.215 103.22C244.383 102.292 244.043 101.512 243.745 100.5C241.615 91.0111 240.732 81.2689 241.057 71.5055C241.072 67.4357 241.553 63.4501 241.843 59.1904C240.995 58.5579 240.19 57.6935 239.682 57.8411C235.047 58.2001 230.684 55.7334 226.176 55.3965C221.709 54.8277 217.094 53.7527 212.436 52.9098C210.806 52.6147 209.134 52.5517 207.779 52.0668C203.904 50.8864 199.736 51.3297 195.903 49.9173C192.261 48.779 188.218 48.5264 184.259 47.8099C183.794 47.7256 183.37 47.4093 182.946 47.093C183.454 46.9454 183.771 46.5236 184.004 46.5657C189.127 47.493 194.334 47.9563 199.457 48.8836C207.607 50.3588 215.483 52.0238 223.591 53.7309L239.892 56.6813C240.823 56.8499 241.564 56.7444 242.304 56.6389C242.388 56.1749 242.621 56.2171 242.43 55.9429C243.178 46.4958 246.446 37.7442 248.824 28.5921C249.728 24.9228 251.374 21.148 253.21 17.6473C256.882 10.646 259.897 3.28617 265.116 -2.95624C272.827 -12.3409 280.919 -21.1774 290.283 -29.0651C295.082 -32.9879 300.178 -35.8985 305.698 -38.4928C311.218 -41.0872 317.204 -43.5972 322.915 -45.9174L325.961 -46.8035C329.473 -47.6052 332.985 -48.4069 336.115 -49.7568C337.173 -50.2841 338.421 -50.5374 339.669 -50.7906C343.414 -51.5501 347.392 -52.2675 351.37 -52.9849C352.385 -53.2802 353.55 -53.0695 354.523 -53.1329C357.443 -53.323 360.089 -53.3233 363.009 -53.5134C368.067 -53.5562 373.358 -53.5568 378.375 -53.3676C381.02 -53.3678 383.731 -52.3981 386.376 -52.3984C390.186 -52.188 393.763 -52.0197 397.363 -50.6494L399.692 -50.228C400.027 -52.0837 400.596 -53.8972 401.249 -56.1747C402.967 -53.7077 400.409 -51.5355 401.936 -49.3426C403.333 -49.0897 405.154 -48.5205 406.742 -47.9935C408.838 -47.6142 410.934 -47.2348 412.587 -45.7378C413.029 -45.358 413.562 -45.0968 414.133 -44.9789C420.421 -43.8409 425.59 -40.5097 431.075 -37.6003L433.977 -36.3564C434.866 -35.9559 436.031 -35.7452 436.878 -35.1127C442.62 -30.9591 448.72 -27.4593 454.103 -22.652C456.18 -20.8388 457.707 -18.6459 460.184 -17.7183C460.883 -17.5919 461.455 -16.7695 461.604 -16.2635C463.834 -11.3082 468.537 -8.0613 471.633 -3.90746C475.302 1.06871 478.971 6.04488 481.265 11.9701C482.392 15.0487 484.067 17.7477 485.469 20.6365C487.061 23.7994 487.87 27.2998 490.245 30.1252C490.294 35.1651 493.39 39.3189 494.181 44.2532C495.548 52.6458 495.941 61.1017 496.8 69.642C497.144 73.058 496.556 76.3055 496.159 79.8271C495.488 83.5386 495.324 87.1023 495.583 90.9824C495.951 96.7044 494.996 102.433 492.793 107.726C490.621 113.082 489.106 118.797 487.125 124.428C485.27 129.362 483.182 134.255 479.971 138.705C477.078 142.733 474.841 147.119 472.371 151.463L472.203 152.391C468.653 156.061 466.141 160.637 461.935 163.948C459.694 165.698 457.877 167.765 455.827 169.79C453.143 172.658 449.379 174.852 446.081 177.129C444.707 178.078 442.676 178.669 441.493 179.892C438.301 182.908 434.198 184.321 430.667 186.557C428.785 187.654 426.288 188.16 424.746 190.037C424.429 190.459 423.646 190.796 422.906 190.902C419.203 191.429 415.947 193.475 412.732 195.289C410.068 196.723 407.254 197.652 404.059 198.031C398.875 198.77 393.607 199.973 388.381 200.943C380.658 202.42 372.787 203.391 364.934 202.928C361.823 202.844 358.944 202.802 355.749 203.182C355.539 204.342 354.864 205.418 354.654 206.577L347.726 244.852C346.928 249.259 345.94 253.392 345.375 257.842L342.982 271.063C341.89 277.095 341.222 283.442 339.432 289.347C339.306 290.042 339.413 290.78 339.287 291.476L337.86 299.363C337.413 297.845 337.073 297.065 337.157 296.601L338.585 288.714C339.836 276.483 342.253 264.463 344.436 252.401L352.581 207.4C352.875 205.776 353.127 204.385 353.23 202.487L349.969 201.897C347.175 201.391 344.381 200.885 341.67 199.915C333.264 197.196 325.133 194.287 316.769 191.336C305.927 187.457 296.753 181.005 287.938 173.9C284.59 171.138 281.242 168.376 278.169 165.424C275.902 163.336 273.993 160.595 271.767 158.276C270.962 157.411 269.881 156.737 268.801 156.062L269.393 155.451ZM360.814 164.571C362.497 157.928 363.207 151.349 364.34 145.086L367.447 127.921C367.993 124.905 368.306 121.847 369.043 119.106C369.337 117.482 370.054 116.175 369.882 114.467C369.836 112.063 370.447 110.017 371.1 107.74C372.024 102.636 373.604 97.8917 373.829 92.662L374.501 88.9506C375.55 83.1515 377.108 77.2047 378.157 71.4056L382.02 50.0649C382.944 44.9617 383.909 39.6265 384.6 34.4811L385.818 27.7542C386.871 24.591 386.951 21.4911 387.497 18.4756C387.665 17.5478 387.367 16.5356 387.726 15.8818C389.157 10.6309 390.165 5.06384 390.665 -0.35565C390.875 -1.51546 391.169 -3.13921 392.902 -4.74204L362.547 162.968C362.379 163.896 362.677 164.908 362.658 166.342C367.8 165.835 372.48 167.88 377.175 165.855C377.683 165.708 378.191 165.56 378.657 165.644C383.314 166.487 387.735 164.652 392.22 163.787C396.473 162.88 401.149 162.289 404.955 159.864L406.478 159.421C410.521 159.673 413.754 156.425 417.499 155.666C422.446 152.249 427.352 149.064 431.536 144.551C435.719 140.038 438.865 134.618 443.896 130.738C443.938 130.506 444.488 130.126 444.53 129.894C445.16 126.415 447.759 124.01 449.278 120.931C452.21 114.036 454.909 107.098 457.84 100.202C458.325 98.8521 458.535 97.6923 458.596 96.0264C458.947 90.1008 460.039 84.0698 460.432 77.9123C460.638 74.1165 460.886 70.0888 460.393 66.1667C459.775 62.9404 460.595 59.735 459.469 56.6564C458.576 53.62 456.667 50.8789 456.281 47.6947C456.067 46.2187 455.155 44.6161 454.666 43.3299C453.009 39.197 450.528 35.6335 449.928 30.9733C450.054 30.2774 449.016 29.3708 448.676 28.5906C445.706 23.7409 441.045 20.262 438.349 15.2224C437.819 14.1681 436.505 13.4513 435.658 12.8188C435.043 12.2284 434.345 12.102 433.963 11.5538C432.944 9.21317 430.699 8.32779 429.046 6.83077C427.775 5.882 426.545 4.70123 425.507 3.79461C422.35 1.30668 419.277 -1.64519 415.486 -3.28956C412.817 -4.49122 410.424 -5.88273 407.755 -7.08438C405.553 -8.20177 403.392 -9.55111 400.872 -10.2467C399.009 -10.5839 397.272 -11.617 395.452 -12.1861C395.219 -12.2283 394.753 -12.3126 394.203 -11.9329C393.76 -10.8153 393.276 -9.46562 392.516 -7.92615C392.386 -9.86616 392.172 -11.3423 392.043 -13.2823C383.575 -14.3357 375.761 -17.6665 367.107 -16.3582L365.011 -16.7375C363.064 -16.6108 361.159 -16.716 359.17 -16.3573C356.716 -16.0829 354.177 -15.3445 351.764 -15.3021C349.585 -15.2175 347.47 -14.1629 344.95 -14.8585C343.786 -15.0692 342.095 -13.6983 340.614 -13.4873C335.853 -12.4324 331.284 -11.1034 327.585 -7.93991C327.035 -7.56028 326.252 -7.22279 325.554 -7.34924C323.649 -7.45447 322.275 -6.50538 320.858 -5.32433C316.144 -1.8655 312.002 2.41572 306.715 5.0522C305.425 5.53737 304.707 6.84486 303.524 8.06805C302.657 8.86946 302.172 10.2191 301.306 11.0205C295.897 16.9888 290.529 22.7251 286.815 29.9584C286.731 30.4224 286.182 30.802 285.865 31.2238C284.365 32.8688 283.754 34.9143 282.91 36.9177C280.845 43.0121 279.013 49.1487 277.414 55.3275C276.952 57.8791 275.982 60.5783 276.876 63.6148C284.327 64.9635 291.97 66.5864 299.38 68.1671C291.443 68.168 283.969 65.6173 276.349 65.1964C275.082 66.8835 274.597 68.2332 274.769 69.9412C274.879 73.3151 275.223 76.7313 275.567 80.1473C275.911 83.5634 276.529 86.7897 276.407 90.1215C276.017 95.2757 277.374 100.414 280.259 104.713C281.023 105.81 281.237 107.286 281.45 108.762C281.855 110.512 282.26 112.262 283.722 113.485C284.57 114.118 284.825 115.362 285.165 116.142C285.994 118.209 287.33 120.127 288.391 122.236C289.792 125.125 292.842 126.875 293.694 130.143C293.61 130.607 294.266 130.965 294.69 131.282C296.194 132.273 297.74 133.032 298.928 134.444C300.157 135.625 300.52 137.607 301.707 139.02C302.47 140.116 303.742 141.065 304.78 141.972C307.555 143.912 310.331 145.851 313.064 148.023C316.454 150.553 319.844 153.083 323.425 155.887C325.922 155.381 328.082 156.73 330.518 157.89C331.598 158.564 332.637 159.471 333.801 159.682L347.754 163.645C348.686 163.813 349.808 164.256 350.739 164.424L354.465 165.099C356.137 165.162 358.084 165.035 360.264 164.951L360.814 164.571Z" fill="white" fill-opacity="0.7"/>
<path d="M278.972 222.105C283.461 223.876 286.66 226.131 289.626 228.345C286.301 226.785 282.385 225.837 278.972 222.105ZM229.981 181.855C230.931 180.589 231.332 179.704 231.84 179.556C234.336 179.05 235.623 175.929 238.459 176.202C235.753 177.869 234.615 181.496 229.981 181.855ZM266.651 -65.9244C266.773 -69.2562 269.842 -68.9402 270.877 -70.6695C272.232 -70.1846 272.572 -69.4044 271.472 -68.6452C270.098 -67.6961 268.491 -66.7891 266.651 -65.9244ZM137.039 246.245C134.798 247.995 132.832 249.556 129.767 251.876C132.427 247.806 133.485 247.278 136.997 246.477L137.039 246.245ZM411.916 -112.459C412.199 -110.034 411.585 -107.59 410.19 -105.585C410.442 -106.976 410.271 -108.684 410.29 -110.118L410.583 -111.742C410.583 -111.742 410.625 -111.974 411.725 -112.733L411.916 -112.459ZM112.027 263.518C109.744 265.5 107.653 267.757 104.373 268.601C105.851 265.754 108.557 264.088 111.985 263.75L112.027 263.518ZM329.859 342.233C329.523 344.089 329.187 345.944 328.916 348.77C327.79 345.691 329.099 343.772 329.859 342.233ZM525.025 164.825C525.403 162.737 526.078 161.662 528.044 160.101C527.583 162.653 527.331 164.045 525.025 164.825ZM258.691 161.418C257.806 163.653 255.924 164.75 253.366 166.922C254.504 163.295 256.576 162.473 258.882 161.692L258.691 161.418ZM539.962 132.792C540.423 130.24 541.141 128.933 541.435 127.309C541.646 129.257 541.12 131.211 539.962 132.792ZM423.857 -94.7262C421.803 -95.3375 420.025 -96.1386 417.272 -96.8764C420.002 -97.3406 421.632 -97.0456 423.178 -96.2866C423.644 -96.2023 423.708 -95.2323 423.815 -94.4943L423.857 -94.7262ZM175.56 219.438C174.377 220.662 173.235 221.653 172.052 222.876C171.014 221.969 171.563 221.59 172.113 221.21C173.212 220.451 174.163 219.185 175.793 219.48L175.56 219.438ZM548.794 94.6229L549.466 90.9115C549.466 90.9115 549.977 93.3998 548.794 94.6229ZM274.161 218.12C274.161 218.12 276.28 219.701 277.319 220.608L276.303 220.903C275.456 220.271 274.375 219.596 273.57 218.731L273.654 218.267C273.654 218.267 273.887 218.31 274.203 217.888L274.161 218.12ZM326.057 361.908C326.103 364.312 326.042 365.978 325.007 367.707C324.454 365.451 324.748 363.827 326.057 361.908ZM336.74 301.555C337.019 304.001 337.657 305.793 335.607 307.818C335.561 305.414 335.389 303.706 336.74 301.555ZM158.752 231.249C159.47 229.942 160.187 228.634 162.684 228.128C161.417 229.815 160.275 230.806 158.752 231.249ZM183.023 214.081C182.031 215.579 180.656 216.528 178.267 217.772C178.77 214.989 180.95 214.904 182.981 214.313L183.023 214.081ZM546.525 34.0818C546.525 34.0818 544.913 32.3528 545.906 30.8555C546.162 32.0996 546.46 33.1118 546.525 34.0818ZM70.1305 25.9539C67.5499 26.9242 66.1527 26.6713 64.4996 25.1742C65.4731 25.1109 65.9808 24.9632 66.4466 25.0475C67.378 25.2161 68.5424 25.4268 70.1305 25.9539ZM269.391 155.449C267.784 156.356 266.41 157.305 264.803 158.212C264.039 157.116 265.055 156.82 265.605 156.441C266.895 155.955 267.887 154.458 269.349 155.681L269.391 155.449ZM544.958 119.802C544.39 121.615 543.989 122.501 543.737 123.893C542.973 122.796 543.458 121.446 544.958 119.802ZM327.275 355.181C327.275 355.181 327.847 356.003 328.271 356.319C328.271 356.319 328.187 356.783 327.87 357.205L327.404 357.121C326.79 356.53 326.641 356.024 327.465 355.455L327.275 355.181ZM380.578 249.359C382.567 249 383.774 248.979 385.022 248.726C384.029 250.223 382.781 250.476 380.578 249.359ZM295.536 231.571C295.536 231.571 297.483 231.444 298.246 232.541C296.998 232.794 296.025 232.857 295.536 231.571ZM153.255 235.045C153.041 233.569 154.099 233.042 155.538 233.063C155.053 234.413 154.652 235.298 153.022 235.003L153.255 235.045ZM205.71 199.022C205.71 199.022 204.568 200.014 203.744 200.583C203.912 199.655 204.503 199.044 205.71 199.022ZM219.601 190.038C217.738 189.701 217.128 191.746 216.028 192.505C215.982 190.101 216.024 189.869 218.395 190.059L219.326 190.228L219.601 190.038Z" fill="white" fill-opacity="0.7"/>
<path d="M423.582 -94.5343C425.063 -94.7453 426.777 -94.9142 428.239 -93.6913C426.399 -92.8265 425.212 -94.2392 423.582 -94.5343ZM166.997 225.557C166.997 225.557 165.897 226.316 165.115 226.654C165.325 225.494 166.256 225.662 166.997 225.557ZM258.69 161.42C258.69 161.42 260.847 160.134 262.454 159.227C261.76 161.736 260.279 161.947 258.458 161.378L258.69 161.42ZM72.4163 26.6095C72.4163 26.6095 73.6227 26.5883 74.1304 26.4406L74.0044 27.1365C73.4967 27.2842 73.2219 27.474 72.7561 27.3897C72.7561 27.3897 72.6073 26.8836 72.2255 26.3354L72.4163 26.6095ZM136.996 246.479C137.29 244.855 138.305 244.56 140.336 243.969C139.302 245.698 138.435 246.5 136.805 246.205L136.996 246.479ZM112.259 263.562C112.046 262.086 113.103 261.559 114.393 261.074C114.225 262.002 113.359 262.803 112.301 263.33L112.259 263.562ZM271.534 216.688C269.969 217.363 269.122 216.731 269.457 214.875C270.305 215.508 270.92 216.098 271.534 216.688ZM216.027 192.508C214.695 193.225 213.363 193.942 211.798 194.617C212.45 192.339 213.233 192.002 215.795 192.465L216.027 192.508ZM436.645 -90.972L437.428 -91.3094C437.661 -91.2673 437.81 -90.7612 437.768 -90.5293C437.535 -90.5714 436.985 -90.1918 436.985 -90.1918C436.752 -90.2339 436.603 -90.74 436.687 -91.2039L436.645 -90.972ZM392.343 248.137L392.916 248.959C392.408 249.107 392.133 249.297 391.625 249.444L391.434 249.17C391.518 248.706 392.026 248.559 392.343 248.137ZM401.453 -59.9698C401.453 -59.9698 402.236 -60.3072 402.743 -60.4549C402.701 -60.2229 402.85 -59.7168 402.808 -59.4848C402.724 -59.0209 402.598 -58.3251 401.942 -58.6835L401.644 -59.6956L401.453 -59.9698ZM339.769 246.287L341.864 246.666L341.781 247.13L339.685 246.751L339.769 246.287ZM263.781 211.692C263.781 211.692 264.521 211.586 264.712 211.86C264.903 212.134 264.819 212.598 265.01 212.872L264.079 212.704C264.079 212.704 263.93 212.198 263.739 211.924L263.781 211.692ZM371.351 249.847C370.06 250.332 369.087 250.396 368.323 249.299L371.351 249.847ZM202.497 30.7489C202.497 30.7489 202.455 30.9809 202.18 31.1707L202.264 30.7068L202.497 30.7489ZM547.509 41.9283L547.658 42.4344L547.467 42.1603L547.509 41.9283ZM376.917 249.657C375.775 250.648 375.035 250.754 374.122 249.151L376.917 249.657ZM550.419 77.6708C550.419 77.6708 550.885 77.7551 550.927 77.5232L550.759 78.451L550.484 78.6409C550.526 78.4089 550.568 78.1769 550.419 77.6708ZM550.408 84.3766L550.576 83.4487L551.274 83.5752L551.106 84.503L550.873 84.4609L550.408 84.3766ZM92.8518 277.777C92.8518 277.777 91.5615 278.262 90.8209 278.368L90.1223 278.241C90.1643 278.009 90.4811 277.588 90.714 277.63L92.8098 278.009L92.8518 277.777ZM218.945 -9.63496C219.197 -11.0267 218.052 -12.6714 220.315 -13.2199C220.106 -12.0601 219.388 -10.7526 219.178 -9.59281L218.945 -9.63496ZM220.315 -13.2199C220.525 -14.3798 220.079 -15.898 221.835 -16.2988C223.591 -16.6997 220.758 -14.3376 220.357 -13.4519L220.315 -13.2199ZM240.783 173.99L240.867 173.526L241.249 174.074L240.974 174.264L241.016 174.032L240.783 173.99ZM200.138 38.4671C200.138 38.4671 201.046 37.4338 201.363 37.012C201.852 38.2983 201.069 38.6357 200.138 38.4671ZM453.693 230.733C453.693 230.733 454.243 230.353 454.285 230.121L454.159 230.817L453.884 231.007C453.884 231.007 453.46 230.691 453.502 230.459L453.693 230.733ZM77.9869 286.825C77.9869 286.825 78.5786 286.214 79.0863 286.066C79.0863 286.066 79.51 286.382 79.468 286.614C79.426 286.846 79.3421 287.31 78.8764 287.226L77.9449 287.057L77.9869 286.825ZM60.5401 24.4599C60.5401 24.4599 61.0479 24.3123 61.5136 24.3966C61.5136 24.3966 61.6625 24.9027 61.8534 25.1767C61.8534 25.1767 61.5786 25.3666 61.3877 25.0924C61.1548 25.0503 60.9639 24.7762 60.773 24.5021L60.5401 24.4599ZM119.089 259.049L118.707 258.501C118.749 258.269 119.066 257.847 119.299 257.889L119.997 258.015C119.68 258.437 119.406 258.627 119.089 259.049ZM244.631 171.333L244.715 170.869C244.715 170.869 244.631 171.333 244.822 171.607L244.589 171.565L244.673 171.101L244.631 171.333ZM68.9817 294.059L68.5999 293.511L69.4245 292.942C69.4245 292.942 69.8482 293.258 69.6154 293.216C69.5734 293.448 69.2985 293.637 68.9817 294.059ZM256.439 -58.667L256.904 -58.5827L256.862 -58.3508L256.397 -58.4351L256.481 -58.899L256.439 -58.667ZM175.517 219.673C175.517 219.673 176.594 217.711 177.991 217.964C177.739 219.356 176.914 219.925 175.517 219.673ZM126.487 252.722C126.487 252.722 127.036 252.342 127.269 252.384L127.651 252.932C127.609 253.164 127.101 253.312 126.826 253.502L126.361 253.418L126.529 252.49L126.487 252.722ZM227.254 184.957C227.254 184.957 226.934 182.743 228.839 182.848C228.205 183.692 227.613 184.303 227.254 184.957ZM64.5191 296.126C64.5191 296.126 65.0269 295.979 65.3017 295.789L65.2178 296.253C65.2178 296.253 64.71 296.4 64.4351 296.59L64.5191 296.126ZM150.548 236.714C150.548 236.714 149.639 237.747 149.322 238.169L148.857 238.085C148.899 237.853 148.75 237.347 149.025 237.157C149.532 237.009 150.273 236.904 150.781 236.756L150.548 236.714ZM182.98 214.316C182.98 214.316 184.099 212.122 185.645 212.881C187.191 213.64 184.335 214.8 182.98 214.316Z" fill="white" fill-opacity="0.7"/>
<path d="M185.646 212.882C185.646 212.882 185.814 211.954 186.322 211.806L187.254 211.975C187.212 212.207 187.128 212.671 186.662 212.586C186.429 212.544 185.963 212.46 185.688 212.65L185.646 212.882ZM211.799 194.617C211.799 194.617 210.425 195.566 209.559 196.368C209.894 194.512 210.635 194.406 211.757 194.849L211.799 194.617ZM409.455 -102.841C409.455 -102.841 409.92 -102.756 410.428 -102.904L410.26 -101.976C410.26 -101.976 409.794 -102.061 409.519 -101.871C409.561 -102.103 409.645 -102.567 409.455 -102.841ZM150.782 236.756C150.992 235.596 151.859 234.795 153.256 235.048C152.962 236.672 152.179 237.009 150.782 236.756ZM417.18 -145.522C417.18 -145.522 417.497 -145.944 417.729 -145.902C417.729 -145.902 417.878 -145.396 417.836 -145.164L417.752 -144.7C417.752 -144.7 417.371 -145.248 417.138 -145.29L417.18 -145.522ZM416.932 -141.494C416.932 -141.494 416.783 -142.001 416.867 -142.464L417.375 -142.612C417.333 -142.38 417.523 -142.106 417.439 -141.642C417.439 -141.642 417.207 -141.684 416.932 -141.494ZM330.097 -97.5599L330.055 -97.328L329.589 -97.4123L330.097 -97.5599ZM268.396 -74.2304L268.862 -74.1462L268.312 -73.7665C268.312 -73.7665 268.354 -73.9985 268.163 -74.2726C268.163 -74.2726 268.396 -74.2305 268.671 -74.4203L268.396 -74.2304ZM541.681 20.9896C541.681 20.9896 542.337 21.3481 542.528 21.6222L542.295 21.58C542.295 21.58 542.146 21.0739 541.955 20.7998L541.681 20.9896ZM221.836 -16.2985L222.004 -17.2264C222.004 -17.2264 222.512 -17.3741 222.554 -17.6061L222.47 -17.1421C222.428 -16.9102 221.92 -16.7625 221.645 -16.5727L221.836 -16.2985ZM203.968 22.6305L204.201 22.6726L204.117 23.1366L203.884 23.0944L203.968 22.6305ZM533.321 149.559L533.405 149.095C533.405 149.095 533.828 149.412 533.786 149.644C533.786 149.644 533.744 149.876 533.47 150.065L533.554 149.602L533.321 149.559ZM550.42 63.0577L550.187 63.0155L550.271 62.5516L550.737 62.6359L550.653 63.0998L550.42 63.0577ZM316.518 122.297C316.938 119.977 318.885 119.851 320.683 119.218C319.457 120.673 318.465 122.17 316.518 122.297ZM312.185 126.304C312.689 123.521 313.83 122.529 316.518 122.297C315.102 123.478 313.643 124.891 312.185 126.304ZM306.222 130.016L304.214 131.809C303.619 129.785 304.825 129.763 306.222 130.016ZM314.283 70.8656L312.187 70.4862L312.271 70.0223L314.367 70.4016L314.283 70.8656ZM322.094 71.5606C322.094 71.5606 322.517 71.8768 322.708 72.1509L322.242 72.0666C322.01 72.0245 321.544 71.9402 321.353 71.6661C321.353 71.6661 321.819 71.7504 322.094 71.5606ZM305.751 68.8422L305.793 68.6102L306.724 68.7788L306.682 69.0107L305.751 68.8422Z" fill="white" fill-opacity="0.7"/>
<path d="M311.947 126.261C311.947 126.261 310.424 126.704 309.45 126.768C309.809 126.114 310.592 125.776 311.947 126.261ZM318.045 71.3071L317.58 71.2228C317.58 71.2228 318.087 71.0752 318.129 70.8432L318.087 71.0752L317.622 70.9909L318.045 71.3071Z" fill="white" fill-opacity="0.7"/>
</g>
<defs>
<clipPath id="clip0_1039_10608">
<rect width="542.509" height="450.741" fill="white" transform="translate(533.835 398.157) rotate(-169.741)"/>
</clipPath>
</defs>
</svg>
