<svg width="66" height="77" viewBox="0 0 66 77" fill="none" xmlns="http://www.w3.org/2000/svg">
<g clip-path="url(#clip0_736_12506)">
<path d="M27.7725 34.3777L27.4804 33.0674L16.6568 32.882V31.6179C16.6568 29.2542 16.6568 26.8905 16.6568 24.5226C16.6713 24.0246 16.6258 23.5267 16.5213 23.0395C16.4494 22.7242 16.3156 22.4262 16.1274 22.1627C15.9392 21.8992 15.7004 21.6754 15.4248 21.5042C15.1492 21.3331 14.8423 21.2179 14.5217 21.1653C14.2011 21.1128 13.8733 21.124 13.5571 21.1982C12.8996 21.3585 12.3311 21.7681 11.9728 22.3395C11.6144 22.9109 11.4946 23.599 11.6388 24.2571C11.6793 24.3864 11.7504 24.504 11.8463 24.6001C11.9421 24.6961 12.0598 24.7678 12.1893 24.8091C12.3285 24.792 12.4625 24.7456 12.5822 24.6729C12.702 24.6003 12.8048 24.503 12.8838 24.3877C13.0108 24.2361 12.9812 23.9453 12.9939 23.7178C13.032 23.0015 13.303 22.4327 14.1034 22.4538C14.9037 22.4749 15.2806 22.9931 15.2806 23.781V32.8778H11.19H11.1434C9.40721 32.823 7.66257 32.8988 5.92216 32.8525C5.62488 32.8333 5.32795 32.8949 5.06316 33.0308C4.79836 33.1666 4.57566 33.3715 4.41889 33.6235C3.19933 35.3089 1.97978 36.9648 0.684001 38.5701C0.220199 39.1351 -0.0166681 39.8512 0.0191705 40.5799C0.0389318 48.5067 0.0389318 56.4349 0.0191705 64.3645C0.0191705 66.3308 0.0191705 68.2971 0.0191705 70.2633C0.0191705 71.8391 0.103863 71.915 1.64101 71.9276H2.83092C2.83092 73.1706 2.83092 74.2913 2.83092 75.4163C2.83092 76.8194 2.9749 76.9668 4.38078 76.9711C10.7411 76.9711 17.1028 76.9711 23.466 76.9711L61.7338 76.9458C63.0592 76.9458 63.1397 76.8615 63.1481 75.5259C63.1481 74.3672 63.1481 73.2085 63.1481 71.9276H64.6133C65.8837 71.9276 65.9811 71.8265 65.9811 70.554C65.9811 60.4924 65.9811 50.4308 65.9557 40.3734C65.9396 39.721 65.7304 39.0879 65.3543 38.5532C64.1221 36.8679 62.7586 35.2499 61.5009 33.5688C61.3309 33.3274 61.1003 33.1347 60.832 33.0098C60.5638 32.8848 60.2673 32.832 59.9722 32.8567C55.5174 32.8778 51.0796 32.8567 46.6121 32.8567H34.8019H33.0022L32.4221 34.2134H36.2713C36.2713 34.2134 34.5775 37.2176 33.7729 38.5406C33.6806 38.6619 33.5634 38.7622 33.429 38.8349C33.2947 38.9075 33.1463 38.9508 32.9938 38.9619C22.7588 38.983 12.5239 38.9619 2.0814 38.9619C2.87327 37.8875 3.56774 36.9395 4.26644 36.0125C4.48664 35.7218 4.73225 35.4437 4.95245 35.1699C5.62151 34.2766 5.67232 34.0491 6.69286 34.1039M37.6052 34.5252C37.7007 34.4229 37.8168 34.3419 37.946 34.2875C38.0752 34.233 38.2145 34.2063 38.3547 34.2092C43.8131 34.2092 49.2672 34.2092 54.7213 34.2092H55.8647C57.0885 34.2092 58.3122 34.1839 59.536 34.2092C59.8873 34.1934 60.2318 34.3092 60.5015 34.5336C61.6576 35.9114 62.7501 37.3398 63.9866 38.9029H35.2254C36.0511 37.403 36.8049 35.983 37.6137 34.5758L37.6052 34.5252ZM34.8019 40.424H64.5921V45.3242H34.8104L34.8019 40.424ZM1.51821 40.424H33.2775V45.3242H1.51821V40.424ZM33.2775 46.8494V70.5119H18.1474V46.8663L33.2775 46.8494ZM1.51821 70.4908V46.8494H16.6229V70.5077L1.51821 70.4908ZM61.755 75.5343H4.25374V72.0161H61.755V75.5343ZM64.6048 70.5498H34.7934V46.8199H64.6048V70.5498Z" fill="white"/>
<path d="M61.7525 0C53.2185 0 44.6844 0 36.1503 0C34.8207 0 34.7656 0.0589851 34.7656 1.43256C34.7656 5.89315 34.7656 10.3551 34.7656 14.8185C34.7656 16.0826 34.8673 16.1921 36.1334 16.1921H48.9006H61.7525C63.0229 16.1921 63.0653 16.1289 63.0653 14.9028V1.32722C63.0483 0.113759 62.9467 0 61.7525 0ZM61.6297 14.8354H36.1969V1.45362H61.6297V14.8354Z" fill="white"/>
<path d="M62.4509 49.622C62.4509 48.3917 62.3069 48.2568 61.0493 48.2568H49.6922C45.881 48.2568 42.0699 48.2568 38.2588 48.2568C37.3314 48.2568 36.9292 48.5391 36.9376 49.5209C36.963 55.3817 36.9376 61.2426 36.9376 67.0992C36.9376 68.2874 37.2425 68.6076 38.3943 68.6076C45.8895 68.6076 53.3847 68.6076 60.8799 68.6076C62.2434 68.6076 62.434 68.3927 62.434 67.0318C62.4453 61.2088 62.4509 55.4056 62.4509 49.622ZM60.9858 67.0739H38.3943V49.6683H60.9731L60.9858 67.0739Z" fill="white"/>
<path d="M56.6296 3.14648C56.6296 2.37122 56.329 2.0847 55.5583 2.08891C49.7428 2.10577 43.9273 2.10577 38.1118 2.08891C37.2141 2.08891 36.8626 2.41756 36.8753 3.32766C36.9092 6.454 36.8753 9.58035 36.8753 12.7067C36.8753 13.9497 37.0108 14.1056 38.2431 14.114C41.1184 14.114 43.9936 14.114 46.8689 14.114C49.7442 14.114 52.6195 14.114 55.4905 14.114C56.2993 14.114 56.6254 13.8232 56.6211 12.9974C56.6042 9.73203 56.6084 6.44137 56.6296 3.14648ZM55.1687 12.6224H38.3744V3.50041H55.1687V12.6224Z" fill="white"/>
<path d="M28.2789 35.5058H30.4737C30.5144 35.5065 30.5542 35.493 30.5869 35.4675C30.6196 35.4419 30.6436 35.4057 30.655 35.3645L31.6761 31.1034C31.6828 31.0754 31.6832 31.0461 31.6774 31.0179C31.6715 30.9897 31.6596 30.9633 31.6425 30.9408C31.6254 30.9183 31.6036 30.9003 31.5788 30.8882C31.554 30.8761 31.5269 30.8703 31.4996 30.8712H27.2053C27.178 30.8703 27.1509 30.8761 27.1261 30.8882C27.1013 30.9003 27.0795 30.9183 27.0624 30.9408C27.0453 30.9633 27.0334 30.9897 27.0275 31.0179C27.0217 31.0461 27.0221 31.0754 27.0288 31.1034L28.1214 35.3695C28.1318 35.4063 28.1523 35.4389 28.1804 35.4632C28.2084 35.4875 28.2428 35.5024 28.2789 35.5058Z" stroke="white" stroke-width="0.591305" stroke-miterlimit="10"/>
<path d="M30.8359 34.0401C32.1221 34.6254 32.953 33.8318 32.953 33.0084C32.9588 32.6729 32.823 32.3487 32.5753 32.1064C32.3276 31.864 31.9878 31.723 31.6299 31.7139" stroke="white" stroke-width="0.591305" stroke-miterlimit="10"/>
<path d="M11.0156 32.8643L20.3312 32.9548" stroke="white" stroke-width="0.886958" stroke-linecap="round"/>
<path d="M13.1219 32.4441V29.916H11.8516H14.3923M19.4738 32.4441V29.916H18.2034H20.7442" stroke="white" stroke-width="0.591305" stroke-linecap="round"/>
<path d="M43.8926 36.3281C45.1188 36.3281 46.2183 36.466 47.002 36.6836C47.3959 36.793 47.6937 36.9188 47.8857 37.0449C48.0896 37.1788 48.1064 37.2662 48.1064 37.2852C48.1063 37.3045 48.089 37.3919 47.8857 37.5254C47.6937 37.6515 47.3959 37.7763 47.002 37.8857C46.2182 38.1034 45.1188 38.2422 43.8926 38.2422C42.6663 38.2422 41.5669 38.1034 40.7832 37.8857C40.3893 37.7763 40.0914 37.6515 39.8994 37.5254C39.6962 37.3919 39.6788 37.3045 39.6787 37.2852C39.6787 37.2662 39.6956 37.1788 39.8994 37.0449C40.0914 36.9188 40.3893 36.793 40.7832 36.6836C41.5669 36.466 42.6664 36.3281 43.8926 36.3281Z" stroke="white" stroke-width="0.591364"/>
<path d="M54.0566 36.3281C55.2828 36.3281 56.3823 36.466 57.166 36.6836C57.56 36.793 57.8578 36.9188 58.0498 37.0449C58.2536 37.1788 58.2705 37.2662 58.2705 37.2852C58.2704 37.3045 58.2531 37.3919 58.0498 37.5254C57.8578 37.6515 57.56 37.7763 57.166 37.8857C56.3823 38.1034 55.2829 38.2422 54.0566 38.2422C52.8303 38.2422 51.731 38.1034 50.9473 37.8857C50.5533 37.7763 50.2555 37.6515 50.0635 37.5254C49.8602 37.3919 49.8429 37.3045 49.8428 37.2852C49.8428 37.2662 49.8597 37.1788 50.0635 37.0449C50.2555 36.9188 50.5533 36.793 50.9473 36.6836C51.731 36.466 52.8304 36.3281 54.0566 36.3281Z" stroke="white" stroke-width="0.591364"/>
<path d="M40.3594 3.40039H42.2811M40.3594 7.09605H42.2811" stroke="white" stroke-width="0.591305" stroke-linecap="round"/>
<path d="M14.1914 34.8867V39.3215M9.46094 34.8867V39.3215" stroke="white" stroke-width="0.591305" stroke-linecap="round"/>
<path d="M14.1699 23.874L14.2275 23.8779C14.361 23.8991 14.4746 23.9923 14.5195 24.123L15.1279 25.8975C15.1665 26.0102 15.1482 26.1344 15.0791 26.2314C15.0097 26.3286 14.8977 26.3867 14.7783 26.3867H6.5C6.366 26.3867 6.24202 26.3143 6.17676 26.1973C6.11158 26.0803 6.11531 25.9372 6.18555 25.8232L7.28125 24.0488L7.34082 23.9756C7.40869 23.9109 7.49962 23.874 7.5957 23.874H14.1699Z" stroke="white" stroke-width="0.739131" stroke-linejoin="round"/>
<circle cx="31.3401" cy="30.1565" r="0.591305" stroke="white" stroke-width="0.591305"/>
<mask id="path-15-inside-1_736_12506" fill="white">
<rect x="32.8203" y="28.9736" width="2.66087" height="2.06957" rx="0.295653"/>
</mask>
<rect x="32.8203" y="28.9736" width="2.66087" height="2.06957" rx="0.295653" stroke="white" stroke-width="1.18261" stroke-linejoin="round" mask="url(#path-15-inside-1_736_12506)"/>
<path d="M31.3438 28.9736V29.2397" stroke="white" stroke-width="0.295653" stroke-linecap="round"/>
<circle cx="36.9573" cy="30.1565" r="0.591305" stroke="white" stroke-width="0.591305"/>
<path d="M36.9531 28.9736V29.2397" stroke="white" stroke-width="0.295653" stroke-linecap="round"/>
</g>
<defs>
<clipPath id="clip0_736_12506">
<rect width="66" height="77" fill="white"/>
</clipPath>
</defs>
</svg>
