<svg width="577" height="197" viewBox="0 0 577 197" fill="none" xmlns="http://www.w3.org/2000/svg">
<path d="M179.637 71.2653C178.401 80.4804 176.95 90.0287 173.442 99.0826C170.277 107.202 163.281 110.807 155.71 113.929C148.139 117.051 140.584 116.992 132.927 114.59C129.274 113.445 125.657 112.199 122.052 110.931C119.983 110.2 118.602 111.054 118.07 112.897C116.249 119.168 115.48 125.616 119.612 131.166C121.466 133.638 124.808 135.03 127.522 136.862C128.333 137.399 129.413 137.576 130.133 138.194C131.036 138.963 132.433 140.172 132.283 140.913C132.035 142.09 130.853 143.294 129.752 144.003C128.644 144.587 127.404 144.875 126.152 144.841C119.65 144.997 113.154 145.792 106.668 144.1C104.24 143.471 101.542 143.885 98.9631 143.831C97.8884 143.804 96.6794 144.116 95.7875 143.702C94.5355 143.122 93.52 142.015 92.4023 141.134C93.3373 140.113 94.0788 138.614 95.234 138.146C104.874 134.224 108.028 129.785 107.979 119.313C107.979 115.654 107.442 111.994 107.367 108.33C107.254 102.624 107.302 96.9118 107.34 91.2C107.378 85.3969 107.598 79.5938 107.533 73.7907C107.453 66.8055 107.206 59.8203 106.948 52.8351C106.69 45.6994 104.18 39.7781 97.6574 36.0706C95.9379 35.098 94.5946 33.7171 95.2448 31.4872C95.9433 29.0961 97.9744 28.7468 100 28.9886C103.283 29.3587 106.546 29.8967 109.774 30.6006C117.592 32.3577 125.163 31.6 132.772 29.2627C138.22 27.5916 143.824 25.9366 149.638 27.3498C157.827 29.3433 165 33.3302 170.674 39.5363C172.582 41.6158 173.866 44.5388 174.656 47.3007C176.365 53.3026 177.611 59.4388 178.955 65.5428C179.331 67.2784 179.384 69.0838 179.637 71.2653ZM144.421 106.471C147.645 105.595 151.347 105.434 154.028 103.709C161.094 99.1578 165.688 92.6777 166.075 83.9086C166.349 77.6595 165.892 71.319 166.79 65.172C167.982 57.0155 165.618 50.1915 161.024 43.8027C155.973 36.7852 148.784 34.5123 140.563 35.0819C126.259 36.0759 119.774 47.0965 118.737 57.6119C118.081 64.2747 118.312 71.0181 117.888 77.7078C116.904 93.2687 128.666 105.923 144.421 106.471Z" fill="white"/>
<path d="M440.019 118.335C430.648 118.335 422.067 116.186 415.555 108.878C410.778 103.505 408.57 97.0087 407.022 90.0718C404.293 77.7134 403.798 65.457 407.334 53.2006C410.445 42.3736 417.205 34.8457 427.58 30.3912C440.202 24.9696 452.023 26.5709 463.167 34.1525C470.115 38.881 474.166 45.4363 475.037 53.9421C475.402 57.4885 476.342 60.9757 476.692 64.5274C477.342 71.1258 474.365 75.1772 467.751 75.7629C463.269 76.1605 458.664 74.973 454.151 75.2256C444.538 75.7629 434.947 76.7354 425.345 77.5414C424.808 77.5844 424.27 77.7564 423.76 77.794C420.864 77.9928 419.558 79.6048 419.187 82.415C417.323 96.5197 426.785 108.33 441.003 109.501C451.937 110.399 460.121 106.181 465.354 96.423C466.063 95.0958 466.805 93.5537 467.971 92.7638C469.244 91.9148 471.41 91.0551 472.49 91.5978C473.871 92.2856 475.499 94.4886 475.332 95.8266C474.942 98.52 473.95 101.091 472.431 103.349C465.112 114.262 454.086 117.814 441.631 118.303C441.099 118.351 440.562 118.33 440.019 118.335ZM447.198 68.2618C447.252 68.5574 447.311 68.8583 447.365 69.1538C452.442 67.9233 457.531 66.7412 462.582 65.3925C463.433 65.1056 464.143 64.5065 464.57 63.7161C466.665 59.584 467.509 55.221 464.36 51.3576C455.672 40.6434 444.941 34.6468 430.321 41.9652C424.647 44.8076 420.251 48.671 418.988 55.307C417.602 62.6199 419.983 65.9621 427.446 66.6552C434.023 67.2678 440.61 67.7353 447.198 68.2618Z" fill="white"/>
<path d="M522.026 29.0802C530.284 30.2784 537.544 31.2779 544.781 32.417C546.727 32.7233 548.865 34.2546 550.434 33.7442C551.901 33.266 552.583 30.7029 553.868 29.279C557.382 25.3673 557.693 22.7505 553.535 17.114C552.676 16.0823 551.927 14.964 551.299 13.7772C550.745 12.4028 549.839 11.1983 548.673 10.2845C547.506 9.37062 546.12 8.77955 544.653 8.57054C542.326 8.16217 540.854 6.79201 540.891 4.41703C540.929 2.04206 542.82 1.04801 544.803 0.618147C549.354 -0.37053 553.873 -0.289929 558.204 1.71966C562.879 3.86896 564.834 7.36156 564.254 12.5306C564.219 13.151 564.099 13.7637 563.899 14.3522C561.036 21.2299 561.508 27.8551 563.867 34.9532C565.297 39.2518 564.55 44.3133 564.56 49.0364C564.56 54.8288 564.378 60.6265 564.227 66.4189C564.061 73.0172 564.302 79.6693 563.518 86.1924C562.805 92.6844 562.924 99.2409 563.873 105.703C564.319 109.039 562.948 111.441 559.934 112.382C557.167 113.247 555.566 112.484 554.491 109.776C553.174 106.476 551.847 106.063 548.79 108.072C545.029 110.528 541.267 112.94 537.619 115.514C535.925 116.774 533.96 117.622 531.881 117.99C529.802 118.359 527.666 118.238 525.642 117.637C520.903 116.352 516.094 115.267 511.446 113.714C502.714 110.791 497.825 104.537 496.578 95.4451C495.702 89.0617 494.391 82.689 494.192 76.2841C494.015 70.6208 495.025 64.909 495.67 59.2348C496.03 56.0431 496.589 52.8622 497.282 49.7188C499.168 40.8798 505.551 35.9687 513.074 32.2827C516.126 30.805 519.511 29.9614 522.026 29.0802ZM552.519 72.2435H553.094C553.094 69.6482 553.352 67.0207 553.024 64.4684C552.6 61.1423 552.433 57.4832 550.843 54.6891C548.3 50.3849 545.232 46.414 541.708 42.868C532.165 33.008 515.127 38.4135 509.469 46.5271C502.661 56.3064 500.941 66.9454 501.554 78.3851C501.882 84.5267 503.44 90.2062 507.131 95.1818C509.818 98.7765 512.349 102.489 515.352 105.789C517.129 107.65 519.278 109.115 521.66 110.087C526.308 112.048 531.133 111.049 535.921 110.216C537.965 109.902 539.916 109.148 541.64 108.006C543.363 106.864 544.818 105.361 545.905 103.602C549.526 97.9706 552.154 91.8988 552.481 85.107C552.691 80.8406 552.519 76.5367 552.519 72.2435Z" fill="white"/>
<path d="M69.5974 37.9033C69.5974 41.4657 69.8768 45.0658 69.5007 48.5907C69.2823 51.0322 68.4887 53.3873 67.1848 55.463C65.6158 57.7735 63.0582 57.3705 61.8653 54.8075C60.9876 52.8557 60.4428 50.7707 60.2533 48.639C59.8235 44.147 57.8246 40.8854 53.741 38.8973C44.1873 34.2387 34.4564 33.9647 24.6502 37.8657C19.997 39.7194 16.9557 43.1046 16.7354 48.365C16.5151 53.6254 18.831 57.4081 23.2371 60.1861C31.1151 65.1819 40.0199 68.3338 49.2865 69.4066C57.3464 70.3899 64.971 73.0496 70.9622 79.0247C78.4203 86.4613 78.2161 98.4866 69.7962 104.725C64.243 108.773 58.2206 112.134 51.8603 114.735C43.8703 118.056 35.4719 116.277 27.267 114.682C24.4622 114.144 21.6842 113.403 18.8632 112.957C15.7844 112.468 12.7431 112.092 9.675 113.585C7.39137 114.692 5.02177 113.988 3.38293 111.973C2.50172 110.899 1.60439 109.555 1.46469 108.25C0.814525 102.312 0.314812 96.348 0.0192837 90.3837C-0.0783435 89.3358 0.196851 88.2871 0.79641 87.4222C1.39597 86.5572 2.28145 85.9316 3.29696 85.6553C5.71492 84.9621 6.78956 86.9341 7.92332 88.5138C8.40303 89.1553 8.7501 89.886 8.94424 90.6631C10.3144 96.9068 14.4464 100.475 20.228 102.484C30.0879 105.95 40.195 107.535 50.5707 105.74C56.1052 104.784 60.3715 101.861 61.7847 95.9558C63.2677 89.7443 61.2098 84.7203 56.0461 81.2492C53.0225 79.1936 49.7155 77.5899 46.2292 76.4885C42.5969 75.3816 38.7066 74.9464 34.8862 74.6831C25.7088 74.0437 17.6328 71.3195 11.2923 64.2053C2.09873 53.8833 3.17875 41.9708 14.5163 33.954C23.9248 27.2965 34.2791 25.0935 45.579 28.1938C51.7099 29.8757 57.8139 31.3479 64.337 30.2679C68.1789 29.6876 70.0971 32.6214 69.5974 37.9033Z" fill="white"/>
<path d="M190.352 73.5762C190.631 65.108 190.937 56.9192 193.936 49.0581C196.622 42.0192 200.921 36.4793 207.804 33.0512C213.236 30.3646 218.454 26.6033 224.708 26.743C233.481 26.9314 242.044 29.4618 249.511 34.0721C251.236 35.1146 252.627 37.0973 253.589 38.9457C259.785 50.8152 264.336 63.1521 263.261 76.8754C262.608 84.8228 260.587 92.5977 257.286 99.8567C253.525 108.228 246.163 111.726 237.824 114.461C226.288 118.222 216.02 114.558 205.665 110.533C203.843 109.782 202.241 108.583 201.007 107.046C195.392 99.9965 191.464 92.1623 190.83 82.9848C190.604 79.7769 190.497 76.553 190.352 73.5762ZM252.359 74.1135C252.359 66.3653 252.165 58.687 248.651 51.5459C242.622 39.2519 228.399 33.4059 217.164 39.5152C207.815 44.5929 202.742 53.1042 201.926 63.9366C201.286 72.4747 202.871 80.8892 205.187 88.8362C210.114 105.724 215.746 110.942 231.613 109.443C234.235 109.19 237.281 108.293 239.189 106.622C244.82 101.684 249.592 95.8322 251.15 88.2828C252.095 83.6672 251.993 78.8581 252.359 74.135V74.1135Z" fill="white"/>
<path d="M306.617 117.121C298.407 117.443 287.811 111.258 287.182 100.2C286.392 86.9123 285.301 73.6404 284.431 60.3524C284.098 55.2747 284.259 50.1432 283.732 45.0978C283.206 40.0523 281.336 38.5317 276.393 37.8063C274.899 37.5913 273.319 37.4731 271.965 36.8767C268.096 35.1788 267.618 30.4288 271.352 28.4461C273.932 27.092 277.07 26.6084 280.02 26.1947C283.174 25.7487 283.695 25.5069 283.818 22.2937C283.974 18.1832 283.931 14.0619 284.302 9.97288C284.51 8.02352 285.121 6.13873 286.097 4.43843C287.983 1.13926 291.739 1.11239 293.544 4.47067C294.619 6.44265 295.049 8.823 295.409 11.0744C295.812 13.6267 295.726 16.2542 295.994 18.828C296.617 24.8084 298.681 26.7696 304.65 27.3607C307.048 27.5941 309.431 27.9655 311.786 28.4729C313.71 28.8921 315.343 29.8646 315.375 32.1859C315.408 34.5071 314.059 36.1352 311.915 36.737C309.771 37.3388 307.348 37.9513 305.08 37.8707C295.973 37.5322 291.137 46.3282 293.549 53.7863C296.682 63.4581 296.3 73.13 295.161 82.9845C294.398 89.6097 294.946 96.0522 299.207 101.64C302.104 105.445 305.623 108.54 310.669 107.841C315.983 107.105 319.717 103.682 321.823 98.7926C322.608 96.9603 322.721 94.811 323.005 92.7907C323.237 91.1142 323.134 89.384 323.419 87.7183C323.887 84.9511 325.821 83.3123 328.11 83.5057C330.544 83.7099 332.21 85.741 331.963 88.7177C331.736 90.666 331.271 92.579 330.576 94.4134C329.62 97.1967 328.427 99.8887 327.385 102.656C323.742 112.58 317.229 117.137 306.617 117.121Z" fill="white"/>
<path d="M351.121 60.3308C350.697 54.9898 350.493 49.6219 349.783 44.3186C349.192 39.8803 347.36 38.4993 342.873 37.8707C341.208 37.6235 339.44 37.4623 337.946 36.7692C334.378 35.1035 333.932 30.5308 337.36 28.6018C339.746 27.2585 342.691 26.6621 345.463 26.2913C349.697 25.7271 350.063 25.3456 350.133 20.945C350.135 16.4866 350.431 12.0333 351.019 7.61395C351.557 3.99238 353.733 1.97742 355.914 2.00966C358.279 2.04727 360.213 4.11598 361.148 7.71068C361.381 8.66462 361.528 9.63744 361.588 10.6176C361.793 13.2021 361.895 15.8028 362.126 18.3873C362.663 24.717 364.931 26.8609 371.201 27.4143C373.592 27.6239 376.08 27.8388 378.294 28.6717C379.021 28.9957 379.675 29.4643 380.215 30.0491C380.756 30.6338 381.171 31.3224 381.437 32.073C381.975 34.0181 380.76 35.8718 378.751 36.4683C376.295 37.199 373.689 37.9728 371.174 37.8868C362.534 37.602 357.29 45.9896 359.751 53.6895C362.932 63.6569 362.47 73.5705 361.32 83.6937C360.525 90.6789 361.524 97.288 366.338 102.833C373.141 110.673 383.694 109.018 387.831 99.4158C388.449 97.8389 388.866 96.1908 389.073 94.51C389.33 92.8389 389.314 91.1249 389.422 89.4269C389.653 85.5582 391.464 83.3444 394.258 83.5164C397.154 83.6991 399.244 86.5469 397.981 90.249C395.682 96.971 393.237 103.79 389.69 109.899C386.144 116.008 375 118.668 367.037 116.417C359.262 114.219 354.259 108.394 353.502 100.249C352.271 86.9875 351.202 73.7048 350.063 60.4329L351.121 60.3308Z" fill="white"/>
<path d="M376.047 160.171C378.551 158.656 380.437 159.252 381.151 161.649C381.3 162.253 381.391 162.87 381.425 163.492C381.855 167.662 382.022 167.791 386.106 166.813C391.565 165.523 395.81 168.167 396.476 173.706C396.801 176.697 396.72 179.717 396.234 182.685C395.697 186.248 393.3 188.096 389.668 188.107C386.838 188.1 384.011 187.891 381.211 187.483C380.7 187.414 380.061 186.049 380.018 185.254C379.728 179.746 379.588 174.228 379.384 168.715C379.169 163.61 379.158 163.61 376.047 160.171ZM395.181 177.264C394.106 174.937 393.386 172.546 392.011 170.628C390.56 168.602 388.223 168.043 385.756 169.016C383.29 169.988 381.995 171.622 381.995 174.287C381.995 176.339 381.936 178.397 382.033 180.45C382.093 181.799 382.574 183.095 383.41 184.155C384.246 185.216 385.394 185.987 386.691 186.36C389.346 187.086 391.318 185.759 392.564 183.674C393.617 181.842 394.192 179.698 395.181 177.264Z" fill="white"/>
<path d="M565.363 187.951C564.718 187.951 563.627 188.241 562.805 187.897C560.264 186.823 557.894 187.021 555.283 187.817C552.537 188.66 549.587 189.079 547.373 186.371C544.563 182.932 545.992 178.456 550.474 177.054C552.505 176.42 554.729 176.377 556.75 175.705C557.953 175.302 559.802 174.212 559.807 173.422C559.757 172.665 559.555 171.925 559.214 171.248C558.872 170.57 558.398 169.968 557.819 169.478C555.218 167.441 551.951 168.666 550.732 171.627C550.409 172.406 549.34 172.868 548.615 173.475C548.212 172.401 547.809 171.326 547.422 170.295C547.422 170.235 547.486 170.133 547.524 170.053C548.819 167.248 553.434 165.792 557.792 166.791C560.909 167.5 562.515 169.612 562.59 172.992C562.66 175.942 562.537 178.902 562.983 181.82C563.3 183.787 564.439 185.651 565.363 187.951ZM551.93 186.339C556.196 186.253 559.452 183.685 559.99 180.762C560.382 178.645 559.511 177.538 557.443 177.871C555.338 178.216 553.269 178.756 551.264 179.483C549.378 180.171 548.233 181.858 549.114 183.712C549.695 185.028 551.344 185.829 551.946 186.35L551.93 186.339Z" fill="white"/>
<path d="M482.981 188.015C481.633 188.015 480.676 188.284 480.005 187.967C477.318 186.693 474.75 187.171 471.988 187.881C467.324 189.09 465.046 188.123 463.536 184.968C462.085 181.943 463.321 178.682 466.727 177.387C468.791 176.602 471.026 176.312 473.229 175.888C475.142 175.501 477.071 175.109 477.071 172.621C477.071 170.74 474.825 168.693 472.649 168.639C470.473 168.585 468.307 168.548 467.759 171.568C467.63 172.288 466.244 172.782 465.438 173.378C465.11 172.304 464.164 170.692 464.573 170.154C465.685 168.773 467.259 167.221 468.871 166.887C471.234 166.484 473.656 166.59 475.975 167.199C478.543 167.806 479.682 170.552 479.623 173.647C479.498 176.946 479.635 180.251 480.031 183.528C480.209 184.925 481.654 186.102 482.981 188.015ZM474.341 177.806C472.509 178.3 470.311 178.741 468.232 179.504C466.48 180.149 465.244 181.75 466.007 183.496C466.363 184.159 466.854 184.74 467.447 185.202C468.04 185.665 468.722 185.999 469.452 186.183C472.622 186.822 476.335 183.905 477.017 180.729C477.425 178.816 476.668 177.827 474.341 177.801V177.806Z" fill="white"/>
<path d="M401.691 167.64C403.889 166.028 408.053 166.065 409.698 167.978C406.672 169.789 407.548 172.083 408.773 174.603C409.628 176.344 409.966 178.332 410.729 180.127C411.159 181.132 411.987 181.97 412.637 182.889L413.496 182.943C414.867 179.144 416.441 175.42 417.494 171.514C417.795 170.396 416.602 168.87 415.979 167.215H424.377C418.037 173.448 416.812 181.761 413.631 189.149C412.298 192.26 411.089 195.667 406.877 195.871C404.926 195.962 403.024 195.586 402.358 193.367C402.191 192.829 402.583 192.083 402.718 191.432C403.255 191.626 403.905 191.685 404.303 192.034C406.989 194.361 409.988 193.646 410.396 190.025C410.713 187.188 409.714 184.114 408.951 181.272C408.291 178.675 407.333 176.164 406.097 173.787C404.942 171.594 403.196 169.687 401.691 167.64Z" fill="white"/>
<path d="M519.934 167.57C521.938 166.017 526.15 166.071 527.789 168.005C524.802 169.8 525.559 172.051 526.87 174.582C527.762 176.302 528.069 178.317 528.832 180.117C529.256 181.127 530.078 181.965 530.718 182.884L531.62 182.938C533.001 179.058 534.565 175.222 535.64 171.262C535.914 170.246 534.656 168.817 533.958 167.248H542.404C536.209 173.4 534.989 181.567 531.878 188.805C530.508 191.986 529.423 195.549 525.081 195.86C522.98 196.011 521.094 195.532 520.38 193.233C520.224 192.749 520.611 192.099 520.75 191.524C521.296 191.64 521.835 191.789 522.362 191.97C523.501 192.438 525.135 193.684 525.645 193.324C526.973 192.373 528.676 190.713 528.654 189.359C528.611 186.511 527.693 183.636 526.892 180.837C526.296 178.594 525.462 176.422 524.404 174.357C523.141 171.987 521.449 169.838 519.934 167.57Z" fill="white"/>
<path d="M456.671 173.524C456.349 173.149 456.074 172.736 455.855 172.293C454.495 168.274 449.09 166.785 445.893 169.574C444.399 170.875 444.324 173.067 446.134 174.152C448.085 175.318 450.363 175.92 452.496 176.78C454.372 177.543 456.467 178.01 458.052 179.171C460.255 180.783 460.094 184.044 457.929 185.662C455.242 187.682 452.308 189.063 448.687 188.214C446.817 187.773 444.813 187.902 442.878 187.677C442.395 187.623 441.594 187.333 441.546 187.043C441.196 185.092 441.008 183.104 440.777 181.132L441.685 180.944C442.047 181.151 442.375 181.412 442.658 181.718C445.114 185.345 449.407 187.091 453.464 185.732C454.538 185.372 455.833 184.12 456.021 183.093C456.054 182.464 455.934 181.836 455.672 181.262C455.41 180.689 455.014 180.187 454.517 179.799C452.794 178.893 450.927 178.293 448.998 178.026C444.651 177.247 441.788 174.636 442.164 171.514C442.524 168.526 446.269 166.103 450.256 166.393C452.405 166.549 454.511 166.839 456.612 167.205C457.091 167.285 457.827 167.914 457.837 168.279C457.886 169.983 457.708 171.691 457.617 173.4L456.671 173.524Z" fill="white"/>
<path d="M504.257 165.845C504.666 163.825 505.053 161.939 505.434 160.058H506.724C507.111 161.772 507.051 163.819 508.013 165.104C508.905 166.296 510.888 166.678 513.096 167.79C511.619 168.328 510.743 168.795 509.813 168.956C507.632 169.343 506.826 170.568 506.976 172.717C507.175 175.452 507.202 178.204 507.363 180.939C507.417 181.911 507.363 183.12 507.9 183.776C508.782 184.85 510.254 186.409 511.21 186.242C512.398 186.032 513.435 184.361 514.3 183.147C514.837 182.4 514.913 181.336 515.6 180.519C517.04 182.948 515.783 185.167 514.418 186.623C513.301 187.827 511.012 188.402 509.244 188.402C507.288 188.402 505.821 186.908 505.644 184.727C505.321 180.724 505.063 176.71 504.816 172.701C504.703 170.858 504.709 169.053 502.205 168.747C501.775 168.698 501.254 168.011 501.13 167.516C501.06 167.28 501.716 166.683 502.146 166.49C502.832 166.22 503.538 166.004 504.257 165.845Z" fill="white"/>
<path d="M490.346 160.09C490.684 161.104 490.936 162.145 491.098 163.201C491.243 165.168 491.942 166.388 494.113 166.554C494.731 166.603 495.295 167.307 495.886 167.704C495.394 168.141 494.84 168.504 494.242 168.779C490.437 169.854 490.26 170.262 490.916 174.27C491.227 176.189 491.039 178.187 491.088 180.154C491.088 181.137 490.975 182.169 491.238 183.088C491.775 184.888 492.882 186.785 494.87 186.28C496.144 185.957 497.068 184.13 498.03 182.846C498.315 182.481 498.084 181.771 498.293 181.293C498.393 181.115 498.533 180.964 498.704 180.852C498.874 180.739 499.068 180.67 499.271 180.648C499.465 180.709 499.643 180.814 499.79 180.955C499.937 181.096 500.05 181.268 500.12 181.46C500.695 183.609 497.385 188.182 495.042 188.509C491.614 188.993 489.32 187.182 489.062 183.673C488.799 180.014 488.616 176.35 488.482 172.685C488.412 170.756 488.202 169.085 485.795 168.736C485.397 168.677 484.72 167.994 484.79 167.774C484.935 167.237 485.43 166.495 485.827 166.468C488.363 166.313 488.412 164.658 488.422 162.745C488.422 161.874 488.96 161.004 489.228 160.133L490.346 160.09Z" fill="white"/>
<path d="M372.026 196.118C370.022 195.951 367.835 196.199 366.115 195.425C365.352 195.086 365.449 192.679 365.277 191.196C365.17 190.229 365.32 189.24 365.277 188.262C365.105 184.705 364.799 181.159 364.74 177.602C364.622 171.799 364.74 165.985 364.595 160.182C364.471 155.942 366.647 154.271 370.898 155.668C370.828 155.905 370.79 156.34 370.677 156.361C366.981 157.033 367.298 160.01 367.276 162.573C367.238 167.753 367.523 172.932 367.491 178.112C367.491 181.417 367.158 184.721 366.927 188.021C366.637 192.153 367.131 192.889 370.989 194.082C371.433 194.296 371.843 194.573 372.209 194.904C372.128 195.307 372.074 195.715 372.026 196.118Z" fill="white"/>
<path d="M569.589 195.361C576.037 193.588 574.086 188.553 574.188 184.829C574.344 179.456 573.705 174.083 574.688 168.629C575.263 165.405 573.957 161.848 573.307 158.479C573.216 158.017 572.039 157.732 571.335 157.436C570.631 157.141 569.804 156.899 569.035 156.614C569.078 156.233 569.116 155.857 569.153 155.481C571.056 155.481 573.113 155.04 574.79 155.652C575.698 155.986 576.402 158.103 576.402 159.414C576.402 162.036 575.865 164.653 575.553 167.275C575.51 167.624 575.349 168.065 575.499 168.317C578.089 172.841 575.607 177.645 576.257 182.288C576.703 185.431 576.343 188.687 576.364 191.89C576.397 196.032 574.296 197.333 569.589 195.361Z" fill="white"/>
</svg>
