<svg width="153" height="163" viewBox="0 0 153 163" fill="none" xmlns="http://www.w3.org/2000/svg">
<path d="M98.5106 89.7597L152.464 90.5872L99.5269 79.3942L149.131 56.6715L96.519 69.4828L133.195 27.1348L90.0002 61.7352L107.408 7.08851L81.1032 57.499L76.2304 0L71.361 57.499L45.0532 7.08851L62.464 61.7352L19.2689 27.1348L55.9452 69.4828L3.33296 56.6715L52.9339 79.3942L0 90.5872L53.9537 89.7597L9.84833 123.024L58.8231 98.7851L31.1773 148.364L66.7038 104.911L60.2945 162.238L76.2304 107.078L92.1698 162.238L85.7605 104.911L121.287 148.364L93.6412 98.7851L142.612 123.024L98.5106 89.7597Z" fill="#5C5C5C"/>
</svg>
