<svg width="236" height="221" viewBox="0 0 236 221" fill="none" xmlns="http://www.w3.org/2000/svg">
<g id="Layer_1" clip-path="url(#clip0_1243_3637)">
<path id="Vector" d="M82.9865 135.11C87.7165 130.81 92.3165 126.37 97.1965 122.25C102.887 117.44 113.327 119.12 118.267 124.59C126.377 133.59 129.477 142.88 125.027 154.97C121.827 163.69 114.777 169.06 105.527 166.68C100.257 165.32 95.0565 163.68 89.4565 162.96C91.1134 163.928 92.7158 164.986 94.2565 166.13C98.5865 169.73 103.087 173.19 107.027 177.13C110.597 180.76 111.507 185.13 108.337 189.82C106.823 192.017 105.578 194.387 104.627 196.88C101.737 204.6 95.6265 207.47 88.0665 208.21C86.4165 208.37 84.7865 208.9 83.1365 208.95C78.5965 209.09 73.6265 212.77 69.9265 206.43C67.5165 202.3 63.9265 199.03 64.1365 193.6C64.2005 189.17 63.5902 184.756 62.3265 180.51C61.2465 184.31 59.7366 188.05 59.1666 191.93C58.2266 198.33 53.0565 201.17 49.0565 204.99C48.3865 205.63 46.5765 205.34 45.3665 205.11C39.1565 203.92 32.9465 202.69 26.7965 201.25C25.4291 200.928 24.2414 200.085 23.4865 198.9C21.2965 194.61 19.2465 190.22 17.4865 185.74C14.2165 177.35 17.0565 170.44 25.2465 166.35C28.6165 164.67 32.0465 163.14 35.2465 160.62C32.8265 160.62 30.3866 160.43 27.9766 160.62C20.5966 161.28 14.7765 157.93 9.33654 153.62C8.63394 152.953 8.12875 152.105 7.87652 151.17C7.58262 150.044 7.40506 148.892 7.34655 147.73C6.68655 141.29 3.79652 133.91 6.00652 128.73C8.21652 123.55 15.5665 120.46 20.5465 116.31C23.2765 114.04 26.0465 113.38 29.2765 114.97C32.5065 116.56 36.0365 117.81 39.0565 119.79C42.0765 121.77 44.6365 124.48 48.1865 127.55C46.7965 122.65 45.6265 118.67 44.5265 114.67C41.8465 104.89 44.2265 100.5 53.6065 97.2099C57.3922 95.894 61.07 94.2857 64.6065 92.3999C67.3665 90.9199 69.5066 91.3999 71.9766 92.9299C75.7566 95.3299 79.7065 97.4699 83.6065 99.6899C91.9165 104.45 94.1365 111.03 90.1165 119.77C87.7865 124.85 85.1165 129.77 82.5765 134.77L82.9865 135.11ZM66.6265 147.11L64.9665 148.28C61.5565 144.46 58.2765 140.52 54.6565 136.91C54.0261 136.332 53.2833 135.892 52.4745 135.614C51.6658 135.337 50.8086 135.23 49.9565 135.3C48.7065 135.5 46.8565 137.3 46.8465 138.5C46.9132 139.365 47.1646 140.205 47.5839 140.964C48.0031 141.723 48.5803 142.383 49.2765 142.9C53.5365 145.78 58.0765 148.23 62.5065 150.9L61.8365 152.77C56.8365 152.15 51.8365 151.33 46.8365 151.03C45.1765 150.94 42.5665 151.74 41.9465 152.94C41.3265 154.14 41.9465 156.82 42.8865 158.21C43.4865 159.07 46.4565 159.51 47.1965 158.85C52.3865 154.17 57.6865 158.3 63.1065 158.27C60.1065 160.91 56.7465 162.5 53.6865 164.57C52.3418 165.577 51.4444 167.07 51.1865 168.73C51.0865 169.73 52.6865 171.73 53.6365 171.85C55.3175 171.821 56.9362 171.21 58.2165 170.12C61.2165 167.64 63.7565 164.44 66.9565 162.23C75.2365 156.54 75.4066 156.23 71.7266 147.02C70.1666 143.13 69.1365 139.02 67.8365 135.02C67.2365 133.17 67.0765 130.65 65.8365 129.73C64.8365 129.05 61.3665 129.95 60.8965 131C60.2365 132.49 61.0065 134.89 61.7165 136.67C63.1465 140.24 64.9665 143.66 66.6265 147.14V147.11Z" fill="#B8A892"/>
<path id="Vector_2" d="M179.33 159.269C175.94 166.269 175.01 174.2 167.78 178.33C165.925 179.393 163.741 179.732 161.65 179.279C157.347 177.972 153.225 176.131 149.38 173.8C146.981 172.145 145.12 169.822 144.03 167.12C137.93 152.12 138.85 149.99 153.31 142.93C155.196 142.127 156.898 140.946 158.31 139.46C154.78 139.67 151.31 139.98 147.72 140.06C137.93 140.27 134.62 135.49 133.48 126.06C132.09 114.47 138.82 108.779 146.33 102.919C149.51 100.429 158.33 102.259 161.04 105.919C164.056 110.343 167.377 114.55 170.98 118.51C169.79 114.28 168.62 110.04 167.42 105.82C165.26 98.2495 168.48 92.5796 176.13 90.5096C177.9 90.0296 179.96 89.9796 181.37 88.9896C188.07 84.2496 192.85 88.0695 197.95 92.0595C208.26 100.15 208.5 100.74 202.49 112.36C201.66 113.98 200.84 115.609 200.3 116.649C205.93 115.019 211.91 111.86 217.84 111.94C224.78 112.03 227.33 119.73 230.84 124.56C235.57 131.01 230.62 138.33 227.58 143.23C222.08 152.08 212.36 149.62 203.38 147.76C205.59 149.4 207.86 150.98 210.02 152.69C217.66 158.75 218.02 164.14 213.02 172.24C208.77 179.09 203.65 181.16 195.54 181.37C183.45 181.68 180.77 175.51 179.97 166.19C179.78 163.86 179.55 161.569 179.33 159.269ZM183.79 136.46L183.53 135.37C187.43 133.73 191.38 132.22 195.2 130.37C196.738 129.743 198.027 128.63 198.87 127.2C199.21 126.4 197.77 123.83 196.96 123.75C195.46 123.6 193.7 124.46 192.3 125.32C189.22 127.24 186.3 129.42 183.3 131.49C182.82 130.95 182.35 130.41 181.87 129.88C183.87 127.71 185.94 125.65 187.67 123.32C188.46 122.27 189.12 120.419 188.67 119.399C188.304 118.806 187.796 118.313 187.192 117.964C186.588 117.615 185.907 117.421 185.21 117.399C184.535 117.572 183.904 117.883 183.356 118.314C182.808 118.744 182.357 119.284 182.03 119.899C179.96 123.529 178.66 127.7 176.16 130.97C173.16 134.97 173.47 137.97 176.75 141.38C179.32 144.09 181.3 147.38 183.75 150.22C184.86 151.611 186.216 152.787 187.75 153.69C188.14 153.9 190.4 152.13 190.29 151.57C189.943 149.799 189.155 148.145 188 146.76C186.033 144.752 183.95 142.862 181.76 141.1L182.96 138.99C187.03 140.59 191.06 142.27 195.18 143.74C196.45 144.19 198.26 144.589 199.23 144.019C199.771 143.592 200.195 143.036 200.464 142.401C200.733 141.767 200.838 141.075 200.77 140.389C200.488 139.663 200.044 139.01 199.472 138.48C198.9 137.95 198.216 137.557 197.47 137.33C192.96 136.8 188.37 136.73 183.79 136.45V136.46Z" fill="#B8A892"/>
<path id="Vector_3" d="M88.0591 94.7699C84.0591 91.5899 81.0591 88.9199 77.6991 86.7699C75.9491 85.6098 73.5492 84.5398 71.5892 84.7699C60.2192 85.9899 49.8892 81.8599 39.5892 78.4199C36.1992 77.2899 33.3191 73.42 31.1091 70.26C28.2091 66.06 26.1091 61.2598 23.8891 56.6398C23.464 55.4534 23.464 54.1563 23.8891 52.9699C24.5465 51.2629 25.339 49.6109 26.2591 48.0299C31.6491 37.5699 31.6491 37.5699 43.0191 40.5499C43.7591 40.7499 44.5291 40.8699 46.2691 41.2199C43.3691 38.0799 41.1791 35.6099 38.8691 33.2199C36.9591 31.2199 36.5591 29.2899 38.3091 27.0399C38.7191 26.5199 39.0191 25.9098 39.4291 25.3898C42.4291 21.4598 44.8992 14.9099 48.5392 14.1899C55.0792 12.8799 62.3192 14.9699 69.2292 15.9399C70.1392 16.0699 71.2291 17.8799 71.4991 19.0899C72.1591 21.7899 72.3792 24.5999 73.2892 27.8099C77.2892 20.3799 83.4792 16.9399 91.4192 17.0299C93.2992 17.0299 95.1491 18.5599 95.7691 18.8399C95.1491 21.8399 94.3292 23.6099 94.4792 25.3499C94.9492 30.7799 95.7891 36.1799 96.3591 40.6599L73.7591 48.13C74.3491 45.25 75.0092 42.58 75.3992 39.88C75.7378 38.3988 75.6476 36.8517 75.1391 35.4199C74.7691 34.6999 72.1391 34.1399 71.7591 34.5799C70.7877 35.7745 70.2143 37.2431 70.1191 38.7799C69.8991 42.2099 70.0491 45.6699 70.0491 49.1199L68.6492 49.5899C66.9392 45.1199 65.3192 40.5899 63.4692 36.2099C62.9396 34.663 61.9395 33.3204 60.6091 32.3699C59.8691 31.9699 57.2491 33.1799 57.1091 33.9599C56.8791 35.2499 57.7892 36.8699 58.5292 38.1799C60.7892 42.1799 63.1992 46.0499 65.5292 49.9699L64.2292 51.0899C62.0792 49.0899 60.0492 46.9198 57.7292 45.1398C56.3168 44.1564 54.6994 43.5068 52.9991 43.2399C52.6091 43.1599 51.1592 45.32 51.4092 45.75C52.2192 47.15 53.4091 48.7499 54.7691 49.3099C61.6491 52.0599 63.3291 54.5799 62.6391 61.9499C62.3747 64.3147 62.4083 66.7034 62.7391 69.0599C67.9391 52.1499 82.1491 49.2499 94.1891 45.8599C98.3691 50.8099 101.409 54.2499 104.189 57.8599C105.109 59.0299 106.329 60.9499 105.949 61.9699C103.759 67.8699 101.589 73.8099 95.3091 76.9699C85.7091 81.8799 85.6791 82.2099 88.0591 94.7699Z" fill="#B8A892"/>
<path id="Vector_4" d="M201.037 66.2004C195.177 71.0504 189.897 76.1104 183.927 80.2004C179.577 83.1404 174.617 81.5004 170.257 78.9504C168.987 78.2104 167.857 77.2404 166.147 75.9504C164.037 86.6404 156.657 87.6204 148.147 85.9504C145.567 85.4404 143.747 85.7204 142.457 86.7704L133.397 87.2904C127.607 80.8204 122.177 75.0804 117.147 69.0204C114.277 65.5504 113.487 61.5104 117.407 57.5304C108.737 54.8304 103.487 49.8604 103.147 40.5304C102.987 36.1404 101.547 31.8004 100.617 27.1004C113.567 25.9704 124.487 30.3004 128.707 41.6804C130.217 45.7604 132.617 49.1804 137.097 50.9704C139.637 51.9704 141.517 54.5204 143.967 55.8604C146.671 57.235 149.501 58.3467 152.417 59.1804C154.166 59.7171 155.988 59.9736 157.817 59.9404C160.617 59.9404 163.647 60.1204 166.167 59.1504C174.517 55.9704 182.547 55.1504 190.497 60.1504C193.697 62.1304 197.047 63.9104 201.037 66.2004Z" fill="#B8A892"/>
<path id="Vector_5" d="M144.132 50.8699C136.322 46.8099 131.842 41.7698 128.972 35.4298C126.512 30.0098 122.072 27.2599 117.042 24.7299C110.242 21.3099 110.292 19.6298 115.982 14.4498C118.562 12.1098 120.612 9.19983 123.172 6.82983C124.172 5.89983 126.452 4.90978 127.172 5.39978C132.762 9.04978 140.042 10.5398 143.062 17.9398C144.572 13.3398 145.872 9.20987 147.302 5.11987C147.623 3.99305 148.218 2.96275 149.032 2.11987C153.212 -1.59013 170.032 -0.230228 173.712 4.01977C174.362 4.77977 174.932 5.59977 175.552 6.38977C183.822 16.8798 183.852 18.6198 175.462 30.0298C178.262 29.1898 180.462 28.5698 182.712 27.8498C190.992 25.1698 196.382 28.0998 198.712 36.4698C199.101 38.2564 199.777 39.9684 200.712 41.5398C203.892 46.2398 201.432 54.5398 196.092 56.3498C195.635 56.5076 195.15 56.5686 194.668 56.529C194.186 56.4895 193.717 56.3501 193.292 56.1199C184.292 48.9899 175.002 53.4698 165.742 55.3898C162.571 55.8729 159.376 56.1801 156.172 56.3098L155.332 54.4698C159.422 51.3498 163.582 48.2998 167.572 45.0598C169.019 43.9377 170.175 42.4834 170.942 40.8198C171.162 40.2798 168.942 37.8198 168.402 38.0398C166.747 38.6988 165.251 39.7008 164.012 40.9799C160.622 44.0699 157.352 47.2898 154.012 50.4598L152.632 49.4598C155.632 43.5598 158.812 37.6998 161.702 31.7198C162.461 30.2084 162.676 28.4815 162.312 26.8298C162.032 25.9298 159.502 24.8298 158.762 25.1798C157.294 26.0893 156.185 27.4774 155.622 29.1099C153.292 35.8599 151.232 42.6999 149.082 49.5099L147.002 49.2399C146.682 43.8299 146.512 38.3998 145.942 33.0198C145.706 31.3348 144.846 29.8 143.532 28.7198C142.782 28.1598 140.442 28.7199 139.672 29.4999C138.902 30.2799 138.862 32.2299 139.182 33.4999C140.572 38.9499 142.212 44.2599 144.132 50.8699Z" fill="#B8A892"/>
<g id="flower">
<path id="Vector_6" d="M142.453 86.7596C141.233 87.7596 140.453 89.4096 140.003 91.7596C138.793 97.6796 136.563 103.18 131.583 107.21C128.133 110.01 126.773 113.84 127.033 118.31C127.001 120.118 126.847 121.922 126.573 123.71C125.433 122.71 124.743 122.35 124.513 121.82C120.773 113.41 113.513 112.4 105.513 112.49C103.243 112.49 99.3733 111.94 98.9933 110.76C97.6733 106.65 95.8533 101.43 97.3333 97.9496C101.083 89.1296 106.593 81.0995 115.333 75.0195C117.223 80.3395 119.253 85.3896 120.783 90.5796C122.313 95.7696 123.253 100.85 124.713 107.07L133.293 87.3096L142.453 86.7596Z" fill="#927B63"/>
<path id="Vector_7" d="M155.587 220.45C133.817 211.74 117.927 196.61 115.477 173.45C122.677 169.92 131.587 167.6 131.027 156.08L132.357 156.82C134.967 162.82 137.357 168.82 140.307 174.66C141.307 176.66 143.557 178.05 145.237 179.66C147.137 181.55 150.337 183.2 150.717 185.35C152.697 196.76 153.967 208.22 155.587 220.45Z" fill="#927B63"/>
<path id="Vector_8" d="M52.49 90.3801C39.83 90.5301 38.26 100.38 35.3 109.38C19.9 106.89 11.94 94.3 0 85.83C18.69 80.58 35.68 80.9501 52.49 90.3801Z" fill="#927B63"/>
<path id="Vector_9" d="M195.891 81.7802C201.111 75.3902 205.651 69.7802 210.231 64.2402C210.623 63.7391 211.15 63.3608 211.751 63.1501C219.321 61.0201 226.901 58.9502 235.831 56.4902C230.001 70.4902 224.611 82.4002 212.131 89.3402C209.051 91.0502 206.741 91.0201 204.131 88.6401C201.341 86.1101 198.331 83.8302 195.891 81.7802Z" fill="#927B63"/>
</g>
</g>
<defs>
<clipPath id="clip0_1243_3637">
<rect width="235.77" height="220.45" fill="white"/>
</clipPath>
</defs>
</svg>
