<svg width="271" height="309" viewBox="0 0 271 309" fill="none" xmlns="http://www.w3.org/2000/svg">
<path d="M81.4249 126.508C85.1668 127.145 93.8521 130.347 98.6576 138.049C99.8752 139.704 102.59 144.176 103.709 148.829C105.108 154.644 102.543 165.719 99.1826 168.373C92.8117 175.134 72.0057 181.984 65.1893 181.778C59.7362 181.613 54.0313 180.567 51.8605 180.064L35.5237 173.534L29.7156 166.011C28.0158 161.499 24.7671 151.824 25.3707 149.218C24.8112 146.892 28.3197 138.461 30.144 134.536C37.9 129.697 55.7573 120.563 65.1383 122.735L81.4249 126.508Z" fill="#B8A892"/>
<path d="M74.4788 197.285C77.1465 194.585 84.7484 189.303 93.8145 189.781C95.8683 189.732 100.83 190.687 105.283 192.437C110.85 194.625 118.714 202.459 118.962 206.734C122.708 215.006 114.536 236.805 110.459 242.272C107.198 246.646 103.07 250.72 101.414 252.211L86.6988 261.854L77.2052 262.3C72.5336 261.106 60.8931 257.442 59.1039 255.454C56.8772 254.579 53.0649 244.254 50.8948 240.51C51.3761 231.381 53.6413 221.175 59.255 213.351C64.3229 206.288 71.9934 199.521 74.4788 197.285Z" fill="#B8A892"/>
<path d="M98.6771 54.9974L100.488 47.1799L151.11 47.922L169.351 52.1468C180.658 53.1182 199.412 67.5749 207.376 74.6819L250.793 -3.12267L264.563 14.4811L240.979 48.1441C271.266 80.968 262.438 122.442 254.238 139.076L248.375 137.718L237.863 120.868L230.718 92.4436L229.889 63.4224L197.719 116.376C202.279 117.432 220.197 149.724 226.156 156.596C232.115 163.467 242.948 217.457 242.647 218.76L238.12 238.304L233.56 237.248L217.788 216.435L202.126 183.292L193.48 152.46L191.348 123.137C181.969 131.032 161.867 147.884 156.49 152.13C152.026 156.587 131.688 162.401 121.345 164.582L106.73 201.009L96.9105 195.989L109.619 161.866L97.2408 158.999L99.5041 149.227C105.2 150.318 117.666 152.61 121.956 153.054C136.872 152.665 153.709 141.418 160.262 135.843C151.041 134.165 131.296 130.507 126.085 129.3C121.954 130.54 103.553 120.878 94.8694 115.892L61.4052 94.4136L46.7854 74.5536L51.0989 70.7478L114.291 85.3837L148.105 108.316L170.042 129.185L186.644 113.81L200.95 87.6082C193.013 88.2868 176.489 89.4933 173.883 88.8897L147.824 82.8543C139.705 82.3466 112.202 64.7653 98.6771 54.9974Z" fill="#927B63"/>
<path fillRule="evenodd" clipRule="evenodd" d="M152.173 191.902C157.176 188.623 168.006 191.124 171.638 193.392C182.701 198.972 192.017 211.333 194.123 217.82C195.807 223.009 197.663 228.842 197.922 231.055L198.717 239.476L197.557 247.444L192.959 255.193C189.285 258.315 179.567 265.697 176.91 266.009C174.909 267.32 164.279 264.463 159.969 264.07C152.798 258.401 145.779 250.654 142.639 241.551C139.804 233.333 138.714 223.163 138.325 219.842C137.663 216.104 137.747 206.848 143.377 199.726C144.524 198.022 148.171 194.524 152.173 191.902ZM163.319 199.701C158.356 200.382 148.369 203.788 148.122 211.968C148.521 212.609 149.421 215.244 149.821 216.48L159.547 215.987L166.768 211.482L168.428 204.316L163.319 199.701Z" fill="#B8A892"/>
</svg>
