<svg width="192" height="219" viewBox="0 0 192 219" fill="none" xmlns="http://www.w3.org/2000/svg">
<g clip-path="url(#clip0_767_2600)">
<path d="M3.6 218.13C3.6 210.29 3.63 202.49 3.6 194.69C3.37 146.04 3.14 97.3903 2.84 48.7403C2.83 46.5803 4.13 43.3803 0 43.1603C0.23 40.7103 -0.5 37.0203 0.84 35.9903C16.08 24.1203 31.62 12.6503 47.15 1.17026C48.24 0.360265 49.94 -0.0997349 51.3 0.0102651C73.36 1.79027 95.42 3.68026 118.76 5.66026C117.81 8.65026 117.14 10.7903 116.46 12.9303C116.22 13.6903 115.77 14.4503 115.76 15.2203C115.72 31.3603 115.73 47.4903 115.73 64.1003C118.94 64.3403 121.37 64.6303 123.8 64.6803C141.29 65.0303 158.78 65.2603 176.27 65.7303C178.08 65.7803 180.95 66.7403 181.39 67.9603C182.12 70.0203 183.35 73.3203 179.16 74.3603C178.46 74.5303 177.82 76.4903 177.82 77.6203C177.79 85.4503 178.04 93.2803 177.98 101.11C177.96 104.12 179.41 104.62 181.97 104.73C191.86 105.16 191.86 105.23 191.8 115.01C191.76 122.037 188.143 125.657 180.95 125.87C180.3 125.89 179.65 126.06 178.56 126.22C178.56 133.17 178.44 140.1 178.72 147.01C178.75 147.8 180.98 149.07 182.26 149.16C191.6 149.86 191.6 149.79 191.55 159.04C191.53 163.33 191.55 167.62 191.55 172.46H179.14V218.13H3.6ZM69.59 216.72C69.59 214.64 69.59 212.85 69.59 211.06C69.63 201.4 69.76 191.74 69.65 182.08C69.61 178.76 70.6 177.15 74.13 177.21C82.45 177.35 90.78 177.36 99.1 177.33C102.03 177.32 103.25 178.51 103.25 181.51C103.25 191.5 103.44 201.49 103.54 211.48C103.56 213.21 103.54 214.94 103.54 216.85C105.98 216.85 107.67 216.66 109.3 216.89C113.62 217.48 114.97 215.94 114.94 211.43C114.55 146.64 114.34 81.8503 114.19 17.0603C114.19 13.7403 113.31 12.3603 109.83 12.1103C98.7 11.3403 87.6 10.2003 76.48 9.30027C68.76 8.68027 61.02 8.24026 53.5 7.73027V216.73H69.59V216.72ZM51.06 7.81027C48.53 9.35027 46.98 10.1803 45.56 11.1903C33.23 19.9903 21.01 28.9403 8.55 37.5603C5.08 39.9603 4.01 42.7203 4.1 46.7303C4.53 66.3103 4.86 85.9003 5 105.49C5.24 137.59 5.3 169.7 5.43 201.8C5.45 206.74 5.43 211.68 5.43 216.72H51.05V7.81027H51.06ZM116.76 215.96C136.44 215.96 155.57 215.94 174.7 215.98C178.19 215.98 177.68 213.58 177.66 211.48C177.53 200.48 177.38 189.49 177.19 178.49C177.16 176.57 176.95 174.66 176.81 172.61H116.76V215.96ZM116.56 72.2903V103.27C118.78 103.37 120.98 103.47 123.89 103.6V85.4803C136.2 85.4803 147.82 85.5003 159.44 85.4703C162.33 85.4703 163.03 87.0003 162.95 89.6103C162.81 94.3903 162.91 99.1703 162.91 104.36H176.16C176.16 94.8203 176.25 85.7003 176.02 76.5803C176 75.6503 174 74.0203 172.87 73.9803C154.42 73.3003 135.96 72.8303 116.56 72.2903ZM176.62 148.71C176.62 141.73 176.8 135.25 176.44 128.8C176.38 127.68 174.02 125.81 172.7 125.79C155.05 125.46 137.39 125.43 119.74 125.24C117.19 125.21 116.15 126.09 116.22 128.71C116.35 134.04 116.37 139.37 116.24 144.7C116.17 147.46 117.1 148.56 119.96 148.57C122.96 148.57 124.25 147.53 123.96 144.47C123.79 142.65 124.05 140.8 123.9 138.98C123.65 135.95 124.92 134.81 127.94 134.93C132.43 135.1 136.93 134.98 141.43 134.98C148.35 134.98 155.27 134.98 162.46 134.98C162.72 140.02 162.95 144.24 163.18 148.72H176.61L176.62 148.71ZM0.33 39.4403C0.69 39.7903 1.05 40.1303 1.41 40.4803C2.11 40.0803 2.86 39.7503 3.51 39.2803C17.31 29.4003 31.19 19.6303 44.82 9.53026C48.71 6.65026 52.52 5.61027 57.28 6.05027C75.68 7.75027 94.09 9.22027 112.51 10.6403C113.83 10.7403 115.23 9.76026 116.6 9.28026C115.36 8.51027 114.18 7.16026 112.88 7.04027C93 5.14026 73.11 3.34027 53.21 1.71027C51.24 1.55027 48.76 2.08027 47.2 3.22027C32.59 13.9703 18.11 24.8803 3.64 35.8103C2.36 36.7803 1.42 38.2103 0.33 39.4303V39.4403ZM148.59 70.7103C148.59 71.2203 148.59 71.7303 148.59 72.2303C157.57 72.2303 166.55 72.3303 175.52 72.1303C177.07 72.1003 178.59 70.7703 180.12 70.0403C178.65 69.1703 177.2 67.5803 175.7 67.5403C157.24 66.9303 138.78 66.5103 120.32 66.2103C118.95 66.1903 117.57 67.5303 116.19 68.2303C117.51 69.0603 118.81 70.5703 120.14 70.6003C129.61 70.8103 139.1 70.7103 148.58 70.7103H148.59ZM142.37 103.99C142.54 102.56 142.74 101.76 142.72 100.96C142.31 85.8303 145.93 88.5803 129.49 88.1003C127.09 88.0303 125.31 88.7503 125.93 91.4203C126.9 95.5803 123.49 100.64 128.49 103.94C128.61 104.02 128.82 103.98 128.98 103.98C133.29 103.98 137.59 103.98 142.38 103.98L142.37 103.99ZM160.52 97.1203C160.01 87.9803 161.54 88.9103 152.56 88.5003C145.23 88.1703 145.23 88.2103 145.19 95.7703C145.19 97.5903 145.05 99.4203 145.19 101.23C145.26 102.12 145.78 103.71 146.18 103.74C150.45 104 154.79 104.38 158.97 103.78C159.79 103.66 160.01 99.4403 160.51 97.1203H160.52ZM100 217.11C101.23 215.97 101.63 215.77 101.63 215.57C101.71 204.26 101.83 192.95 101.67 181.64C101.66 180.67 99.76 178.94 98.69 178.9C90.88 178.62 83.05 178.74 75.23 178.61C71.98 178.56 70.99 179.97 71.02 183.15C71.12 193.14 70.92 203.12 70.88 213.11C70.88 214.29 71.17 215.48 71.32 216.66C71.72 216.67 72.12 216.69 72.52 216.7C72.61 215.21 72.78 213.71 72.79 212.22C72.84 203.07 72.76 193.91 73 184.76C73.04 183.4 74.48 180.93 75.34 180.9C83.39 180.6 91.46 180.72 99.99 180.72V217.11H100ZM116.85 168.98C116.86 169.43 116.87 169.89 116.88 170.34H189.14C189.14 169.89 189.14 169.43 189.14 168.98H116.84H116.85ZM125.94 147.93H143.25C142.59 144.29 142.56 138.82 141.37 138.56C136.86 137.56 131.84 137.65 127.33 138.71C126.24 138.97 126.39 144.51 125.93 147.92L125.94 147.93ZM160.63 148.25C159.99 144.45 160.25 138.92 158.75 138.39C154.96 137.05 150.06 137.09 146.26 138.43C144.8 138.95 145.12 144.5 144.55 148.25H160.64H160.63ZM154.04 118.04C155 118.67 156.44 119.62 157.88 120.57C158.68 119.07 159.84 117.65 160.18 116.05C160.59 114.15 160.22 112.09 160.31 110.11C160.49 106.05 158.54 105.2 154.89 106.49C154.6 108.09 154.31 109.72 154.01 111.34C153.263 107.274 151.343 105.694 148.25 106.6V121.94C151.1 120.02 152.86 118.83 154.04 118.03V118.04ZM188.64 123.6C188.64 123.25 188.64 122.91 188.65 122.56H116.66L116.64 123.6H188.64ZM139.25 166.16C139.25 161.93 139.16 157.67 139.29 153.4C139.37 150.83 138.39 149.87 135.81 149.85C133.03 149.83 132.44 151.25 132.5 153.59C132.57 156.25 132.68 158.93 132.45 161.57C131.99 166.78 134.61 167.47 139.26 166.16H139.25ZM139.1 119.82C139.1 115.89 139.36 112.1 138.95 108.38C138.83 107.26 136.86 105.57 135.73 105.56C134.73 105.56 133.09 107.4 132.85 108.65C132.42 110.86 133.01 113.25 132.85 115.54C132.54 119.86 134.31 121.32 139.11 119.81L139.1 119.82ZM163.43 120.52C165.98 120.38 169.03 122.57 169.33 118.18C169.6 114.26 169.39 110.32 169.39 106.26H163.43V120.52ZM131.88 112.77H131.77C131.77 111.45 132.16 109.96 131.67 108.86C131.07 107.51 129.74 106.48 128.72 105.31C127.91 106.44 126.56 107.49 126.39 108.71C126.04 111.12 126.01 113.69 126.47 116.08C126.76 117.58 127.99 119.87 129.12 120.07C132.59 120.7 131.73 117.7 131.88 115.73C131.96 114.75 131.89 113.76 131.89 112.77H131.88ZM160.23 158.98H160.1C160.1 156.84 160.41 154.63 159.96 152.59C159.75 151.64 158.15 150.56 157.05 150.41C156.34 150.31 154.75 151.75 154.7 152.57C154.43 156.51 154.38 160.48 154.65 164.41C154.71 165.29 156.42 166.69 157.37 166.69C158.32 166.69 159.83 165.38 160.1 164.38C160.55 162.69 160.22 160.79 160.22 158.98H160.23ZM153.21 158.4C153.21 156.57 153.52 154.67 153.1 152.94C152.84 151.88 151.46 151.1 150.58 150.19C149.77 151.01 148.34 151.78 148.27 152.66C147.98 156.46 147.9 160.31 148.17 164.11C148.24 165.07 149.87 165.92 150.79 166.81C151.59 165.83 152.85 164.96 153.1 163.85C153.49 162.11 153.2 160.22 153.21 158.39V158.4ZM167.91 158.67C167.97 158.67 168.02 158.67 168.08 158.67C168.08 156.68 168.33 154.64 167.97 152.71C167.8 151.79 166.24 150.27 165.76 150.42C164.69 150.77 163.19 151.95 163.14 152.87C162.92 156.84 163.05 160.84 163.33 164.81C163.38 165.55 164.85 166.89 165.36 166.76C166.33 166.51 167.63 165.5 167.8 164.62C168.17 162.7 167.91 160.66 167.91 158.67ZM173.95 166.56C173.95 161.85 174.16 157.57 173.79 153.35C173.7 152.34 171.67 151.5 170.53 150.59C170.08 154.67 169.41 158.74 169.3 162.82C169.27 164.14 170.65 165.56 171.57 166.8C171.76 167.06 172.78 166.7 173.95 166.57V166.56ZM126.67 165.98C129.74 167.16 131.42 166.67 131.36 163.25C131.3 159.94 131.28 156.63 131.37 153.33C131.46 149.95 129.82 149.35 126.67 150.45V165.99V165.98ZM175.85 120.35C175.85 116.5 176.02 112.72 175.74 108.98C175.66 107.99 174.19 107.1 173.35 106.17C172.39 107.15 170.76 108.03 170.59 109.12C170.21 111.7 170.67 114.39 170.54 117.03C170.37 120.46 171.8 121.58 175.85 120.35ZM190.26 152.85C189.78 152.56 189.3 152.26 188.82 151.97C187.56 153.19 185.5 154.24 185.21 155.66C184.62 158.51 184.81 161.58 185.07 164.52C185.15 165.39 186.68 166.91 187.29 166.79C188.38 166.58 190.07 165.42 190.13 164.55C190.44 160.67 190.26 156.75 190.26 152.85ZM190.76 107.95C190.11 107.62 189.47 107.29 188.82 106.96C187.95 108.18 186.57 109.3 186.33 110.63C185.88 113.06 185.86 115.64 186.16 118.09C186.29 119.14 187.68 120.03 188.5 120.99C189.25 120.1 190.58 119.26 190.66 118.33C190.92 114.89 190.76 111.42 190.76 107.96V107.95ZM116.52 166.34C117.59 166.32 118.65 166.3 119.72 166.27C119.72 161.42 119.77 156.57 119.65 151.72C119.64 151.19 118.7 150.48 118.05 150.24C117.69 150.11 116.59 150.79 116.59 151.12C116.49 156.19 116.52 161.26 116.52 166.33V166.34ZM120.02 112.52H120.05C120.05 114.16 119.78 115.87 120.15 117.43C120.38 118.4 121.56 119.14 122.32 119.99C122.88 119.13 123.86 118.29 123.91 117.4C124.08 114.12 124.07 110.82 123.83 107.54C123.77 106.74 122.56 106.03 121.88 105.28C121.26 106.05 120.26 106.74 120.11 107.6C119.82 109.19 120.03 110.87 120.03 112.52H120.02ZM185.02 108.9C177.84 110.23 180.84 115.21 180.31 118.53C180.2 119.21 182.02 120.2 182.94 121.05C183.63 120.16 184.84 119.31 184.92 118.36C185.18 115.43 185.02 112.47 185.02 108.9ZM183.86 153.89C182.16 154.45 180.53 154.68 180.5 155.04C180.18 158.75 180.08 162.48 180.08 166.2C180.08 166.43 181.65 167.03 182.17 166.78C182.89 166.43 183.75 165.47 183.78 164.73C183.95 161.31 183.85 157.87 183.85 153.88L183.86 153.89ZM120.81 149.16C120.81 155.73 120.04 161.19 121.66 167.63C124.87 162.86 124.54 152.52 120.81 149.16ZM118.4 105.46C115.35 109.69 115.72 117.21 118.4 119.92V105.46ZM142.28 106.09L141.03 106.02V120.18C141.45 120.17 141.86 120.16 142.28 120.14V106.08V106.09ZM141.11 166.14C141.47 166.13 141.82 166.11 142.18 166.1V150.56C141.82 150.56 141.47 150.56 141.11 150.57V166.14ZM146.72 150.68C146.37 150.7 146.01 150.72 145.66 150.74V165.91C146.01 165.9 146.37 165.89 146.72 165.88V150.69V150.68ZM176.46 151.78C176.17 151.79 175.89 151.8 175.6 151.81V165.79C175.89 165.78 176.17 165.77 176.46 165.75V151.77V151.78ZM146.4 107.63H145.59V119.22H146.4V107.63Z" fill="white" fill-opacity="0.7"/>
<path d="M78.1025 158.16C72.6325 158.49 68.5625 158.73 64.0025 159C64.0025 148.4 63.9425 138.31 64.1125 128.22C64.1225 127.38 65.7225 126.52 66.6725 125.79C67.0125 125.53 67.6425 125.64 68.1325 125.6C77.9625 124.94 78.1825 125.19 78.1025 134.91C78.0325 142.53 78.0925 150.15 78.0925 158.15L78.1025 158.16ZM75.6425 128.35C75.1525 128.3 74.6625 128.25 74.1725 128.2V156.51C74.6625 156.53 75.1525 156.55 75.6425 156.57V128.36V128.35Z" fill="white" fill-opacity="0.7"/>
<path d="M77.9337 107.13C72.6937 107.37 68.4437 107.57 64.0337 107.78C64.0337 97.2603 63.9737 87.0303 64.1437 76.8003C64.1537 75.9603 65.6937 75.0303 66.6737 74.3803C67.1437 74.0703 67.9637 74.3103 68.6337 74.2903C78.1737 73.9703 78.1037 73.9603 77.9537 83.4903C77.8337 91.2703 77.9337 99.0403 77.9337 107.13ZM75.4837 105.51V76.1703C72.6037 80.1203 72.0537 102.07 75.4837 105.51Z" fill="white" fill-opacity="0.7"/>
<path d="M93.6413 107.85C93.6413 97.4497 93.5313 87.8797 93.7813 78.3297C93.8113 77.1597 95.7813 76.0297 96.9113 74.9397C97.0913 74.7697 97.5513 74.8997 97.8813 74.8897C104.441 74.6031 107.625 77.7297 107.431 84.2697C107.231 90.9097 106.921 97.5497 106.861 104.18C106.841 107 105.761 108.03 103.011 107.89C99.9113 107.74 96.8013 107.85 93.6313 107.85H93.6413ZM103.851 105.41L105.161 105.53V77.5597L103.851 77.4797V105.41Z" fill="white" fill-opacity="0.7"/>
<path d="M93.6619 159.05C93.6619 148.67 93.5319 139.05 93.8219 129.44C93.8619 128.25 96.0319 126.25 97.3719 126.11C107.752 125.03 108.012 125.43 107.572 135.78C107.322 141.59 107.052 147.42 107.172 153.23C107.252 156.93 106.282 158.83 102.202 158.57C99.6119 158.4 96.9719 158.84 93.6619 159.05ZM103.742 156.43C104.232 156.43 104.712 156.44 105.202 156.45V128.64C104.712 128.64 104.232 128.63 103.742 128.62V156.43Z" fill="white" fill-opacity="0.7"/>
<path d="M77.8494 42.3605C77.8494 46.3505 77.7994 50.3405 77.8694 54.3305C77.9094 57.1605 76.9795 58.4305 73.7994 58.4205C63.7894 58.4105 63.8194 58.5405 63.9694 48.2905C64.0594 42.1405 64.1094 35.9905 64.0394 29.8405C63.9994 26.4005 65.5395 25.2305 68.9095 25.2305C78.4795 25.2405 78.4694 25.1405 78.2794 34.8805C78.2294 37.3705 78.2794 39.8705 78.2794 42.3605C78.1394 42.3605 77.9994 42.3605 77.8594 42.3605H77.8494ZM76.2494 28.2405C75.9094 27.9705 75.5594 27.6905 75.2194 27.4205C74.5794 28.5405 73.4394 29.6405 73.3894 30.7905C73.0494 38.3905 72.8794 45.9905 72.8394 53.6005C72.8394 54.5705 73.9594 55.5505 74.5694 56.5205C75.1294 55.6605 76.1694 54.8005 76.1794 53.9305C76.2994 45.3705 76.2494 36.8105 76.2494 28.2405Z" fill="white" fill-opacity="0.7"/>
<path d="M93.7922 42.13C93.7922 38.14 93.8322 34.15 93.7822 30.16C93.7422 27.41 94.9622 26.27 97.7322 26.45C110.062 27.26 107.842 25.61 107.382 36.19C107.112 42.33 107.062 48.49 107.172 54.63C107.222 57.82 106.152 59.07 102.862 59.01C92.6022 58.85 93.9122 60.43 93.8422 50.1C93.8222 47.44 93.8422 44.78 93.8422 42.12C93.8322 42.12 93.8122 42.12 93.8022 42.12L93.7922 42.13ZM105.062 29.21C104.632 29.19 104.202 29.17 103.772 29.15V56.7C104.202 56.72 104.632 56.74 105.062 56.76V29.21Z" fill="white" fill-opacity="0.7"/>
<path d="M43.8366 103.69C43.8366 107.98 43.9866 111.43 43.7466 114.86C43.6766 115.91 42.7766 117.51 41.8966 117.82C32.0866 121.26 22.2066 124.49 11.5366 128.05C11.3466 123.86 11.0366 120.48 11.1366 117.1C11.1666 116.23 12.3166 114.96 13.2266 114.62C23.1366 110.98 33.1066 107.49 43.8266 103.69H43.8366ZM24.5466 112.92C20.5566 113.93 19.9166 116.36 21.8766 122.38C25.4266 121.09 25.4866 120.92 24.5466 112.92ZM28.6666 111.61C28.1966 111.58 27.7366 111.55 27.2666 111.51V120.62C27.7366 120.62 28.1966 120.62 28.6666 120.62V111.59V111.61Z" fill="white" fill-opacity="0.7"/>
<path d="M42.7004 30.1699C44.6104 42.9399 44.6304 42.9799 34.2704 48.4399C26.8504 52.3499 19.3604 56.1299 11.7004 60.0699C9.58036 48.9999 9.89036 48.3199 18.4304 43.5999C26.3704 39.2199 34.3004 34.8199 42.7004 30.1699ZM33.2904 38.6899C32.6804 38.5799 32.0704 38.4799 31.4604 38.3699C28.8804 41.2799 29.9904 44.5899 30.5104 47.8399C31.1304 47.9099 31.7404 47.9899 32.3604 48.0599C32.6704 44.9399 32.9804 41.8099 33.2904 38.6899ZM24.3104 43.4599C23.7604 43.3999 23.2204 43.3299 22.6704 43.2699C19.4504 45.9699 21.3604 49.3399 21.5004 52.4799C22.1604 52.5599 22.8204 52.6299 23.4804 52.7099C23.7604 49.6299 24.0404 46.5399 24.3204 43.4599H24.3104ZM25.6804 49.8399C26.3804 49.8999 27.0904 49.9599 27.7904 50.0299V41.1099C27.2504 41.0699 26.7104 41.0399 26.1604 40.9999C26.0004 43.9499 25.8404 46.8999 25.6804 49.8399Z" fill="white" fill-opacity="0.7"/>
<path d="M43.6484 79.1699V92.9999C33.5184 96.6599 22.8684 100.51 12.1784 104.37C9.41844 95.0199 10.4684 92.4899 18.3084 89.2699C26.5284 85.8999 34.8084 82.6899 43.6484 79.1699ZM25.1184 89.3199C20.7684 90.5699 20.2084 92.9599 21.9584 98.6699C22.4384 98.7699 22.9084 98.8799 23.3884 98.9799C23.9084 96.0499 24.4384 93.1199 25.1184 89.3099V89.3199ZM32.5584 85.8099C29.2584 88.2599 29.0984 93.2599 32.5584 95.5499V85.8099ZM26.7384 96.8699C27.1084 96.8899 27.4784 96.8999 27.8484 96.9199V88.1699C27.4784 88.1599 27.1084 88.1499 26.7384 88.1299V96.8699Z" fill="white" fill-opacity="0.7"/>
<path d="M43.8302 52.6201C43.8302 57.5501 43.9502 61.1601 43.7502 64.7501C43.7002 65.6901 42.9002 67.0501 42.0802 67.4301C32.2002 72.0501 22.2502 76.5201 12.2902 81.0501C9.23018 72.8801 10.7002 68.7501 17.8402 65.2101C26.0002 61.1701 34.2302 57.2601 43.8302 52.6201ZM21.6302 74.4701C24.9702 72.9101 25.5402 69.8601 23.4902 64.4801C20.3802 66.4701 19.9902 68.5901 21.6302 74.4701ZM33.7302 59.8401C29.3002 62.2601 28.8202 65.6701 32.6202 70.5801C32.9702 67.2301 33.3202 63.8801 33.7302 59.8401ZM28.5702 62.7101C27.9502 62.6901 27.3202 62.6701 26.7002 62.6501V71.9601C27.1702 71.9801 27.6502 72.0001 28.1202 72.0201C28.2702 68.9201 28.4202 65.8101 28.5702 62.7101Z" fill="white" fill-opacity="0.7"/>
<path d="M11.057 171.33C11.057 167.26 10.877 164.1 11.157 160.99C11.257 159.93 12.367 158.34 13.317 158.08C23.217 155.39 33.177 152.92 43.557 150.28V164.14C32.867 166.51 22.187 168.87 11.057 171.33ZM24.707 157.44C20.637 158.28 19.937 161.37 22.297 167.69C26.237 164.86 24.067 161.1 24.707 157.44ZM30.687 164.75C31.377 164.85 32.057 164.95 32.747 165.05C33.127 161.88 33.517 158.71 33.897 155.53C33.257 155.44 32.607 155.35 31.967 155.25C28.647 157.97 30.597 161.5 30.687 164.75ZM28.187 156.56C27.737 156.56 27.297 156.56 26.847 156.57V165.89C27.297 165.89 27.737 165.87 28.187 165.87V156.56Z" fill="white" fill-opacity="0.7"/>
<path d="M11.5438 148.79C10.2438 137.43 10.2538 137.47 20.5438 134.33C26.4338 132.53 32.2638 130.55 38.1338 128.7C39.8238 128.17 41.5638 127.79 43.9538 127.16C43.9538 131.46 44.0738 135.08 43.8638 138.68C43.8138 139.54 42.7738 140.82 41.9338 141.07C32.3538 143.87 22.7338 146.51 13.1138 149.15C12.7038 149.26 12.1838 148.95 11.5438 148.79ZM21.7138 145.73C26.6638 142.55 24.2738 138.76 24.6438 134.4C19.4238 137.66 21.5438 141.39 21.7138 145.73ZM33.7238 133.03C33.0438 132.91 32.3538 132.79 31.6738 132.67C29.4138 135.62 30.0238 138.9 31.0538 142.22C31.6638 142.29 32.2638 142.37 32.8738 142.44L33.7238 133.03ZM26.9538 143.36C27.4038 143.38 27.8538 143.39 28.3138 143.41V134.15C27.8638 134.15 27.4138 134.13 26.9538 134.12V143.35V143.36Z" fill="white" fill-opacity="0.7"/>
<path d="M44.0168 174.24V187.76C33.5068 189.35 22.7768 190.97 11.6668 192.65C11.6668 188.68 11.2968 185.35 11.8568 182.18C12.0568 181.03 14.3868 179.75 15.9268 179.44C25.0368 177.6 34.2068 176.02 44.0168 174.24ZM24.8168 179.41C19.5268 180.75 21.7468 184.35 21.3068 186.77C21.1768 187.49 22.2868 188.44 22.8268 189.28C23.4868 188.51 24.6268 187.8 24.7268 186.97C24.9968 184.73 24.8168 182.44 24.8168 179.41ZM30.7768 187.48L32.9168 187.95L33.9368 178.6C33.1868 178.47 32.4368 178.34 31.6868 178.22C29.2368 180.87 30.2568 184.22 30.7768 187.48ZM27.0568 188.26L28.1968 188.28V179.41L27.0568 179.38V188.26Z" fill="white" fill-opacity="0.7"/>
<path d="M168.356 210.02C154.606 210.02 140.846 210.06 127.096 209.93C126.196 209.93 125.296 208.58 124.406 207.86C125.316 207.35 126.216 206.43 127.146 206.4C139.926 206.06 152.706 205.79 165.496 205.67C166.666 205.66 167.846 206.82 169.026 207.43C168.806 208.29 168.586 209.16 168.366 210.02H168.356ZM164.986 207.89C164.966 207.76 164.946 207.63 164.916 207.5H143.126C143.126 207.63 143.126 207.76 143.136 207.89H164.976H164.986Z" fill="white" fill-opacity="0.7"/>
<path d="M124.431 198.15C126.331 198.15 128.231 198.16 130.131 198.15C141.441 198.08 152.751 197.94 164.061 198.02C165.491 198.02 166.911 199.19 168.341 199.82C167.001 200.29 165.671 201.13 164.321 201.17C152.521 201.44 140.721 201.61 128.921 201.67C127.271 201.67 125.611 200.95 123.961 200.57C124.121 199.77 124.281 198.96 124.431 198.16V198.15ZM126.531 199.29L126.571 200.29H165.521L165.501 199.29H126.531Z" fill="white" fill-opacity="0.7"/>
<path d="M167.932 184.69C166.842 184.84 166.192 185 165.542 185.01C152.722 185.03 139.903 185.02 127.062 184.11H165.152C165.152 183.59 165.153 183.07 165.163 182.55H137.163C162.903 180.73 166.083 181.01 167.923 184.7L167.932 184.69Z" fill="white" fill-opacity="0.7"/>
<path d="M151.557 189.98C156.717 189.95 161.877 189.9 167.037 189.91C167.487 189.91 167.927 190.3 169.437 191.01C167.797 191.92 166.787 192.96 165.777 192.97C153.117 193.07 140.467 193.05 127.807 192.92C126.857 192.91 125.917 191.75 124.977 191.12C125.767 190.51 126.577 189.37 127.357 189.38C135.477 189.5 143.597 189.82 151.727 190.08C147.417 190.08 143.107 190.07 138.797 190.06C134.727 190.06 130.657 190.06 126.597 190.06C126.617 190.61 126.627 191.15 126.647 191.7H165.127C160.867 191.16 156.217 190.56 151.577 189.97L151.557 189.98Z" fill="white" fill-opacity="0.7"/>
</g>
<defs>
<clipPath id="clip0_767_2600">
<rect width="191.82" height="218.13" fill="white"/>
</clipPath>
</defs>
</svg>
