<svg width="302" height="333" viewBox="0 0 302 333" fill="none" xmlns="http://www.w3.org/2000/svg">
<g id="Group 59491">
<path id="Ellipse 13" d="M133.999 174.499C115.097 178.242 99.6225 185.169 97.1326 172.595C94.6428 160.02 100.699 146.787 119.601 143.044C141.699 144.398 168.405 158.22 170.895 170.794C173.384 183.368 152.901 170.756 133.999 174.499Z" fill="#B8A892"/>
<path id="Ellipse 14" d="M40.5 160C57.117 150.244 67.6523 149.29 61.1624 138.235C54.6726 127.181 41.3563 121.31 24.7392 131.065C9.11749 146.755 0.00647384 140.447 6.49633 151.501C12.9862 162.556 23.5008 142.999 40.5 160Z" fill="#B8A892"/>
<g id="Union">
<path fillRule="evenodd" clipRule="evenodd" d="M170.777 219.43C170.996 220.273 171.001 221.441 170.268 222.496L170.111 222.706L169.946 222.901C169.102 223.839 168.02 224.26 167.171 224.466C166.254 224.689 165.277 224.741 164.4 224.74C162.784 224.74 160.476 224.519 158.869 224.447C156.999 224.362 155.484 224.421 154.364 224.744C153.367 225.031 152.946 225.436 152.709 226.022C152.541 226.438 152.499 227.036 152.78 227.984C153.067 228.955 153.614 230.022 154.305 231.21C154.907 232.244 155.79 233.634 156.31 234.716C156.582 235.282 156.894 236.029 157.011 236.843C157.135 237.702 157.078 238.945 156.196 240.045C155.604 240.783 154.723 241.281 153.701 241.342C152.826 241.394 152.121 241.111 151.711 240.906C150.914 240.506 150.201 239.859 149.692 239.366C149.126 238.818 148.508 238.155 147.9 237.499C147.273 236.822 146.629 236.123 145.944 235.42C144.556 233.996 143.147 232.714 141.757 231.861C140.361 231.004 139.299 230.771 138.473 230.91C137.89 231.008 137.44 231.291 136.926 231.976C136.322 232.781 135.859 233.817 135.172 235.288C134.569 236.58 133.742 238.327 132.444 239.678C130.985 241.196 128.998 242.164 126.401 242.042C124.403 241.947 122.966 240.83 122.09 239.454C121.296 238.206 120.91 236.693 120.694 235.296C120.258 232.475 120.357 228.883 120.513 225.561C120.676 222.085 120.904 218.863 120.852 216.301C120.829 215.169 120.748 214.33 120.632 213.756C120.326 213.789 119.851 213.874 119.159 214.089C117.726 214.532 116.07 215.281 114.212 216.12C112.472 216.904 110.483 217.803 108.727 218.282C107.842 218.523 106.816 218.717 105.785 218.657C104.711 218.595 103.439 218.239 102.424 217.195C101.105 215.837 101.128 213.991 101.203 213.034C101.296 211.866 101.61 210.559 101.988 209.277C102.748 206.701 103.989 203.526 105.117 200.531C106.282 197.439 107.343 194.501 107.907 192.111C108.19 190.914 108.309 190.004 108.302 189.37C108.299 189.115 108.274 188.962 108.258 188.884C107.917 188.529 107.663 188.457 107.366 188.423C106.807 188.36 106.159 188.456 104.832 188.652C102.322 189.021 98.6136 189.476 94.7004 186.34C92.908 184.904 92.5492 182.719 92.5626 181.055C92.5769 179.303 92.9998 177.328 93.5941 175.352C94.7928 171.368 96.9259 166.643 99.1673 162.205C101.424 157.736 103.857 153.428 105.721 150.247C106.653 148.654 107.447 147.338 108.008 146.419C108.289 145.959 108.512 145.597 108.665 145.35C108.694 145.304 108.721 145.261 108.745 145.223C90.9022 118.668 65.6382 81.1156 42.6465 47.0297C45.3022 59.1925 48.3897 74.8276 50.534 89.0952C51.8496 97.8488 52.8149 106.124 53.1035 112.78C53.2476 116.106 53.2248 119.064 52.9818 121.494C52.867 122.642 52.6979 123.721 52.4557 124.686C58.0932 131.158 64.0363 142.672 67.681 154.712C71.2002 166.338 72.8216 179.254 69.2492 188.965L68.8867 189.895L68.8045 190.076C68.551 190.591 68.235 191.139 67.8298 191.612C67.4565 192.048 66.7236 192.754 65.5817 192.954C64.2719 193.183 63.2374 192.625 62.6353 192.089C62.0957 191.609 61.7576 191.038 61.5538 190.646C61.135 189.839 60.8062 188.82 60.5343 187.894C60.2531 186.936 59.9527 185.789 59.6551 184.699C59.0291 182.407 58.3488 180.14 57.461 178.378C56.6977 176.864 56.0428 176.249 55.6074 176.022C55.4456 176.276 55.2155 176.735 54.9721 177.5C54.2902 179.645 53.8973 182.77 53.5005 186.299C53.1255 189.633 52.7432 193.369 51.9966 196.144C51.6302 197.506 51.0839 199.019 50.1394 200.175C49.6386 200.787 48.9552 201.387 48.0468 201.754C47.1104 202.131 46.1286 202.181 45.1909 201.978C42.3037 201.356 40.9177 198.89 40.2023 197.011C39.4516 195.039 39.0213 192.612 38.6531 190.47C38.2612 188.19 37.9269 186.138 37.4123 184.429C36.8702 182.628 36.322 181.92 35.9917 181.698C35.6414 181.462 34.6546 181.187 32.7007 181.355C30.8835 181.512 28.7576 182.003 26.6571 182.633C24.5772 183.257 22.6279 183.986 21.1912 184.562C20.4758 184.849 19.893 185.095 19.4933 185.268C19.294 185.354 19.1402 185.423 19.0384 185.468C18.9879 185.491 18.9492 185.507 18.9252 185.518C18.9137 185.523 18.9052 185.528 18.9002 185.531C18.8983 185.531 18.8953 185.532 18.8953 185.532C17.7559 186.056 16.4093 185.809 15.5297 184.915C14.7051 184.077 14.4561 182.838 14.8762 181.756L14.9697 181.543L14.9703 181.54C14.9722 181.536 14.9762 181.527 14.9812 181.517C14.9912 181.496 15.0083 181.462 15.0297 181.416C15.0727 181.324 15.1375 181.183 15.2207 180.998C15.3878 180.628 15.6277 180.081 15.9123 179.397C16.4829 178.024 17.2262 176.107 17.9138 173.931C19.3359 169.432 20.3386 164.385 19.6199 160.728C19.0543 157.852 17.0041 155.905 14.2207 153.225C11.7605 150.856 8.25196 147.507 8.66634 142.312C8.83582 140.19 10.2709 138.591 11.52 137.526C12.8706 136.375 14.6377 135.317 16.5487 134.351C20.3922 132.409 25.3603 130.579 30.1831 129.016C35.0321 127.445 39.8506 126.107 43.4474 125.163C45.2477 124.691 46.7477 124.316 47.7995 124.058C48.3251 123.93 48.7397 123.831 49.0237 123.764C49.1651 123.73 49.2748 123.705 49.3494 123.687C49.3864 123.678 49.4159 123.672 49.4355 123.667L49.4669 123.659C49.5271 123.645 49.588 123.634 49.6484 123.624C49.7988 122.946 49.9271 122.139 50.0213 121.198C50.2446 118.964 50.2729 116.161 50.1319 112.907C49.8499 106.404 48.9007 98.2478 47.5914 89.536C44.9922 72.2417 40.9944 52.8954 38.079 40.2538C24.3502 19.9089 11.6923 1.19514 2.26879 -12.6671C-2.46077 -19.6244 -6.37458 -25.3577 -9.20105 -29.4603C-10.6145 -31.5119 -11.7544 -33.1536 -12.5868 -34.3346C-13.447 -35.5552 -13.9241 -36.2043 -14.0527 -36.3523L-11.8062 -38.3004C-11.5524 -38.0083 -10.9666 -37.1983 -10.1537 -36.045C-9.31231 -34.8512 -8.16618 -33.2004 -6.75096 -31.1462C-3.91913 -27.0359 -0.000322446 -21.296 4.73033 -14.3372C14.1923 -0.418423 26.9109 18.3884 40.7 38.823C64.824 74.5735 92.2294 115.311 111.223 143.579C111.358 143.57 111.496 143.57 111.634 143.58L111.595 144.133L111.596 144.135C111.632 143.634 111.634 143.585 111.634 143.58L111.638 143.581C111.641 143.581 111.645 143.582 111.65 143.582C111.66 143.583 111.675 143.584 111.694 143.585C111.732 143.588 111.788 143.592 111.861 143.598C112.006 143.608 112.221 143.624 112.498 143.646C113.054 143.69 113.864 143.756 114.885 143.846C116.929 144.025 119.827 144.298 123.246 144.677C130.073 145.433 139.033 146.615 147.462 148.314C155.768 149.988 163.987 152.243 169.042 155.306C171.508 156.8 173.913 158.896 174.539 161.83C175.22 165.025 173.568 167.871 171.004 170.198C168.226 172.719 164.776 173.431 162.724 174.04C160.494 174.701 159.456 175.261 158.787 176.664C158.595 177.068 158.619 177.282 158.66 177.44C158.722 177.676 158.917 178.076 159.447 178.649C160.577 179.868 162.432 181.065 164.728 182.517C166.778 183.813 169.363 185.415 170.977 187.272C171.828 188.251 172.639 189.549 172.82 191.16C173.009 192.854 172.451 194.422 171.438 195.778C169.811 197.955 167.657 198.809 165.499 198.93C163.562 199.038 161.563 198.552 160.042 198.183C158.334 197.769 157.055 197.454 155.899 197.428C154.874 197.405 154.221 197.621 153.663 198.119C153.084 198.637 152.973 199.024 152.95 199.314C152.919 199.699 153.021 200.333 153.515 201.283C154.536 203.246 156.68 205.548 159.365 207.989C160.67 209.176 162.032 210.334 163.353 211.45C164.655 212.55 165.945 213.632 167.027 214.606C168.075 215.55 169.112 216.552 169.809 217.503C170.149 217.966 170.57 218.63 170.777 219.43ZM66.1345 188.763C73.0643 171.932 61.8553 141.594 51.6138 128.351C51.3583 132.76 50.8359 137.883 50.157 142.638C49.6564 146.145 49.0692 149.468 48.437 152.169C48.121 153.519 47.7908 154.724 47.4525 155.723C47.1183 156.709 46.7597 157.543 46.3711 158.12L45.7546 157.704L45.1384 157.288C45.4145 156.878 45.7222 156.195 46.0439 155.245C46.3617 154.307 46.6787 153.152 46.9882 151.83C47.6071 149.186 48.1879 145.909 48.6849 142.428C49.4461 137.096 50.0061 131.318 50.2126 126.64C50.188 126.611 50.1632 126.583 50.1386 126.555C49.9506 126.599 12.7934 135.211 11.6522 142.381L11.632 142.55C11.0658 149.657 20.6722 152.144 22.4607 159.787L22.5388 160.156C24.2864 169.046 17.6509 182.832 17.6509 182.832C17.6598 182.828 32.2489 176.125 37.4139 179.085L37.6525 179.233C42.5905 182.558 40.4793 197.921 45.8173 199.072C52.3977 200.49 48.4601 171.393 55.9595 173.009C63.0097 174.529 62.9209 194.656 65.9867 189.049L66.1345 188.763ZM167.79 220.844C170.073 217.999 143.873 204.072 151.299 196.269L151.679 195.902C156.766 191.356 164.971 199.461 169.054 193.997C174.269 187.017 152.977 183.487 155.942 175.757L156.101 175.386C158.597 170.147 164.705 171.897 169.004 167.997C184.543 153.896 128.805 148.049 114.627 146.807L111.424 146.546L111.369 146.635L111.487 146.56L119.967 159.687L139.108 170.593C139.18 170.638 146.096 174.948 147.669 178.089C152.077 186.884 127.371 167.31 126.75 170.189C126.134 173.049 126.201 177.915 126.202 177.98C127.254 177.304 139.475 189.881 139.475 189.881C144.462 194.722 133.194 185.87 128.896 186.471C119.403 187.797 139.218 206.773 138.755 208.935C135.798 222.652 117.971 179.667 117.938 179.589C117.868 179.601 109.891 180.975 108.212 177.492C107.265 175.526 108.278 171.921 108.295 171.861L115.861 173.492L108.393 151.579C102.885 160.967 92.1961 180.522 96.5617 184.021C102.347 188.657 106.987 182.879 110.611 187.049C114.234 191.221 101.782 212.266 104.559 215.125C107.336 217.983 118.309 209.049 122.399 211.06C126.488 213.072 119.824 238.754 126.54 239.072C133.151 239.385 131.882 229.332 137.697 228.034L137.979 227.979C145.253 226.758 152.328 240.108 153.874 238.185C155.396 236.289 148.16 230.119 149.862 225.145L149.95 224.909C152.623 218.288 165.469 223.733 167.79 220.844Z" fill="#927B63"/>
<path d="M111.634 143.58C111.496 143.57 111.358 143.57 111.223 143.579C92.2294 115.311 64.824 74.5735 40.7 38.823C26.9109 18.3884 14.1923 -0.418423 4.73033 -14.3372C-0.000318251 -21.296 -3.91913 -27.0359 -6.75096 -31.1462C-8.16618 -33.2004 -9.31231 -34.8512 -10.1537 -36.045C-10.9666 -37.1983 -11.5524 -38.0083 -11.8062 -38.3004L-14.0527 -36.3523C-13.9241 -36.2043 -13.4471 -35.5552 -12.5868 -34.3346C-11.7544 -33.1536 -10.6145 -31.5119 -9.20105 -29.4603C-6.37458 -25.3577 -2.46077 -19.6244 2.26879 -12.6671C11.6923 1.19514 24.3502 19.9089 38.079 40.2538C40.9944 52.8954 44.9921 72.2417 47.5914 89.536C48.9007 98.2478 49.8499 106.404 50.1319 112.907C50.2729 116.161 50.2446 118.964 50.0213 121.198C49.9271 122.139 49.7988 122.946 49.6484 123.624C49.588 123.634 49.5271 123.645 49.4669 123.659L49.4355 123.667C49.4159 123.672 49.3864 123.678 49.3494 123.687C49.2748 123.705 49.1651 123.73 49.0237 123.764C48.7397 123.831 48.3251 123.93 47.7995 124.058C46.7477 124.316 45.2477 124.691 43.4474 125.163C39.8506 126.107 35.0321 127.445 30.1831 129.016C25.3603 130.579 20.3922 132.409 16.5487 134.351C14.6377 135.317 12.8706 136.375 11.52 137.526C10.2709 138.591 8.83583 140.19 8.66634 142.312C8.25196 147.507 11.7605 150.856 14.2207 153.225C17.0041 155.905 19.0543 157.852 19.6199 160.728C20.3386 164.385 19.3359 169.432 17.9138 173.931C17.2262 176.107 16.4829 178.024 15.9123 179.397C15.6277 180.081 15.3878 180.628 15.2207 180.998C15.1375 181.183 15.0727 181.324 15.0297 181.416C15.0083 181.462 14.9912 181.496 14.9812 181.517C14.9763 181.527 14.9722 181.536 14.9703 181.54L14.9697 181.543L14.8762 181.756C14.4561 182.838 14.7051 184.077 15.5297 184.915C16.4093 185.809 17.7559 186.056 18.8953 185.532C18.8953 185.532 18.8983 185.531 18.9002 185.531C18.9052 185.528 18.9137 185.523 18.9252 185.518C18.9492 185.507 18.9879 185.491 19.0384 185.468C19.1402 185.423 19.294 185.354 19.4933 185.268C19.893 185.095 20.4758 184.849 21.1912 184.562C22.6279 183.986 24.5772 183.257 26.6571 182.633C28.7576 182.003 30.8835 181.512 32.7007 181.355C34.6546 181.187 35.6414 181.462 35.9917 181.698C36.322 181.92 36.8702 182.628 37.4123 184.429C37.9269 186.138 38.2612 188.19 38.6531 190.47C39.0213 192.612 39.4516 195.039 40.2023 197.011C40.9177 198.89 42.3037 201.356 45.1909 201.978C46.1286 202.181 47.1103 202.131 48.0468 201.754C48.9552 201.387 49.6386 200.787 50.1394 200.175C51.0839 199.019 51.6303 197.506 51.9966 196.144C52.7432 193.369 53.1255 189.633 53.5005 186.299C53.8973 182.77 54.2902 179.645 54.9721 177.5C55.2155 176.735 55.4456 176.276 55.6074 176.022C56.0428 176.249 56.6977 176.864 57.461 178.378C58.3488 180.14 59.0291 182.407 59.6551 184.699C59.9527 185.789 60.2531 186.936 60.5343 187.894C60.8062 188.82 61.135 189.839 61.5538 190.646C61.7576 191.038 62.0957 191.609 62.6353 192.089C63.2374 192.625 64.2719 193.183 65.5817 192.954C66.7236 192.754 67.4565 192.048 67.8298 191.612C68.235 191.139 68.551 190.591 68.8045 190.076L68.8867 189.895L69.2492 188.965C72.8216 179.255 71.2002 166.338 67.681 154.712C64.0363 142.672 58.0932 131.158 52.4557 124.686C52.6979 123.721 52.867 122.642 52.9818 121.494C53.2248 119.064 53.2476 116.106 53.1035 112.78C52.8149 106.124 51.8496 97.8488 50.534 89.0952C48.3897 74.8276 45.3022 59.1925 42.6465 47.0297C65.6382 81.1156 90.9022 118.668 108.745 145.223C108.721 145.261 108.694 145.304 108.665 145.35C108.512 145.597 108.289 145.959 108.008 146.419C107.447 147.338 106.653 148.654 105.721 150.247C103.857 153.428 101.424 157.736 99.1673 162.205C96.9259 166.643 94.7928 171.368 93.5941 175.352C92.9998 177.328 92.5769 179.303 92.5626 181.055C92.5492 182.719 92.908 184.904 94.7004 186.34C98.6136 189.476 102.322 189.021 104.832 188.652C106.159 188.456 106.807 188.36 107.366 188.423C107.663 188.457 107.917 188.529 108.258 188.884C108.274 188.962 108.299 189.115 108.302 189.37C108.309 190.004 108.19 190.914 107.907 192.111C107.343 194.501 106.282 197.439 105.117 200.531C103.989 203.526 102.748 206.701 101.988 209.277C101.61 210.559 101.296 211.866 101.203 213.034C101.128 213.991 101.105 215.837 102.424 217.195C103.439 218.239 104.711 218.595 105.785 218.657C106.816 218.717 107.842 218.523 108.727 218.282C110.483 217.803 112.472 216.904 114.212 216.12C116.07 215.281 117.726 214.532 119.159 214.089C119.851 213.874 120.326 213.789 120.632 213.756C120.748 214.33 120.829 215.169 120.852 216.301C120.904 218.863 120.676 222.085 120.513 225.561C120.357 228.883 120.258 232.475 120.694 235.296C120.91 236.693 121.296 238.206 122.09 239.454C122.966 240.83 124.403 241.947 126.401 242.042C128.998 242.164 130.985 241.196 132.444 239.678C133.742 238.327 134.569 236.58 135.172 235.288C135.859 233.817 136.322 232.781 136.926 231.976C137.44 231.291 137.89 231.008 138.473 230.91C139.299 230.771 140.361 231.004 141.757 231.861C143.147 232.714 144.556 233.996 145.944 235.42C146.629 236.123 147.273 236.822 147.9 237.499C148.508 238.155 149.126 238.818 149.692 239.366C150.201 239.859 150.914 240.506 151.711 240.906C152.121 241.111 152.826 241.394 153.701 241.342C154.723 241.281 155.604 240.783 156.196 240.045C157.078 238.945 157.135 237.702 157.011 236.843C156.894 236.029 156.582 235.282 156.31 234.716C155.79 233.634 154.907 232.244 154.305 231.21C153.614 230.022 153.067 228.955 152.78 227.984C152.499 227.036 152.541 226.438 152.709 226.022C152.946 225.436 153.367 225.031 154.364 224.744C155.484 224.421 156.999 224.362 158.869 224.447C160.476 224.519 162.784 224.74 164.4 224.74C165.277 224.741 166.254 224.689 167.171 224.466C168.02 224.26 169.102 223.839 169.946 222.901L170.111 222.706L170.268 222.496C171.001 221.441 170.996 220.273 170.777 219.43C170.57 218.63 170.149 217.966 169.809 217.503C169.112 216.552 168.075 215.55 167.027 214.606C165.945 213.632 164.655 212.55 163.353 211.45C162.032 210.334 160.67 209.176 159.365 207.989C156.68 205.548 154.536 203.246 153.515 201.283C153.021 200.333 152.919 199.699 152.95 199.314C152.973 199.024 153.084 198.637 153.663 198.119C154.221 197.621 154.874 197.405 155.899 197.428C157.055 197.454 158.334 197.769 160.042 198.183C161.563 198.552 163.562 199.038 165.499 198.93C167.657 198.809 169.811 197.955 171.438 195.778C172.451 194.422 173.009 192.854 172.82 191.16C172.639 189.549 171.828 188.251 170.977 187.272C169.363 185.415 166.778 183.813 164.728 182.517C162.432 181.065 160.577 179.868 159.447 178.649C158.917 178.076 158.722 177.676 158.66 177.44C158.619 177.282 158.595 177.068 158.787 176.664C159.456 175.261 160.494 174.701 162.724 174.04C164.776 173.431 168.226 172.719 171.004 170.198C173.568 167.871 175.22 165.025 174.539 161.83C173.913 158.896 171.508 156.8 169.042 155.306C163.987 152.243 155.768 149.988 147.462 148.314C139.033 146.615 130.073 145.433 123.246 144.677C119.827 144.298 116.929 144.025 114.885 143.846C113.864 143.756 113.054 143.69 112.498 143.646C112.221 143.624 112.006 143.608 111.861 143.598C111.788 143.592 111.732 143.588 111.694 143.585C111.675 143.584 111.66 143.583 111.65 143.582C111.645 143.582 111.641 143.581 111.638 143.581L111.634 143.58ZM111.634 143.58L111.595 144.133L111.596 144.135C111.632 143.634 111.634 143.585 111.634 143.58ZM66.1345 188.763C73.0643 171.932 61.8553 141.594 51.6138 128.351C51.3583 132.76 50.8359 137.883 50.157 142.638C49.6564 146.145 49.0692 149.468 48.437 152.169C48.121 153.519 47.7908 154.724 47.4525 155.723C47.1183 156.709 46.7597 157.543 46.3711 158.12L45.7546 157.704L45.1384 157.288C45.4145 156.878 45.7222 156.195 46.0439 155.245C46.3617 154.307 46.6786 153.152 46.9882 151.83C47.6071 149.186 48.1879 145.909 48.6849 142.428C49.4461 137.096 50.0061 131.318 50.2126 126.64C50.188 126.611 50.1632 126.583 50.1386 126.555C49.9506 126.599 12.7934 135.211 11.6522 142.381L11.632 142.55C11.0658 149.657 20.6722 152.144 22.4607 159.787L22.5388 160.156C24.2864 169.046 17.6509 182.832 17.6509 182.832C17.6598 182.828 32.2489 176.125 37.4139 179.085L37.6525 179.233C42.5905 182.558 40.4793 197.921 45.8173 199.072C52.3977 200.49 48.4601 171.393 55.9595 173.009C63.0097 174.529 62.9209 194.656 65.9867 189.049L66.1345 188.763ZM167.79 220.844C170.073 217.999 143.873 204.072 151.299 196.269L151.679 195.902C156.766 191.356 164.971 199.461 169.054 193.997C174.269 187.017 152.977 183.487 155.942 175.757L156.101 175.386C158.597 170.147 164.705 171.897 169.004 167.997C184.543 153.896 128.805 148.049 114.627 146.807L111.424 146.546L111.369 146.635L111.487 146.56L119.967 159.687L139.108 170.593C139.18 170.638 146.096 174.948 147.669 178.089C152.077 186.884 127.371 167.31 126.75 170.189C126.134 173.049 126.201 177.915 126.202 177.98C127.254 177.304 139.475 189.881 139.475 189.881C144.462 194.722 133.194 185.87 128.896 186.471C119.403 187.797 139.218 206.773 138.755 208.935C135.798 222.652 117.971 179.667 117.938 179.589C117.868 179.601 109.891 180.975 108.212 177.492C107.265 175.526 108.278 171.921 108.295 171.861L115.861 173.492L108.393 151.579C102.885 160.967 92.1961 180.522 96.5617 184.021C102.347 188.657 106.987 182.879 110.611 187.049C114.234 191.221 101.782 212.266 104.559 215.125C107.336 217.983 118.309 209.049 122.399 211.06C126.488 213.072 119.824 238.754 126.54 239.072C133.151 239.385 131.882 229.332 137.697 228.034L137.979 227.979C145.253 226.758 152.328 240.108 153.874 238.185C155.396 236.289 148.16 230.119 149.862 225.145L149.95 224.909C152.623 218.288 165.469 223.733 167.79 220.844Z" stroke="#927B63" stroke-width="5"/>
</g>
</g>
</svg>
