<svg width="90" height="121" viewBox="0 0 90 121" fill="none" xmlns="http://www.w3.org/2000/svg">
<path d="M43.5856 27.7148H35.1851L31.8249 87.2049H30.4248L27.3446 61.2304C26.4112 59.6477 24.0404 55.5327 22.0243 51.7343C20.0082 47.9359 11.1036 42.5175 6.90337 40.2832L22.8643 93.3494L21.4642 95.0252L6.34334 64.0233L2.70312 60.1132L7.46341 101.17L10.5436 110.107L18.104 117.928L24.5444 120.441L49.7459 121C51.538 120.776 61.6933 117.183 66.5469 115.414L77.7476 105.08L88.6682 80.5018V72.4022L58.7065 101.17L58.1464 99.7733L83.908 65.4198L87.8282 58.1581L89.2283 48.9414V32.4629L50.866 89.9979L49.7459 88.6014L69.6271 35.5351L57.5864 43.6347L49.7459 55.0859L44.9856 76.871H43.5856V27.7148Z" fill="#B8A892"/>
<path d="M62.349 31.771L28.1127 30.9349C22.7685 30.266 11.4121 26.0113 6.40191 23.9676L1.39172 13.0985L0 2.22954L6.40191 0.836078L12.5255 16.4429L15.0306 17.0002L16.979 0.836078H28.1127L28.9477 17.0002H30.8962L33.1229 0H50.1019L51.4936 17.8363H53.7203L55.9471 0.836078H67.9159L64.2974 16.4429H66.5242L74.0394 1.67216H80.4413L78.4929 18.9511C76.4889 22.7413 66.8953 29.0769 62.349 31.771Z" fill="#927B63"/>
</svg>
