<svg width="94" height="208" viewBox="0 0 94 208" fill="none" xmlns="http://www.w3.org/2000/svg">
<path d="M44.1284 51.3726C44.1284 62.6926 44.2584 73.1726 43.9785 83.6426C43.9384 85.1026 42.0984 86.9726 40.6185 87.8526C32.4685 92.6826 23.8284 96.7526 16.0084 102.043C4.66844 109.723 -1.60155 119.503 1.18845 134.663C2.98845 144.423 0.638451 154.903 0.658447 165.053C0.678444 171.423 1.07845 177.923 2.49845 184.083C3.01845 186.363 6.71844 188.363 9.37845 189.593C12.1785 190.883 13.9484 192.253 13.3384 195.453C12.5384 199.623 15.0385 201.033 18.3885 201.953C21.7384 202.873 25.1885 203.523 24.8285 208.513C24.7585 209.453 27.6284 210.783 29.2885 211.643C32.3285 213.213 36.9184 213.173 35.9585 218.573C35.9085 218.863 36.0384 219.433 36.2184 219.493C42.6484 221.783 39.2584 227.153 39.6484 231.143C40.0784 235.583 39.5984 240.133 39.2584 244.613C39.1884 245.553 37.9884 246.413 37.1084 247.573C38.2484 247.723 39.6284 248.013 41.0184 248.083C53.9984 248.703 66.9784 249.343 79.9684 249.803C81.7684 249.863 85.0784 249.233 85.1584 248.603C85.5384 245.453 85.3084 242.173 84.8384 239.003C84.5684 237.143 82.8484 235.423 82.8184 233.623C82.6284 221.973 82.7184 210.323 82.7184 199.293C81.7584 199.213 79.8584 199.623 78.6984 198.883C70.0184 193.293 61.4284 187.553 52.9684 181.643C51.7284 180.773 50.5285 178.733 50.5784 177.283C51.1784 160.803 51.9484 144.323 52.9684 127.863C53.0485 126.543 55.2684 124.393 56.6284 124.283C62.2484 123.823 63.9284 120.833 63.3184 115.733C63.2684 115.303 63.6084 114.813 63.8184 114.223C66.4484 114.223 69.0884 113.973 71.6684 114.283C76.1684 114.813 78.2884 113.203 77.8184 108.543C77.7384 107.753 78.0184 106.933 78.1084 106.273C78.5484 105.953 78.7984 105.613 79.0784 105.593C87.2084 105.003 87.1084 104.993 88.1984 96.4326C88.3784 95.0226 89.9384 93.8226 90.7484 92.4526C91.5384 91.1226 92.7484 89.7326 92.7984 88.3426C93.2384 75.3626 94.1184 62.3326 93.4184 49.4026C93.1484 44.3826 90.2084 38.5226 86.6284 34.8626C78.1784 26.2126 68.6884 18.5726 59.4384 10.7226C57.0384 8.68262 55.0485 6.98262 55.1684 3.42262C55.2085 2.26262 53.3284 0.0926181 52.2184 0.0226181C50.0184 -0.107382 46.2885 0.312618 45.7985 1.55262C44.6385 4.46262 42.8184 4.17262 40.6984 4.20262C30.5384 4.36262 20.3784 4.60262 10.2185 4.66262C4.94846 4.70262 2.74845 7.42262 2.64845 12.4126C2.46845 21.9026 2.05846 31.4026 2.07845 40.8926C2.08846 47.6526 4.37845 50.0026 11.5484 50.3926C20.8584 50.9026 30.1984 50.8926 39.5285 51.1326C41.3185 51.1826 43.0984 51.3226 44.1284 51.3726ZM46.7985 43.5026C46.7985 41.1126 46.7985 39.1526 46.7985 37.2026C46.7885 26.8726 46.7684 16.5426 46.7684 6.21262C46.7684 3.86262 46.4284 1.45262 50.2184 1.69262C53.5484 1.90262 53.7685 3.68262 53.6884 6.34262C52.0984 59.9526 50.5484 113.563 49.0184 167.173C48.9184 170.743 49.0084 174.313 49.0084 178.183C44.0384 177.253 43.3585 174.873 43.4785 171.173C44.7685 132.553 45.8284 93.9226 47.1284 55.2926C47.2785 50.7926 46.0784 49.2126 41.3685 49.2426C31.0485 49.3126 20.7184 48.8026 10.4084 48.4126C7.58845 48.3026 4.81845 47.7226 4.34845 43.5026H46.7985ZM71.6284 67.6826C72.2084 53.3926 72.7884 39.3726 73.4184 23.8726C80.6784 31.1126 89.6884 35.2626 87.5284 46.7126C86.8884 50.1126 87.1784 53.6726 86.9484 57.1526C86.5684 63.0726 78.4684 68.9926 71.6284 67.6826ZM23.5084 139.823C11.5984 136.533 16.1585 145.983 14.2185 150.453C10.5185 148.443 9.44845 146.003 9.67845 142.383C10.2485 133.583 10.5484 124.753 10.7284 115.933C10.9084 107.503 15.4884 101.803 23.4985 100.033V139.823H23.5084ZM37.8685 92.3726C36.9384 108.243 36.0384 123.593 35.1484 138.843H25.7384C25.7384 127.313 25.5484 116.183 25.7984 105.073C25.9884 96.6826 28.2684 94.4526 37.8584 92.3726H37.8685ZM58.9484 187.843C63.7984 191.023 67.7884 193.563 71.6584 196.273C72.3284 196.743 72.8584 197.963 72.8184 198.813C72.3884 208.053 71.8284 217.283 71.2684 227.113C67.6084 226.683 64.4884 226.493 61.4684 225.853C60.4984 225.643 59.0584 224.263 59.0485 223.393C58.8885 211.923 58.9384 200.453 58.9384 187.843H58.9484ZM33.2485 41.8226C33.2485 30.2226 33.1684 19.4626 33.3784 8.69262C33.3984 7.64262 35.0784 6.00262 36.2584 5.72262C38.2985 5.22262 40.5885 5.32262 42.6884 5.66262C43.6084 5.81262 45.0285 7.18262 45.0384 8.01262C45.1984 19.0926 45.1484 30.1726 45.1484 41.4626C43.4384 41.6326 42.4784 41.7926 41.5184 41.8126C39.0484 41.8526 36.5785 41.8226 33.2485 41.8226ZM63.0184 56.3926C54.5084 56.5026 54.4684 56.5026 54.5884 49.2126C54.7784 37.7326 55.0084 26.2426 55.2684 14.7626C55.2984 13.5726 55.6384 12.3826 56.1284 9.46262C59.6984 13.3026 64.4284 16.0326 64.4884 18.8526C64.7384 31.2526 63.6384 43.6926 63.0184 56.3826V56.3926ZM43.3984 178.933C44.1185 178.703 44.8484 178.483 45.5685 178.253C46.5585 180.493 48.4384 182.743 48.3885 184.953C48.0084 204.053 47.3385 223.143 46.5685 242.233C46.5084 243.613 45.0485 244.943 44.2485 246.293C43.3484 244.903 41.6884 243.513 41.6784 242.113C41.5684 232.643 41.6785 223.163 41.9785 213.703C42.3284 202.113 42.9184 190.533 43.4085 178.943L43.3984 178.933ZM54.7584 81.2926H88.6884C88.7884 82.4926 88.9084 83.3126 88.9084 84.1326C88.9284 90.6626 88.9184 90.6926 82.2484 90.3726C74.9284 90.0226 67.6084 89.5526 60.2884 89.2226C53.4784 88.9126 53.4785 88.9626 54.7584 81.2926ZM81.9184 237.483C77.1484 237.983 75.5984 236.913 75.8584 233.513C75.9884 231.753 76.1684 228.893 75.2584 228.363C72.0984 226.503 72.9884 223.873 73.0884 221.363C73.2584 216.873 73.5484 212.383 73.8484 207.893C74.0384 205.043 74.3484 202.193 74.6084 199.343C75.0884 199.163 75.5684 198.983 76.0484 198.803C78.0084 200.823 81.5484 202.763 81.6584 204.883C82.2384 215.653 81.9284 226.463 81.9284 237.483H81.9184ZM66.0484 19.6326C66.7884 19.4026 67.5284 19.1626 68.2784 18.9326C69.5284 20.8626 71.8784 22.8126 71.8484 24.7326C71.6784 38.2226 71.0684 51.7026 70.4084 65.1826C70.3584 66.1626 68.8084 67.0826 67.9584 68.0226C67.0884 67.0626 65.6684 66.2126 65.4684 65.1326C65.0784 63.0426 65.3484 60.8226 65.3784 58.6626C65.5984 45.6526 65.8184 32.6426 66.0484 19.6326ZM31.5384 41.2026H24.6385V6.09262H31.5384V41.2126V41.2026ZM49.0384 240.383H83.8384V248.203C71.9384 247.603 60.4184 247.023 48.5884 246.423C48.7884 243.783 48.9184 242.023 49.0384 240.383ZM54.3685 92.2726C63.0385 92.2726 71.6284 92.2126 80.2184 92.2926C87.1884 92.3626 87.4984 92.8626 85.5884 100.383C76.7884 99.7926 67.8784 99.1926 58.9684 98.5926C53.1984 98.2026 53.0885 98.0326 54.3685 92.2726ZM54.7584 78.5726V69.2026C61.0884 69.5726 66.9084 69.9126 72.7984 70.2526C72.4984 71.7426 72.3584 72.4826 72.2584 72.9626C75.5584 71.7426 78.5884 70.6226 81.6184 69.5026C81.2684 73.3026 84.8384 78.0326 79.4084 78.4226C71.3484 79.0026 63.2184 78.5726 54.7684 78.5726H54.7584ZM50.5884 215.563V183.593L52.0984 183.023C53.8685 184.763 57.1084 186.463 57.1484 188.233C57.3284 197.493 56.6984 206.763 56.3284 216.633C53.7485 216.153 51.8685 215.803 50.5984 215.563H50.5884ZM41.6385 155.323C35.3685 154.113 29.0485 152.933 22.7485 151.663C15.5885 150.223 15.3284 149.743 17.5184 142.143C24.0984 143.633 30.7085 145.133 37.3284 146.613C43.3185 147.953 43.4585 148.203 41.6385 155.313V155.323ZM41.9884 88.4426C42.4384 88.7726 42.8884 89.0926 43.3384 89.4226C43.3384 101.653 43.4084 113.893 43.2184 126.123C43.1984 127.193 41.5184 128.243 40.6084 129.303C39.8484 128.123 38.4384 126.943 38.4384 125.763C38.4484 115.143 38.5685 104.523 39.0285 93.9226C39.1085 92.0626 40.9585 90.2726 41.9884 88.4526V88.4426ZM73.7484 229.453C74.2884 229.963 74.8284 230.473 75.3684 230.983C74.2484 233.063 73.2584 236.853 71.9884 236.953C64.4584 237.523 56.8684 237.233 47.4684 237.233C49.2484 234.443 50.0285 231.843 51.1385 231.683C58.6385 230.653 66.1984 230.133 73.7484 229.453ZM17.9384 155.253C24.5384 155.903 30.4585 156.453 36.3685 157.093C42.9384 157.803 43.0784 158.073 41.1884 165.073C32.6484 164.673 23.8584 165.033 17.9384 155.253ZM8.65845 141.553C1.34845 134.753 -0.611557 117.923 8.65845 112.113V141.553ZM22.7384 41.1426H17.6884V13.7526C18.2184 13.4726 18.7485 13.1826 19.2785 12.9026C20.4285 14.1726 22.5285 15.3926 22.5785 16.7026C22.8885 24.7826 22.7284 32.8826 22.7284 41.1726L22.7384 41.1426ZM54.2485 102.513C60.1785 103.203 66.0484 104.173 71.9584 104.493C77.0784 104.773 77.1484 107.133 75.4684 111.283C69.3184 110.323 63.3085 109.233 57.2485 108.493C53.1985 108.003 52.6884 106.083 54.2485 102.513ZM11.0785 12.2026C11.7885 11.9326 12.4884 11.6626 13.1984 11.3926C14.2085 12.7326 16.0884 14.0726 16.0984 15.4226C16.1584 23.2226 15.8384 31.0326 15.4484 38.8326C15.3984 39.7326 14.0885 40.5726 13.3585 41.4426C12.5984 40.6226 11.1984 39.8126 11.1785 38.9726C11.0184 30.0526 11.0785 21.1226 11.0785 12.1926V12.2026ZM10.3985 174.143C8.87846 166.843 9.17844 166.493 15.7984 167.073C17.1184 167.193 18.4484 167.223 19.7684 167.293C25.8784 167.613 26.0784 167.893 24.4784 174.143H10.3885H10.3985ZM40.1585 187.843C40.6485 188.213 41.1484 188.583 41.6484 188.963C40.6784 191.253 40.1784 195.023 38.6284 195.523C34.8685 196.733 30.6184 196.433 26.8684 196.713C24.7284 190.883 26.9385 188.933 31.8685 188.773C34.6385 188.683 37.3984 188.173 40.1684 187.853L40.1585 187.843ZM40.9484 178.163C41.8884 184.873 41.7284 185.073 35.7184 185.183C33.7284 185.223 31.7384 185.183 29.7584 185.293C27.2085 185.443 25.6884 184.243 26.4184 181.833C26.8484 180.403 28.4684 178.513 29.7684 178.333C33.3284 177.853 36.9984 178.163 40.9684 178.163H40.9484ZM9.86845 178.283C14.2184 178.283 17.9884 178.393 21.7485 178.253C24.6185 178.143 25.3484 179.893 24.7785 182.003C24.4285 183.293 22.9585 185.103 21.8484 185.213C17.9685 185.613 14.0284 185.363 9.86845 185.363V178.283ZM91.0184 57.7926C91.5784 58.0026 92.1484 58.2126 92.7084 58.4326C92.2284 68.5926 91.7484 78.7426 91.2684 88.9026C90.2184 87.0726 90.5084 85.2926 90.4084 83.5426C90.3284 82.0126 89.9384 80.4726 89.4784 79.0026C88.9984 77.4626 87.7784 76.0026 87.7584 74.4926C87.6984 70.8526 87.9084 67.1726 88.4984 63.5826C88.8284 61.5726 90.1384 59.7226 91.0184 57.8026V57.7926ZM27.1385 209.023C26.3084 202.913 30.3284 200.183 41.0984 199.323C40.0984 202.073 39.8885 205.533 38.3284 206.323C35.0984 207.953 31.1485 208.153 27.1385 209.023ZM2.87845 140.813C11.3684 146.413 6.73845 153.933 6.64845 160.593C6.63845 161.303 4.40845 161.983 2.87845 162.873V140.813ZM54.7584 58.4926C64.2085 57.9426 65.2784 59.2726 62.4084 67.5826C59.9384 67.4326 57.3784 67.2726 54.7584 67.1126V58.5026V58.4926ZM24.6785 190.533C24.5584 192.913 24.4585 194.933 24.3484 197.103C20.9184 197.333 18.0484 197.533 15.2284 197.713C14.0884 190.623 14.6385 190.203 24.6785 190.523V190.533ZM4.37845 9.30262C4.72845 9.36262 5.07845 9.43262 5.42845 9.49262V41.0526C5.07845 41.0326 4.72845 41.0026 4.37845 40.9826V9.30262ZM10.3885 154.853C10.7885 154.493 11.1884 154.143 11.5884 153.783C15.0685 156.573 18.5484 159.373 22.0285 162.163C21.8684 162.573 21.7085 162.983 21.5484 163.393C17.9084 163.033 14.2684 162.673 10.3885 162.293V154.853ZM7.91845 10.9326C8.27845 10.9426 8.63845 10.9626 8.99845 10.9726V40.9426C8.63845 40.9226 8.27845 40.9026 7.91845 40.8926V10.9226V10.9326ZM53.9985 112.123C62.3585 112.953 62.8184 113.483 60.6684 120.013C52.9384 118.283 52.2885 117.513 53.9985 112.123ZM0.00844574 170.263C2.44845 168.143 3.60845 166.323 5.05845 166.043C8.11845 165.453 8.73845 167.623 8.65845 170.323C8.58845 172.763 8.20845 174.893 5.23845 174.163C3.72845 173.793 2.51845 172.203 -0.00154877 170.263H0.00844574ZM55.7384 219.143C57.0784 226.093 55.9985 227.363 49.4585 226.863C48.7384 220.303 48.8484 220.163 55.7384 219.143ZM42.1984 143.603C35.7984 141.513 34.9985 139.733 37.4585 133.233C42.6684 135.043 43.9484 138.593 42.1984 143.603ZM27.0584 174.553V167.093C31.0984 169.683 34.2085 171.683 37.3284 173.683C37.1784 174.133 37.0285 174.583 36.8885 175.033C33.8685 174.883 30.8384 174.743 27.0584 174.553ZM58.7684 101.703L58.7485 100.343C67.4485 100.983 76.1484 101.623 84.8584 102.263C84.8084 102.823 84.7584 103.383 84.7084 103.943C76.0684 103.193 67.4184 102.453 58.7785 101.703H58.7684ZM83.0684 66.2126C83.1684 66.1426 84.4984 65.2226 86.8584 63.5726C86.3784 69.4026 86.0084 73.7926 85.6484 78.1926C85.2184 78.1826 84.7984 78.1726 84.3684 78.1526C83.9784 74.5526 83.5884 70.9626 83.0684 66.2126ZM25.6385 142.123C30.5685 139.913 34.9284 140.053 38.6984 145.123C33.8784 144.013 29.7584 143.063 25.6385 142.123ZM90.4084 56.3226C89.7784 56.2726 89.1484 56.2226 88.5184 56.1726C88.7384 51.8926 88.9584 47.6126 89.1784 43.3326C89.5884 43.3526 89.9984 43.3826 90.3984 43.4026V56.3226H90.4084ZM2.43845 179.053C7.10844 177.793 8.86845 178.683 8.34845 181.843C8.14845 183.063 6.83846 184.103 6.03845 185.233C4.94846 183.363 3.86845 181.503 2.43845 179.053ZM31.7285 210.953L31.8284 209.483C34.4484 208.953 37.0585 208.423 40.4085 207.753C39.7584 210.163 39.3484 211.683 38.7985 213.743C36.1484 212.693 33.9384 211.823 31.7285 210.953ZM11.1584 187.123H23.8784C19.5784 188.713 15.3084 190.953 11.1584 187.123ZM22.5785 4.95262V11.7926C19.6485 11.8826 17.1884 11.4826 18.0884 8.14262C18.3984 6.99262 20.5285 6.34262 22.5785 4.95262ZM34.4484 169.353C34.5984 168.913 34.7484 168.473 34.8984 168.043C36.9984 168.333 39.2384 168.313 41.1185 169.113C41.7184 169.363 41.3984 171.813 41.5784 174.423C38.4684 172.213 36.4585 170.793 34.4585 169.363L34.4484 169.353Z" fill="white" fill-opacity="0.7"/>
</svg>
