<svg width="161" height="372" viewBox="0 0 161 372" fill="none" xmlns="http://www.w3.org/2000/svg">
<path fillRule="evenodd" clipRule="evenodd" d="M128.559 11.7899C128.2 12.0415 126.501 12.1625 124.717 12.1638C121.695 12.0524 110.069 14.9398 105.091 17.0023C96.4821 20.6295 84.5576 32.3804 80.8476 40.9592C79.3721 44.581 79.2346 44.7667 76.2781 52.6387C74.0683 58.649 71.5682 76.4612 71.6945 85.2945C71.8361 90.4591 70.1955 97.4085 67.5719 102.192C67.3807 102.683 67.1717 103.276 67.202 103.701C67.1305 104.108 66.4553 105.562 65.7141 106.796C64.4889 108.993 59.8906 122.031 58.2913 128.149C57.9393 129.555 56.9781 132.638 56.2259 135.128C51.6935 148.388 42.4731 190.718 36.0373 227.349C32.6585 246.581 32.5222 256.312 35.4881 260.924C37.5671 264.016 39.649 262.913 44.976 255.877C49.2208 250.225 49.9386 249.721 56.9871 247.813C63.1858 245.965 64.466 245.246 64.8414 243.109C65.0917 241.685 65.7971 240.655 66.4076 240.762C67.1199 240.887 67.5022 239.905 67.5668 238.343C67.5297 236.763 67.912 235.782 68.6243 235.907C70.0488 236.157 74.0063 230.349 75.8338 225.32C76.5983 223.357 77.6145 221.752 78.225 221.859C78.7338 221.949 79.1463 221.392 79.1697 220.662C79.299 217.538 80.3922 214.898 82.067 213.723C83.0241 213.052 83.9688 211.855 84.0939 211.143C84.219 210.43 85.2352 208.826 86.3655 207.765C87.5137 206.604 87.8781 205.724 87.1658 205.598C86.5553 205.491 87.0572 204.425 88.2233 203.162C89.3893 201.898 90.7218 199.09 91.2168 196.87C91.5923 194.733 92.0818 193.141 92.3513 193.398C93.0883 194.576 97.8763 187.026 98.293 184.057C98.7744 179.526 99.1924 178.341 100.09 178.604C101.97 179.249 102.466 178.811 101.597 177.19C101.028 176.251 101.093 174.689 101.661 173.845C102.246 172.899 103.095 171.055 103.549 169.666C104.086 168.397 104.983 166.876 105.719 166.271C106.335 165.75 106.495 164.834 106.16 164.356C105.842 163.775 106.046 163.811 106.687 164.343C108.238 165.665 111.107 161.868 109.987 159.888C109.352 158.728 109.578 158.033 110.739 157.398C111.678 156.829 112.3 155.679 112.137 154.812C111.993 153.842 112.489 153.405 113.609 153.602C115.033 153.852 115.189 153.565 114.47 152.284C113.834 151.124 113.84 150.495 114.743 150.13C115.407 149.932 115.754 149.153 115.538 148.591C115.22 148.011 115.394 147.622 115.902 147.711C116.309 147.783 116.997 146.854 117.229 145.532C117.951 142.617 118.919 140.689 120.241 139.138C120.893 138.413 120.934 137.581 120.209 136.929C119.401 136.158 119.454 135.853 120.477 135.403C121.159 135.103 121.626 134.241 121.529 133.595C121.349 132.829 121.767 131.644 122.419 130.919C123.448 129.841 123.753 129.895 124.436 131.378C125.036 132.743 125.227 132.252 125.267 129.636C125.301 127.649 125.737 126.362 126.348 126.47C126.958 126.577 127.358 125.493 127.273 123.59C127.158 121.262 127.642 120.298 129.209 119.735C130.436 119.321 130.729 118.848 129.915 118.705C129.101 118.562 128.986 118.017 129.638 117.293C130.152 116.754 130.642 115.161 130.671 113.803C130.784 112.564 131.369 111.618 131.98 111.725C132.59 111.832 132.883 111.359 132.668 110.797C132.368 110.115 133.043 108.66 134.191 107.498C135.238 106.319 136.002 104.355 135.911 103.08C135.803 101.907 136.226 100.094 136.692 99.2316C137.571 97.8126 137.775 97.8483 138.476 99.2303C138.992 100.475 139.165 100.086 139.014 97.9611C138.893 96.2615 139.502 94.5854 140.375 93.7948C141.607 92.7525 141.661 92.4472 140.643 92.2685C139.727 92.1076 139.936 91.5149 141.39 90.4067C142.724 89.3823 143.19 88.5201 142.567 87.8862C141.118 86.5827 141.87 84.0925 143.6 84.3964C144.821 84.6109 145.096 84.2397 144.448 82.5525C143.92 80.7814 144.231 80.2067 145.577 79.7089C146.905 79.3129 147.425 78.1456 147.442 76.2604C147.387 74.7822 147.805 73.5969 148.313 73.6863C148.822 73.7757 149.013 73.2848 148.797 72.7224C148.498 72.0404 148.778 71.0407 149.412 70.4178C150.046 69.7949 150.93 67.7475 151.372 65.8321C151.813 63.9167 151.788 62.8634 151.376 63.4203C150.945 64.0789 150.126 64.5643 149.719 64.4928C149.21 64.4034 149.957 62.5416 151.487 60.398C153.346 57.5778 153.955 55.9016 153.476 54.4537C153.044 53.3289 153.294 51.9044 153.826 51.2636C155.249 49.7304 156.143 44.6428 155.024 44.4462C154.515 44.3568 154.58 42.7947 155.207 41.0168C156.145 38.6641 155.892 36.5218 154.465 32.7047C152.192 26.5362 148.578 20.2371 147.255 20.0047C146.747 19.9153 145.28 18.7135 143.968 17.2243C142.387 15.478 139.68 14.1634 135.359 13.0894C131.953 12.1763 128.9 11.64 128.559 11.7899ZM123.875 38.4491C128.313 41.851 128.653 49.4632 124.905 62.4408C123.275 68.1334 121.353 74.2991 120.54 75.9395C119.608 77.6638 118.897 79.3221 118.861 79.5256C118.039 84.2062 103.254 120 100.361 124.526C99.6553 125.556 98.4246 128.382 97.5885 130.752C96.8542 133.141 95.1931 136.625 94.0394 138.415C92.8857 140.206 92.0854 142.373 92.2655 143.139C92.4278 144.006 92.2188 144.599 91.71 144.51C91.2012 144.42 89.2349 147.851 87.2272 152.113C85.2375 156.274 82.0404 162.531 80.074 165.961C78.1077 169.392 76.5538 172.266 76.7216 172.505C76.8893 172.744 76.3751 173.283 75.5555 173.769C74.4967 174.422 73.9041 174.213 73.1671 173.034C72.4122 171.958 72.382 171.533 73.2977 171.694C74.2135 171.855 74.2671 171.549 73.548 170.269C72.8289 168.989 72.9004 168.582 73.9716 168.456C75.0606 168.227 75.1321 167.82 74.2452 166.301C73.1425 164.219 74.629 159.34 76.257 159.626C76.8676 159.734 77.0821 158.513 76.8951 156.592C76.7081 154.671 76.9227 153.45 77.5332 153.557C78.4489 153.718 78.8478 150.851 78.0324 148.925C77.8344 148.26 78.2153 145.495 78.9015 142.784C80.8171 135.463 81.3066 133.871 82.4727 132.607C83.0887 132.086 83.3692 131.086 83.0516 130.506C82.8357 129.944 83.1644 129.267 83.8464 128.967C84.4088 128.751 85.0606 128.027 85.15 127.518C85.2572 126.908 84.8681 126.734 84.2039 126.932C83.6416 127.148 83.1507 126.957 83.2401 126.448C83.3294 125.939 85.2614 124.496 87.445 123.411C89.7482 122.242 91.357 120.846 91.1411 120.284C90.1938 117.915 92.0916 102.934 95.0028 90.5434C95.4621 88.5262 95.6697 86.1501 95.4415 85.0611C95.2971 84.0917 95.5419 83.2956 96.0507 83.385C96.6612 83.4922 97.2112 82.7497 97.39 81.7322C97.5687 80.7146 98.0885 79.5473 98.6688 79.2296C99.1473 78.8941 99.7867 77.6428 100.103 76.4397C100.419 75.2365 101.429 72.4769 102.331 70.3277C104.188 65.7241 103.241 63.3549 99.3209 62.9808C93.9403 62.5599 93.5031 62.0635 94.1466 58.4004C94.5221 56.2636 95.2811 54.9285 96.0951 55.0715C96.9092 55.2145 96.9628 54.9093 96.0525 54.12C94.9745 53.0914 95.046 52.6844 96.1763 51.6243C97.0316 50.9354 98.1014 49.0255 98.6088 47.3314C99.218 45.6553 100.24 43.4222 101.149 42.4281C101.974 41.3143 102.338 40.4343 102.033 40.3807C101.728 40.327 102.601 39.5364 104.036 38.5299C109.659 34.5877 118.797 34.515 123.875 38.4491Z" fill="#FF8C73"/>
<path fillRule="evenodd" clipRule="evenodd" d="M75.3169 162.607C74.9222 163.063 75.0363 163.607 75.5451 163.696C76.1556 163.804 76.7538 163.384 76.8432 162.876C76.9504 162.265 76.8184 161.822 76.6149 161.787C76.3097 161.733 75.7294 162.051 75.3169 162.607Z" fill="#FF8C73"/>
<path fillRule="evenodd" clipRule="evenodd" d="M41.3339 286.808C40.5501 287.09 39.5986 287.133 39.2452 286.756C38.6045 286.224 29.7492 288.864 24.3768 291.381C19.2438 293.731 11.857 299.356 12.2708 300.583C12.5884 301.163 12.3134 301.534 11.7029 301.427C9.15911 300.98 5.08041 320.613 5.51336 331.283C5.98342 343.533 11.7433 354.93 18.6157 357.606C25.506 360.18 34.2045 356.044 40.3621 347.266C43.1123 343.553 44.6674 342.463 49.3165 341.077C53.5228 339.823 55.5207 338.601 56.7102 336.607C57.5228 334.966 58.9763 333.858 59.7903 334.001C60.7061 334.162 61.1365 333.503 61.0815 332.025C60.9908 330.751 61.4088 329.565 62.0908 329.266C63.6762 328.6 67.8044 311.074 66.6425 309.926C66.1874 309.531 65.7075 308.083 65.7543 306.623C65.6814 305.246 65.2855 303.918 64.7107 303.607C64.2377 303.315 63.8362 302.615 63.9434 302.004C64.0328 301.495 62.5946 298.935 60.7315 296.405C58.8683 293.875 57.3049 292.027 57.2692 292.23C57.2155 292.535 55.9821 291.794 54.515 290.592C51.3593 288.255 43.4817 285.927 41.3339 286.808ZM37.7737 303.49C38.1092 303.969 37.2002 304.963 35.8004 305.766C33.0847 307.491 31.3673 307.714 33.6402 306.12C34.7169 305.366 34.6028 304.821 33.4588 303.571C32.147 302.082 32.1649 301.98 34.6248 302.307C36.0494 302.558 37.522 303.131 37.7737 303.49ZM35.1747 309.327C38.3717 310.833 40.5386 319.395 38.674 322.844C36.379 326.951 33.4873 325.499 31.7411 319.318C30.9849 316.458 29.9357 314.071 29.427 313.981C28.1042 313.749 27.7729 310.859 28.7052 309.134C29.7035 307.632 31.5887 307.648 35.1747 309.327Z" fill="#FF8C73"/>
</svg>
