<svg width="59" height="52" viewBox="0 0 59 52" fill="none" xmlns="http://www.w3.org/2000/svg">
<g clip-path="url(#clip0_736_15320)">
<path d="M30.0562 44.5731C29.2004 43.8799 29.253 42.9816 29.5123 42.0462C29.8749 40.7417 30.3155 39.4466 30.6002 38.1216C32.3335 30.0899 27.6375 22.3061 19.9243 20.3643C9.82872 17.8299 0.581646 26.9946 2.63413 37.4936C3.99218 44.4277 9.95926 49.2747 17.007 49.1722C19.7388 49.1618 22.4075 48.3272 24.6821 46.772C24.9305 46.6024 25.1861 46.444 25.4835 46.2521L26.847 48.1156C21.7828 52.6327 12.1858 53.6502 5.10364 46.9975C-1.65034 40.6616 -1.67754 29.5178 4.26778 23.0291C11.2792 15.3757 22.0747 15.8192 28.564 22.5893C34.9064 29.2327 34.4985 39.5398 30.0562 44.5731Z" fill="white"/>
<path d="M30.0497 34.955C29.687 36.6322 29.3244 38.3 28.9418 39.9678C28.7968 40.6014 28.5991 41.222 28.4305 41.85C27.7796 44.2558 29.2954 46.3317 31.7268 46.3429C39.0375 46.3503 46.3505 46.3503 53.666 46.3429C56.101 46.3429 57.5497 44.1607 56.6069 41.8537C56.2243 40.9219 55.6786 40.048 55.1908 39.1572C52.0214 33.3803 48.7759 27.6445 45.7099 21.8117C44.5313 19.5755 41.1425 19.1469 39.8643 21.7484C39.4037 22.6801 38.7999 23.5522 38.3412 24.4914C38.0584 25.0691 37.7193 25.3226 37.0829 25.2536C36.5208 25.194 35.9478 25.2406 35.2697 25.2406C35.3315 25.0113 35.4096 24.7871 35.5036 24.5697C36.3014 23.1106 37.0901 21.6459 37.9206 20.2072C39.0375 18.2748 40.7726 17.3412 42.8995 17.3728C45.0753 17.4064 46.6799 18.4705 47.766 20.5054C50.3189 25.2853 52.977 30.0093 55.5879 34.7519C56.6268 36.6415 57.6839 38.5199 58.6811 40.4318C59.1491 41.2984 59.3869 42.2763 59.3706 43.2672C59.3544 44.2581 59.0846 45.2272 58.5885 46.077C58.0924 46.9269 57.3874 47.6275 56.5443 48.1086C55.7012 48.5897 54.7498 48.8342 53.7856 48.8176C46.4121 48.8263 39.0387 48.8344 31.6652 48.8418C27.1849 48.8418 24.467 44.2446 26.5992 40.197C27.5584 38.3783 28.6699 36.6452 29.7124 34.8749L30.0497 34.955Z" fill="white"/>
<path d="M43.4789 -0.04315V16.201L41.0765 16.3389V2.45581H15.4023V16.27L12.9727 16.5383V-0.046875L43.4789 -0.04315Z" fill="white"/>
<path d="M28.6035 28.7962H12.9288V26.8823C12.9288 25.3915 12.9687 23.9007 12.9125 22.4099C12.8835 21.6943 13.1246 21.3887 13.7937 21.3366C14.2941 21.2974 14.7891 21.2042 15.3639 21.126V26.2152C15.6249 26.2413 15.8244 26.2804 16.0256 26.2804C19.496 26.2935 22.9682 26.2804 26.4386 26.3382C26.8012 26.3382 27.2472 26.6457 27.4902 26.9476C27.9018 27.4526 28.1828 28.0787 28.6035 28.7962Z" fill="white"/>
<path d="M43.53 28.8079C40.2427 28.8079 37.1332 28.8079 34.0236 28.7911C33.9015 28.7796 33.7834 28.7401 33.678 28.6756C33.5726 28.6111 33.4825 28.5233 33.4144 28.4184C33.0916 27.7979 32.8451 27.1363 32.5078 26.3574H41.055C41.055 25.0902 41.055 23.9348 41.055 22.7627C41.055 21.5495 41.8111 20.8507 42.9951 21.011C43.1873 21.0371 43.4991 21.298 43.501 21.4545C43.539 23.8733 43.53 26.2903 43.53 28.8079Z" fill="white"/>
<path d="M33.8633 29.9424H35.1561C34.8895 30.5014 34.6448 31.0344 34.3982 31.5599L34.1933 31.5748L33.8633 29.9424Z" fill="white"/>
</g>
<defs>
<clipPath id="clip0_736_15320">
<rect width="58.999" height="51.6241" fill="white"/>
</clipPath>
</defs>
</svg>
