<svg width="199" height="232" viewBox="0 0 199 232" fill="none" xmlns="http://www.w3.org/2000/svg">
<g clip-path="url(#clip0_736_15370)">
<path d="M237.193 -2.9519C237.193 -2.9519 240.133 -3.62418 239.713 -1.15915C228.586 16.3202 215.989 32.679 205.071 50.3824C204.441 51.5029 202.972 51.7269 202.342 52.8474C200.242 56.657 196.043 65.8449 195.204 69.8785C193.944 76.3773 200.662 88.0301 202.552 94.977C205.701 106.63 207.801 124.109 198.563 133.073C196.043 135.538 187.016 142.037 184.076 139.572L169.17 95.8734L166.651 95.8734L106.395 125.006C103.036 127.695 104.296 130.384 103.036 133.521C98.627 145.174 91.0688 172.738 83.3007 181.029C79.3117 185.287 59.1566 192.01 61.0461 181.029C71.5436 156.603 76.7923 125.006 89.3892 101.924C91.0688 98.7866 109.754 82.876 107.235 79.7387C102.406 83.3242 96.3175 87.5819 91.9086 91.6156C76.3724 106.406 83.0907 123.885 59.5764 135.538C51.1785 139.796 45.2999 141.14 37.9517 134.193C31.0234 127.695 33.5428 125.678 39.2114 119.851C50.5486 108.199 65.455 98.3384 76.3724 86.9096C78.6818 84.4446 81.6211 81.7555 81.2012 77.7218C79.7316 75.9291 70.9137 86.4615 69.654 87.5819C62.3058 93.6325 49.9188 100.579 41.7308 92.512C39.8412 90.7192 36.9019 86.6856 39.8412 84.4446C46.3497 78.3941 53.068 72.7918 59.9964 67.1894C83.9306 47.4692 114.583 27.973 136.628 7.13231C142.716 1.52997 160.772 -27.3781 164.341 -28.7227C168.96 -30.5154 181.767 -23.1203 186.806 -21.5517C198.563 -17.2939 229.005 -9.89881 236.984 -2.9519L237.193 -2.9519Z" fill="white" fill-opacity="0.66"/>
</g>
<defs>
<clipPath id="clip0_736_15370">
<rect width="218.326" height="260.794" fill="white" transform="translate(214.836 231.399) rotate(-169.741)"/>
</clipPath>
</defs>
</svg>
