<svg width="60" height="56" viewBox="0 0 60 56" fill="none" xmlns="http://www.w3.org/2000/svg">
<g clip-path="url(#clip0_736_15312)">
<path d="M33.7097 28.531C33.6609 28.5017 33.6169 28.4675 33.573 28.4236C33.5291 28.3796 33.4949 28.3357 33.4656 28.2869L23.0212 17.8425L13.0847 27.7791L15.6677 29.5613L18.3289 28.9802C18.6169 28.9167 18.9294 29.0437 19.0906 29.3123L21.5222 33.3796L23.783 33.0623C24.0759 33.0037 24.3835 33.1355 24.5398 33.4089L26.0437 36.031C26.1218 36.114 26.1755 36.2117 26.2097 36.3191L26.8103 37.364L29.3542 36.9832C29.6423 36.9392 29.9353 37.0759 30.0818 37.3494L31.8591 40.616C31.9324 40.6501 32.0007 40.6941 32.0593 40.7576C32.2009 40.8992 32.2693 41.0847 32.2693 41.2703L34.906 40.8162C35.2039 40.7673 35.5115 40.9089 35.658 41.1873L37.7576 45.1912L40.4529 44.6541C40.7703 44.5906 41.0974 44.7517 41.239 45.0544L43.0994 49.0876L46.1267 48.5164C46.4197 48.4627 46.7322 48.5994 46.8835 48.8777L49.1296 52.9988L53.6511 48.4773L33.7097 28.531ZM39.3054 0.0935059L43.2605 4.04858C43.3826 4.17065 43.3826 4.37085 43.2605 4.49292L42.6404 5.11304L42.6599 5.13257C42.699 5.17163 42.738 5.22046 42.7673 5.2644L47.7527 12.2419C48.822 12.2029 49.8376 12.3933 50.7507 12.7693C52.0544 13.3064 53.1628 14.2097 53.9783 15.3425C54.7888 16.4705 55.3113 17.8181 55.4431 19.2537C55.5457 20.3572 55.4187 21.5046 55.0183 22.6375L59.8669 29.5125C60.0818 29.8201 60.0232 30.24 59.7351 30.4744L58.4265 31.5437C58.158 31.7634 57.7771 31.7537 57.5183 31.5437L50.7947 26.6169C49.4617 27.2566 47.9919 27.447 46.5808 27.2566L46.4929 27.2419L40.4871 33.2869L55.1746 47.9744C55.4529 48.2527 55.4529 48.7068 55.1746 48.9851L49.4763 54.6833C49.198 54.9617 48.7439 54.9617 48.4656 54.6833C48.4021 54.6199 48.3533 54.5418 48.3142 54.4636L45.8875 50.0154L42.821 50.5964C42.4939 50.6599 42.1765 50.4841 42.0447 50.196L40.1892 46.1677L37.5232 46.7C37.1912 46.7683 36.864 46.5877 36.7322 46.2898L34.6472 42.3152L31.9714 42.7742C31.7126 42.8181 31.4685 42.7205 31.3074 42.5349L19.4324 54.4832C17.9187 56.0066 16.1121 56.1531 14.613 55.5183C14.0369 55.2742 13.5144 54.9177 13.075 54.4783C12.6306 54.0388 12.2693 53.5164 12.0251 52.9451C11.3806 51.4412 11.5125 49.6199 13.0359 48.0867L24.6326 36.4168L23.5535 34.532L21.2634 34.8542C20.9607 34.8982 20.6775 34.7419 20.5359 34.488L18.1433 30.4792L15.6824 31.0164C15.4675 31.0652 15.2478 31.0066 15.0867 30.8796L12.0593 28.7898L11.6052 29.2439C11.3757 29.4734 11.073 29.5857 10.7751 29.5857C10.4773 29.5857 10.1746 29.4685 9.94507 29.239L2.33765 21.6462C2.29858 21.6218 2.25952 21.5876 2.22534 21.5535L0.20874 19.5369C-0.0695801 19.2585 -0.0695801 18.8044 0.20874 18.5261C0.487061 18.2478 0.941162 18.2478 1.21948 18.5261L2.72339 20.03L15.2136 7.5398L13.7097 6.03589C13.4314 5.75757 13.4314 5.30347 13.7097 5.02515C13.988 4.74683 14.4421 4.74683 14.7205 5.02515L16.6833 6.98804C16.698 7.00269 16.7175 7.01733 16.7322 7.03198L24.4421 14.7419C24.6716 14.9714 24.7839 15.2693 24.7839 15.572C24.7839 15.8699 24.6716 16.1677 24.4421 16.3972L24.0173 16.822L34.0906 26.8953L40.1062 20.8406C40.0574 20.3669 40.0476 19.8689 40.0916 19.3562L33.3533 14.615C33.3093 14.5857 33.2751 14.5515 33.241 14.5173L32.5232 15.2351C32.4011 15.3572 32.2009 15.3572 32.0789 15.2351L28.1238 11.28C28.0017 11.158 28.0017 10.9578 28.1238 10.8357L38.8611 0.0935059C38.9832 -0.0285645 39.1833 -0.0285645 39.3054 0.0935059ZM16.2292 8.55054L3.7439 21.031L10.7654 28.0525L23.2507 15.5671L16.2292 8.55054ZM39.4812 32.281L44.8718 26.8562C43.7976 26.4656 42.8552 25.8601 42.0984 25.1033C41.3611 24.366 40.7996 23.4822 40.4578 22.5105L35.1013 27.9011L39.4812 32.281ZM30.5798 41.241L29.0759 38.4724L26.5417 38.8484C26.2439 38.8923 25.9607 38.7458 25.8191 38.4968L25.365 37.7009L14.0466 49.0925C13.0066 50.1423 12.9041 51.3728 13.3386 52.3787C13.5144 52.7839 13.7683 53.155 14.0808 53.4675C14.3982 53.78 14.7693 54.0339 15.1697 54.2048C16.1707 54.6296 17.3914 54.5173 18.4265 53.4773L30.5798 41.241ZM42.0642 6.73901L34.8669 13.9363L41.2537 18.4285C41.4636 18.575 41.5857 18.8337 41.5515 19.1072C41.3562 20.5476 41.6296 21.8074 42.2058 22.8376C42.6746 23.6726 43.3435 24.3611 44.1296 24.8689C44.9207 25.3816 45.8337 25.7185 46.7761 25.8455C48.0359 26.0164 49.3542 25.8113 50.5164 25.157C50.7507 25.0251 51.0535 25.0349 51.2878 25.2058L57.9578 30.0935L58.324 29.7908L53.6414 23.1501C53.5046 22.9597 53.4705 22.7009 53.5632 22.4714C53.9832 21.446 54.1248 20.3914 54.0271 19.3855C53.9148 18.2136 53.49 17.1052 52.821 16.1775C52.157 15.2595 51.2585 14.5222 50.2087 14.0925C49.3884 13.7556 48.4753 13.6042 47.4988 13.6921C47.2449 13.7263 46.9812 13.6238 46.8201 13.3992L42.0642 6.73901Z" fill="white"/>
</g>
<defs>
<clipPath id="clip0_736_15312">
<rect width="60" height="55.8789" fill="white"/>
</clipPath>
</defs>
</svg>
