<svg width="66" height="63" viewBox="0 0 66 63" fill="none" xmlns="http://www.w3.org/2000/svg">
<path d="M12.7994 7.13769L12.6334 26.201C12.7552 26.1633 12.8727 26.1212 12.9869 26.0749C13.3523 25.9262 13.6745 25.73 13.9558 25.4897C14.6477 24.8959 14.9257 24.1803 15.2048 23.4604C16.4754 20.1885 18.495 19.1356 22.087 19.1626C23.4804 19.1615 24.8189 19.7154 25.6401 20.8966C26.2145 21.7232 26.4096 22.7351 26.4128 23.7266L26.4161 34.3764C26.5141 36.3022 26.2964 37.8067 25.6649 38.8337C24.9536 39.9901 23.8134 40.5332 22.1409 40.391H10.3509L9.66225 40.3856C7.32582 40.3705 5.10146 40.3565 3.32758 42.0409C2.36735 42.9516 1.94167 44.1446 1.76169 45.4432H49.4797V9.82007C49.4797 9.53879 49.4302 9.26075 49.3407 9.00102C49.247 8.72837 49.1036 8.46433 48.9237 8.22508C48.6995 7.92872 48.4204 7.67869 48.1057 7.50842C47.8212 7.35431 47.5065 7.26271 47.181 7.25839L38.6823 7.13446L12.7994 7.13769ZM10.2905 3.03815V4.32492H11.4361C11.8683 4.32492 12.2185 4.69349 12.2185 5.14827V5.4899C18.0014 5.4899 23.7768 5.47913 29.5521 5.48882V2.9778H31.7485V5.49421L33.4566 5.49852V1.54339H35.654V5.5093C37.7415 5.519 39.829 5.53301 41.9176 5.55349V2.26545H40.4131C40.2239 2.26218 40.0436 2.18472 39.9109 2.04977C39.7783 1.91481 39.704 1.73316 39.704 1.54393C39.704 1.35471 39.7783 1.17305 39.9109 1.0381C40.0436 0.903142 40.2239 0.825688 40.4131 0.822418C41.9812 -0.269284 43.5492 -0.278984 45.1162 0.822418C45.3054 0.825688 45.4857 0.903142 45.6184 1.0381C45.751 1.17305 45.8253 1.35471 45.8253 1.54393C45.8253 1.73316 45.751 1.91481 45.6184 2.04977C45.4857 2.18472 45.3054 2.26218 45.1162 2.26545H43.6128V5.57073C44.8079 5.58474 46.0042 5.59983 47.2004 5.61707C47.8104 5.62569 48.3805 5.78842 48.8849 6.06108C49.4151 6.34774 49.8753 6.75511 50.2374 7.23469C50.5143 7.60218 50.7385 8.0214 50.8915 8.46649C51.0446 8.90726 51.1275 9.36636 51.1275 9.82007V12.0143H52.9467C53.561 12.0143 54.1192 12.2654 54.5233 12.6684C54.9264 13.0715 55.1775 13.6308 55.1775 14.2451V28.102C55.1775 28.7152 54.9264 29.2746 54.5233 29.6776C54.1192 30.0818 53.561 30.3329 52.9467 30.3329H51.1275V50.3844C51.1275 51.2907 50.3796 52.0387 49.4733 52.0387H1.71535C0.806856 52.0387 0.0460054 51.2907 0.0460054 50.3682C0.0460054 49.8024 0.0352284 49.394 0.0255292 48.9834C-0.0466762 46.1103 -0.12427 43.0507 2.19492 40.8501C4.4473 38.7119 6.99281 38.727 9.66872 38.7442H22.1452L22.2228 38.7507C23.2336 38.8477 23.8921 38.574 24.2617 37.9715C24.709 37.2452 24.8566 36.0554 24.7747 34.4637L24.7683 34.3602V23.7266C24.7704 23.0757 24.667 22.3816 24.2887 21.8363C23.7811 21.1067 22.9308 20.8125 22.0773 20.8039C19.1891 20.7824 17.7503 21.4419 16.7362 24.0531C16.3817 24.967 16.0293 25.8766 15.0238 26.7377C14.6056 27.0965 14.1336 27.3843 13.6045 27.5998C13.1809 27.7733 12.7186 27.8994 12.2185 27.9781V30.9612C12.2185 31.4149 11.8683 31.7845 11.4361 31.7845H9.91335V36.5953H8.4714V31.7845H6.94862C6.51647 31.7845 6.16622 31.4149 6.16622 30.9612V28.0277H0.865051C0.646684 28.0277 0.43726 27.9409 0.28285 27.7865C0.128441 27.6321 0.0416946 27.4227 0.0416946 27.2043L0.0492384 9.82007C0.0492384 8.73591 0.496481 7.67007 1.21422 6.8909C1.92335 6.12035 2.89973 5.61384 3.98174 5.61384H6.16622V5.14827C6.16622 4.69349 6.51647 4.32492 6.94862 4.32492H8.09421V3.03815H10.2905ZM32.2765 31.5636H43.8811C44.1753 31.5636 44.4157 31.8039 44.4157 32.0981V36.3367C44.4157 36.6309 44.1753 36.8712 43.8811 36.8712H32.2765C31.9823 36.8712 31.742 36.6309 31.742 36.3367V32.0981C31.742 31.8039 31.9823 31.5636 32.2765 31.5636ZM51.1275 28.6851H52.9467C53.1062 28.6851 53.2517 28.6193 53.3584 28.5126C53.464 28.407 53.5297 28.2605 53.5297 28.102V14.2451C53.5297 14.0856 53.464 13.939 53.3584 13.8334C53.2493 13.724 53.1012 13.6623 52.9467 13.662H51.1275V28.6851ZM32.4651 40.322C32.0664 40.322 31.7442 39.9987 31.7442 39.601C31.7442 39.2023 32.0664 38.88 32.4651 38.88H43.7001C44.0988 38.88 44.4221 39.2023 44.4221 39.601C44.4221 39.9987 44.0988 40.322 43.7001 40.322H32.4651ZM6.16622 26.381V7.26163H3.98174C3.38793 7.26163 2.83615 7.55584 2.42447 8.00416C1.97184 8.49451 1.68949 9.15621 1.68949 9.82007L1.68625 26.381H6.16622ZM10.6537 5.97163H7.73103V6.1807C7.75797 6.26153 7.77198 6.34774 7.77198 6.43719C7.77198 6.52772 7.75797 6.61393 7.73103 6.69476V26.9468C7.75797 27.0287 7.77198 27.1149 7.77198 27.2043C7.77198 27.2938 7.75797 27.3811 7.73103 27.4619V30.1367H10.6537V5.97163ZM38.0831 15.0695C40.2741 15.0695 42.0501 16.8455 42.0501 19.0365C42.0501 21.2274 40.2741 23.0035 38.0831 23.0035C35.8922 23.0035 34.1162 21.2274 34.1162 19.0365C34.1162 16.8455 35.8922 15.0695 38.0831 15.0695ZM38.0831 10.3762C40.4735 10.3762 42.6396 11.3461 44.2066 12.913C45.7736 14.48 46.7435 16.6462 46.7435 19.0365C46.7435 21.4279 45.7736 23.593 44.2066 25.1599C42.6396 26.728 40.4735 27.6979 38.0831 27.6979C35.6917 27.6979 33.5267 26.728 31.9597 25.1599C30.3917 23.593 29.4228 21.4279 29.4228 19.0365C29.4228 16.6472 30.3917 14.4832 31.9597 12.9152L31.9619 12.913C33.5288 11.3461 35.6939 10.3762 38.0831 10.3762ZM43.2356 13.883C41.9176 12.565 40.0952 11.7491 38.0831 11.7491C36.0689 11.7491 34.2466 12.5649 32.9285 13.8819C31.6105 15.201 30.7958 17.0234 30.7958 19.0365C30.7958 21.0496 31.6116 22.872 32.9296 24.19C34.2476 25.508 36.07 26.3238 38.0831 26.3238C40.0952 26.3238 41.9176 25.508 43.2367 24.19C44.5547 22.872 45.3705 21.0496 45.3705 19.0365C45.3705 17.0244 44.5547 15.2021 43.2356 13.883ZM1.65069 46.8851C1.63129 47.5684 1.64853 48.2624 1.66578 48.9446L1.69272 50.3682L49.4797 50.3887V46.8851H1.65069Z" fill="white"/>
</svg>
