<svg width="179" height="213" viewBox="0 0 179 213" fill="none" xmlns="http://www.w3.org/2000/svg">
<path d="M137.046 89.3002C124.31 79.9924 110.326 68.0667 99.3376 55.8502C85.8525 40.725 75.1143 22.4003 60.8799 7.8568C59.1318 6.11158 55.8854 7.27507 56.8843 3.49377C68.1219 2.03942 80.1088 7.27505 89.5984 13.6742C96.0912 17.7463 100.836 23.8546 106.829 28.5085C130.304 46.5424 153.528 64.5763 179 78.538V82.6102C169.76 87.2641 162.019 92.4997 155.526 101.808C154.527 101.808 139.044 91.6271 136.797 89.8819L137.046 89.3002ZM112.074 81.1558C113.572 83.7737 115.82 105.007 115.82 109.661C115.82 145.438 99.8371 197.794 71.8678 215.828C63.8766 221.064 56.3848 223.1 47.145 221.064C46.6455 218.737 47.8941 218.446 48.893 217.283C52.3892 213.792 58.1329 210.593 61.3793 207.393C91.0967 178.306 102.334 126.531 96.5907 82.6102C95.342 73.8841 90.3475 63.9946 90.3475 54.6867C95.5918 60.2133 99.8371 67.1941 104.582 73.3024C106.33 75.6293 111.324 79.7015 112.074 80.865V81.1558Z" fill="white" fill-opacity="0.65"/>
<path d="M73.3704 182.088C65.8786 194.014 45.1514 216.12 32.9148 220.483C14.6848 227.173 -18.0293 210.593 -29.0172 193.141C-59.7335 144.566 -62.2307 76.5026 -29.0172 28.5092C-20.0271 15.4201 -3.0457 -0.286889 12.1876 0.00398049C42.1547 0.00398049 64.1305 10.1844 78.8643 42.18C98.8424 85.8104 99.3418 141.657 73.3704 182.088ZM43.4033 55.2692C29.9181 40.144 7.19304 44.507 -4.79379 59.6322C-27.2691 88.1374 -27.2691 147.184 0.70018 169.872C27.1711 191.396 46.6497 167.254 55.1404 138.167C61.883 114.897 61.1338 90.4643 51.3945 68.3583C49.3967 63.9952 46.4 58.4687 43.4033 54.9783V55.2692Z" fill="white" fill-opacity="0.65"/>
<path d="M4.9358 163.18C2.43854 165.798 -6.80131 150.673 -8.29966 148.055C-21.0357 122.168 -18.2887 77.374 3.68716 59.3401C5.18552 58.1766 15.674 52.0684 16.4232 52.0684C18.1713 52.3592 17.9215 53.5227 16.9226 55.2679C15.674 57.304 13.1767 59.3401 11.6784 61.9579C-6.30187 92.4992 -4.80351 129.149 4.9358 162.89V163.18Z" fill="white" fill-opacity="0.65"/>
</svg>
