<svg width="53" height="48" viewBox="0 0 53 48" fill="none" xmlns="http://www.w3.org/2000/svg">
<g clip-path="url(#clip0_736_15357)">
<path fill-rule="evenodd" clip-rule="evenodd" d="M11.2701 3.8002C10.5109 3.14535 9.62676 2.65136 8.67115 2.34815C7.71553 2.04493 6.70833 1.93879 5.7105 2.03616C11.7488 6.96168 4.59773 13.3235 0.62539 5.91792C-1.00495 9.57972 0.694399 12.9525 4.07585 14.6864C5.67168 15.5059 6.51273 15.9803 7.095 16.6402C7.42323 17.018 7.69358 17.4425 7.89723 17.8996L9.40249 21.4622H3.06659C2.93482 21.4628 2.80446 21.4894 2.68299 21.5405C2.56152 21.5915 2.45133 21.6661 2.35876 21.7599C2.26619 21.8537 2.19305 21.9648 2.14354 22.0869C2.09403 22.209 2.06913 22.3397 2.07027 22.4715V40.1119C2.07596 42.0342 2.84211 43.8762 4.20137 45.2354C5.56064 46.5947 7.40257 47.3608 9.32486 47.3665H41.7462C43.6685 47.3608 45.5104 46.5947 46.8697 45.2354C48.229 43.8762 48.9951 42.0342 49.0008 40.1119V22.4715C49.0008 22.2061 48.8954 21.9516 48.7077 21.7639C48.5201 21.5763 48.2656 21.4709 48.0002 21.4709H38.3389L43.9761 11.9821L39.9347 9.65304L32.8699 21.4709H28.3757V20.2373C28.3757 20.1826 28.3575 20.1295 28.3239 20.0864C28.1083 19.8276 27.9444 19.6551 27.8064 19.4782C27.4872 19.1073 27.3233 18.9218 27.3233 18.8011C27.3233 18.6803 27.4786 18.4776 27.7934 18.0894C27.9228 17.9298 28.0781 17.74 28.2592 17.5028C28.2953 17.4591 28.3151 17.4042 28.3153 17.3476V15.9803C28.3153 15.9174 28.2903 15.8571 28.2458 15.8126C28.2013 15.7681 28.141 15.7431 28.0781 15.7431H25.9863L26.0251 6.21552L27.2845 4.01154C27.4138 3.81252 27.4827 3.58034 27.4829 3.34302V1.18648C27.4739 0.863482 27.3371 0.557243 27.1027 0.334904C26.8682 0.112564 26.5551 -0.00773295 26.2321 0.000385802H23.2906C23.1303 0.00263546 22.972 0.0364398 22.8248 0.0998682C22.6775 0.163297 22.5443 0.255107 22.4325 0.370055C22.3208 0.485003 22.2328 0.620838 22.1735 0.769803C22.1143 0.918767 22.085 1.07794 22.0872 1.23824L22.1217 3.62768C22.1246 3.87383 22.2029 4.11319 22.346 4.31346L23.5235 5.99987L23.4847 15.7603H21.009C20.9774 15.7603 20.9462 15.7666 20.9172 15.7788C20.8881 15.791 20.8618 15.8089 20.8397 15.8313C20.8176 15.8538 20.8002 15.8805 20.7886 15.9098C20.7769 15.9391 20.7712 15.9704 20.7717 16.0019V17.3389C20.772 17.3964 20.7935 17.4517 20.8321 17.4942C21.0348 17.7185 21.2074 17.9255 21.3583 18.0635C21.7896 18.525 21.9967 18.7493 22.001 18.9261C22.0053 19.103 21.8241 19.2971 21.4877 19.7241C21.3195 19.9354 21.1125 20.1985 20.8666 20.5263C20.8307 20.5681 20.8122 20.6222 20.8149 20.6772V21.4795H15.1777L12.8055 15.9113C12.5626 15.3944 12.4011 14.843 12.3268 14.2767C12.2951 13.7345 12.3357 13.1906 12.4475 12.6593C13.0212 9.30368 14.1727 6.51312 11.2701 3.80883V3.8002ZM4.06722 27.5782H47.0125V23.4678H4.06722V27.5782ZM47.0125 29.5751H41.0302V32.935C41.0303 33.2946 40.8886 33.6398 40.6359 33.8957C40.3832 34.1517 40.0399 34.2977 39.6803 34.3022H34.8755C34.5132 34.3011 34.1661 34.1567 33.91 33.9005C33.6538 33.6444 33.5094 33.2973 33.5083 32.935V29.5751H18.0373V32.935C18.0361 33.2973 17.8917 33.6444 17.6355 33.9005C17.3794 34.1567 17.0323 34.3011 16.67 34.3022H11.8825C11.5195 34.3022 11.1713 34.1583 10.9142 33.902C10.6571 33.6458 10.5121 33.298 10.511 32.935V29.5751H4.06722V40.1119C4.07176 41.5054 4.62701 42.8405 5.61191 43.8262C6.5968 44.8119 7.93145 45.3682 9.32486 45.3739H41.7462C43.1411 45.3705 44.478 44.8151 45.4647 43.8292C46.4515 42.8433 47.0079 41.5069 47.0125 40.1119V29.5751ZM32.4731 8.1219C33.1589 7.61248 33.9344 7.23647 34.759 7.01344C35.3205 6.84357 35.9104 6.78848 36.4935 6.85147C37.0767 6.91445 37.6412 7.09422 38.1534 7.38005L46.9435 12.4479L46.413 13.3709L49.7556 15.3161L52.999 9.70911L49.6607 7.76391L49.0569 8.7818L40.3186 3.74413C39.8137 3.41658 39.2475 3.19493 38.6544 3.09262C38.0613 2.99032 37.4536 3.00947 36.8681 3.14893C35.0394 3.64062 33.5686 5.30546 32.4559 8.1219H32.4731Z" fill="white"/>
</g>
<defs>
<clipPath id="clip0_736_15357">
<rect width="52.999" height="47.3446" fill="white"/>
</clipPath>
</defs>
</svg>
