<svg width="55" height="55" viewBox="0 0 55 55" fill="none" xmlns="http://www.w3.org/2000/svg">
<path fillRule="evenodd" clipRule="evenodd" d="M35.7983 42.4587L37.2441 41.013C37.2888 40.9682 37.3604 40.9682 37.4052 41.013L37.7543 41.3621L40.3414 39.5136C40.1624 37.6158 42.1631 36.2417 43.9669 36.9802L46.6345 35.1003L47.0329 35.5882L45.0948 38.229C45.3947 38.7616 45.4663 39.3703 45.3544 39.9388L52.0011 46.5318C52.677 45.1666 53.0619 43.6314 53.0619 42.0067C53.0619 39.1958 51.9206 36.649 50.081 34.8049C48.2369 32.9608 45.6901 31.824 42.8792 31.824C40.0684 31.824 37.5216 32.9653 35.6775 34.8049C33.8334 36.649 32.6965 39.1958 32.6965 42.0067C32.6965 44.8175 33.8379 47.3643 35.6775 49.2084C37.5216 51.0525 40.0684 52.1894 42.8792 52.1894C45.6901 52.1894 48.2369 51.048 50.081 49.2084C50.1794 49.1099 50.2779 49.007 50.3764 48.904L43.3537 41.9395C43.112 41.9798 42.8524 41.9798 42.5793 41.944L40.8248 44.4371L41.3216 44.9339C41.3664 44.9787 41.3664 45.0503 41.3216 45.095L39.8759 46.5408C39.8311 46.5855 39.7595 46.5855 39.7148 46.5408L35.7939 42.6199C35.7536 42.5751 35.7536 42.5035 35.7983 42.4587ZM38.6047 10.6798L38.5913 10.72C35.6954 10.1785 31.5149 9.89647 27.1061 9.95018C22.6481 9.99941 17.935 10.3888 14.0499 11.1855L14.0454 11.1676C10.6571 -4.76662 43.0762 -2.48838 38.6047 10.6798ZM19.7612 27.9389C17.7917 29.3174 15.7373 29.8277 13.7321 30.1992L16.6012 38.3275H31.3224C30.9554 39.4867 30.754 40.7221 30.754 42.0022C30.754 45.3502 32.1102 48.3804 34.3034 50.5735C36.4966 52.7667 39.5268 54.1229 42.8748 54.1229C46.2227 54.1229 49.2529 52.7667 51.4461 50.5735C51.6296 50.39 51.8042 50.2065 51.9743 50.0096C53.9347 47.9865 55 44.7683 55 41.9977C55 38.6497 53.6438 35.6195 51.4506 33.4263C49.2574 31.2331 46.2272 29.8769 42.8792 29.8769C41.8408 29.8769 40.8337 30.0067 39.8714 30.2529C38.0945 30.0739 36.2504 29.9306 34.939 29.2503C34.3392 28.8788 33.8155 28.3596 33.3321 27.7016L33.2471 26.3589C33.7126 25.9784 34.1602 25.5308 34.5406 25.034C35.4045 23.9553 35.7357 22.8453 36.1475 21.4354C36.2325 21.1355 36.3131 20.8401 36.4115 20.5402C37.2262 20.4551 37.9378 19.5465 38.3675 18.4186C38.6003 17.7875 38.7838 17.0758 38.833 16.4447C38.9001 15.7823 38.833 15.1691 38.6003 14.7528C38.4167 14.4216 38.1348 14.2068 37.7543 14.171C37.7275 13.8397 37.8752 13.137 38.0766 12.3896C35.3328 11.8972 31.3493 11.6421 27.1106 11.6913C22.76 11.7405 18.1632 12.1165 14.399 12.8953L14.766 14.6544C14.4841 15.1199 14.4169 15.8494 14.502 16.6282C14.587 17.3891 14.8153 18.1859 15.151 18.8528C15.5806 19.6987 16.1938 20.294 16.91 20.294C16.9771 20.491 17.0577 20.7103 17.1248 20.9251C17.7067 22.6349 18.1364 23.9285 19.1793 25.1549C19.4792 25.5219 19.8104 25.8531 20.1595 26.1485L20.0745 27.6569C19.976 27.7509 19.8686 27.8449 19.7612 27.9389ZM32.1997 26.887C30.3288 28.1358 29.1874 28.8206 26.766 28.7624C24.4116 28.7266 23.1807 27.9299 21.2964 26.7393C21.1532 34.6035 32.3922 35.0735 32.1997 26.887ZM35.0061 21.1847C35.1046 20.8356 35.2209 20.473 35.3552 20.0389C35.4045 19.8554 35.588 19.7256 35.7715 19.7569C36.3175 19.8554 36.8681 19.0587 37.2485 18.0963C37.4634 17.5145 37.629 16.8878 37.6782 16.3239C37.7275 15.7912 37.6782 15.3302 37.5305 15.0482C37.3828 14.7752 36.971 14.9319 36.6667 14.6678C35.0956 18.8349 21.3993 20.7192 15.7955 14.9811C15.5986 15.2944 15.5627 15.8584 15.6299 16.4895C15.7149 17.1519 15.9119 17.8815 16.2118 18.4634C16.5609 19.1437 17.0085 19.6092 17.4561 19.4928C17.6396 19.4436 17.8365 19.5421 17.9036 19.7256C18.0379 20.0926 18.1185 20.3746 18.217 20.6521C21.1174 29.1832 32.1549 29.8501 35.0061 21.1847ZM12.5952 40.9011C13.2442 40.9011 13.7724 41.4293 13.7724 42.0783C13.7724 42.7273 13.2442 43.2554 12.5952 43.2554C11.9462 43.2554 11.4181 42.7273 11.4181 42.0783C11.4225 41.4293 11.9462 40.9011 12.5952 40.9011ZM10.4065 30.8124C6.70492 31.6539 3.45093 33.48 1.62476 41.5143L0 47.7313H8.80412V40.0373C8.80412 39.0928 9.57397 38.323 10.5184 38.323H12.349C12.2729 35.3465 10.7869 32.2223 10.4065 30.8124Z" fill="white"/>
</svg>
