<svg width="100" height="20" viewBox="0 0 100 20" fill="none" xmlns="http://www.w3.org/2000/svg">
<path d="M9.29138 16.4769C9.48708 16.4769 9.63172 16.4088 9.72532 16.2727C9.83593 16.1706 9.89123 16.06 9.89123 15.9408C9.89123 15.8728 9.86145 15.8132 9.80189 15.7622C9.76786 15.7366 9.72532 15.7239 9.67426 15.7239C9.63172 15.7154 9.58918 15.7026 9.54664 15.6856C9.35094 15.5239 9.17226 15.324 9.0106 15.0857C8.99358 15.0347 8.98507 14.9794 8.98507 14.9198V14.7922C8.98507 14.588 8.917 14.4774 8.78086 14.4603C8.71279 14.4603 8.65323 14.4816 8.60218 14.5242C8.47455 14.6518 8.35118 14.7879 8.23206 14.9326C7.92575 15.2899 7.7258 15.4686 7.6322 15.4686C7.53861 15.4856 7.45778 15.5282 7.38971 15.5962C7.2791 15.6728 7.19401 15.7111 7.13445 15.7111H7.05787C6.93875 15.7111 6.85792 15.7281 6.81538 15.7622C6.67073 15.9068 6.58565 16.0047 6.56012 16.0557C6.56012 16.1408 6.59841 16.2216 6.67499 16.2982C6.76007 16.3748 6.84091 16.4258 6.91748 16.4514C7.05362 16.4684 7.18976 16.4769 7.32589 16.4769L7.83641 16.4514L8.11719 16.4641H9.1127L9.29138 16.4769ZM11.0399 13.0054C11.108 12.9884 11.1675 12.9543 11.2186 12.9033C11.2781 12.8522 11.359 12.8054 11.4611 12.7629L11.6397 12.6735C11.9971 12.2907 12.3502 11.895 12.6991 11.4866C12.7501 11.393 12.7884 11.2994 12.8139 11.2058C12.8395 11.1122 12.8905 11.0101 12.9671 10.8995L13.0181 10.7591C13.0437 10.64 13.0905 10.5294 13.1585 10.4273L13.2606 10.2231C13.3032 10.0954 13.3585 9.97632 13.4266 9.86571C13.4521 9.78062 13.4648 9.69979 13.4648 9.62321C13.4648 9.53813 13.4733 9.46155 13.4904 9.39348C13.5159 9.32541 13.5457 9.25735 13.5797 9.18928C13.6393 9.07016 13.6733 8.95954 13.6818 8.85744C13.6903 8.75534 13.6946 8.5639 13.6946 8.28311V8.09167L13.7073 7.75983C13.7073 7.57264 13.6733 7.39822 13.6052 7.23656C13.5287 7.11743 13.4819 6.98555 13.4648 6.84091C13.4648 6.69626 13.4351 6.58139 13.3755 6.49631C13.3159 6.40271 13.2734 6.31337 13.2479 6.22829C13.2223 6.1432 13.1926 6.07088 13.1585 6.01132C13.1245 5.95176 13.082 5.8922 13.0309 5.83264C12.9203 5.73054 12.8395 5.60291 12.7884 5.44975C12.7459 5.2966 12.6821 5.17748 12.597 5.09239C12.5544 5.04985 12.5076 5.02858 12.4566 5.02858H12.431C12.363 5.18173 12.3289 5.34765 12.3289 5.52633L12.3545 5.93474C12.3545 6.18149 12.3162 6.36017 12.2396 6.47078C12.1886 6.55587 12.1545 6.64095 12.1375 6.72604C12.129 6.80262 12.1247 6.88345 12.1247 6.96853C12.1247 7.05362 12.1205 7.13871 12.112 7.22379C12.1035 7.30888 12.0737 7.38546 12.0226 7.45352C11.9375 7.57264 11.895 7.70878 11.895 7.86194C11.895 8.01509 11.8567 8.14272 11.7801 8.24482C11.7121 8.33842 11.678 8.43201 11.678 8.52561V8.58942C11.678 8.74258 11.6397 8.87446 11.5632 8.98507C11.4866 9.09568 11.4483 9.26585 11.4483 9.49559V9.58493C11.4483 9.67001 11.4355 9.74659 11.41 9.81466C11.393 9.88273 11.3675 9.94654 11.3334 10.0061C11.2994 10.0572 11.2739 10.1167 11.2569 10.1848C11.2398 10.2443 11.2271 10.3124 11.2186 10.389C11.2186 10.4571 11.2058 10.5209 11.1803 10.5804C11.1633 10.64 11.142 10.6953 11.1165 10.7463C11.0484 10.8485 11.0101 10.9591 11.0016 11.0782C11.0016 11.3079 10.9931 11.4738 10.9761 11.5759C10.9676 11.627 10.942 11.6908 10.8995 11.7674C10.8229 11.878 10.7846 11.9716 10.7846 12.0482C10.7846 12.1247 10.7804 12.2098 10.7719 12.3034V12.4693L10.7846 12.7756C10.8102 12.9203 10.8952 12.9969 11.0399 13.0054ZM6.5346 12.7374C6.7388 12.7374 6.89196 12.6863 6.99406 12.5842C7.07915 12.5161 7.17699 12.4821 7.28761 12.4821C7.33866 12.4736 7.38971 12.4651 7.44076 12.4566C7.49181 12.4481 7.53861 12.4268 7.58115 12.3928C8.1257 11.8312 8.64473 11.2484 9.13822 10.6442C9.18077 10.5592 9.20204 10.4656 9.20204 10.3635C9.20204 10.2528 9.22331 10.1593 9.26585 10.0827C9.33392 9.97207 9.38923 9.85295 9.43177 9.72532C9.48282 9.59769 9.54238 9.47857 9.61045 9.36796C9.64448 9.2148 9.6615 9.06165 9.6615 8.90849V8.44903C9.6615 8.25333 9.6062 8.07465 9.49558 7.91299C9.47006 7.86194 9.44879 7.81514 9.43177 7.7726C9.42326 7.72154 9.4105 7.67475 9.39348 7.6322C9.37646 7.58966 9.34668 7.55563 9.30414 7.5301C9.12546 7.47054 8.98081 7.37269 8.8702 7.23656C8.80213 7.15998 8.72556 7.09191 8.64047 7.03235C8.52135 6.99831 8.39372 6.9813 8.25758 6.9813L8.09167 6.99406H7.74707C7.63646 6.99406 7.51308 7.04086 7.37695 7.13445C7.30037 7.1855 7.15147 7.27059 6.93024 7.38971C6.76007 7.4833 6.6367 7.54712 6.56012 7.58115C6.10917 8.06614 5.87518 8.33842 5.85816 8.39798C5.84965 8.48306 5.81987 8.5639 5.76882 8.64047C5.72628 8.70854 5.67948 8.77661 5.62843 8.84468C5.53484 8.93827 5.46251 9.04463 5.41146 9.16375C5.38594 9.26585 5.34765 9.35945 5.2966 9.44453C5.21151 9.57216 5.16897 9.7083 5.16897 9.85295L5.1562 10.0316L5.14344 10.0572C5.14344 10.0997 5.11792 10.1635 5.06686 10.2486C4.97327 10.4783 4.92647 10.7166 4.92647 10.9633C4.92647 11.0739 4.93498 11.1845 4.952 11.2952C4.96051 11.3717 4.96476 11.4526 4.96476 11.5376C5.02432 11.6993 5.12217 11.8397 5.25831 11.9588C5.31787 12.0099 5.37317 12.0694 5.42422 12.1375C5.54335 12.3077 5.70075 12.4268 5.89645 12.4949C5.93049 12.5119 5.96877 12.5332 6.01132 12.5587C6.05386 12.5842 6.08789 12.6055 6.11342 12.6225C6.13895 12.6395 6.15596 12.6523 6.16447 12.6608C6.27508 12.7118 6.39846 12.7374 6.5346 12.7374ZM3.25453 13.9115C3.29708 13.9115 3.32686 13.8647 3.34388 13.7712C3.33537 13.669 3.30133 13.5755 3.24177 13.4904C3.19072 13.3968 3.16094 13.2947 3.15243 13.1841V12.8012L3.16519 12.6225C3.16519 12.4098 3.12691 12.2141 3.05033 12.0354C2.97375 11.9078 2.93546 11.7674 2.93546 11.6142C2.93546 11.4866 2.96524 11.3717 3.0248 11.2696C3.08436 11.1675 3.1184 11.0527 3.12691 10.925C3.14392 10.7889 3.15243 10.6485 3.15243 10.5039L3.13967 10.0699C3.13967 9.62747 3.14818 9.27436 3.16519 9.0106C3.18221 8.917 3.21625 8.82766 3.2673 8.74258C3.31835 8.64898 3.35238 8.52561 3.3694 8.37245C3.41194 8.15974 3.4715 7.99382 3.54808 7.8747C3.57361 7.79812 3.58637 7.72154 3.58637 7.64497C3.59488 7.55988 3.6119 7.47905 3.63742 7.40247C3.69698 7.27484 3.75229 7.14296 3.80334 7.00682L4.13517 6.27934C4.27982 6.11768 4.43297 5.939 4.59464 5.7433C4.99454 5.26682 5.37743 4.86691 5.7433 4.54359C5.92198 4.4585 6.08364 4.36916 6.22829 4.27557C6.38144 4.18197 6.52609 4.09689 6.66222 4.02031C6.71328 4.00329 6.77284 3.99053 6.84091 3.98202C6.97704 3.965 7.09616 3.92246 7.19827 3.85439C7.26633 3.81185 7.33866 3.77781 7.41523 3.75229C7.63646 3.73527 7.85768 3.72676 8.0789 3.72676C8.30013 3.72676 8.52135 3.73527 8.74257 3.75229C8.92976 3.82036 9.10844 3.9097 9.27862 4.02031C9.38072 4.08838 9.48282 4.14794 9.58492 4.19899L9.78913 4.30109C9.82316 4.31811 9.86571 4.35214 9.91676 4.40319C10.0104 4.5053 10.0699 4.61166 10.0954 4.72227C10.1295 4.83288 10.189 4.94349 10.2741 5.0541C10.3677 5.15621 10.4571 5.20726 10.5421 5.20726C10.6528 5.20726 10.7208 5.15195 10.7463 5.04134C10.7634 4.98178 10.7719 4.92222 10.7719 4.86266C10.7804 4.79459 10.7889 4.73503 10.7974 4.68398C10.9335 4.46276 11.0016 4.22877 11.0016 3.98202C11.0016 3.8629 10.9846 3.74378 10.9506 3.62466C10.8995 3.54808 10.7719 3.463 10.5677 3.3694C10.4911 3.33537 10.4273 3.30559 10.3762 3.28006C10.3252 3.25454 10.2741 3.23752 10.2231 3.22901C10.0954 3.2205 9.98483 3.18221 9.89123 3.11414L9.87847 3.10138C9.76786 3.0248 9.61896 2.98651 9.43177 2.98651C9.25309 2.98651 9.11695 2.98226 9.02336 2.97375C8.93827 2.96524 8.86169 2.93546 8.79363 2.88441C8.70003 2.80783 8.60218 2.76529 8.50008 2.75678C8.40649 2.73977 8.27886 2.73126 8.11719 2.73126H7.8747C7.73856 2.73126 7.58541 2.7738 7.41523 2.85889C7.32164 2.90994 7.2323 2.94823 7.14721 2.97375C7.05362 2.98226 6.91748 2.98651 6.7388 2.98651C6.56012 2.98651 6.40697 3.02906 6.27934 3.11414C6.15171 3.19072 6.00706 3.23326 5.8454 3.24177C5.46251 3.42896 5.08814 3.63317 4.72227 3.85439C4.64569 3.93097 4.56911 4.0118 4.49253 4.09689C4.42447 4.18197 4.35214 4.25855 4.27557 4.32662C4.2075 4.39469 4.13092 4.44574 4.04583 4.47977C3.96926 4.51381 3.90119 4.5606 3.84163 4.62016C3.78207 4.67122 3.72676 4.72227 3.67571 4.77332C3.44598 4.97752 3.27155 5.21576 3.15243 5.48804C3.07585 5.68374 2.96099 5.85391 2.80783 5.99856C2.72275 6.08364 2.64192 6.18149 2.56534 6.2921L2.1314 7.26208C2.07184 7.37269 2.03355 7.49607 2.01654 7.6322C2.00803 7.75983 1.97399 7.87895 1.91443 7.98957C1.83786 8.13421 1.79957 8.30864 1.79957 8.51284C1.79957 8.71705 1.76128 8.89998 1.6847 9.06165C1.61663 9.2148 1.5826 9.32116 1.5826 9.38072V9.8019C1.5826 10.0912 1.60387 10.2996 1.64641 10.4273C1.70597 10.5294 1.74426 10.6315 1.76128 10.7336C1.7868 10.8272 1.79957 10.9293 1.79957 11.0399L1.82509 11.2952L1.95272 11.5887C2.46324 12.8054 2.81209 13.5159 2.99928 13.7201C3.09287 13.8477 3.17796 13.9115 3.25453 13.9115ZM8.19377 19.4634L7.44076 19.4506C7.35567 19.4251 7.27059 19.3826 7.1855 19.323C7.10042 19.2634 6.99831 19.2294 6.87919 19.2209C6.76858 19.2124 6.65372 19.2081 6.5346 19.2081H6.3942C6.17298 19.2081 5.98579 19.1656 5.83264 19.0805C5.72203 19.0039 5.61992 18.9656 5.52633 18.9656C5.44124 18.9571 5.36467 18.9401 5.2966 18.9146L4.83713 18.6466C4.19048 18.2977 3.83737 18.0935 3.77781 18.034C3.64168 17.8723 3.48001 17.7574 3.29282 17.6894L3.24177 17.6638C2.5781 16.9917 1.9825 16.3322 1.45497 15.6856C0.808316 14.2987 0.48499 13.5669 0.48499 13.4904C0.459464 13.2691 0.391395 13.0564 0.280783 12.8522L0.204206 12.4438C0.187189 12.3672 0.157409 12.2949 0.114866 12.2268C0.0467972 12.1162 0.00850859 11.9929 0 11.8567V8.4235C0 8.30438 0.0255258 8.18526 0.0765773 8.06614C0.110612 7.98957 0.131883 7.91724 0.140392 7.84917C0.131883 7.79812 0.110612 7.74282 0.0765773 7.68326C0.0510515 7.6237 0.0382886 7.55988 0.0382886 7.49181C0.0382886 7.40673 0.0680687 7.31739 0.127629 7.22379L0.204206 7.04511C0.221223 6.94301 0.229732 6.84091 0.229732 6.7388V6.68775C0.229732 6.54311 0.263766 6.40697 0.331835 6.27934C0.399904 6.15171 0.438192 6.01557 0.446701 5.87093L0.48499 5.66672L0.880639 4.79884L1.22524 4.02031C1.30181 3.92671 1.37839 3.83737 1.45497 3.75229C1.54005 3.6672 1.61238 3.58212 1.67194 3.49703C1.7315 3.41194 1.77404 3.32686 1.79957 3.24177C1.8336 3.14818 1.8804 3.05884 1.93996 2.97375C2.06759 2.8206 2.20372 2.66744 2.34837 2.51429C2.45047 2.41218 2.54407 2.31434 2.62915 2.22074C2.72275 2.11864 2.81209 2.05057 2.89717 2.01654C2.99077 1.97399 3.0716 1.92294 3.13967 1.86338C3.21625 1.79531 3.29282 1.71448 3.3694 1.62089C3.44598 1.52729 3.53106 1.44221 3.62466 1.36563L3.95649 1.17419C4.33938 0.952962 4.72652 0.740247 5.11792 0.536041C5.16897 0.519024 5.22427 0.510515 5.28383 0.510515C5.3519 0.502007 5.41146 0.489244 5.46251 0.472227C5.52207 0.446701 5.57738 0.416921 5.62843 0.382887C5.67948 0.340344 5.7433 0.310564 5.81987 0.293546C5.89645 0.268021 5.97728 0.255258 6.06237 0.255258H6.11342C6.24105 0.255258 6.35166 0.229732 6.44526 0.17868C6.4878 0.136137 6.58139 0.0850859 6.72604 0.0255258C7.16849 0.00850859 7.61519 0 8.06614 0C8.50859 0 8.95529 0.00850859 9.40624 0.0255258C9.49133 0.0510515 9.57216 0.0893402 9.64874 0.140392C9.75935 0.216969 9.904 0.255258 10.0827 0.255258C10.1763 0.255258 10.2656 0.272275 10.3507 0.306309L10.8357 0.536041C10.9123 0.578584 10.9888 0.625381 11.0654 0.676433C11.1505 0.718976 11.2356 0.744502 11.3207 0.75301C11.4143 0.761519 11.4994 0.787045 11.5759 0.829587C11.6525 0.87213 11.7206 0.927436 11.7801 0.995505C11.8397 1.06357 11.8993 1.11888 11.9588 1.16142C12.2396 1.31458 12.5161 1.47199 12.7884 1.63365C13.2223 2.0846 13.6393 2.55258 14.0392 3.03757C14.1583 3.30984 14.3157 3.56935 14.5114 3.8161L14.7156 4.27557C14.8943 4.6074 15.0134 4.952 15.073 5.30936C15.09 5.36892 15.1155 5.42848 15.1495 5.48804C15.2261 5.61567 15.2644 5.75606 15.2644 5.90922V8.62771C15.2644 9.24033 15.2602 9.84869 15.2516 10.4528C15.2346 10.5549 15.2006 10.6442 15.1495 10.7208C15.0815 10.8485 15.0474 10.9803 15.0474 11.1165C15.0389 11.1845 15.0262 11.2484 15.0091 11.3079C14.9921 11.359 14.9666 11.4143 14.9326 11.4738C14.6688 12.0354 14.4135 12.6097 14.1668 13.1968L14.154 13.3245C14.154 13.4266 14.1668 13.5116 14.1923 13.5797C14.2434 13.6478 14.3029 13.6988 14.371 13.7329C14.4816 13.8009 14.5412 13.8605 14.5497 13.9115C14.5752 14.1413 14.5922 14.3965 14.6007 14.6773C14.6007 14.9581 14.5837 15.2006 14.5497 15.4048C14.5071 15.5154 14.4689 15.6303 14.4348 15.7494C14.3923 15.9026 14.337 16.0429 14.2689 16.1706C13.6733 16.9193 13.2564 17.3533 13.0181 17.4724C12.8905 17.5234 12.7416 17.6426 12.5714 17.8297C12.4778 17.9404 12.38 18.0425 12.2779 18.1361C12.1162 18.2211 11.9503 18.3147 11.7801 18.4168C11.61 18.5104 11.4483 18.5955 11.2952 18.6721C11.2356 18.6976 11.1718 18.7146 11.1037 18.7232C11.0441 18.7232 10.9846 18.7359 10.925 18.7614C10.874 18.7785 10.8229 18.804 10.7719 18.838C10.6783 18.9061 10.5677 18.9486 10.44 18.9656C10.355 18.9656 10.2741 18.9869 10.1975 19.0295C10.0529 19.1486 9.86996 19.2081 9.64874 19.2081L9.38072 19.2464C9.32116 19.2634 9.26585 19.2932 9.2148 19.3358C9.12971 19.3953 9.03612 19.4336 8.93402 19.4506L8.19377 19.4634Z" fill="white"/>
<path d="M23.1284 19.4172C21.4555 19.4172 20.0789 19.1297 18.9985 18.5547C17.9181 17.9796 17.0991 17.239 16.5415 16.3329L18.1098 14.8953C18.5106 15.7492 19.1466 16.42 20.0179 16.908C20.8892 17.3785 21.9609 17.6137 23.2329 17.6137C24.0345 17.6137 24.7141 17.5353 25.2717 17.3785C25.8468 17.2042 26.2824 16.9602 26.5787 16.6466C26.8923 16.3155 27.0491 15.906 27.0491 15.4181C27.0491 15.0173 26.9359 14.6775 26.7093 14.3987C26.5002 14.1199 26.204 13.8846 25.8206 13.6929C25.4547 13.5013 25.0278 13.3619 24.5399 13.2747L21.351 12.6213C20.6017 12.4644 19.9046 12.2466 19.2599 11.9678C18.6152 11.689 18.0924 11.2969 17.6916 10.7916C17.3082 10.2688 17.1166 9.58921 17.1166 8.75279C17.1166 7.95121 17.3518 7.21933 17.8223 6.55716C18.2928 5.89499 18.9637 5.36351 19.8349 4.96272C20.7237 4.56193 21.7779 4.36154 22.9977 4.36154C23.9561 4.36154 24.81 4.4748 25.5593 4.70134C26.3086 4.91044 26.9707 5.24153 27.5458 5.69459C28.1208 6.14766 28.6174 6.71399 29.0357 7.39359L27.4674 8.80506C27.1537 8.17774 26.7878 7.6724 26.3695 7.28904C25.9688 6.88825 25.4896 6.60072 24.9319 6.42647C24.3917 6.25221 23.7383 6.16509 22.9716 6.16509C21.7866 6.16509 20.8631 6.40904 20.2009 6.89696C19.5387 7.38488 19.2076 7.95992 19.2076 8.62209C19.2076 9.04031 19.3122 9.38011 19.5213 9.64149C19.7478 9.90287 20.0528 10.1207 20.4361 10.2949C20.8369 10.4518 21.2813 10.5825 21.7692 10.687L25.1672 11.3928C25.8816 11.5322 26.5351 11.75 27.1276 12.0462C27.7375 12.3425 28.2254 12.7432 28.5913 13.2486C28.9572 13.7365 29.1402 14.3725 29.1402 15.1567C29.1402 16.028 28.8875 16.786 28.3822 17.4307C27.8769 18.0755 27.1711 18.5721 26.265 18.9206C25.3763 19.2517 24.3308 19.4172 23.1284 19.4172Z" fill="white"/>
<path d="M30.8747 19.2081L36.8082 4.57064H39.2913L45.2247 19.2081H43.0029L41.4346 15.209H34.6648L33.0965 19.2081H30.8747ZM35.3705 13.4054H40.7289L38.0628 6.40033L35.3705 13.4054Z" fill="white"/>
<path d="M52.113 5.38093V19.2081H50.0219V5.38093H52.113ZM57.4714 4.57064V6.37419H44.6374V4.57064H57.4714Z" fill="white"/>
<path d="M66.5095 5.38093V19.2081H64.4185V5.38093H66.5095ZM71.8679 4.57064V6.37419H59.0339V4.57064H71.8679Z" fill="white"/>
<path d="M78.4752 13.5884L72.9861 4.57064H75.3647L78.2138 9.48466L79.5207 11.811L80.8538 9.48466L83.7029 4.57064H86.0553L80.5663 13.5884V19.2081H78.4752V13.5884Z" fill="white"/>
<path d="M85.168 19.2081L91.1015 4.57064H93.5846L99.518 19.2081H97.2963L95.728 15.209H88.9581L87.3898 19.2081H85.168ZM89.6638 13.4054H95.0222L92.3561 6.40033L89.6638 13.4054Z" fill="white"/>
</svg>
