<svg width="31" height="31" viewBox="0 0 31 31" fill="none" xmlns="http://www.w3.org/2000/svg">
<path d="M27.5953 26.1676H24.2648V4.75742C24.2648 4.37887 24.1145 4.01582 23.8468 3.74814C23.5791 3.48046 23.2161 3.33008 22.8375 3.33008H7.6125C7.23394 3.33008 6.87089 3.48046 6.60322 3.74814C6.33554 4.01582 6.18516 4.37887 6.18516 4.75742V26.1676H2.85469C2.7285 26.1676 2.60749 26.2177 2.51826 26.3069C2.42903 26.3962 2.37891 26.5172 2.37891 26.6434C2.37891 26.7695 2.42903 26.8906 2.51826 26.9798C2.60749 27.069 2.7285 27.1191 2.85469 27.1191H27.5953C27.7215 27.1191 27.8425 27.069 27.9317 26.9798C28.021 26.8906 28.0711 26.7695 28.0711 26.6434C28.0711 26.5172 28.021 26.3962 27.9317 26.3069C27.8425 26.2177 27.7215 26.1676 27.5953 26.1676ZM23.3133 4.75742V26.1676H20.4586V4.28164H22.8375C22.9637 4.28164 23.0847 4.33177 23.1739 4.42099C23.2632 4.51022 23.3133 4.63124 23.3133 4.75742ZM7.13672 4.75742C7.13672 4.63124 7.18685 4.51022 7.27607 4.42099C7.3653 4.33177 7.48632 4.28164 7.6125 4.28164H19.507V26.1676H7.13672V4.75742ZM16.6523 15.7004C16.6523 15.8886 16.5965 16.0726 16.492 16.2291C16.3874 16.3855 16.2388 16.5075 16.0649 16.5795C15.8911 16.6515 15.6997 16.6704 15.5151 16.6337C15.3306 16.597 15.161 16.5063 15.0279 16.3732C14.8948 16.2402 14.8042 16.0706 14.7675 15.886C14.7308 15.7014 14.7496 15.5101 14.8217 15.3362C14.8937 15.1624 15.0156 15.0138 15.1721 14.9092C15.3286 14.8046 15.5126 14.7488 15.7008 14.7488C15.9532 14.7488 16.1952 14.8491 16.3736 15.0275C16.5521 15.206 16.6523 15.448 16.6523 15.7004Z" fill="white"/>
</svg>
