<svg width="152" height="124" viewBox="0 0 152 124" fill="none" xmlns="http://www.w3.org/2000/svg">
<path d="M36.4496 46.0994L13.848 3L63.6172 32.2196L78.861 9.19052L101.116 39.3312L149 47.8325L112.685 61.0176L128.63 96.2325L84.121 86.3417L70.8014 124L59.5874 88.2543L20.8509 106.295L36.6231 76.8022L0 57.5515L36.4496 46.0994Z" fill="#EC512F"/>
<path d="M39.4496 43.0994L16.848 0L66.6172 29.2196L81.861 6.19052L104.116 36.3312L152 44.8325L115.685 58.0176L131.63 93.2325L87.121 83.3417L73.8014 121L62.5874 85.2543L23.8509 103.295L39.6231 73.8022L3 54.5515L39.4496 43.0994Z" fill="black"/>
</svg>
