<svg width="31" height="31" viewBox="0 0 31 31" fill="none" xmlns="http://www.w3.org/2000/svg">
<path d="M27.1177 16.2138C26.9236 18.474 26.088 20.6318 24.7092 22.4332C23.3304 24.2346 21.4657 25.6047 19.3346 26.3823C17.2035 27.1599 14.8946 27.3126 12.6797 26.8225C10.4647 26.3324 8.43586 25.2198 6.83177 23.6157C5.22768 22.0116 4.11512 19.9827 3.62501 17.7678C3.1349 15.5528 3.28762 13.244 4.06521 11.1129C4.8428 8.98178 6.21289 7.11712 8.01429 5.73829C9.81569 4.35946 11.9734 3.52384 14.2337 3.32974C14.2961 3.32459 14.359 3.33179 14.4187 3.35093C14.4784 3.37008 14.5337 3.4008 14.5815 3.44133C14.6294 3.48186 14.6687 3.53141 14.6974 3.58716C14.7261 3.64291 14.7435 3.70375 14.7486 3.76623C14.7538 3.8287 14.7466 3.89158 14.7274 3.95127C14.7083 4.01096 14.6776 4.0663 14.637 4.11412C14.5965 4.16194 14.547 4.20131 14.4912 4.22998C14.4355 4.25865 14.3746 4.27606 14.3121 4.28121C12.2325 4.45968 10.247 5.22846 8.58944 6.49709C6.93187 7.76572 5.67114 9.4814 4.9556 11.4423C4.24006 13.4031 4.09949 15.5276 4.55043 17.5656C5.00137 19.6037 6.02505 21.4705 7.50101 22.9465C8.97698 24.4224 10.8438 25.4461 12.8819 25.897C14.9199 26.348 17.0444 26.2074 19.0052 25.4919C20.9661 24.7763 22.6818 23.5156 23.9504 21.858C25.219 20.2005 25.9878 18.215 26.1663 16.1353C26.1714 16.0729 26.1888 16.012 26.2175 15.9563C26.2462 15.9005 26.2855 15.851 26.3334 15.8104C26.3812 15.7699 26.4365 15.7392 26.4962 15.72C26.5559 15.7009 26.6188 15.6937 26.6812 15.6988C26.7437 15.704 26.8046 15.7214 26.8603 15.7501C26.9161 15.7787 26.9656 15.8181 27.0061 15.8659C27.0467 15.9138 27.0774 15.9691 27.0965 16.0288C27.1157 16.0885 27.1229 16.1513 27.1177 16.2138ZM15.2244 15.6988H21.8847C22.0108 15.6988 22.1318 15.6487 22.221 15.5595C22.3103 15.4703 22.3604 15.3493 22.3604 15.2231C22.3604 15.0969 22.3103 14.9759 22.221 14.8867C22.1318 14.7975 22.0108 14.7474 21.8847 14.7474H15.7001V8.56282C15.7001 8.43665 15.65 8.31564 15.5608 8.22643C15.4715 8.13721 15.3505 8.08709 15.2244 8.08709C15.0982 8.08709 14.9772 8.13721 14.888 8.22643C14.7988 8.31564 14.7486 8.43665 14.7486 8.56282V15.2231C14.7486 15.3493 14.7988 15.4703 14.888 15.5595C14.9772 15.6487 15.0982 15.6988 15.2244 15.6988ZM19.0302 5.23268C19.2184 5.23268 19.4024 5.17688 19.5589 5.07233C19.7153 4.96778 19.8373 4.81918 19.9093 4.64532C19.9813 4.47146 20.0001 4.28015 19.9634 4.09559C19.9267 3.91102 19.8361 3.74149 19.703 3.60842C19.57 3.47535 19.4004 3.38474 19.2159 3.34802C19.0313 3.31131 18.84 3.33015 18.6661 3.40217C18.4923 3.47418 18.3437 3.59613 18.2391 3.7526C18.1346 3.90907 18.0788 4.09303 18.0788 4.28121C18.0788 4.53356 18.179 4.77557 18.3575 4.954C18.5359 5.13244 18.7779 5.23268 19.0302 5.23268ZM23.3119 8.08709C23.5 8.08709 23.684 8.03128 23.8405 7.92673C23.9969 7.82219 24.1189 7.67359 24.1909 7.49973C24.2629 7.32587 24.2818 7.13456 24.245 6.95C24.2083 6.76543 24.1177 6.59589 23.9846 6.46283C23.8516 6.32976 23.682 6.23914 23.4975 6.20243C23.3129 6.16572 23.1216 6.18456 22.9477 6.25657C22.7739 6.32859 22.6253 6.45054 22.5207 6.60701C22.4162 6.76348 22.3604 6.94743 22.3604 7.13562C22.3604 7.38796 22.4606 7.62997 22.6391 7.80841C22.8175 7.98684 23.0595 8.08709 23.3119 8.08709ZM26.1663 12.3687C26.3544 12.3687 26.5384 12.3129 26.6949 12.2083C26.8513 12.1038 26.9733 11.9552 27.0453 11.7813C27.1173 11.6075 27.1362 11.4162 27.0994 11.2316C27.0627 11.047 26.9721 10.8775 26.8391 10.7444C26.706 10.6114 26.5365 10.5208 26.3519 10.484C26.1673 10.4473 25.976 10.4662 25.8022 10.5382C25.6283 10.6102 25.4797 10.7322 25.3751 10.8886C25.2706 11.0451 25.2148 11.229 25.2148 11.4172C25.2148 11.6696 25.315 11.9116 25.4935 12.09C25.6719 12.2685 25.9139 12.3687 26.1663 12.3687Z" fill="white"/>
</svg>
