<svg width="31" height="31" viewBox="0 0 31 31" fill="none" xmlns="http://www.w3.org/2000/svg">
<path d="M27.5953 27.1195H24.2648V3.33047H25.6922C25.8184 3.33047 25.9394 3.28034 26.0286 3.19112C26.1178 3.10189 26.168 2.98087 26.168 2.85469C26.168 2.7285 26.1178 2.60749 26.0286 2.51826C25.9394 2.42903 25.8184 2.37891 25.6922 2.37891H4.75781C4.63163 2.37891 4.51061 2.42903 4.42138 2.51826C4.33216 2.60749 4.28203 2.7285 4.28203 2.85469C4.28203 2.98087 4.33216 3.10189 4.42138 3.19112C4.51061 3.28034 4.63163 3.33047 4.75781 3.33047H6.18516V27.1195H2.85469C2.7285 27.1195 2.60749 27.1697 2.51826 27.2589C2.42903 27.3481 2.37891 27.4691 2.37891 27.5953C2.37891 27.7215 2.42903 27.8425 2.51826 27.9317C2.60749 28.021 2.7285 28.0711 2.85469 28.0711H27.5953C27.7215 28.0711 27.8425 28.021 27.9317 27.9317C28.021 27.8425 28.0711 27.7215 28.0711 27.5953C28.0711 27.4691 28.021 27.3481 27.9317 27.2589C27.8425 27.1697 27.7215 27.1195 27.5953 27.1195ZM7.13672 3.33047H23.3133V27.1195H18.5555V21.8859C18.5555 21.7598 18.5053 21.6387 18.4161 21.5495C18.3269 21.4603 18.2059 21.4102 18.0797 21.4102H12.3703C12.2441 21.4102 12.1231 21.4603 12.0339 21.5495C11.9447 21.6387 11.8945 21.7598 11.8945 21.8859V27.1195H7.13672V3.33047ZM17.6039 27.1195H12.8461V22.3617H17.6039V27.1195ZM10.943 7.6125C10.943 7.48632 10.9931 7.3653 11.0823 7.27607C11.1715 7.18685 11.2926 7.13672 11.4187 7.13672H13.3219C13.4481 7.13672 13.5691 7.18685 13.6583 7.27607C13.7475 7.3653 13.7977 7.48632 13.7977 7.6125C13.7977 7.73869 13.7475 7.8597 13.6583 7.94893C13.5691 8.03816 13.4481 8.08828 13.3219 8.08828H11.4187C11.2926 8.08828 11.1715 8.03816 11.0823 7.94893C10.9931 7.8597 10.943 7.73869 10.943 7.6125ZM16.6523 7.6125C16.6523 7.48632 16.7025 7.3653 16.7917 7.27607C16.8809 7.18685 17.0019 7.13672 17.1281 7.13672H19.0312C19.1574 7.13672 19.2785 7.18685 19.3677 7.27607C19.4569 7.3653 19.507 7.48632 19.507 7.6125C19.507 7.73869 19.4569 7.8597 19.3677 7.94893C19.2785 8.03816 19.1574 8.08828 19.0312 8.08828H17.1281C17.0019 8.08828 16.8809 8.03816 16.7917 7.94893C16.7025 7.8597 16.6523 7.73869 16.6523 7.6125ZM10.943 12.3703C10.943 12.2441 10.9931 12.1231 11.0823 12.0339C11.1715 11.9447 11.2926 11.8945 11.4187 11.8945H13.3219C13.4481 11.8945 13.5691 11.9447 13.6583 12.0339C13.7475 12.1231 13.7977 12.2441 13.7977 12.3703C13.7977 12.4965 13.7475 12.6175 13.6583 12.7067C13.5691 12.796 13.4481 12.8461 13.3219 12.8461H11.4187C11.2926 12.8461 11.1715 12.796 11.0823 12.7067C10.9931 12.6175 10.943 12.4965 10.943 12.3703ZM16.6523 12.3703C16.6523 12.2441 16.7025 12.1231 16.7917 12.0339C16.8809 11.9447 17.0019 11.8945 17.1281 11.8945H19.0312C19.1574 11.8945 19.2785 11.9447 19.3677 12.0339C19.4569 12.1231 19.507 12.2441 19.507 12.3703C19.507 12.4965 19.4569 12.6175 19.3677 12.7067C19.2785 12.796 19.1574 12.8461 19.0312 12.8461H17.1281C17.0019 12.8461 16.8809 12.796 16.7917 12.7067C16.7025 12.6175 16.6523 12.4965 16.6523 12.3703ZM11.4187 17.6039C11.2926 17.6039 11.1715 17.5538 11.0823 17.4646C10.9931 17.3753 10.943 17.2543 10.943 17.1281C10.943 17.0019 10.9931 16.8809 11.0823 16.7917C11.1715 16.7025 11.2926 16.6523 11.4187 16.6523H13.3219C13.4481 16.6523 13.5691 16.7025 13.6583 16.7917C13.7475 16.8809 13.7977 17.0019 13.7977 17.1281C13.7977 17.2543 13.7475 17.3753 13.6583 17.4646C13.5691 17.5538 13.4481 17.6039 13.3219 17.6039H11.4187ZM16.6523 17.1281C16.6523 17.0019 16.7025 16.8809 16.7917 16.7917C16.8809 16.7025 17.0019 16.6523 17.1281 16.6523H19.0312C19.1574 16.6523 19.2785 16.7025 19.3677 16.7917C19.4569 16.8809 19.507 17.0019 19.507 17.1281C19.507 17.2543 19.4569 17.3753 19.3677 17.4646C19.2785 17.5538 19.1574 17.6039 19.0312 17.6039H17.1281C17.0019 17.6039 16.8809 17.5538 16.7917 17.4646C16.7025 17.3753 16.6523 17.2543 16.6523 17.1281Z" fill="white"/>
</svg>
